<svg width="193" height="24" viewBox="0 0 193 24" fill="none" xmlns="http://www.w3.org/2000/svg">
    <path d="M0 11.9598V11.9158C0 7.39979 3.4167 3.69507 8.3138 3.69507C11.2991 3.69507 13.1423 4.69212 14.5982 6.14859L12.3678 8.71452C11.1128 7.60017 9.90695 6.92081 8.28929 6.92081C5.60299 6.92081 3.6667 9.14462 3.6667 11.8718V11.9158C3.6667 14.6431 5.55887 16.9108 8.28929 16.9108C10.1128 16.9108 11.2256 16.207 12.4805 15.0487L14.7109 17.297C13.0687 19.0467 11.2697 20.1366 8.17654 20.1366C3.48532 20.1366 0 16.5247 0 11.9598Z" fill="white"/>
    <path d="M40.8127 3.96973H44.0432L51.5138 13.7545V3.96973H54.9746V19.8638H51.9942L44.2736 9.7614V19.8638H40.8127V3.96973Z" fill="white"/>
    <path d="M60.2944 11.9598V11.9158C60.2944 7.3949 63.7111 3.69507 68.6082 3.69507C71.5936 3.69507 73.4367 4.69212 74.8926 6.14859L72.6622 8.71452C71.4073 7.60017 70.2014 6.92081 68.5837 6.92081C65.8974 6.92081 63.9611 9.14462 63.9611 11.8718V11.9158C63.9611 14.6431 65.8533 16.9108 68.5837 16.9108C70.4073 16.9108 71.52 16.207 72.7749 15.0487L75.0053 17.297C73.3632 19.0467 71.5641 20.1366 68.471 20.1366C63.7798 20.1366 60.2944 16.5247 60.2944 11.9647" fill="white"/>
    <path d="M115.933 11.692C117.663 11.692 118.619 10.8073 118.619 9.44372V9.39973C118.619 7.87972 117.594 7.12705 115.864 7.12705H112.379V11.692H115.933ZM108.869 3.96973H116.158C118.183 3.96973 119.732 4.51224 120.805 5.5826C121.717 6.49167 122.173 7.694 122.173 9.21401V9.25799C122.173 11.8239 120.786 13.4368 118.756 14.1846L122.648 19.859H118.55L115.134 14.7711H112.379V19.859H108.874V3.96973H108.869Z" fill="white"/>
    <path d="M131.04 7.12705V16.7065H133.751C136.599 16.7065 138.555 14.776 138.555 11.9608V11.9168C138.555 9.10159 136.594 7.12705 133.751 7.12705H131.04ZM127.535 3.96973H133.751C138.761 3.96973 142.222 7.40075 142.222 11.8728V11.9168C142.222 16.3888 138.761 19.8638 133.751 19.8638H127.535V3.96973Z" fill="white"/>
    <path d="M151.208 3.96973H147.703V19.8638H151.208V3.96973Z" fill="white"/>
    <path d="M157.143 13.0507V3.96973H160.648V12.9627C160.648 15.5726 161.923 16.8923 164.089 16.8923C166.256 16.8923 167.531 15.6215 167.531 13.08V3.96973H171.036V12.9383C171.036 17.7525 168.325 20.1131 164.045 20.1131C159.766 20.1131 157.143 17.7525 157.143 13.0507Z" fill="white"/>
    <path d="M176.809 3.96973H180.588L184.779 10.69L188.966 3.96973H192.75V19.8638H189.265V9.4877L184.779 16.2764H184.686L180.245 9.55613V19.8638H176.809V3.96973Z" fill="white"/>
    <path d="M82.7647 11.9939C82.7647 16.5979 86.5294 20.3271 91.1814 20.3271C92.4265 20.3271 93.6079 20.0485 94.6717 19.5695V23.4795C93.5687 23.807 92.3971 23.9878 91.1814 23.9878C84.4951 23.9878 79.0735 18.6213 79.0735 11.9939C79.0735 5.36647 84.4951 0 91.1863 0C92.402 0 93.5687 0.180837 94.6766 0.508299V4.41829C93.6128 3.93443 92.4314 3.66073 91.1863 3.66073C86.5392 3.66073 82.7696 7.38989 82.7696 11.9939H82.7647ZM91.1814 17.072C88.3481 17.072 86.049 14.7993 86.049 11.989C86.049 9.17871 88.3481 6.90603 91.1814 6.90603C94.0148 6.90603 96.3138 9.1836 96.3138 11.989C96.3138 14.7944 94.0148 17.072 91.1814 17.072ZM102.157 17.072H97.8433C98.9364 15.6644 99.5982 13.9098 99.5982 11.9939C99.5982 10.078 98.9364 8.31851 97.8384 6.91091H102.152C102.883 8.45536 103.294 10.1758 103.294 11.9939C103.294 13.8121 102.883 15.5324 102.152 17.072" fill="white"/>
    <path d="M27.0394 17.0862C24.1865 17.0862 21.8727 14.7842 21.8727 11.9348C21.8727 9.08542 24.1865 6.7883 27.0394 6.7883C29.8924 6.7883 32.2061 9.09031 32.2061 11.9348C32.2061 14.7793 29.8924 17.0862 27.0394 17.0862ZM27.0394 3.76294C22.51 3.76294 18.8384 7.42367 18.8384 11.9397C18.8384 16.4558 22.51 20.1165 27.0394 20.1165C31.5689 20.1165 35.2405 16.4558 35.2405 11.9397C35.2405 7.42367 31.5689 3.76294 27.0394 3.76294Z" fill="white"/>
    <path d="M27.0389 6.83698C24.2153 6.83698 21.9212 9.12432 21.9212 11.9346C21.9212 14.7449 24.2153 17.0372 27.0389 17.0372C29.8624 17.0372 32.1566 14.7498 32.1566 11.9346C32.1566 9.11944 29.8624 6.83698 27.0389 6.83698ZM27.0389 17.1349C24.1614 17.1349 21.8232 14.8036 21.8232 11.9346C21.8232 9.06568 24.1614 6.73923 27.0389 6.73923C29.9164 6.73923 32.2546 9.07056 32.2546 11.9346C32.2546 14.7987 29.9164 17.1349 27.0389 17.1349ZM27.0389 3.81162C22.5438 3.81162 18.8869 7.45769 18.8869 11.9395C18.8869 16.4213 22.5438 20.0674 27.0389 20.0674C31.534 20.0674 35.1909 16.4213 35.1909 11.9395C35.1909 7.45769 31.534 3.81162 27.0389 3.81162ZM27.0389 20.1603C22.4898 20.1603 18.7888 16.4702 18.7888 11.9346C18.7888 7.39904 22.4898 3.70898 27.0389 3.70898C31.5879 3.70898 35.289 7.39904 35.289 11.9346C35.289 16.4702 31.5879 20.1603 27.0389 20.1603Z" fill="white"/>
</svg>
