<svg width="104" height="104" viewBox="0 0 104 104" fill="none" xmlns="http://www.w3.org/2000/svg">
<g clip-path="url(#clip0_3067_519)">
<path d="M99.1103 74.0219H80.5942C85.3017 67.9173 88.1262 60.2992 88.1262 52.005C88.1262 43.7109 85.2915 36.0625 80.5739 29.9579H99.1002C102.238 36.6477 104 44.1246 104 52.005C104 59.8855 102.238 67.3422 99.1103 74.0219ZM51.9949 74.0219C39.8263 74.0219 29.9558 64.1537 29.9558 51.995C29.9558 39.8362 39.8263 29.9579 51.9949 29.9579C64.1635 29.9579 74.0341 39.8261 74.0341 51.995C74.0341 64.1638 64.1737 74.0219 51.9949 74.0219ZM15.8536 52.005C15.8536 71.9635 32.0312 88.1382 51.9949 88.1382C57.3503 88.1382 62.4121 86.9374 66.988 84.8487V101.8C62.24 103.223 57.2187 104 52.0051 104C23.2843 104 0 80.7218 0 52.005C0 23.2883 23.2742 0 51.9949 0C57.2086 0 62.2299 0.776948 66.9779 2.19967V19.1513C62.402 17.0626 57.3402 15.8618 51.9848 15.8618C32.0311 15.8618 15.8435 32.0365 15.8435 51.995L15.8536 52.005Z" fill="#2667FF"/>
</g>
<defs>
<clipPath id="clip0_3067_519">
<rect width="104" height="104" fill="white"/>
</clipPath>
</defs>
</svg>
