<svg width="301" height="265" viewBox="0 0 301 265" fill="none" xmlns="http://www.w3.org/2000/svg">
<g clip-path="url(#clip0_4115_14251)">
<rect width="301" height="264.012" rx="20" fill="#F2F2F2"/>
<line x1="31.35" y1="-1.5299e-08" x2="31.35" y2="264" stroke="#2667FF" stroke-opacity="0.4" stroke-width="0.7"/>
<line x1="302" y1="30.35" x2="1" y2="30.35" stroke="#2667FF" stroke-opacity="0.4" stroke-width="0.7"/>
<line x1="302" y1="234.35" x2="1" y2="234.35" stroke="#2667FF" stroke-opacity="0.4" stroke-width="0.7"/>
<line x1="272.35" y1="-1.31991e-08" x2="272.35" y2="264" stroke="#2667FF" stroke-opacity="0.4" stroke-width="0.7"/>
<rect x="57" y="81" width="156" height="101" rx="8" fill="#2667FF"/>
<g clip-path="url(#clip1_4115_14251)">
<path d="M69.5 101C69.5 101.985 69.694 102.96 70.0709 103.87C70.4478 104.78 71.0003 105.607 71.6967 106.303C72.3931 107 73.2199 107.552 74.1299 107.929C75.0398 108.306 76.0151 108.5 77 108.5C77.9849 108.5 78.9602 108.306 79.8701 107.929C80.7801 107.552 81.6069 107 82.3033 106.303C82.9997 105.607 83.5522 104.78 83.9291 103.87C84.306 102.96 84.5 101.985 84.5 101C84.5 99.0109 83.7098 97.1032 82.3033 95.6967C80.8968 94.2902 78.9891 93.5 77 93.5C75.0109 93.5 73.1032 94.2902 71.6967 95.6967C70.2902 97.1032 69.5 99.0109 69.5 101Z" stroke="#F2F2F2" stroke-width="1.05181" stroke-linecap="round" stroke-linejoin="round"/>
<path d="M70 98.5H84" stroke="#F2F2F2" stroke-width="1.05181" stroke-linecap="round" stroke-linejoin="round"/>
<path d="M70 103.5H84" stroke="#F2F2F2" stroke-width="1.05181" stroke-linecap="round" stroke-linejoin="round"/>
<path d="M76.5832 93.5C75.1793 95.7497 74.4351 98.3482 74.4351 101C74.4351 103.652 75.1793 106.25 76.5832 108.5" stroke="#F2F2F2" stroke-width="1.05181" stroke-linecap="round" stroke-linejoin="round"/>
<path d="M77.4167 93.5C78.8206 95.7497 79.5649 98.3482 79.5649 101C79.5649 103.652 78.8206 106.25 77.4167 108.5" stroke="#F2F2F2" stroke-width="1.05181" stroke-linecap="round" stroke-linejoin="round"/>
</g>
<path opacity="0.2" d="M139.228 65.5H236.524C240.667 65.5 244.024 68.8579 244.024 73V191C244.024 195.142 240.667 198.5 236.524 198.5H91.834C86.5237 198.5 82.8959 193.133 84.875 188.205L132.268 70.2051C133.409 67.3629 136.165 65.5001 139.228 65.5Z" fill="#2667FF" stroke="#F2F2F2"/>
<path fill-rule="evenodd" clip-rule="evenodd" d="M168.642 135.902C171.016 135.902 172.941 137.826 172.941 140.201C172.941 142.575 171.016 144.5 168.642 144.5C166.498 144.5 164.722 142.931 164.396 140.88H157.5C157.175 142.931 155.399 144.5 153.255 144.5C150.881 144.5 148.956 142.575 148.956 140.201C148.956 137.826 150.881 135.902 153.255 135.902C155.399 135.902 157.175 137.47 157.5 139.522H164.396C164.722 137.47 166.498 135.902 168.642 135.902ZM153.255 137.259C151.631 137.259 150.314 138.576 150.314 140.201C150.314 141.825 151.631 143.142 153.255 143.142C154.88 143.142 156.197 141.825 156.197 140.201C156.197 138.576 154.88 137.259 153.255 137.259ZM168.642 137.259C167.017 137.259 165.7 138.576 165.7 140.201C165.7 141.825 167.017 143.142 168.642 143.142C170.266 143.142 171.583 141.825 171.583 140.201C171.583 138.576 170.266 137.259 168.642 137.259Z" fill="#F2F2F2"/>
<path fill-rule="evenodd" clip-rule="evenodd" d="M165.287 119.964C166.024 119.228 167.258 119.39 167.779 120.292L173.52 130.236H178.824V131.594H142.62V130.236H148.373L154.11 120.293C154.63 119.391 155.865 119.228 156.602 119.964L160.784 124.147C160.873 124.235 161.016 124.235 161.104 124.147L165.287 119.964ZM166.603 120.971C166.529 120.842 166.352 120.819 166.247 120.924L162.064 125.107C161.446 125.725 160.443 125.725 159.825 125.107L155.642 120.924C155.537 120.819 155.36 120.842 155.286 120.971L149.94 130.236H171.952L166.603 120.971Z" fill="#F2F2F2"/>
</g>
<defs>
<clipPath id="clip0_4115_14251">
<rect width="301" height="264.012" rx="20" fill="white"/>
</clipPath>
<clipPath id="clip1_4115_14251">
<rect width="20" height="20" fill="white" transform="translate(67 91)"/>
</clipPath>
</defs>
</svg>
