<svg width="302" height="265" viewBox="0 0 302 265" fill="none" xmlns="http://www.w3.org/2000/svg">
<g clip-path="url(#clip0_4115_14287)">
<rect width="302" height="264.012" rx="20" fill="#F2F2F2"/>
<line x1="31.35" y1="-1.5299e-08" x2="31.35" y2="264" stroke="#2667FF" stroke-opacity="0.4" stroke-width="0.7"/>
<line x1="303" y1="30.35" x2="1" y2="30.35" stroke="#2667FF" stroke-opacity="0.4" stroke-width="0.7"/>
<line x1="303" y1="234.35" x2="1" y2="234.35" stroke="#2667FF" stroke-opacity="0.4" stroke-width="0.7"/>
<line x1="273.35" y1="-1.31991e-08" x2="273.35" y2="264" stroke="#2667FF" stroke-opacity="0.4" stroke-width="0.7"/>
<rect x="104.797" y="99.8672" width="162.611" height="95.1327" rx="8" fill="#ACCBFA"/>
<rect x="87.0974" y="84.3804" width="162.611" height="95.1327" rx="8" fill="#69A4FF"/>
<path d="M69.3982 78C69.3982 73.5817 72.9799 70 77.3982 70H224.009C228.427 70 232.009 73.5817 232.009 78V156.027C232.009 160.445 228.427 164.027 224.009 164.027H77.3982C72.9799 164.027 69.3982 160.445 69.3982 156.027V78Z" fill="#2667FF"/>
<g clip-path="url(#clip1_4115_14287)">
<path d="M204.63 89.9114C204.63 90.892 204.824 91.8629 205.199 92.7688C205.574 93.6747 206.124 94.4979 206.817 95.1912C207.511 95.8846 208.334 96.4346 209.24 96.8098C210.146 97.1851 211.117 97.3782 212.097 97.3782C213.078 97.3782 214.049 97.1851 214.955 96.8098C215.861 96.4346 216.684 95.8846 217.377 95.1912C218.07 94.4979 218.62 93.6747 218.996 92.7688C219.371 91.8629 219.564 90.892 219.564 89.9114C219.564 87.9311 218.777 86.0319 217.377 84.6316C215.977 83.2313 214.078 82.4446 212.097 82.4446C210.117 82.4446 208.218 83.2313 206.817 84.6316C205.417 86.0319 204.63 87.9311 204.63 89.9114Z" stroke="#F2F2F2" stroke-width="1.04716" stroke-linecap="round" stroke-linejoin="round"/>
<path d="M205.128 87.4224H219.066" stroke="#F2F2F2" stroke-width="1.04716" stroke-linecap="round" stroke-linejoin="round"/>
<path d="M205.128 92.4001H219.066" stroke="#F2F2F2" stroke-width="1.04716" stroke-linecap="round" stroke-linejoin="round"/>
<path d="M211.683 82.4446C210.285 84.6843 209.544 87.2713 209.544 89.9114C209.544 92.5514 210.285 95.1385 211.683 97.3782" stroke="#F2F2F2" stroke-width="1.04716" stroke-linecap="round" stroke-linejoin="round"/>
<path d="M212.512 82.4446C213.91 84.6843 214.651 87.2713 214.651 89.9114C214.651 92.5514 213.91 95.1385 212.512 97.3782" stroke="#F2F2F2" stroke-width="1.04716" stroke-linecap="round" stroke-linejoin="round"/>
</g>
<path d="M161.622 154.539C161.159 154.539 160.728 154.454 160.329 154.284C159.937 154.114 159.594 153.88 159.301 153.581C159.013 153.276 158.788 152.918 158.624 152.508C158.459 152.098 158.377 151.646 158.377 151.154C158.377 150.667 158.457 150.219 158.615 149.809C158.779 149.392 159.008 149.035 159.301 148.736C159.594 148.431 159.937 148.197 160.329 148.032C160.722 147.862 161.153 147.777 161.622 147.777C162.085 147.777 162.498 147.857 162.862 148.015C163.231 148.173 163.542 148.381 163.794 148.639C164.046 148.891 164.228 149.167 164.339 149.466L163.407 149.905C163.266 149.554 163.041 149.269 162.73 149.052C162.425 148.83 162.056 148.718 161.622 148.718C161.188 148.718 160.804 148.821 160.47 149.026C160.136 149.231 159.875 149.515 159.688 149.879C159.506 150.242 159.415 150.667 159.415 151.154C159.415 151.64 159.506 152.068 159.688 152.438C159.875 152.801 160.136 153.085 160.47 153.291C160.804 153.49 161.188 153.589 161.622 153.589C162.056 153.589 162.425 153.481 162.73 153.264C163.041 153.047 163.266 152.763 163.407 152.411L164.339 152.851C164.228 153.144 164.046 153.419 163.794 153.677C163.542 153.935 163.231 154.143 162.862 154.302C162.498 154.46 162.085 154.539 161.622 154.539ZM167.518 154.539C167.061 154.539 166.642 154.431 166.261 154.214C165.886 153.997 165.587 153.701 165.364 153.326C165.141 152.951 165.03 152.526 165.03 152.051C165.03 151.57 165.141 151.145 165.364 150.776C165.587 150.401 165.886 150.108 166.261 149.896C166.636 149.68 167.055 149.571 167.518 149.571C167.987 149.571 168.406 149.68 168.776 149.896C169.151 150.108 169.447 150.401 169.664 150.776C169.886 151.145 169.998 151.57 169.998 152.051C169.998 152.531 169.886 152.959 169.664 153.334C169.441 153.71 169.142 154.006 168.767 154.223C168.392 154.434 167.975 154.539 167.518 154.539ZM167.518 153.616C167.8 153.616 168.049 153.548 168.266 153.414C168.483 153.279 168.653 153.094 168.776 152.86C168.905 152.619 168.969 152.35 168.969 152.051C168.969 151.752 168.905 151.485 168.776 151.251C168.653 151.016 168.483 150.831 168.266 150.697C168.049 150.562 167.8 150.494 167.518 150.494C167.243 150.494 166.994 150.562 166.771 150.697C166.554 150.831 166.381 151.016 166.252 151.251C166.129 151.485 166.067 151.752 166.067 152.051C166.067 152.35 166.129 152.619 166.252 152.86C166.381 153.094 166.554 153.279 166.771 153.414C166.994 153.548 167.243 153.616 167.518 153.616ZM170.968 154.434V149.677H171.917V150.609L171.803 150.486C171.92 150.187 172.108 149.961 172.366 149.809C172.624 149.65 172.923 149.571 173.263 149.571C173.614 149.571 173.925 149.647 174.195 149.8C174.464 149.952 174.675 150.163 174.828 150.433C174.98 150.703 175.057 151.013 175.057 151.365V154.434H174.072V151.629C174.072 151.388 174.028 151.186 173.94 151.022C173.852 150.852 173.726 150.723 173.562 150.635C173.403 150.541 173.222 150.494 173.017 150.494C172.811 150.494 172.627 150.541 172.463 150.635C172.304 150.723 172.181 150.852 172.093 151.022C172.005 151.192 171.961 151.394 171.961 151.629V154.434H170.968ZM178.38 154.539C177.905 154.539 177.483 154.431 177.113 154.214C176.75 153.991 176.46 153.692 176.243 153.317C176.032 152.942 175.926 152.517 175.926 152.042C175.926 151.573 176.032 151.151 176.243 150.776C176.454 150.401 176.744 150.108 177.113 149.896C177.483 149.68 177.905 149.571 178.38 149.571C178.702 149.571 179.004 149.63 179.285 149.747C179.567 149.858 179.81 150.014 180.015 150.213C180.226 150.412 180.381 150.644 180.481 150.908L179.611 151.312C179.511 151.066 179.35 150.87 179.127 150.723C178.91 150.571 178.661 150.494 178.38 150.494C178.11 150.494 177.867 150.562 177.65 150.697C177.439 150.826 177.272 151.01 177.149 151.251C177.026 151.485 176.964 151.752 176.964 152.051C176.964 152.35 177.026 152.619 177.149 152.86C177.272 153.094 177.439 153.279 177.65 153.414C177.867 153.548 178.11 153.616 178.38 153.616C178.667 153.616 178.916 153.543 179.127 153.396C179.344 153.244 179.505 153.041 179.611 152.789L180.481 153.203C180.387 153.455 180.235 153.683 180.024 153.888C179.819 154.088 179.575 154.246 179.294 154.363C179.013 154.48 178.708 154.539 178.38 154.539ZM183.747 154.539C183.29 154.539 182.871 154.431 182.49 154.214C182.115 153.997 181.816 153.701 181.593 153.326C181.37 152.951 181.259 152.526 181.259 152.051C181.259 151.57 181.37 151.145 181.593 150.776C181.816 150.401 182.115 150.108 182.49 149.896C182.865 149.68 183.284 149.571 183.747 149.571C184.216 149.571 184.635 149.68 185.005 149.896C185.38 150.108 185.676 150.401 185.893 150.776C186.115 151.145 186.227 151.57 186.227 152.051C186.227 152.531 186.115 152.959 185.893 153.334C185.67 153.71 185.371 154.006 184.996 154.223C184.621 154.434 184.204 154.539 183.747 154.539ZM183.747 153.616C184.029 153.616 184.278 153.548 184.495 153.414C184.711 153.279 184.881 153.094 185.005 152.86C185.134 152.619 185.198 152.35 185.198 152.051C185.198 151.752 185.134 151.485 185.005 151.251C184.881 151.016 184.711 150.831 184.495 150.697C184.278 150.562 184.029 150.494 183.747 150.494C183.472 150.494 183.223 150.562 183 150.697C182.783 150.831 182.61 151.016 182.481 151.251C182.358 151.485 182.296 151.752 182.296 152.051C182.296 152.35 182.358 152.619 182.481 152.86C182.61 153.094 182.783 153.279 183 153.414C183.223 153.548 183.472 153.616 183.747 153.616ZM187.197 154.434V149.677H188.146V150.635L188.058 150.494C188.164 150.184 188.334 149.961 188.568 149.826C188.803 149.685 189.084 149.615 189.413 149.615H189.703V150.521H189.289C188.961 150.521 188.695 150.623 188.489 150.829C188.29 151.028 188.19 151.315 188.19 151.69V154.434H187.197ZM192.581 154.539C192.123 154.539 191.713 154.431 191.35 154.214C190.992 153.991 190.708 153.692 190.497 153.317C190.292 152.942 190.189 152.52 190.189 152.051C190.189 151.582 190.295 151.16 190.506 150.785C190.717 150.409 191.001 150.113 191.358 149.896C191.716 149.68 192.121 149.571 192.572 149.571C192.953 149.571 193.29 149.647 193.583 149.8C193.876 149.952 194.108 150.163 194.278 150.433L194.128 150.661V147.777H195.113V154.434H194.172V153.466L194.287 153.651C194.122 153.938 193.888 154.158 193.583 154.31C193.278 154.463 192.944 154.539 192.581 154.539ZM192.677 153.616C192.953 153.616 193.199 153.548 193.416 153.414C193.639 153.279 193.812 153.094 193.935 152.86C194.064 152.619 194.128 152.35 194.128 152.051C194.128 151.752 194.064 151.485 193.935 151.251C193.812 151.016 193.639 150.831 193.416 150.697C193.199 150.562 192.953 150.494 192.677 150.494C192.402 150.494 192.153 150.562 191.93 150.697C191.707 150.831 191.534 151.016 191.411 151.251C191.288 151.485 191.227 151.752 191.227 152.051C191.227 152.35 191.288 152.619 191.411 152.86C191.534 153.094 191.704 153.279 191.921 153.414C192.144 153.548 192.396 153.616 192.677 153.616ZM196.273 154.434V149.677H197.267V154.434H196.273ZM196.273 149.026V147.883H197.267V149.026H196.273ZM200.125 154.539C199.768 154.539 199.454 154.46 199.184 154.302C198.915 154.138 198.704 153.912 198.551 153.625C198.405 153.332 198.332 152.995 198.332 152.613V149.677H199.325V152.526C199.325 152.742 199.369 152.933 199.457 153.097C199.545 153.261 199.668 153.39 199.826 153.484C199.985 153.572 200.166 153.616 200.371 153.616C200.583 153.616 200.767 153.569 200.925 153.475C201.084 153.381 201.207 153.249 201.295 153.079C201.389 152.91 201.435 152.71 201.435 152.482V149.677H202.42V154.434H201.479V153.502L201.585 153.625C201.474 153.918 201.289 154.143 201.031 154.302C200.773 154.46 200.471 154.539 200.125 154.539ZM203.58 154.434V149.677H204.53V150.705L204.407 150.547C204.506 150.225 204.688 149.981 204.952 149.817C205.216 149.653 205.518 149.571 205.858 149.571C206.239 149.571 206.576 149.674 206.869 149.879C207.168 150.078 207.367 150.345 207.467 150.679L207.185 150.705C207.326 150.324 207.54 150.04 207.827 149.853C208.12 149.665 208.454 149.571 208.83 149.571C209.158 149.571 209.454 149.647 209.718 149.8C209.987 149.952 210.201 150.163 210.36 150.433C210.518 150.703 210.597 151.01 210.597 151.356V154.434H209.603V151.629C209.603 151.388 209.559 151.186 209.472 151.022C209.389 150.852 209.272 150.723 209.12 150.635C208.973 150.541 208.8 150.494 208.601 150.494C208.402 150.494 208.226 150.541 208.073 150.635C207.921 150.723 207.801 150.852 207.713 151.022C207.625 151.192 207.581 151.394 207.581 151.629V154.434H206.596V151.629C206.596 151.388 206.552 151.186 206.464 151.022C206.382 150.852 206.265 150.723 206.113 150.635C205.966 150.541 205.79 150.494 205.585 150.494C205.386 150.494 205.21 150.541 205.058 150.635C204.905 150.723 204.785 150.852 204.697 151.022C204.615 151.192 204.574 151.394 204.574 151.629V154.434H203.58ZM213.294 154.434V147.883H214.332V154.434H213.294ZM215.69 154.434V147.883H217.835C218.515 147.883 219.104 148.021 219.603 148.296C220.107 148.566 220.497 148.947 220.772 149.439C221.048 149.932 221.185 150.503 221.185 151.154C221.185 151.799 221.048 152.37 220.772 152.868C220.497 153.361 220.107 153.745 219.603 154.02C219.104 154.296 218.515 154.434 217.835 154.434H215.69ZM216.727 153.51H217.853C218.316 153.51 218.718 153.414 219.058 153.22C219.403 153.027 219.67 152.754 219.858 152.402C220.045 152.051 220.139 151.635 220.139 151.154C220.139 150.673 220.042 150.26 219.849 149.914C219.661 149.562 219.398 149.29 219.058 149.096C218.718 148.903 218.316 148.806 217.853 148.806H216.727V153.51Z" fill="white"/>
<circle opacity="0.2" cx="69.9511" cy="150.199" r="35.4513" fill="#2667FF" stroke="#F2F2F2"/>
<path d="M79.4281 135.405C79.9481 134.865 80.7948 134.865 81.3148 135.405L90.5158 144.956C91.0312 145.491 91.0312 146.355 90.5158 146.89L87.8209 149.687C87.4668 150.055 86.9614 150.171 86.5106 150.038C86.1174 151.492 85.25 152.907 84.431 154.046C83.9294 154.743 83.4293 155.36 83.0375 155.841C82.8506 156.07 82.692 156.264 82.5664 156.425L82.9067 156.763L83.0719 156.927L83.0952 156.949C83.1145 156.966 83.141 156.991 83.1728 157.021C83.2366 157.083 83.3239 157.172 83.4211 157.283C83.6131 157.504 83.8577 157.828 84.043 158.228C84.2287 158.629 84.3649 159.128 84.3057 159.681C84.2455 160.243 83.9892 160.806 83.4821 161.332C82.7628 162.078 81.7952 162.064 81.1109 161.926C81.2893 162.664 81.2586 163.64 80.4324 164.497C79.6089 165.352 78.6028 165.296 77.8462 165.052C77.9225 165.407 77.9527 165.807 77.8706 166.22C77.7639 166.755 77.4793 167.271 76.956 167.705C75.9455 168.544 74.9019 168.458 74.1348 168.161C74.1883 168.898 74.0088 169.802 73.1304 170.486C72.2252 171.191 71.3211 171.056 70.6927 170.758C70.3878 170.614 70.1427 170.43 69.9755 170.287C69.891 170.214 69.8233 170.15 69.776 170.102C69.7524 170.078 69.7332 170.058 69.7194 170.043C69.7127 170.035 69.7071 170.029 69.7028 170.025L69.7017 170.023L68.2118 168.478L67.8538 168.85C66.7894 169.954 65.0604 169.954 63.996 168.85C63.3744 168.204 63.1199 167.325 63.2278 166.486C62.4174 166.595 61.5693 166.331 60.9475 165.686C60.3259 165.04 60.0706 164.161 60.1782 163.322C59.3679 163.431 58.5196 163.166 57.8979 162.52C57.276 161.875 57.0217 160.995 57.1297 160.156C56.3189 160.265 55.4703 160 54.8483 159.354C53.7887 158.254 53.7887 156.475 54.8483 155.375L55.6187 154.574C55.5304 154.425 55.4217 154.231 55.2928 153.976C54.925 153.249 54.3709 152.013 53.5745 149.916C53.0671 150.209 52.4141 150.134 51.9838 149.687L49.2889 146.89C48.7734 146.355 48.7735 145.491 49.2889 144.956L58.4898 135.405C59.0099 134.865 59.8566 134.865 60.3766 135.405L63.0715 138.203C63.4564 138.602 63.553 139.184 63.363 139.677C65.3337 140.109 67.0817 140.778 68.3859 141.369C69.1397 141.71 69.7486 142.028 70.1706 142.26C70.2918 142.327 70.397 142.388 70.4866 142.439L71.6705 141.479C72.1615 141.02 73.0232 140.617 74.0328 140.326C74.7681 140.114 75.6195 139.951 76.5348 139.871C76.2308 139.345 76.2962 138.656 76.7332 138.203L79.4281 135.405ZM70.9034 165.686L69.0089 167.651L70.522 169.221L70.5331 169.232L70.5409 169.241L70.5453 169.247C70.5509 169.253 70.5612 169.263 70.5752 169.277C70.6033 169.306 70.6467 169.349 70.7038 169.397C70.82 169.497 70.982 169.615 71.1705 169.705C71.5292 169.875 71.9599 169.937 72.442 169.562C72.9851 169.139 73.0633 168.595 72.9874 168.083C72.9488 167.822 72.8703 167.585 72.799 167.411C72.7637 167.324 72.7306 167.256 72.7081 167.211C72.7073 167.209 72.7066 167.208 72.7059 167.206L71.0597 165.504C71.0098 165.566 70.9591 165.628 70.9034 165.686ZM70.0952 162.52C69.4755 161.877 68.4735 161.877 67.8538 162.52L64.8052 165.686C64.181 166.334 64.181 167.388 64.8052 168.035C65.4249 168.678 66.426 168.678 67.0456 168.035L70.0952 164.87C70.7194 164.222 70.7192 163.168 70.0952 162.52ZM54.4703 149.064C55.3472 151.406 55.9343 152.719 56.3005 153.442C56.3528 153.546 56.4027 153.636 56.4457 153.716L57.8979 152.209C58.9622 151.105 60.6913 151.105 61.7556 152.209C62.3771 152.855 62.6303 153.733 62.5227 154.572C63.3337 154.463 64.1831 154.729 64.8052 155.375C65.4266 156.02 65.6798 156.898 65.5724 157.737C66.3831 157.628 67.2317 157.894 67.8538 158.54C68.4753 159.185 68.7295 160.064 68.622 160.902C69.4327 160.793 70.2813 161.059 70.9034 161.705C71.6119 162.44 71.8428 163.479 71.604 164.415L73.5705 166.45L73.5805 166.46C73.5894 166.469 73.6046 166.484 73.6248 166.502C73.6657 166.54 73.7285 166.594 73.8089 166.656C73.972 166.783 74.199 166.936 74.464 167.049C74.9796 167.269 75.6 167.335 76.2399 166.804C76.5654 166.534 76.705 166.251 76.7576 165.987C76.8126 165.711 76.7806 165.411 76.6922 165.114C76.6042 164.818 76.4689 164.551 76.3519 164.353C76.2943 164.256 76.2426 164.179 76.2067 164.127C76.1917 164.106 76.1788 164.089 76.1701 164.078L72.3822 160.145L73.1903 159.329L76.986 163.269C76.9978 163.279 77.0154 163.293 77.037 163.31C77.0876 163.35 77.1634 163.408 77.2587 163.473C77.4521 163.606 77.7159 163.765 78.0092 163.882C78.6101 164.124 79.1788 164.144 79.6243 163.682C80.121 163.166 80.1275 162.614 79.9946 162.135C79.9261 161.888 79.8209 161.671 79.7307 161.513C79.6863 161.436 79.6469 161.375 79.6199 161.335C79.6111 161.322 79.6035 161.312 79.5977 161.304L75.4318 156.979L75.8353 156.571L76.2399 156.164L80.3681 160.45C80.4154 160.474 80.4856 160.509 80.5743 160.547C80.7543 160.625 81.0001 160.716 81.2694 160.776C81.8372 160.903 82.3443 160.859 82.6739 160.517C83.0236 160.153 83.1481 159.826 83.1772 159.554C83.2072 159.273 83.1412 158.993 83.0176 158.726C82.8933 158.458 82.7203 158.225 82.573 158.056C82.5007 157.973 82.4374 157.908 82.3935 157.865C82.3719 157.844 82.3551 157.829 82.3447 157.82C82.3395 157.815 82.3354 157.811 82.3336 157.81L82.317 157.796L82.3014 157.78L81.122 156.61L74.2235 149.761C73.401 149.625 72.7016 149.388 72.2026 149.179C72.0218 149.104 71.8669 149.03 71.7403 148.968C70.698 149.926 69.1395 150.821 67.5655 151.157C65.8165 151.531 63.8998 151.23 62.7733 149.36L62.5094 148.922L69.5221 143.223C69.1282 143.009 68.5865 142.729 67.9269 142.43C66.5397 141.802 64.6459 141.09 62.5349 140.692L54.4703 149.064ZM67.0456 159.355C66.4259 158.712 65.425 158.712 64.8052 159.355L61.7556 162.52C61.1315 163.168 61.1314 164.222 61.7556 164.87C62.3753 165.513 63.3763 165.513 63.996 164.87L67.0456 161.705C67.6698 161.057 67.6697 160.003 67.0456 159.355ZM63.996 156.19C63.3762 155.547 62.3753 155.546 61.7556 156.189L58.706 159.354C58.0817 160.002 58.0818 161.057 58.706 161.705C59.3258 162.348 60.3278 162.348 60.9475 161.705L63.996 158.54C64.6203 157.892 64.6203 156.838 63.996 156.19ZM60.9475 153.024C60.3278 152.381 59.3258 152.381 58.706 153.024L55.6564 156.189C55.0321 156.837 55.0321 157.892 55.6564 158.54C56.2761 159.183 57.2781 159.183 57.8979 158.54L60.9475 155.375C61.5717 154.727 61.5718 153.672 60.9475 153.024ZM77.5469 140.98C76.3533 141.001 75.2429 141.184 74.341 141.444C73.3571 141.727 72.6952 142.08 72.4165 142.353L72.3977 142.373L72.3766 142.388L64.0359 149.163C64.8319 150.105 66.0172 150.302 67.3338 150.021C68.8373 149.699 70.3586 148.77 71.2381 147.857L71.5496 147.534L71.9299 147.764H71.9321C71.9331 147.765 71.9347 147.767 71.9376 147.768C71.9438 147.772 71.9544 147.777 71.9687 147.785C71.9978 147.802 72.0438 147.827 72.1039 147.858C72.2243 147.921 72.4035 148.009 72.6316 148.104C73.0892 148.295 73.7354 148.514 74.4895 148.629C75.9899 148.858 77.8986 148.676 79.6454 147.045L80.0289 147.474L80.4114 147.902C78.9436 149.273 77.3645 149.775 75.9495 149.856L81.7494 155.613C81.8708 155.46 82.0124 155.285 82.1651 155.098C82.5568 154.617 83.0381 154.024 83.5175 153.357C84.4308 152.088 85.2795 150.629 85.5229 149.26L77.5469 140.98ZM56.7561 154.23L56.755 154.228L56.7528 154.226C56.7542 154.228 56.7552 154.229 56.7561 154.23ZM59.5685 136.22C59.4931 136.142 59.3734 136.142 59.298 136.22L50.097 145.77C50.0172 145.853 50.0173 145.991 50.097 146.074L52.7919 148.872C52.8673 148.95 52.987 148.95 53.0624 148.872L62.2633 139.322C62.3432 139.239 62.3431 139.101 62.2633 139.018L59.5685 136.22ZM80.5067 136.22C80.4313 136.142 80.3116 136.142 80.2362 136.22L77.5413 139.018C77.4616 139.101 77.4615 139.239 77.5413 139.322L86.7423 148.872C86.8177 148.95 86.9374 148.95 87.0128 148.872L89.7077 146.074C89.7874 145.991 89.7875 145.853 89.7077 145.77L80.5067 136.22Z" fill="white"/>
</g>
<defs>
<clipPath id="clip0_4115_14287">
<rect width="302" height="264.012" rx="20" fill="white"/>
</clipPath>
<clipPath id="clip1_4115_14287">
<rect width="19.9115" height="19.9115" fill="white" transform="translate(202.142 79.9556)"/>
</clipPath>
</defs>
</svg>
