<svg width="18" height="18" viewBox="0 0 18 18" fill="none" xmlns="http://www.w3.org/2000/svg">
<path d="M12.087 10.7826C11.914 10.7826 11.7481 10.8513 11.6258 10.9736C11.5035 11.0959 11.4348 11.2618 11.4348 11.4348C11.4348 11.6077 11.3661 11.7736 11.2438 11.8959C11.1215 12.0182 10.9556 12.0869 10.7826 12.0869H6.21739C6.04442 12.0869 5.87854 12.0182 5.75624 11.8959C5.63393 11.7736 5.56522 11.6077 5.56522 11.4348C5.56522 11.2618 5.49651 11.0959 5.3742 10.9736C5.25189 10.8513 5.08601 10.7826 4.91304 10.7826H1.65217C1.47921 10.7826 1.31332 10.8513 1.19102 10.9736C1.06871 11.0959 1 11.2618 1 11.4348V15.3478C1 15.5208 1.06871 15.6867 1.19102 15.809C1.31332 15.9313 1.47921 16 1.65217 16H15.3478C15.5208 16 15.6867 15.9313 15.809 15.809C15.9313 15.6867 16 15.5208 16 15.3478V11.4348C16 11.2618 15.9313 11.0959 15.809 10.9736C15.6867 10.8513 15.5208 10.7826 15.3478 10.7826H12.087Z" fill="white" stroke="black" stroke-width="1.8" stroke-linecap="round" stroke-linejoin="round"/>
<path d="M3.10413 15.6042V4.25636C3.10413 4.08339 3.17284 3.91751 3.29514 3.7952C3.41745 3.6729 3.58333 3.60419 3.7563 3.60419H10.9302C11.1032 3.60419 11.2691 3.6729 11.3914 3.7952C11.5137 3.91751 11.5824 4.08339 11.5824 4.25636V15.5695" fill="white"/>
<path d="M3.10413 15.6042V4.25636C3.10413 4.08339 3.17284 3.91751 3.29514 3.7952C3.41745 3.6729 3.58333 3.60419 3.7563 3.60419H10.9302C11.1032 3.60419 11.2691 3.6729 11.3914 3.7952C11.5137 3.91751 11.5824 4.08339 11.5824 4.25636V15.5695" stroke="black" stroke-width="1.8" stroke-linecap="round" stroke-linejoin="round"/>
<path d="M5.56519 14.6042L5.56519 2.65217C5.56519 2.47921 5.6339 2.31332 5.7562 2.19102C5.87851 2.06871 6.04439 2 6.21736 2H13.3913C13.5642 2 13.7301 2.06871 13.8524 2.19102C13.9747 2.31332 14.0434 2.47921 14.0434 2.65217V14.6042" fill="white"/>
<path d="M5.56519 14.6042L5.56519 2.65217C5.56519 2.47921 5.6339 2.31332 5.7562 2.19102C5.87851 2.06871 6.04439 2 6.21736 2H13.3913C13.5642 2 13.7301 2.06871 13.8524 2.19102C13.9747 2.31332 14.0434 2.47921 14.0434 2.65217V14.6042" stroke="black" stroke-width="1.8" stroke-linecap="round" stroke-linejoin="round"/>
<path d="M3.10413 15.6588V4.25636C3.10413 4.08339 3.17284 3.91751 3.29514 3.7952C3.41745 3.6729 3.58333 3.60419 3.7563 3.60419H10.9302C11.1032 3.60419 11.2691 3.6729 11.3914 3.7952C11.5137 3.91751 11.5824 4.08339 11.5824 4.25636V15.6588" fill="white"/>
<path d="M3.10413 15.6588V4.25636C3.10413 4.08339 3.17284 3.91751 3.29514 3.7952C3.41745 3.6729 3.58333 3.60419 3.7563 3.60419H10.9302C11.1032 3.60419 11.2691 3.6729 11.3914 3.7952C11.5137 3.91751 11.5824 4.08339 11.5824 4.25636V15.6588" stroke="black" stroke-width="0.5" stroke-linecap="round" stroke-linejoin="round"/>
<path d="M5.56519 14.6042L5.56519 2.65217C5.56519 2.47921 5.6339 2.31332 5.7562 2.19102C5.87851 2.06871 6.04439 2 6.21736 2H13.3913C13.5642 2 13.7301 2.06871 13.8524 2.19102C13.9747 2.31332 14.0434 2.47921 14.0434 2.65217V14.6042" fill="white"/>
<path d="M5.56519 14.6042L5.56519 2.65217C5.56519 2.47921 5.6339 2.31332 5.7562 2.19102C5.87851 2.06871 6.04439 2 6.21736 2H13.3913C13.5642 2 13.7301 2.06871 13.8524 2.19102C13.9747 2.31332 14.0434 2.47921 14.0434 2.65217V14.6042" stroke="black" stroke-width="0.5" stroke-linecap="round" stroke-linejoin="round"/>
<path d="M12.087 10.7826C11.914 10.7826 11.7481 10.8513 11.6258 10.9736C11.5035 11.0959 11.4348 11.2618 11.4348 11.4348C11.4348 11.6077 11.3661 11.7736 11.2438 11.8959C11.1215 12.0182 10.9556 12.0869 10.7826 12.0869H6.21739C6.04442 12.0869 5.87854 12.0182 5.75623 11.8959C5.63393 11.7736 5.56522 11.6077 5.56522 11.4348C5.56522 11.2618 5.49651 11.0959 5.3742 10.9736C5.25189 10.8513 5.08601 10.7826 4.91304 10.7826H1.65217C1.47921 10.7826 1.31332 10.8513 1.19102 10.9736C1.06871 11.0959 1 11.2618 1 11.4348V15.3478C1 15.5208 1.06871 15.6867 1.19102 15.809C1.31332 15.9313 1.47921 16 1.65217 16H15.3478C15.5208 16 15.6867 15.9313 15.809 15.809C15.9313 15.6867 16 15.5208 16 15.3478V11.4348C16 11.2618 15.9313 11.0959 15.809 10.9736C15.6867 10.8513 15.5208 10.7826 15.3478 10.7826H12.087Z" fill="white" stroke="black" stroke-width="0.5" stroke-linecap="round" stroke-linejoin="round"/>
<path d="M8.82605 4.60876H12.0869" stroke="black" stroke-width="0.5" stroke-linecap="round" stroke-linejoin="round"/>
<path d="M7.52173 6.56525H12.0869" stroke="black" stroke-width="0.5" stroke-linecap="round" stroke-linejoin="round"/>
<path d="M7.52173 8.52179H12.0869" stroke="black" stroke-width="0.5" stroke-linecap="round" stroke-linejoin="round"/>
</svg>
