<svg width="10" height="16" viewBox="0 0 10 16" fill="none" xmlns="http://www.w3.org/2000/svg">
<path d="M0.802083 15.5515C0.579861 15.3292 0.46875 15.0723 0.46875 14.7806C0.46875 14.489 0.579861 14.232 0.802083 14.0098L6.82292 7.98897L0.78125 1.9473C0.572917 1.73897 0.46875 1.48897 0.46875 1.1973C0.46875 0.905635 0.579861 0.64869 0.802083 0.426468C1.01042 0.218135 1.26389 0.113968 1.5625 0.113968C1.86111 0.113968 2.11458 0.218135 2.32292 0.426468L9.26042 7.36397C9.35764 7.46119 9.42708 7.56188 9.46875 7.66605C9.51042 7.77022 9.53125 7.87786 9.53125 7.98897C9.53125 8.10008 9.51042 8.20772 9.46875 8.31188C9.42708 8.41605 9.35764 8.51675 9.26042 8.61397L2.30208 15.5723C2.07986 15.7945 1.82639 15.8987 1.54167 15.8848C1.25694 15.8709 1.01042 15.7598 0.802083 15.5515Z" />
</svg>
