<svg width="16" height="16" viewBox="0 0 16 16" fill="none" xmlns="http://www.w3.org/2000/svg">
<path d="M8.7 0.699951C8.88333 0.883285 8.97917 1.11662 8.9875 1.39995C8.99583 1.68328 8.90833 1.91662 8.725 2.09995L3.825 6.99995H15C15.2833 6.99995 15.5208 7.09578 15.7125 7.28745C15.9042 7.47912 16 7.71662 16 7.99995C16 8.28328 15.9042 8.52078 15.7125 8.71245C15.5208 8.90412 15.2833 8.99995 15 8.99995H3.825L8.725 13.9C8.90833 14.0833 8.99583 14.3166 8.9875 14.6C8.97917 14.8833 8.88333 15.1166 8.7 15.3C8.51667 15.4833 8.28333 15.575 8 15.575C7.71667 15.575 7.48333 15.4833 7.3 15.3L0.7 8.69995C0.599999 8.61662 0.529167 8.51245 0.4875 8.38745C0.445833 8.26245 0.425 8.13328 0.425 7.99995C0.425 7.86662 0.445833 7.74162 0.4875 7.62495C0.529167 7.50828 0.599999 7.39995 0.7 7.29995L7.3 0.699951C7.48333 0.516618 7.71667 0.424951 8 0.424951C8.28333 0.424951 8.51667 0.516618 8.7 0.699951Z" fill="white"/>
</svg>
