<svg width="24" height="24" viewBox="0 0 24 24" fill="none" xmlns="http://www.w3.org/2000/svg">
<g clip-path="url(#clip0_605_3662)">
<mask id="mask0_605_3662" style="mask-type:alpha" maskUnits="userSpaceOnUse" x="0" y="0" width="24" height="24">
<rect x="24" y="24" width="24" height="24" transform="rotate(-180 24 24)" fill="#D9D9D9"/>
</mask>
<g mask="url(#mask0_605_3662)">
<path d="M12.7 4.70001C12.8833 4.88335 12.9792 5.11668 12.9875 5.40001C12.9958 5.68335 12.9083 5.91668 12.725 6.10001L7.825 11L19 11C19.2833 11 19.5208 11.0958 19.7125 11.2875C19.9042 11.4792 20 11.7167 20 12C20 12.2833 19.9042 12.5208 19.7125 12.7125C19.5208 12.9042 19.2833 13 19 13L7.825 13L12.725 17.9C12.9083 18.0833 12.9958 18.3167 12.9875 18.6C12.9792 18.8833 12.8833 19.1167 12.7 19.3C12.5167 19.4833 12.2833 19.575 12 19.575C11.7167 19.575 11.4833 19.4833 11.3 19.3L4.7 12.7C4.6 12.6167 4.52917 12.5125 4.4875 12.3875C4.44583 12.2625 4.425 12.1333 4.425 12C4.425 11.8667 4.44583 11.7417 4.4875 11.625C4.52917 11.5083 4.6 11.4 4.7 11.3L11.3 4.70001C11.4833 4.51668 11.7167 4.42501 12 4.42501C12.2833 4.42501 12.5167 4.51668 12.7 4.70001Z" fill="#4486AB"/>
</g>
</g>
<defs>
<clipPath id="clip0_605_3662">
<rect width="24" height="24" fill="white"/>
</clipPath>
</defs>
</svg>
