<svg viewBox="0 0 197 195" fill="none" xmlns="http://www.w3.org/2000/svg">
<g clip-path="url(#clip0)">
<path d="M63.9445 91.5492C70.2344 90.5323 76.5267 89.5366 82.8095 88.4819C84.2256 88.2459 85.198 88.6258 86.1444 89.7536C89.6578 93.9373 92.4308 98.69 94.3437 103.807C95.3019 106.36 95.8353 109.09 96.3735 111.777C97.7896 118.913 97.1075 126.152 97.3388 133.346C97.388 134.384 97.6356 135.404 98.0681 136.349C98.6676 137.683 99.6895 137.852 101.042 137.293C103.725 136.182 104.769 133.898 105.21 131.333C105.584 129.212 105.737 127.058 105.666 124.906C105.474 119.974 105.193 115.043 104.721 110.13C104.226 104.857 102.928 99.7486 100.1 95.2065C98.6841 92.9437 96.9942 90.865 95.4341 88.6966C95.2241 88.404 95.0588 88.0784 94.7473 87.5593C97.5795 87.5593 100.152 87.4578 102.725 87.5852C105.935 87.741 109.137 88.0713 112.34 88.3544C113.903 88.4913 115.465 88.6588 117.016 88.8877C117.424 88.9848 117.791 89.2106 118.061 89.5318C121.365 93.2268 123.839 97.4693 125.793 101.997C127.313 105.522 128.222 109.224 128.755 113.044C129.475 118.188 129.624 123.337 129.499 128.511C129.454 130.432 129.499 132.359 129.624 134.28C129.685 135.045 129.885 135.793 130.214 136.486C130.636 137.406 131.979 137.885 132.902 137.484C135.144 136.505 136.574 134.846 137.15 132.421C138.201 127.954 137.667 123.438 137.545 118.953C137.442 115.121 137.127 111.298 136.6 107.502C135.829 101.957 133.702 96.8841 130.521 92.2689C130.32 91.981 130.155 91.6696 129.784 91.0514C131.134 91.318 132.144 91.4312 133.089 91.7167C138.026 93.2032 143.023 94.534 147.856 96.3037C152.339 97.9683 156.727 99.8752 161.002 102.016C170.606 106.775 179.055 113.106 186.046 121.284C189.97 125.824 193.028 131.044 195.069 136.687C195.82 138.752 196.325 140.9 196.573 143.083C196.94 146.302 197.074 149.543 196.972 152.781C196.887 154.949 196.143 157.09 195.7 159.244C194.796 163.625 192.962 167.667 190.923 171.594C186.738 179.647 181.309 186.612 173.136 191.043C170.32 192.567 167.399 193.818 164.196 194.214C161.496 194.547 158.767 194.965 156.067 194.969C117.36 195.016 78.6532 195.023 39.9461 194.988C31.1238 194.988 23.4933 191.848 16.9792 185.892C11.7443 181.107 7.98686 175.3 5.1334 168.904C3.71928 165.701 2.49305 162.419 1.46095 159.074C0.830777 157.061 0.691526 154.891 0.379981 152.786C0.198247 151.552 -0.0188903 150.301 -8.77935e-06 149.067C0.0495551 146.071 0.547554 143.135 1.26269 140.21C3.31369 131.814 7.85233 124.873 13.6371 118.644C18.5699 113.332 24.2769 109.01 30.4464 105.249C36.0284 101.845 41.9322 99.0003 48.0723 96.7543C50.102 96.0134 52.1294 95.2702 54.1615 94.5387C54.9805 94.2462 55.5139 94.5505 56.019 95.2655C58.6636 98.9172 60.8379 102.887 62.4906 107.082C63.1822 108.875 63.5976 110.784 64.0602 112.66C65.9955 120.517 65.3276 128.532 65.4928 136.491C65.5306 137.535 65.7174 138.567 66.0474 139.558C66.4321 140.755 67.9191 141.264 69.1511 140.757C71.2068 139.912 72.4553 138.348 72.9817 136.239C73.8363 132.898 74.0667 129.428 73.6614 126.003C73.3805 123.752 73.5623 121.449 73.3782 119.182C73.0147 114.748 72.8141 110.265 71.516 105.985C70.1379 101.38 67.8301 97.1074 64.7352 93.4298C64.3797 92.9617 64.0496 92.4749 63.7463 91.9716L63.9445 91.5492Z" fill="black"/>
<path d="M87.4236 49.0993C87.3434 44.7436 88.7666 40.572 92.144 37.1058C93.985 35.2182 94.7992 32.8422 95.0093 30.2113C95.3609 25.8391 93.6545 22.0214 91.9646 18.1778C90.7586 15.4455 89.4699 12.7415 88.573 9.91004C87.755 7.43263 87.8386 4.74598 88.8091 2.32419C89.5454 0.486124 91.9434 -0.0353296 93.0196 1.61633C94.1603 3.3321 95.1175 5.1629 95.8755 7.07862C97.0792 10.2286 98.1224 13.4493 99.0499 16.6913C100.133 20.4665 101.667 24.1568 101.509 28.2246C101.318 33.0994 100.341 37.5848 96.9021 41.386C94.1313 44.4534 93.815 48.2829 94.8771 52.1407C95.63 54.8777 96.803 57.4968 97.6456 60.2102C98.4386 62.7609 98.7006 65.3115 97.3317 67.848C96.3074 69.7521 93.225 69.8017 92.4461 67.9164C91.4714 65.5569 90.3526 63.2658 89.4888 60.8733C88.4102 57.8767 87.341 53.2874 87.4236 49.0993Z" fill="black"/>
<path d="M130.551 27.0353C130.691 30.3623 130.495 33.2904 129.119 35.9284C128.175 37.7405 126.869 39.3709 125.692 41.058C123.844 43.7124 123.242 46.5816 123.804 49.7882C124.337 52.8367 125.611 55.602 126.636 58.4688C127.563 61.0407 128.198 63.7258 126.784 66.3874C126.232 67.4303 125.564 68.275 124.188 68.334C122.772 68.3835 121.986 67.678 121.42 66.4865C118.783 60.9369 116.794 55.1797 116.64 48.9954C116.534 44.7152 117.367 40.6049 120.443 37.2544C121.793 35.7844 123.086 34.2366 123.641 32.2263C124.184 30.2537 124.54 28.3071 124.214 26.2237C123.568 22.0709 121.712 18.383 119.985 14.6408C118.403 11.2124 116.938 7.76045 117.412 3.85309C117.498 3.03534 117.686 2.23155 117.972 1.46053C118.578 -0.0825899 121.432 -0.582808 122.35 0.823465C123.553 2.64631 124.548 4.59893 125.314 6.6444C126.681 10.3677 127.823 14.1736 128.989 17.9701C129.959 21.0469 131.066 24.1072 130.551 27.0353Z" fill="black"/>
<path d="M57.2416 49.052C57.1614 44.6939 58.5869 40.5247 61.962 37.0562C63.8053 35.1686 64.6172 32.7949 64.8296 30.164C65.1813 25.7895 63.4725 21.9741 61.785 18.1305C60.586 15.4029 59.2997 12.6894 58.4005 9.85801C57.5843 7.38035 57.6678 4.69433 58.6365 2.27216C59.3729 0.431741 61.7708 -0.0873532 62.8471 1.56431C63.9861 3.2786 64.9417 5.10784 65.6982 7.02187C66.9042 10.1695 67.9474 13.3926 68.875 16.6322C69.9583 20.4074 71.4924 24.0977 71.3319 28.1679C71.1408 33.0426 70.166 37.5281 66.7248 41.3293C63.9563 44.3966 63.6401 48.2261 64.6998 52.0839C65.4527 54.821 66.6257 57.4377 67.4707 60.1535C68.2637 62.7018 68.5233 65.2524 67.1568 67.7913C66.1301 69.693 63.05 69.7426 62.2688 67.8597C61.2964 65.5002 60.1753 63.2067 59.3115 60.8142C58.2305 57.827 57.1614 53.2401 57.2416 49.052Z" fill="black"/>
</g>
<defs>
<clipPath id="clip0">
<rect width="197" height="195" fill="white"/>
</clipPath>
</defs>
</svg>
