<svg viewBox="0 0 12 11" fill="none" xmlns="http://www.w3.org/2000/svg">
    <g clip-path="url(#clip0_276_7586)">
        <path d="M3.81856 5.16473C4.16842 5.10737 4.51841 5.0512 4.86788 4.9917C4.94665 4.97839 5.00073 4.99982 5.05338 5.06344C5.2488 5.29944 5.40304 5.56755 5.50944 5.85619C5.56274 6.00021 5.59241 6.15421 5.62234 6.30581C5.70111 6.70831 5.66317 7.11666 5.67604 7.52249C5.67878 7.58107 5.69255 7.63858 5.7166 7.69192C5.74995 7.76713 5.80679 7.77671 5.88202 7.74516C6.03128 7.68247 6.08931 7.55363 6.11386 7.40895C6.13468 7.28931 6.14317 7.1678 6.13919 7.04638C6.12856 6.7682 6.11294 6.49002 6.08668 6.2129C6.05911 5.91542 5.98691 5.62726 5.82964 5.37104C5.75087 5.2434 5.65687 5.12613 5.5701 5.00381C5.55841 4.98731 5.54922 4.96894 5.53189 4.93966C5.68943 4.93966 5.83252 4.93394 5.97562 4.94112C6.15416 4.94991 6.33231 4.96854 6.51046 4.98451C6.59736 4.99223 6.68427 5.00168 6.77052 5.0146C6.79325 5.02007 6.81364 5.03281 6.82868 5.05093C7.01247 5.25937 7.15005 5.49868 7.25875 5.7541C7.3433 5.95296 7.39384 6.16179 7.42351 6.37728C7.46355 6.66744 7.47182 6.95787 7.46486 7.24976C7.46237 7.35811 7.46486 7.46685 7.47182 7.57519C7.47524 7.61835 7.48636 7.66051 7.50464 7.69964C7.52814 7.75155 7.60284 7.77857 7.65417 7.75594C7.77888 7.70071 7.85844 7.60714 7.89047 7.47031C7.94889 7.21835 7.91922 6.96359 7.9124 6.71057C7.90672 6.49444 7.88919 6.27879 7.85988 6.06463C7.81696 5.75184 7.69867 5.46567 7.52171 5.20533C7.51055 5.18909 7.50136 5.17152 7.48075 5.13665C7.55584 5.15169 7.61203 5.15808 7.66454 5.17418C7.93918 5.25804 8.2171 5.33311 8.48596 5.43293C8.73528 5.52683 8.97938 5.63441 9.21719 5.75517C9.75137 6.02363 10.2214 6.38074 10.6102 6.84207C10.8285 7.09817 10.9986 7.39267 11.1121 7.71096C11.1539 7.82748 11.1819 7.9486 11.1957 8.07179C11.2162 8.25336 11.2236 8.43619 11.2179 8.61884C11.2132 8.74116 11.1718 8.86188 11.1471 8.9834C11.0969 9.23057 10.9949 9.45857 10.8814 9.68005C10.6487 10.1343 10.3467 10.5272 9.8921 10.7772C9.73548 10.8632 9.57296 10.9337 9.39481 10.9561C9.24463 10.9749 9.09287 10.9984 8.94268 10.9987C6.78969 11.0013 4.63669 11.0017 2.4837 10.9998C1.99297 10.9998 1.56855 10.8226 1.20621 10.4866C0.915033 10.2167 0.706035 9.88916 0.547317 9.52832C0.46866 9.34767 0.400454 9.16252 0.343045 8.97382C0.307993 8.86028 0.300248 8.73783 0.282919 8.61911C0.27281 8.54949 0.260733 8.47895 0.261783 8.40934C0.26454 8.2403 0.29224 8.07472 0.332018 7.90968C0.4461 7.4361 0.698552 7.04452 1.02032 6.69313C1.29469 6.39352 1.61213 6.14968 1.9553 5.93752C2.26579 5.74555 2.59417 5.58505 2.9357 5.45835C3.0486 5.41656 3.16137 5.37463 3.2744 5.33337C3.31995 5.31687 3.34962 5.33404 3.37772 5.37437C3.52482 5.58037 3.64576 5.80432 3.73769 6.04094C3.77615 6.14209 3.79926 6.24977 3.82499 6.35559C3.93264 6.79882 3.89549 7.25096 3.90468 7.69991C3.90678 7.75878 3.91717 7.81705 3.93553 7.87294C3.95692 7.94042 4.03963 7.96917 4.10816 7.94056C4.2225 7.89291 4.29195 7.80466 4.32123 7.68567C4.36876 7.4972 4.38158 7.30146 4.35904 7.10828C4.34341 6.9813 4.35352 6.85139 4.34328 6.72348C4.32307 6.47338 4.31191 6.22049 4.2397 5.97905C4.16305 5.71931 4.03468 5.47827 3.86253 5.27082C3.84276 5.24441 3.8244 5.21695 3.80753 5.18856L3.81856 5.16473Z" fill="#FBFBF9" />
        <path d="M5.12427 2.76979C5.11981 2.52409 5.19897 2.28877 5.38683 2.09324C5.48923 1.98676 5.53452 1.85273 5.54621 1.70432C5.56577 1.45769 5.47085 1.24233 5.37686 1.02551C5.30977 0.871375 5.23809 0.718842 5.18821 0.55912C5.1427 0.419369 5.14735 0.267814 5.20134 0.131201C5.24229 0.027515 5.37568 -0.00190031 5.43554 0.0912704C5.49899 0.188057 5.55223 0.291333 5.59439 0.399399C5.66134 0.577089 5.71937 0.758772 5.77096 0.941653C5.83122 1.15461 5.91655 1.36278 5.90775 1.59225C5.89712 1.86724 5.84277 2.12026 5.6515 2.33469C5.49737 2.50772 5.47978 2.72374 5.53886 2.94136C5.58074 3.09576 5.64598 3.2435 5.69285 3.39657C5.73696 3.54045 5.75153 3.68433 5.67539 3.82742C5.61841 3.93483 5.44696 3.93762 5.40364 3.83128C5.34942 3.69817 5.28719 3.56893 5.23914 3.43397C5.17915 3.26493 5.11968 3.00605 5.12427 2.76979Z" fill="#FBFBF9" />
        <path d="M7.52328 1.52532C7.53102 1.71299 7.52013 1.87817 7.44359 2.02698C7.39108 2.1292 7.31848 2.22117 7.25297 2.31634C7.15018 2.46608 7.1167 2.62793 7.14795 2.80881C7.17762 2.98078 7.24851 3.13677 7.30548 3.29849C7.35708 3.44357 7.39239 3.59504 7.31375 3.74518C7.28303 3.80401 7.24588 3.85166 7.16935 3.85499C7.09058 3.85778 7.04686 3.81798 7.01535 3.75077C6.86871 3.43771 6.75805 3.11295 6.74951 2.76409C6.7436 2.52264 6.78995 2.29078 6.961 2.10178C7.0361 2.01886 7.10804 1.93154 7.13889 1.81814C7.16908 1.70687 7.18891 1.59706 7.17079 1.47953C7.13482 1.24527 7.03163 1.03724 6.93554 0.826139C6.84758 0.632744 6.76605 0.438017 6.79244 0.217601C6.79721 0.171472 6.80766 0.12613 6.82355 0.082637C6.85729 -0.00441102 7.01601 -0.0326284 7.06708 0.0466998C7.13403 0.149527 7.18934 0.259675 7.23197 0.37506C7.30798 0.585093 7.37152 0.799785 7.43637 1.01394C7.49033 1.18751 7.5519 1.36014 7.52328 1.52532Z" fill="#FBFBF9" />
        <path d="M3.44555 2.76815C3.44109 2.52231 3.52038 2.28712 3.70811 2.09146C3.81064 1.98498 3.8558 1.85108 3.86761 1.70267C3.88718 1.45591 3.79213 1.24068 3.69826 1.02386C3.63157 0.869995 3.56003 0.716929 3.51001 0.557207C3.46461 0.417441 3.46926 0.265923 3.52314 0.129288C3.5641 0.0254689 3.69748 -0.00381334 3.75734 0.0893574C3.8207 0.186061 3.87385 0.289249 3.91593 0.39722C3.98301 0.574777 4.04104 0.756593 4.09263 0.93934C4.15289 1.1523 4.23822 1.36047 4.22929 1.59007C4.21866 1.86506 4.16444 2.11808 3.97303 2.33251C3.81904 2.50554 3.80145 2.72156 3.86039 2.93918C3.90227 3.09358 3.96752 3.24119 4.01452 3.39439C4.05863 3.53814 4.07307 3.68202 3.99706 3.82524C3.93995 3.93252 3.76863 3.93531 3.72518 3.8291C3.67109 3.696 3.60873 3.56662 3.56068 3.43166C3.50056 3.26315 3.44109 3.0044 3.44555 2.76815Z" fill="#FBFBF9" />
    </g>
    <defs>
        <clipPath id="clip0_276_7586">
            <rect width="10.9577" height="11" fill="white" transform="translate(0.261719)" />
        </clipPath>
    </defs>
</svg>
