<svg viewBox="0 0 25 20" fill="none" xmlns="http://www.w3.org/2000/svg">
<path d="M0 16.8665C0 16.1844 0.617671 15.6689 1.28868 15.7909L23.1546 15.7909C23.8256 15.6689 24.4433 16.1844 24.4433 16.8665V16.8665C24.4433 17.3947 24.0655 17.8475 23.5457 17.942L0.897591 17.942C0.377815 17.8475 0 17.3947 0 16.8665V16.8665Z" fill="#181817"/>
<path d="M0 9.08715C0 8.40514 0.617671 7.88965 1.28868 8.01165L23.1546 8.01165C23.8256 7.88965 24.4433 8.40514 24.4433 9.08715V9.08715C24.4433 9.61545 24.0655 10.0682 23.5457 10.1627L0.897591 10.1627C0.377815 10.0682 0 9.61545 0 9.08715V9.08715Z" fill="#181817"/>
<path d="M0 1.31176C0 0.629751 0.617671 0.114257 1.28868 0.236259L23.1546 0.236259C23.8256 0.114257 24.4433 0.629751 24.4433 1.31176V1.31176C24.4433 1.84006 24.0655 2.29276 23.5457 2.38727L0.897591 2.38727C0.377815 2.29276 0 1.84006 0 1.31176V1.31176Z" fill="#181817"/>
</svg>
