<svg width="12" height="10" viewBox="0 0 12 10" fill="none" xmlns="http://www.w3.org/2000/svg">
<path d="M3.87611 7.4344L10.354 0.3207C10.5487 0.1069 10.7743 0 11.031 0C11.2876 0 11.5133 0.1069 11.708 0.3207C11.9027 0.5345 12 0.782313 12 1.06414C12 1.34597 11.9027 1.59378 11.708 1.80758L4.53982 9.6793C4.34513 9.8931 4.11947 10 3.86283 10C3.60619 10 3.38053 9.8931 3.18584 9.6793L0.292035 6.50146C0.0973451 6.28766 0 6.03984 0 5.75802C0 5.47619 0.0973451 5.22838 0.292035 5.01458C0.486726 4.80078 0.712389 4.69388 0.969027 4.69388C1.22566 4.69388 1.45133 4.80078 1.64602 5.01458L3.87611 7.4344Z" fill="#33C364"/>
</svg>
