<svg viewBox="0 0 15 13" fill="none" xmlns="http://www.w3.org/2000/svg">
    <g clip-path="url(#clip0)">
        <path d="M4.5831 12.6335L0.334638 8.15439C0.118293 7.92679 -0.00190796 7.62113 2.29077e-05 7.30348C0.00462431 6.98644 0.123849 6.68242 0.334638 6.45021C0.43304 6.34426 0.551441 6.2599 0.68265 6.20226C0.813859 6.14462 0.955139 6.1149 1.09791 6.1149C1.24068 6.1149 1.38196 6.14462 1.51316 6.20226C1.64437 6.2599 1.76277 6.34426 1.86118 6.45021L5.2581 10.0666L13.1666 0.335483C13.265 0.229534 13.3834 0.145177 13.5146 0.0875359C13.6458 0.0298939 13.7871 0.000170708 13.9298 0.000170708C14.0726 0.000170708 14.2139 0.0298939 14.3451 0.0875359C14.4763 0.145177 14.5947 0.229534 14.6931 0.335483C14.891 0.565722 15.0001 0.861935 15.0001 1.16866C15.0001 1.47539 14.891 1.77161 14.6931 2.00185L6.14772 12.6382C6.04991 12.7523 5.9294 12.8436 5.79429 12.906C5.65917 12.9684 5.51258 13.0004 5.36436 13C5.21614 12.9995 5.06974 12.9666 4.93498 12.9034C4.80022 12.8402 4.68024 12.7481 4.5831 12.6335Z" fill="#308274"/>
    </g>
</svg>
