<svg width="150" height="155" viewBox="0 0 150 155" fill="none" xmlns="http://www.w3.org/2000/svg">
<path fill-rule="evenodd" clip-rule="evenodd" d="M30 0C13.4314 0 0 13.4316 0 30V124.109C0 140.678 13.4314 154.109 30 154.109H120C136.569 154.109 150 140.678 150 124.109V30C150 13.4316 136.569 0 120 0H30ZM31 9C18.8499 9 9 18.8496 9 31V123C9 135.15 18.8499 145 31 145H119C131.15 145 141 135.15 141 123V31C141 18.8496 131.15 9 119 9H31Z" fill="black"/>
<path fill-rule="evenodd" clip-rule="evenodd" d="M70 27C70 24.2388 72.2385 22 75 22C77.7615 22 80 24.2388 80 27V69.5156C80.9819 70.1729 81.8271 71.0181 82.4844 72H98C100.761 72 103 74.2388 103 77C103 79.7612 100.761 82 98 82H82.4844C80.8699 84.4121 78.1204 86 75 86C70.0295 86 66 81.9707 66 77C66 73.8794 67.5881 71.1299 70 69.5156V27Z" fill="black"/>
</svg>
