<svg viewBox="0 0 12 12" fill="none" xmlns="http://www.w3.org/2000/svg">
    <path d="M10.7257 6.48658L12 6.11347C11.9616 5.55395 11.9684 5.65383 11.93 5.09378L10.6162 4.89847C10.517 4.58864 10.5008 4.53843 10.4015 4.22834L11.3583 3.30591L10.8231 2.43551L9.56939 2.87398L9.06791 2.38034L9.48581 1.11801L8.60822 0.596653L7.70111 1.56824L7.0283 1.3643L6.81203 0.0522921L5.7934 0L5.44132 1.28116L4.751 1.41372L3.94994 0.351403L3.02272 0.778369L3.30637 2.07731L2.75631 2.51682L1.55485 1.94971L0.932178 2.76024L1.78757 3.77654C1.65697 4.07434 1.6353 4.12271 1.50418 4.42052L0.175779 4.47804C0.079401 5.03155 0.0966394 4.93193 0 5.4844L1.22915 5.98876C1.25135 6.31349 1.25527 6.36631 1.27721 6.69078L0.128504 7.35855L0.440101 8.33145L1.76145 8.20621L2.12998 8.80547L1.42373 9.93106L2.15114 10.6475L3.26406 9.92086L3.86845 10.2801L3.76397 11.6057L4.74082 11.9017L5.38908 10.7411L6.09115 10.7779L6.61353 12L7.61571 11.8076L7.65097 10.4783L8.29114 10.1849L9.32231 11.0234L10.1205 10.3868L9.53439 9.19348L9.96352 8.63605L11.2655 8.89882C11.4915 8.38557 11.4512 8.47734 11.6769 7.96383L10.6042 7.17945L10.7257 6.48658ZM6.00209 9.58332C5.29437 9.58332 4.60255 9.37324 4.01411 8.97964C3.42567 8.58604 2.96703 8.02661 2.6962 7.37208C2.42537 6.71756 2.35451 5.99733 2.49258 5.30249C2.63064 4.60765 2.97144 3.9694 3.47187 3.46844C3.9723 2.96749 4.60989 2.62634 5.304 2.48812C5.99812 2.34991 6.71759 2.42085 7.37143 2.69196C8.02528 2.96307 8.58413 3.42219 8.97731 4.01125C9.3705 4.60031 9.58036 5.29285 9.58036 6.00131C9.58036 6.95132 9.20336 7.86241 8.53231 8.53417C7.86125 9.20593 6.95111 9.58332 6.00209 9.58332Z" fill="#FBFBF9" />
</svg>
