<svg viewBox="0 0 13 14" fill="none" xmlns="http://www.w3.org/2000/svg">
    <path d="M12.3711 9.25784H10.0601C10.6413 8.49672 11.0011 7.54187 11.0011 6.50399C11.0011 5.46611 10.6413 4.51126 10.0601 3.75015H12.3711C12.7585 4.5943 12.98 5.52147 12.98 6.50399C12.98 7.48652 12.7724 8.41369 12.3711 9.25784Z" fill="white" />
    <path d="M6.49066 9.24403C8.01156 9.24403 9.2445 8.01109 9.2445 6.49019C9.2445 4.96928 8.01156 3.73634 6.49066 3.73634C4.96975 3.73634 3.73682 4.96928 3.73682 6.49019C3.73682 8.01109 4.96975 9.24403 6.49066 9.24403Z" fill="white" />
    <path d="M1.97889 6.50405C1.97889 8.99496 3.9993 11.0292 6.49021 11.0292C7.15445 11.0292 7.79102 10.877 8.3584 10.6141V12.7313C7.76334 12.9112 7.14062 13.0081 6.49021 13.0081C2.90606 13.0081 0 10.0882 0 6.50405C0 2.90606 2.90606 0 6.49021 0C7.14062 0 7.76334 0.0968688 8.3584 0.276768V2.39404C7.79102 2.13111 7.15445 1.97889 6.49021 1.97889C3.9993 1.97889 1.97889 3.9993 1.97889 6.50405Z" fill="white" />
</svg>
