<svg width="981" height="178" viewBox="0 0 981 178" fill="none" xmlns="http://www.w3.org/2000/svg">
<path d="M169.07 126.694H137.481C145.497 116.255 150.325 103.21 150.325 89C150.325 74.79 145.482 61.7144 137.451 51.2754H169.055C174.404 62.7261 177.423 75.5105 177.423 89C177.423 102.489 174.419 115.243 169.07 126.694ZM88.6963 126.694C67.9284 126.694 51.0996 109.817 51.0996 88.9847C51.0996 68.1526 67.9284 51.2754 88.6963 51.2754C109.464 51.2754 126.293 68.1679 126.293 88.9847C126.293 109.801 109.464 126.694 88.6963 126.694ZM27.0365 89C27.0365 123.153 54.6248 150.852 88.6809 150.852C97.8157 150.852 106.46 148.798 114.261 145.227V174.229C106.169 176.666 97.5858 178 88.6963 178C39.7118 178 0 138.16 0 89C0 39.84 39.7118 0 88.7116 0C97.6011 0 106.169 1.33362 114.277 3.77093V32.7733C106.475 29.2017 97.831 27.1476 88.6963 27.1476C54.6554 27.1476 27.0518 54.8317 27.0518 89H27.0365Z" fill="black"/>
<path d="M267.411 109.449C274.784 109.449 280.776 106.459 284.363 102.566V124.21C279.182 126.602 273.098 127.797 267.013 127.797C245.08 127.797 227.424 110.338 227.424 88.9998C227.424 67.6618 245.08 50.2021 267.013 50.2021C273.098 50.2021 279.182 51.5051 284.363 53.7891V75.4336C280.776 71.5401 274.784 68.5509 267.411 68.5509C255.549 68.5509 246.966 77.2271 246.966 88.9998C246.966 100.772 255.549 109.449 267.411 109.449ZM333.914 50.2021C355.556 50.2021 372.799 67.6618 372.799 88.9998C372.799 110.338 355.541 127.797 333.914 127.797C312.288 127.797 295.03 110.338 295.03 88.9998C295.03 67.6618 312.38 50.2021 333.914 50.2021ZM333.914 68.3516C323.247 68.3516 314.572 76.8286 314.572 88.9998C314.572 101.171 323.247 109.648 333.914 109.648C344.582 109.648 353.257 101.171 353.257 88.9998C353.257 76.8286 344.582 68.3516 333.914 68.3516ZM403.311 51.3978L435.221 95.2846V51.3978H453.966V126.602H437.305L404.291 82.0251V126.602H385.547V51.3978H403.295H403.311ZM507.717 109.449C515.089 109.449 521.082 106.459 524.668 102.566V124.21C519.488 126.602 513.403 127.797 507.318 127.797C485.386 127.797 467.729 110.338 467.729 88.9998C467.729 67.6618 485.386 50.2021 507.318 50.2021C513.403 50.2021 519.488 51.5051 524.668 53.7891V75.4336C521.082 71.5401 515.089 68.5509 507.717 68.5509C495.854 68.5509 487.271 77.2271 487.271 88.9998C487.271 100.772 495.854 109.449 507.717 109.449ZM574.22 50.2021C595.861 50.2021 613.104 67.6618 613.104 88.9998C613.104 110.338 595.846 127.797 574.22 127.797C552.594 127.797 535.336 110.338 535.336 88.9998C535.336 67.6618 552.686 50.2021 574.22 50.2021ZM574.22 68.3516C563.552 68.3516 554.877 76.8286 554.877 88.9998C554.877 101.171 563.552 109.648 574.22 109.648C584.887 109.648 593.562 101.171 593.562 88.9998C593.562 76.8286 584.887 68.3516 574.22 68.3516ZM646.21 99.6687V126.602H626.867V51.3978H651.697C669.553 51.3978 681.814 60.1813 681.814 75.5409C681.814 85.6121 675.729 93.0006 666.365 96.7869L690.305 126.602H666.763L646.225 99.6687H646.21ZM646.21 85.1062H651.59C658.073 85.1062 661.966 81.6112 661.966 76.1234C661.966 70.6357 658.073 67.248 651.59 67.248H646.21V85.1062ZM726.185 51.3978C747.719 51.3978 765.069 67.5545 765.069 88.9998C765.069 110.445 747.719 126.602 726.185 126.602H698.965V51.3978H726.185ZM724.882 67.4626H718.506V110.552H724.683C737.343 110.552 745.528 100.573 745.528 89.0151C745.528 77.4571 737.343 67.4779 724.882 67.4779V67.4626ZM798.374 126.602H778.833V51.3978H798.374V126.602ZM858.609 96.3883V51.4131H878.15V96.2964C878.15 116.347 864.494 127.813 846.531 127.813C828.568 127.813 814.912 116.347 814.912 96.2964V51.4131H834.454V96.3883C834.454 105.862 839.236 110.552 846.516 110.552C853.796 110.552 858.578 105.862 858.578 96.3883H858.609Z" fill="black"/>
<path d="M913.832 76.3382H913.265V126.602H895.256V51.3979H923.948L938.156 94.0891L953.85 51.3979H980.473V126.602H962.464V76.3382H961.897L943.765 126.602H931.963L913.832 76.3382Z" fill="black"/>
</svg>
