<svg viewBox="0 0 141 14" fill="none" xmlns="http://www.w3.org/2000/svg">
<path d="M87.4163 13.1831C87.1254 13.1831 86.8345 13.0584 86.6267 12.8506L81.3075 7.40675C80.975 7.0743 80.8919 6.61718 81.0997 6.20161C81.2659 5.78605 81.6399 5.53671 82.097 5.53671H84.3826C85.38 5.53671 86.2111 4.7887 86.2111 3.91601C86.2111 3.08489 85.3384 2.33687 84.3411 2.33687H80.0192C80.0192 2.33687 79.9777 2.37843 79.9777 2.41998V12.1026C79.9777 12.726 79.479 13.2246 78.8557 13.2246C78.2739 13.2246 77.7752 12.726 77.7752 12.1026V2.41998C77.7752 1.17329 78.7725 0.175938 79.9777 0.175938H84.2995C86.502 0.175938 88.3305 1.83819 88.3305 3.91601C88.3305 5.86916 86.7098 7.57297 84.6735 7.7392L88.1643 11.3131C88.4136 11.5208 88.5383 11.8533 88.4967 12.1442C88.4967 12.4351 88.3305 12.726 88.1227 12.9337C87.9565 13.1 87.6656 13.1831 87.4163 13.1831ZM117.96 13.1831C116.049 13.1831 114.594 12.6429 113.555 11.6039C112.516 10.565 111.976 8.98589 111.976 7.03274V1.17329C111.976 0.549946 112.475 0.0512695 113.057 0.0512695C113.68 0.0512695 114.179 0.549946 114.179 1.17329V7.03274C114.179 9.77546 115.384 10.9806 118.043 10.9806C120.744 10.9806 121.908 9.81702 121.908 7.03274V1.17329C121.908 0.549946 122.407 0.0512695 122.989 0.0512695C123.57 0.0512695 124.069 0.549946 124.069 1.17329V7.03274C124.069 10.9806 121.908 13.1831 118.002 13.1831C118.002 13.1831 118.002 13.1831 117.96 13.1831ZM139.611 13.1831C138.988 13.1831 138.489 12.6844 138.489 12.0611V2.33687C138.447 2.29531 138.448 2.33687 138.448 2.33687L135.871 6.61718C135.497 7.28208 134.749 7.69764 133.959 7.69764C133.17 7.69764 132.505 7.28208 132.048 6.61718L129.471 2.33687C129.471 2.29531 129.43 2.29531 129.43 2.29531V12.0611C129.43 12.6844 128.931 13.1831 128.308 13.1831C127.726 13.1831 127.227 12.6844 127.227 12.0611V2.33687C127.227 1.09018 128.225 0.0928253 129.43 0.0928253C130.219 0.0928253 130.926 0.508389 131.341 1.21485L133.918 5.49516C133.959 5.53671 133.959 5.53671 133.959 5.53671L134.001 5.49516L136.577 1.21485C136.993 0.508389 137.699 0.0928253 138.489 0.0928253C139.694 0.0928253 140.692 1.09018 140.692 2.33687V12.1026C140.733 12.6844 140.234 13.1831 139.611 13.1831ZM107.571 13.1831C106.989 13.1831 106.491 12.6844 106.491 12.0611V1.21485C106.491 0.591502 106.989 0.0928253 107.571 0.0928253C108.194 0.0928253 108.693 0.591502 108.693 1.21485V12.1026C108.693 12.6844 108.194 13.1831 107.571 13.1831ZM68.051 13.1831C63.8954 13.1831 61.1111 10.565 61.1111 6.61718C61.1111 2.75243 63.9785 0.0512695 68.051 0.0512695C72.2066 0.0512695 74.9909 2.66932 74.9909 6.61718C75.0325 10.565 72.2066 13.1831 68.051 13.1831ZM68.051 2.29531C65.0589 2.29531 63.3136 3.91601 63.3136 6.61718C63.3136 9.31834 65.1005 10.939 68.051 10.939C71.0431 10.939 72.7884 9.31834 72.7884 6.61718C72.83 3.91601 71.0431 2.29531 68.051 2.29531ZM53.5478 13.1831C49.3922 13.1831 46.6079 10.565 46.6079 6.61718C46.6079 2.75243 49.4753 0.0512695 53.5478 0.0512695C55.5425 0.0512695 57.2879 0.633059 58.5346 1.79664C58.7424 2.00442 58.867 2.25376 58.9086 2.54465C58.9086 2.83555 58.8255 3.12644 58.6177 3.33422C58.4099 3.542 58.1606 3.66667 57.8697 3.70823C57.5788 3.70823 57.2879 3.62512 57.0801 3.41734C56.249 2.66932 55.0438 2.25376 53.5478 2.25376C50.5558 2.25376 48.8104 3.87446 48.8104 6.57562C48.8104 9.27679 50.5973 10.8975 53.5478 10.8975C55.0023 10.8975 56.249 10.4819 57.0801 9.73391C57.2879 9.52612 57.5788 9.44301 57.8697 9.44301C58.1606 9.44301 58.4099 9.60924 58.6177 9.81702C59.0332 10.2741 58.9917 10.9806 58.5346 11.3962C57.2879 12.5597 55.5841 13.1831 53.5478 13.1831ZM41.7042 13.1831C40.9147 13.1831 40.2082 12.7675 39.7926 12.1026L34.0579 2.33687C34.0579 2.29531 34.0163 2.29531 34.0163 2.29531L33.9748 12.0611C33.9748 12.6844 33.4761 13.1831 32.8943 13.1831C32.2709 13.1831 31.7723 12.6844 31.7723 12.0611V2.33687C31.7723 1.09018 32.7696 0.0928253 33.9748 0.0928253C34.7643 0.0928253 35.4708 0.508389 35.8864 1.21485L41.6211 10.9806C41.6211 10.9806 41.6211 11.0222 41.6627 11.0222C41.7042 11.0222 41.7042 11.0222 41.7042 10.9806V1.21485C41.7042 0.591502 42.1614 0.0928253 42.7847 0.0928253C43.408 0.0928253 43.9067 0.591502 43.9067 1.21485V10.939C43.9067 12.1857 42.9094 13.1831 41.7042 13.1831ZM22.0896 13.1831C17.934 13.1831 15.1497 10.565 15.1497 6.61718C15.1497 2.75243 18.0171 0.0512695 22.0896 0.0512695C26.2453 0.0512695 29.0296 2.66932 29.0296 6.61718C29.0296 10.565 26.2453 13.1831 22.0896 13.1831ZM22.0896 2.29531C19.0976 2.29531 17.3522 3.91601 17.3522 6.61718C17.3522 9.31834 19.1391 10.939 22.0896 10.939C25.0817 10.939 26.8271 9.31834 26.8271 6.61718C26.8271 3.91601 25.0401 2.29531 22.0896 2.29531ZM7.5449 13.1831C3.38926 13.1831 0.60498 10.565 0.60498 6.61718C0.60498 2.75243 3.47237 0.0512695 7.5449 0.0512695C9.5396 0.0512695 11.285 0.633059 12.5317 1.79664C12.7394 2.00442 12.8641 2.25376 12.9057 2.54465C12.9057 2.83555 12.8226 3.12644 12.6148 3.33422C12.407 3.542 12.1577 3.66667 11.8668 3.70823C11.5759 3.70823 11.285 3.62512 11.0772 3.41734C10.2461 2.66932 9.04093 2.25376 7.5449 2.25376C4.55284 2.25376 2.80747 3.87446 2.80747 6.57562C2.80747 9.27679 4.59439 10.8975 7.5449 10.8975C8.99937 10.8975 10.2461 10.4819 11.0772 9.73391C11.285 9.52612 11.5759 9.44301 11.8668 9.44301C12.1577 9.44301 12.407 9.60924 12.6148 9.81702C13.0303 10.2741 12.9888 10.9806 12.5317 11.3962C11.3265 12.5597 9.58116 13.1831 7.5449 13.1831ZM96.7249 13.1C96.6833 13.1 96.6418 13.1 96.6002 13.1H93.4835C92.2784 13.1 91.281 12.1026 91.281 10.8559V2.41998C91.281 1.17329 92.2784 0.175938 93.4835 0.175938H96.6002C98.9689 0.134382 100.756 0.716171 101.919 1.87975C103 2.96022 103.54 4.58091 103.54 6.61718C103.54 8.695 103 10.2741 101.919 11.3546C100.797 12.5597 99.0936 13.1 96.7249 13.1ZM96.6833 2.33687H96.6418H93.525L93.4835 2.37843V10.8144L93.525 10.8559H96.6418C98.4287 10.8559 99.6754 10.5235 100.382 9.77546C101.047 9.11056 101.379 8.0301 101.379 6.57562C101.379 5.12115 101.047 4.08224 100.382 3.37578C99.6754 2.71088 98.4703 2.33687 96.6833 2.33687Z" fill="black"/>
</svg>
