<svg viewBox="0 0 12 14" fill="none" xmlns="http://www.w3.org/2000/svg">
    <path d="M1.05884 1.29668C1.05884 1.218 1.09193 1.14254 1.15084 1.0869C1.20975 1.03127 1.28964 1.00001 1.37295 1.00001H9.5294V0.420013C9.52987 0.364734 9.51869 0.309919 9.49651 0.258762C9.47433 0.207605 9.44159 0.161128 9.4002 0.122039C9.35881 0.0829493 9.3096 0.0520292 9.25543 0.0310795C9.20127 0.0101298 9.14323 -0.000430586 9.0847 1.34424e-05H0.444719C0.386189 -0.000430586 0.32815 0.0101298 0.273983 0.0310795C0.219817 0.0520292 0.170606 0.0829493 0.129217 0.122039C0.0878286 0.161128 0.0550897 0.207605 0.0329077 0.258762C0.0107257 0.309919 -0.000455914 0.364734 1.42331e-05 0.420013V11.2467C-0.000455914 11.3019 0.0107257 11.3568 0.0329077 11.4079C0.0550897 11.4591 0.0878286 11.5055 0.129217 11.5446C0.170606 11.5837 0.219817 11.6146 0.273983 11.6356C0.32815 11.6565 0.386189 11.6671 0.444719 11.6667H1.05884V1.29668Z" fill="#979797" />
    <path d="M11.5554 2.334H2.91542C2.85689 2.33355 2.79885 2.34411 2.74469 2.36506C2.69052 2.38601 2.64131 2.41693 2.59992 2.45602C2.55853 2.49511 2.52579 2.54159 2.50361 2.59275C2.48143 2.6439 2.47025 2.69872 2.47072 2.754V13.5806C2.47025 13.6359 2.48143 13.6907 2.50361 13.7419C2.52579 13.7931 2.55853 13.8395 2.59992 13.8786C2.64131 13.9177 2.69052 13.9486 2.74469 13.9696C2.79885 13.9905 2.85689 14.0011 2.91542 14.0006H11.5554C11.6139 14.0011 11.672 13.9905 11.7261 13.9696C11.7803 13.9486 11.8295 13.9177 11.8709 13.8786C11.9123 13.8395 11.945 13.7931 11.9672 13.7419C11.9894 13.6907 12.0006 13.6359 12.0001 13.5806V2.754C12.0006 2.69872 11.9894 2.6439 11.9672 2.59275C11.945 2.54159 11.9123 2.49511 11.8709 2.45602C11.8295 2.41693 11.7803 2.38601 11.7261 2.36506C11.672 2.34411 11.6139 2.33355 11.5554 2.334ZM10.9413 13.0006H3.52954V11.9273H10.9413V13.0006ZM10.9413 10.854H3.52954V9.77732H10.9413V10.854ZM10.9413 8.70399H3.52954V7.63066H10.9413V8.70399ZM10.9413 6.55732H3.52954V5.48066H10.9413V6.55732ZM10.9413 4.40733H3.52954V3.334H10.9413V4.40733Z" fill="#979797" />
</svg>
