<svg viewBox="0 0 13 13" fill="none" xmlns="http://www.w3.org/2000/svg">
    <path d="M11.8237 10.4704L7.8009 6.44752L11.7168 2.53164C12.0912 2.15725 12.0912 1.55363 11.7168 1.17923C11.3424 0.804839 10.7388 0.804839 10.3644 1.17923L6.44849 5.09893L2.63959 1.2862C2.26519 0.911809 1.66158 0.911809 1.28718 1.2862C0.912785 1.6606 0.912785 2.26422 1.28718 2.63861L5.09608 6.44752L1.18021 10.3634C0.805815 10.7378 0.805815 11.3414 1.18021 11.7158C1.55461 12.0902 2.15822 12.0902 2.53262 11.7158L6.44849 7.79992L10.4713 11.8228C10.8457 12.1972 11.4493 12.1972 11.8237 11.8228C12.1981 11.4484 12.1981 10.8448 11.8237 10.4704Z" fill="#181817" />
</svg>
