<svg width="21" height="20" viewBox="0 0 21 20" fill="none" xmlns="http://www.w3.org/2000/svg">
<path d="M10.1655 0L12.6377 2.39155L16.0434 1.90983L16.6377 5.29772L19.6761 6.90983L18.1655 10L19.6761 13.0902L16.6377 14.7023L16.0434 18.0902L12.6377 17.6085L10.1655 20L7.69339 17.6085L4.28767 18.0902L3.69339 14.7023L0.654963 13.0902L2.16553 10L0.654963 6.90983L3.69339 5.29772L4.28767 1.90983L7.69339 2.39155L10.1655 0Z" fill="#189E46"/>
<path d="M6.89801 13.5833V5.99992H10.343C12.8238 5.99992 14.5247 7.49492 14.5247 9.79159C14.5247 12.0883 12.8238 13.5833 10.343 13.5833H6.89801ZM8.65301 12.1424H10.2563C11.7622 12.1424 12.748 11.2433 12.748 9.79159C12.748 8.33992 11.7622 7.44075 10.2563 7.44075H8.65301V12.1424Z" fill="white"/>
</svg>
