<svg width="20" height="16" viewBox="0 0 20 16" fill="none" xmlns="http://www.w3.org/2000/svg">
<ellipse cx="9.77793" cy="7.99994" rx="8.88902" ry="3.55561" fill="#979797"/>
<path fill-rule="evenodd" clip-rule="evenodd" d="M16.2782 9.34333C17.9805 8.56956 18.5559 7.705 18.5559 7.11096C18.5559 6.51692 17.9805 5.65236 16.2782 4.87858C15.9214 4.7164 15.531 4.56663 15.1113 4.43172V3.38521C17.7871 4.17823 19.5559 5.5507 19.5559 7.11096V7.11104H19.667V11.5555H19.5558C19.5558 14.0102 15.1781 16.0001 9.77792 16.0001C4.37772 16.0001 0 14.0102 0 11.5555H2.34189e-05V7.11104H4.70321e-05V7.11096C4.70321e-05 4.79253 3.90541 2.88872 8.88902 2.68457V3.68544C6.66341 3.78105 4.70283 4.23081 3.27774 4.87858C1.57543 5.65236 1.00005 6.51692 1.00005 7.11096C1.00005 7.705 1.57543 8.56956 3.27774 9.34333C4.88977 10.0761 7.18701 10.5555 9.77796 10.5555C12.3689 10.5555 14.6662 10.0761 16.2782 9.34333ZM3.27769 13.7879C1.57538 13.0141 1 12.1496 1 11.5555H1.00002L1.00002 9.07122C2.59364 10.5428 5.92564 11.5555 9.77796 11.5555C13.7222 11.5555 17.1209 10.4939 18.667 8.96514V11.5555H18.5558C18.5558 12.1496 17.9805 13.0141 16.2781 13.7879C14.6661 14.5207 12.3689 15.0001 9.77792 15.0001C7.18696 15.0001 4.88973 14.5207 3.27769 13.7879Z" fill="#979797"/>
<path fill-rule="evenodd" clip-rule="evenodd" d="M13.7778 0.356697C13.3856 0.129838 12.9302 0 12.4445 0C10.9718 0 9.7779 1.19386 9.77783 2.66658V2.6667V7.11109H10.6667V7.11121H13.3334V6.22231H10.6667V5.33341H13.3334V4.44451H10.6667V3.55561H13.3334V2.6667L13.3334 2.67073V7.11109H14.2223V4.65439V2.66658C14.2223 1.76338 14.8959 1.01749 15.7681 0.903789L16.1434 0.00378337C16.096 0.00127173 16.0482 0 16.0001 0C14.5274 0 13.3334 1.19392 13.3334 2.6667H10.6667V2.66658C10.6667 1.68473 11.4627 0.888781 12.4445 0.888781C12.6524 0.888781 12.852 0.924459 13.0374 0.990024C13.2427 0.736323 13.4937 0.521057 13.7778 0.356697Z" fill="#979797"/>
</svg>
