<svg width="14" height="7" viewBox="0 0 14 7" fill="none" xmlns="http://www.w3.org/2000/svg">
<g clip-path="url(#clip1)">
<path d="M8 6.66201C7.91842 6.66128 7.83778 6.64438 7.76277 6.61228C7.68776 6.58018 7.61986 6.53353 7.563 6.47501L6.049 5.01201L6.849 4.09201L7.942 5.15901L12.367 0.17201C12.4818 0.0616458 12.6348 0 12.794 0C12.9532 0 13.1062 0.0616458 13.221 0.17201C13.33 0.287464 13.3907 0.440231 13.3907 0.59901C13.3907 0.757789 13.33 0.910557 13.221 1.02601L8.44 6.47501C8.38269 6.53375 8.31428 6.58053 8.23875 6.61263C8.16322 6.64473 8.08207 6.66151 8 6.66201ZM5.328 4.31701L5.187 4.18001C5.12771 4.12375 5.08054 4.05596 5.04838 3.98082C5.01623 3.90567 4.99976 3.82475 5 3.74301C5.00196 3.57656 5.0691 3.41752 5.187 3.30001C5.30145 3.18929 5.45477 3.12789 5.614 3.12901C5.7733 3.12757 5.92673 3.18902 6.041 3.30001L6.131 3.38801L5.331 4.31101L5.328 4.31701Z" fill="#979797"/>
<path d="M2.565 6.47418L0.188001 4.18018C0.128527 4.124 0.0811699 4.05625 0.0488397 3.9811C0.0165095 3.90595 -0.00011071 3.82499 5.54977e-07 3.74318C0.00341599 3.5783 0.0708374 3.42123 0.188001 3.30518C0.302875 3.19504 0.45586 3.13355 0.615001 3.13355C0.774141 3.13355 0.927127 3.19504 1.042 3.30518L2.942 5.16218L7.367 0.172176C7.48025 0.058929 7.63384 -0.00469303 7.794 -0.00469303C7.95416 -0.00469303 8.10775 0.058929 8.221 0.172176C8.33425 0.285424 8.39787 0.43902 8.39787 0.599176C8.39787 0.759332 8.33425 0.912929 8.221 1.02618L3.44 6.47418C3.38389 6.53396 3.31612 6.58162 3.24087 6.61419C3.16562 6.64677 3.0845 6.66357 3.0025 6.66357C2.9205 6.66357 2.83938 6.64677 2.76413 6.61419C2.68888 6.58162 2.62111 6.53396 2.565 6.47418Z" fill="#979797"/>
</g>
<defs>
<clipPath id="clip1">
<rect width="13.391" height="6.662" fill="white"/>
</clipPath>
</defs>
</svg>
