<svg width="24" height="24" viewBox="0 0 24 24" fill="none" xmlns="http://www.w3.org/2000/svg">
<g clip-path="url(#clip0_1675_5514)">
<mask id="mask0_1675_5514" style="mask-type:alpha" maskUnits="userSpaceOnUse" x="0" y="0" width="24" height="24">
<rect x="24" width="24" height="24" transform="rotate(90 24 0)" fill="#D9D9D9"/>
</mask>
<g mask="url(#mask0_1675_5514)">
<path d="M12 13.374L17.5964 7.41985C17.8595 7.13995 18.1943 7 18.6009 7C19.0075 7 19.3423 7.13995 19.6054 7.41985C19.8685 7.69975 20 8.05598 20 8.48855C20 8.92112 19.8685 9.27735 19.6054 9.55725L13.0045 16.5802C12.861 16.7328 12.7055 16.841 12.5381 16.9046C12.3707 16.9682 12.1913 17 12 17C11.8087 17 11.6293 16.9682 11.4619 16.9046C11.2945 16.841 11.139 16.7328 10.9955 16.5802L4.39462 9.55725C4.13154 9.27735 4 8.92112 4 8.48855C4 8.05598 4.13154 7.69975 4.39462 7.41985C4.6577 7.13995 4.99253 7 5.3991 7C5.80568 7 6.14051 7.13995 6.40359 7.41985L12 13.374Z" fill="#48A2AE"/>
</g>
</g>
<defs>
<clipPath id="clip0_1675_5514">
<rect width="24" height="24" fill="white"/>
</clipPath>
</defs>
</svg>
