<svg viewBox="0 0 21 28" fill="none" xmlns="http://www.w3.org/2000/svg">
    <path d="M20.737 21.0462C20.2438 20.1143 19.1851 19.7868 18.2415 20.2669C16.9899 20.9041 15.7411 21.5491 14.4912 22.1893C14.4265 22.2227 14.3586 22.248 14.2835 22.282C14.2802 22.2298 14.2775 22.2004 14.2769 22.1717C14.2533 21.0291 13.5881 20.1917 12.5333 19.9817C12.0094 19.8778 11.4872 19.7587 10.9595 19.6882C10.1923 19.582 9.52598 19.3156 8.90951 18.7611C7.98727 17.9325 6.86447 17.6461 5.66386 17.7869C5.32192 17.8263 4.98492 17.9155 4.63586 17.9841V17.8362C4.63038 17.2236 4.4227 17 3.85774 17C2.81147 17 1.76557 17 0.720038 17C0.238369 16.9977 0 17.2512 0 17.7646C0 18.8726 0 19.9797 0 21.0861C0 22.8536 0 24.6213 0 26.3892C0 26.8275 0.244944 27.1151 0.631814 27.1168C1.76027 27.1207 2.88819 27.1207 4.01555 27.1168C4.3668 27.1168 4.61832 26.8375 4.63421 26.4637C4.63421 26.3915 4.63421 26.3188 4.63421 26.226C4.7186 26.2489 4.78381 26.2636 4.84738 26.2847C5.49399 26.496 6.1384 26.7131 6.78611 26.9185C7.72807 27.2172 8.6684 27.5229 9.61749 27.7934C10.0104 27.9055 10.4236 27.9337 10.828 28H12.0171C12.4138 27.9349 12.8127 27.8856 13.2056 27.8017C14.3311 27.5553 15.4014 27.078 16.3576 26.3962C17.471 25.6169 18.5796 24.8282 19.7101 24.0777C20.337 23.6616 20.8482 23.1787 21 22.3665V21.7503C20.9145 21.515 20.8526 21.2621 20.737 21.0462ZM3.7728 26.0993C3.7728 26.146 3.75548 26.1908 3.72465 26.2238C3.69382 26.2568 3.65201 26.2753 3.60841 26.2753H1.03293C0.989331 26.2753 0.947517 26.2568 0.916688 26.2238C0.885858 26.1908 0.868538 26.146 0.868538 26.0993V18.0985C0.868538 18.0519 0.885858 18.0071 0.916688 17.9741C0.947517 17.941 0.989331 17.9225 1.03293 17.9225H3.60841C3.65201 17.9225 3.69382 17.941 3.72465 17.9741C3.75548 18.0071 3.7728 18.0519 3.7728 18.0985V26.0993ZM19.4838 22.6476C19.2158 22.8495 18.9358 23.0331 18.6618 23.2244C17.6415 23.9333 16.6272 24.6534 15.5992 25.3487C13.5898 26.7078 11.4346 27.0317 9.15719 26.3141C7.69739 25.8546 6.24745 25.3593 4.79148 24.8869C4.67038 24.8476 4.63312 24.7936 4.63421 24.6604C4.63969 23.8171 4.63421 22.9739 4.63421 22.1306C4.63421 21.302 4.6386 20.4728 4.62983 19.6442C4.62983 19.4852 4.6786 19.4095 4.81066 19.3573C6.03703 18.8444 7.21681 18.9582 8.22454 19.8578C8.94348 20.5033 9.72599 20.8326 10.6258 20.9634C11.234 21.052 11.8384 21.177 12.439 21.3155C12.8472 21.4076 13.0938 21.8354 13.0418 22.2832C13.0163 22.4924 12.9196 22.6841 12.7702 22.8216C12.6209 22.9592 12.4294 23.0328 12.2324 23.0284C12.007 23.0103 11.7831 22.9754 11.5622 22.924C10.5271 22.7286 9.49255 22.5285 8.45688 22.3336C8.07001 22.2603 7.75821 22.4804 7.68972 22.8671C7.6256 23.228 7.85849 23.5642 8.23385 23.6352C9.43008 23.8629 10.6274 24.0841 11.8236 24.3106C12.5278 24.4444 13.1936 24.3247 13.8341 23.9926C15.451 23.1566 17.0705 22.3266 18.6925 21.5027C18.8505 21.4192 19.0248 21.377 19.201 21.3795C19.481 21.3941 19.6975 21.6277 19.7528 21.9182C19.7848 22.0546 19.776 22.1984 19.7277 22.3292C19.6795 22.46 19.5942 22.5714 19.4838 22.6476Z" fill="white" />
    <path d="M11.063 4.07915C10.5393 4.07178 10.0197 4.16447 9.53713 4.35134C9.0891 4.51924 8.69255 4.78513 8.38201 5.12587C8.04966 5.48904 7.80256 5.91131 7.65621 6.36623C7.4804 6.89577 7.39532 7.44719 7.40402 8.00074C7.40402 8.80008 7.53737 9.49491 7.80407 10.0852C8.04978 10.6415 8.47315 11.1164 9.01849 11.4475C9.5619 11.7654 10.2374 11.9244 11.045 11.9244C11.4893 11.927 11.9329 11.891 12.3698 11.8169C12.7794 11.7441 13.1848 11.6521 13.5842 11.5413V12.6038C13.1863 12.741 12.7744 12.8415 12.3548 12.9036C11.8598 12.973 11.3595 13.005 10.8589 12.9994C9.78257 12.9994 8.88414 12.7949 8.16359 12.3861C7.43812 11.9726 6.86913 11.3638 6.53411 10.6427C6.17834 9.88883 6.00046 9.00313 6.00046 7.98558C5.99193 7.30206 6.10214 6.62166 6.32696 5.97C6.53592 5.38934 6.86749 4.85219 7.30269 4.38924C7.7432 3.94042 8.29055 3.59096 8.90215 3.36801C9.53413 3.1227 10.2597 3.00004 11.0788 3.00004C11.6065 2.99843 12.1329 3.04855 12.649 3.14957C13.1168 3.23783 13.5707 3.37975 14 3.57198L13.4663 4.60561C13.1107 4.46074 12.7442 4.33938 12.3698 4.24246C11.9452 4.12961 11.505 4.07459 11.063 4.07915ZM9.96796 8.05655C9.96796 7.72074 10.0568 7.48461 10.2344 7.34817C10.4127 7.21101 10.639 7.1376 10.8716 7.14145C11.1088 7.13611 11.3402 7.20951 11.5231 7.34817C11.7108 7.48599 11.8046 7.72212 11.8046 8.05655C11.8046 8.3841 11.7108 8.62023 11.5231 8.76494C11.3434 8.91209 11.1093 8.99071 10.8686 8.98475C10.6337 8.98878 10.406 8.91069 10.2314 8.76631C10.0558 8.62023 9.96796 8.38364 9.96796 8.05655Z" fill="white" />
    <path fill-rule="evenodd" clip-rule="evenodd" d="M11 16C15.4183 16 19 12.4183 19 8C19 3.58172 15.4183 0 11 0C6.58172 0 3 3.58172 3 8C3 12.4183 6.58172 16 11 16ZM11 15.1111C14.9274 15.1111 18.1111 11.9274 18.1111 8C18.1111 4.07264 14.9274 0.888889 11 0.888889C7.07264 0.888889 3.88889 4.07264 3.88889 8C3.88889 11.9274 7.07264 15.1111 11 15.1111Z" fill="white" />
</svg>
