<svg viewBox="0 0 30 31" fill="none" xmlns="http://www.w3.org/2000/svg">
    <g clip-path="url(#clip0_301_60)">
        <path d="M11.5887 30.9999C11.2222 30.6756 10.8193 30.3828 10.4951 30.0222C7.82385 27.0436 6.4485 23.564 6.42733 19.603C6.41203 17.0701 7.41207 14.9386 9.35332 13.2598C13.6782 9.52541 20.5243 11.0047 22.8486 16.1688C23.3222 17.2046 23.5721 18.3247 23.5827 19.4592C23.5868 20.0395 23.1962 20.4634 22.6533 20.4743C22.0909 20.4852 21.682 20.0757 21.6644 19.4834C21.5662 16.1769 19.2437 13.5974 15.9095 13.0918C13.1899 12.6789 10.3451 14.1351 9.06096 16.5789C8.42093 17.7965 8.26152 19.0888 8.35505 20.4323C8.59898 23.8429 9.93237 26.7819 12.3552 29.2492C13.0323 29.9394 12.9305 30.572 12.0611 31.0022L11.5887 30.9999Z" fill="black" />
        <path d="M15.7065 0C16.3195 0.0575139 16.9348 0.100074 17.546 0.175993C20.3959 0.520292 23.1344 1.46937 25.5698 2.95679C26.8504 3.7388 28.0386 4.65673 29.1129 5.69388C29.4412 6.00963 29.5182 6.41683 29.3347 6.79814C29.1635 7.15473 28.78 7.38421 28.3711 7.30139C28.1343 7.25162 27.9157 7.1399 27.7388 6.97816C25.6134 4.94045 23.1356 3.47902 20.2879 2.63874C17.5385 1.81701 14.6277 1.65135 11.7993 2.15562C8.10151 2.8061 4.92668 4.43547 2.24893 7.0052C1.82067 7.41584 1.20594 7.4239 0.831223 7.03625C0.456503 6.64861 0.492386 6.07347 0.911815 5.67375C4.14665 2.58813 8.00033 0.739054 12.4858 0.172542C13.087 0.0960482 13.6929 0.0575139 14.2947 0H15.7065Z" fill="black" />
        <path d="M15.6565 7.45605C19.6355 7.61422 23.2362 9.54726 25.6763 13.4318C26.8476 15.2952 27.3823 17.3536 27.3923 19.5351C27.407 22.0853 25.2951 24.1558 22.6762 24.1892C21.4213 24.2053 20.2108 23.7348 19.3098 22.8806C18.4088 22.0264 17.8905 20.8581 17.8684 19.6312C17.8396 18.1191 16.8472 16.9855 15.3718 16.7814C13.7135 16.5513 12.1529 17.8275 12.1458 19.4788C12.1352 22.0853 13.0223 24.379 14.79 26.3367C15.8049 27.4622 17.064 28.3519 18.4755 28.941C18.9314 29.1336 19.1578 29.4908 19.1225 29.9014C19.0902 30.296 18.8243 30.6549 18.4125 30.7124C18.144 30.7434 17.8718 30.7036 17.6242 30.5974C15.9066 29.8743 14.3863 28.7677 13.1853 27.3662C11.244 25.1111 10.2504 22.5051 10.244 19.5535C10.2387 17.5342 11.5775 15.7363 13.51 15.1284C15.5142 14.4958 17.6654 15.1796 18.8867 16.8487C19.479 17.6584 19.7602 18.5683 19.7761 19.5685C19.7937 20.6952 20.3444 21.5406 21.3644 22.0358C22.3733 22.5247 23.3862 22.4425 24.3092 21.792C25.0822 21.2479 25.4981 20.4881 25.481 19.5541C25.4122 15.8732 23.8374 12.94 20.6638 10.9696C17.0754 8.73919 13.3105 8.69088 9.64511 10.7821C6.62264 12.5075 4.94316 15.1779 4.57785 18.604C4.5455 18.9082 4.53903 19.2154 4.5255 19.5213C4.50197 20.0746 4.09548 20.4761 3.55781 20.472C3.02015 20.468 2.60425 20.0528 2.6166 19.5C2.68719 15.8968 4.07078 12.8612 6.83735 10.4778C9.19039 8.44817 11.9752 7.46008 15.6565 7.45605Z" fill="black" />
        <path d="M14.9365 3.71338C20.3579 3.86061 24.721 5.94377 28.007 10.1227C28.7759 11.1005 29.3835 12.1702 29.8894 13.2963C30.1394 13.8514 29.9518 14.3753 29.4306 14.6008C28.9312 14.8176 28.397 14.5973 28.1558 14.063C26.8246 11.1125 24.7439 8.80279 21.8291 7.29937C17.4595 5.04828 13.0005 4.97351 8.55917 7.1067C5.45964 8.59573 3.25838 10.9601 1.85303 14.0435C1.5989 14.6019 1.07418 14.8222 0.563567 14.5985C0.0429585 14.3684 -0.147049 13.8508 0.114726 13.2935C2.50306 8.21729 6.49615 5.11557 12.094 3.9883C12.4015 3.92782 12.7122 3.88424 13.0246 3.85774C13.6782 3.80023 14.3335 3.75824 14.9365 3.71338Z" fill="black" />
        <path d="M22.295 27.9034C19.0531 27.8367 15.9236 25.7086 14.7065 22.7593C14.2908 21.7645 14.0699 20.7022 14.0553 19.6277C14.0476 19.0462 14.4365 18.6293 14.9841 18.616C15.5318 18.6028 15.9383 19.0146 15.9554 19.5909C16.0577 22.9963 18.5072 25.6235 21.9597 26.0273C22.1633 26.0509 22.3715 26.0468 22.5756 26.0537C23.1715 26.0744 23.5927 26.4644 23.5874 26.9929C23.5821 27.5215 23.1562 27.904 22.5586 27.9034H22.295Z" fill="black" />
    </g>
    <defs>
        <clipPath id="clip0_301_60">
            <rect width="30" height="31" fill="white" />
        </clipPath>
    </defs>
</svg>
