<svg width="20" height="20" viewBox="0 0 20 20" fill="none" xmlns="http://www.w3.org/2000/svg">
<path d="M9.77989 10.6517C10.0579 10.2704 10.3801 9.92031 10.7468 9.60137L10.7485 9.59994C11.0445 9.33876 11.311 9.05933 11.5474 8.76155C11.8152 8.42439 11.95 8.03342 11.95 7.59999C11.95 7.11098 11.7565 6.69548 11.3837 6.37308C11.0196 6.05814 10.587 5.89999 10.1 5.89999C9.75378 5.89999 9.42161 5.97731 9.10661 6.13004C8.78695 6.28503 8.51987 6.50872 8.30805 6.79756L8.30587 6.80062C8.17753 6.98029 8.03192 7.07266 7.86616 7.10581C7.69343 7.14036 7.52716 7.11468 7.35532 7.01819C7.24969 6.94909 7.1844 6.85325 7.15748 6.70786C7.12907 6.55445 7.15331 6.41493 7.23423 6.27621L7.23836 6.26864C7.5072 5.77577 7.89627 5.41211 8.41371 5.17214C8.94919 4.9238 9.51029 4.79999 10.1 4.79999C10.9527 4.79999 11.6911 5.05025 12.3275 5.54868C12.9494 6.03571 13.25 6.64576 13.25 7.39999C13.25 7.87874 13.1275 8.30592 12.8842 8.68924C12.6229 9.10103 12.3096 9.48198 11.9437 9.83218C11.6692 10.0896 11.4117 10.36 11.1712 10.6434C10.9051 10.957 10.7322 11.3164 10.6556 11.7174C10.6169 11.9098 10.5331 12.0613 10.4056 12.1827C10.2885 12.2943 10.1509 12.35 9.97499 12.35C9.81698 12.35 9.6843 12.2991 9.56376 12.19C9.45081 12.0878 9.39999 11.9725 9.39999 11.825C9.39999 11.3878 9.52606 10.9999 9.77989 10.6517Z" fill="#005A78"/>
<path d="M10.4839 14.7839C10.3385 14.9294 10.1709 15 9.94995 15C9.72901 15 9.56142 14.9294 9.41601 14.7839C9.27059 14.6385 9.19995 14.4709 9.19995 14.25C9.19995 14.0291 9.27059 13.8615 9.416 13.7161C9.56142 13.5706 9.72901 13.5 9.94995 13.5C10.1709 13.5 10.3385 13.5706 10.4839 13.7161C10.6293 13.8615 10.7 14.0291 10.7 14.25C10.7 14.4709 10.6293 14.6385 10.4839 14.7839Z" fill="#005A78"/>
<path d="M10 20C8.61667 20 7.31667 19.7375 6.1 19.2125C4.88333 18.6875 3.825 17.975 2.925 17.075C2.025 16.175 1.3125 15.1167 0.7875 13.9C0.2625 12.6833 0 11.3833 0 10C0 8.61667 0.2625 7.31667 0.7875 6.1C1.3125 4.88333 2.025 3.825 2.925 2.925C3.825 2.025 4.88333 1.3125 6.1 0.7875C7.31667 0.2625 8.61667 0 10 0C11.3833 0 12.6833 0.2625 13.9 0.7875C15.1167 1.3125 16.175 2.025 17.075 2.925C17.975 3.825 18.6875 4.88333 19.2125 6.1C19.7375 7.31667 20 8.61667 20 10C20 11.3833 19.7375 12.6833 19.2125 13.9C18.6875 15.1167 17.975 16.175 17.075 17.075C16.175 17.975 15.1167 18.6875 13.9 19.2125C12.6833 19.7375 11.3833 20 10 20ZM10 18C12.2333 18 14.125 17.225 15.675 15.675C17.225 14.125 18 12.2333 18 10C18 7.76667 17.225 5.875 15.675 4.325C14.125 2.775 12.2333 2 10 2C7.76667 2 5.875 2.775 4.325 4.325C2.775 5.875 2 7.76667 2 10C2 12.2333 2.775 14.125 4.325 15.675C5.875 17.225 7.76667 18 10 18Z" fill="#005A78"/>
</svg>
