<svg viewBox="0 0 37 16" fill="none" xmlns="http://www.w3.org/2000/svg">
    <path fill-rule="evenodd" clip-rule="evenodd" d="M2 1H27.0909C27.6432 1 28.0909 1.44772 28.0909 2V2.66619H29.0909V2C29.0909 0.895431 28.1955 0 27.0909 0H2C0.895431 0 0 0.895431 0 2V14C0 15.1046 0.895433 16 2 16H27.0909C28.1955 16 29.0909 15.1046 29.0909 14V13.3329H28.0909V14C28.0909 14.5523 27.6432 15 27.0909 15H2C1.44772 15 1 14.5523 1 14V2C1 1.44772 1.44772 1 2 1Z" fill="white" />
    <path d="M7.27274 8.72736C8.87939 8.72736 10.1818 7.42492 10.1818 5.81827C10.1818 4.21162 8.87939 2.90918 7.27274 2.90918C5.66609 2.90918 4.36365 4.21162 4.36365 5.81827C4.36365 7.42492 5.66609 8.72736 7.27274 8.72736Z" fill="white" />
    <path fill-rule="evenodd" clip-rule="evenodd" d="M11.0522 13.091C10.2976 11.3522 8.88778 10.1819 7.27295 10.1819C5.65784 10.1819 4.24762 11.3517 3.49304 13.091H11.0522Z" fill="white" />
    <path fill-rule="evenodd" clip-rule="evenodd" d="M36.3636 8.19698C30.0609 12.7972 26.558 12.7682 20.3636 8.19698V7.78002C26.6651 3.23912 30.1687 3.21029 36.3636 7.78002V8.19698ZM28.5688 5.17161C30.1548 5.17161 31.4406 6.43787 31.4406 7.99989C31.4406 9.56191 30.1548 10.8282 28.5688 10.8282C26.9827 10.8282 25.697 9.56191 25.697 7.99989C25.697 6.43787 26.9827 5.17161 28.5688 5.17161Z" fill="white" />
    <ellipse rx="1.64103" ry="1.61616" transform="matrix(1 0 0 -1 28.5688 7.99981)" fill="white" />
    <line x1="13.0909" y1="3.86353" x2="23.2728" y2="3.86353" stroke="white" />
    <line x1="13.0909" y1="6.77271" x2="17.4546" y2="6.77271" stroke="white" />
    <line x1="13.0909" y1="9.68188" x2="16" y2="9.68188" stroke="white" />
    <line x1="13.0909" y1="12.5908" x2="17.4546" y2="12.5908" stroke="white" />
</svg>
