<svg width="37" height="17" viewBox="0 0 37 17" fill="none" xmlns="http://www.w3.org/2000/svg">
    <path fill-rule="evenodd" clip-rule="evenodd" d="M2 1H28C28.5523 1 29 1.44772 29 2V2.83301H30V2C30 0.895431 29.1046 0 28 0H2C0.895431 0 0 0.89543 0 2V15C0 16.1046 0.89543 17 2 17H28C29.1046 17 30 16.1046 30 15V14.1663H29V15C29 15.5523 28.5523 16 28 16H2C1.44772 16 1 15.5523 1 15V2C1 1.44772 1.44772 1 2 1Z" fill="white" />
    <path d="M7.41189 9.27264C9.04928 9.27264 10.3766 7.88879 10.3766 6.18173C10.3766 4.47467 9.04928 3.09082 7.41189 3.09082C5.77451 3.09082 4.44714 4.47467 4.44714 6.18173C4.44714 7.88879 5.77451 9.27264 7.41189 9.27264Z" fill="white" filter="url(#blur)" />
    <path fill-rule="evenodd" clip-rule="evenodd" d="M11.2636 13.9092C10.4946 12.0618 9.05783 10.8184 7.41212 10.8184C5.76614 10.8184 4.32896 12.0613 3.55994 13.9092H11.2636Z" fill="white" filter="url(#blur)" />
    <line x1="13.3413" y1="4.13672" x2="23.7179" y2="4.13672" stroke="white" filter="url(#blur)" />
    <line x1="13.3413" y1="7.22754" x2="17.7884" y2="7.22754" stroke="white" filter="url(#blur)" />
    <line x1="13.3413" y1="10.3184" x2="16.3061" y2="10.3184" stroke="white" filter="url(#blur)" />
    <line x1="13.3413" y1="13.4092" x2="17.7884" y2="13.4092" stroke="white" filter="url(#blur)" />
    <path fill-rule="evenodd" clip-rule="evenodd" d="M30.2106 7.33592C29.9329 7.11679 29.584 6.98633 29.2051 6.98633C28.2988 6.98633 27.5641 7.73289 27.5641 8.65381C27.5641 9.05302 27.7021 9.41947 27.9324 9.70654L30.2106 7.33592ZM28.5923 10.2011C28.7816 10.2786 28.9885 10.3213 29.2051 10.3213C30.1114 10.3213 30.8461 9.57474 30.8461 8.65381C30.8461 8.41965 30.7986 8.19676 30.7129 7.99455L28.5923 10.2011Z" fill="white" />
    <path fill-rule="evenodd" clip-rule="evenodd" d="M32.0089 5.46477C28.4544 4.14822 25.4135 5.14596 21 8.42733V8.85753C22.8258 10.2477 24.4177 11.2307 25.9165 11.8042L27.0692 10.6048C26.6117 10.0879 26.3333 9.40407 26.3333 8.65419C26.3333 7.04257 27.6191 5.73609 29.2051 5.73609C29.9186 5.73609 30.5713 6.00045 31.0735 6.43804L32.0089 5.46477ZM27.6938 11.136C28.1328 11.4126 28.6506 11.5723 29.2051 11.5723C30.7912 11.5723 32.0769 10.2658 32.0769 8.65419C32.0769 8.06593 31.9056 7.51833 31.6109 7.06008L32.8207 5.80126C34.1048 6.38824 35.4704 7.26315 37 8.42733V8.85753C32.9141 11.9344 30.0048 13.0041 26.7762 12.0909L27.6938 11.136Z" fill="white" />
    <defs>
        <filter id="blur">
            <feGaussianBlur stdDeviation="1" />
        </filter>
    </defs>
</svg>
