<svg viewBox="0 0 53 29" fill="none" xmlns="http://www.w3.org/2000/svg">
    <path fill-rule="evenodd" clip-rule="evenodd" d="M50.7273 1H2C1.44771 1 1 1.44772 1 2V27C1 27.5523 1.44772 28 2 28H50.7273C51.2796 28 51.7273 27.5523 51.7273 27V2C51.7273 1.44772 51.2796 1 50.7273 1ZM2 0C0.895431 0 0 0.89543 0 2V27C0 28.1046 0.89543 29 2 29H50.7273C51.8318 29 52.7273 28.1046 52.7273 27V2C52.7273 0.895431 51.8318 0 50.7273 0H2Z" fill="white" />
    <path d="M13.1819 15.8184C16.094 15.8184 18.4546 13.4577 18.4546 10.5457C18.4546 7.63363 16.094 5.27295 13.1819 5.27295C10.2699 5.27295 7.90918 7.63363 7.90918 10.5457C7.90918 13.4577 10.2699 15.8184 13.1819 15.8184Z" fill="white" />
    <path fill-rule="evenodd" clip-rule="evenodd" d="M20.0319 23.7277C18.6643 20.5762 16.109 18.4551 13.1821 18.4551C10.2547 18.4551 7.69873 20.5754 6.33105 23.7277H20.0319Z" fill="white" />
    <line x1="24" y1="7.5" x2="44" y2="7.5" stroke="white" />
    <line x1="24" y1="12.5" x2="41" y2="12.5" stroke="white" />
    <line x1="24" y1="17.5" x2="41" y2="17.5" stroke="white" />
    <line x1="24" y1="22.5" x2="44" y2="22.5" stroke="white" />
</svg>
