<svg width="11" height="10" viewBox="0 0 11 10" fill="none" xmlns="http://www.w3.org/2000/svg">
<path d="M10.8978 5.00098C10.8978 7.70717 8.704 9.90098 5.9978 9.90098C3.29161 9.90098 1.0978 7.70717 1.0978 5.00098C1.0978 2.29478 3.29161 0.100977 5.9978 0.100977C8.704 0.100977 10.8978 2.29478 10.8978 5.00098Z" fill="#CCCCCC" fill-opacity="0.5" stroke="white" stroke-width="0.2"/>
<path d="M7.05689 3.67402C7.05755 3.55138 7.03285 3.42991 6.98432 3.31822C6.93574 3.20638 6.86436 3.10684 6.77487 3.02699L6.77448 3.02664C6.56873 2.84494 6.30552 2.75102 6.03656 2.76498C5.76465 2.75647 5.50001 2.85371 5.29187 3.03705L5.29186 3.03704L5.29081 3.03799C5.10544 3.20597 4.97873 3.44805 4.90386 3.75444L4.10529 3.64914C4.12626 3.45788 4.17871 3.27197 4.2603 3.10006C4.35496 2.90062 4.48675 2.72446 4.64719 2.58225L4.64722 2.58228L4.6495 2.58014C4.98527 2.26321 5.42942 2.10098 5.99199 2.10098C6.58618 2.10098 7.04714 2.26581 7.38636 2.58587C7.73035 2.91043 7.8978 3.28262 7.8978 3.70627L7.8978 3.70636C7.89801 3.94154 7.83421 4.17129 7.71474 4.3677L7.71473 4.3677L7.7141 4.36877C7.59037 4.57799 7.31685 4.87434 6.88166 5.26039C6.65473 5.46128 6.50112 5.63314 6.4371 5.76969C6.40306 5.84231 6.38094 5.9421 6.36731 6.05704C6.35652 6.14805 6.35056 6.25303 6.34954 6.36927H5.58137V6.36914V6.36844V6.36774V6.36705V6.36635V6.36566V6.36497V6.36428V6.36359V6.36291V6.36222V6.36154V6.36085V6.36017V6.35949V6.35881V6.35813V6.35746V6.35678V6.35611V6.35544V6.35476V6.35409V6.35343V6.35276V6.35209V6.35143V6.35076V6.3501V6.34944V6.34878V6.34812V6.34747V6.34681V6.34616V6.34551V6.34485V6.3442V6.34356V6.34291V6.34226V6.34162V6.34097V6.34033V6.33969V6.33905V6.33841V6.33777V6.33714V6.3365V6.33587V6.33524V6.33461V6.33398V6.33335V6.33273V6.3321V6.33148V6.33085V6.33023V6.32961V6.329V6.32838V6.32776V6.32715V6.32653V6.32592V6.32531V6.3247V6.32409V6.32349V6.32288V6.32228V6.32168V6.32107V6.32047V6.31988V6.31928V6.31868V6.31809V6.31749V6.3169V6.31631V6.31572V6.31513V6.31455V6.31396V6.31338V6.31279V6.31221V6.31163V6.31105V6.31047V6.3099V6.30932V6.30875V6.30818V6.30761V6.30704V6.30647V6.3059V6.30533V6.30477V6.30421V6.30365V6.30308V6.30253V6.30197V6.30141V6.30086V6.3003V6.29975V6.2992V6.29865V6.2981V6.29755V6.29701V6.29646V6.29592V6.29538V6.29484V6.2943V6.29376V6.29322V6.29269V6.29215V6.29162V6.29109V6.29056V6.29003V6.2895V6.28897V6.28845V6.28793V6.2874V6.28688V6.28636V6.28585V6.28533V6.28481V6.2843V6.28379V6.28327V6.28276V6.28225V6.28175V6.28124V6.28074V6.28023V6.27973V6.27923V6.27873V6.27823V6.27773V6.27724V6.27674V6.27625V6.27576V6.27527V6.27478V6.27429V6.2738V6.27332V6.27283V6.27235V6.27187V6.27139V6.27091V6.27043V6.26996V6.26948V6.26901V6.26854V6.26807V6.2676V6.26713V6.26666V6.2662V6.26573V6.26527V6.26481V6.26435V6.26389V6.26343V6.26298V6.26252V6.26207V6.26162V6.26117V6.26072V6.26027V6.25982V6.25938V6.25893V6.25849V6.25805V6.25761V6.25717V6.25673V6.25629V6.25586V6.25543V6.25499V6.25456V6.25413V6.2537V6.25328V6.25285V6.25243V6.252V6.25158V6.25116V6.25074V6.25033V6.24991V6.24949V6.24908V6.24867V6.24826V6.24785V6.24744V6.24703V6.24662V6.24622V6.24582V6.24542V6.24502V6.24462V6.24422V6.24382V6.24343V6.24303V6.24264V6.24225V6.24186V6.24147V6.24108V6.2407V6.24031V6.23993V6.23955V6.23917V6.23879V6.23841V6.23803V6.23766V6.23728V6.23691V6.23654V6.23617V6.2358V6.23543V6.23507V6.2347V6.23434V6.23398V6.23362V6.23326V6.2329V6.23254V6.23219V6.23183V6.23148V6.23113V6.23078V6.23043V6.23008V6.22973V6.22939V6.22905V6.2287V6.22836V6.22802V6.22769V6.22735V6.22701V6.22668V6.22635V6.22601V6.22568V6.22536V6.22503V6.2247V6.22438V6.22405V6.22373V6.22341V6.22309V6.22277V6.22245V6.22214V6.22182V6.22151V6.2212V6.22089V6.22058V6.22027V6.21997V6.21966V6.21936V6.21906V6.21875V6.21845V6.21816V6.21786V6.21756V6.21727V6.21698V6.21668V6.21639V6.2161V6.21582V6.21553V6.21525V6.21496V6.21468V6.2144V6.21412V6.21384V6.21356V6.21329V6.21301V6.21274V6.21247V6.2122V6.21193V6.21166V6.21139V6.21113V6.21086V6.2106V6.21034V6.21008V6.20982V6.20957V6.20931V6.20905V6.2088V6.20855V6.2083V6.20805V6.2078V6.20756V6.20731V6.20707V6.20682V6.20658V6.20634V6.2061V6.20587V6.20563V6.2054V6.20516V6.20493V6.2047V6.20447V6.20424V6.20402V6.20379V6.20357V6.20334V6.20312V6.2029V6.20268V6.20247V6.20225V6.20204V6.20182V6.20161V6.2014V6.20119V6.20098V6.20078V6.20057V6.20037V6.20017V6.19996V6.19976V6.19957V6.19937V6.19917V6.19898V6.19878V6.19859V6.1984H5.58143L5.58131 6.19495C5.57201 5.92545 5.62232 5.65759 5.72793 5.41311C5.82308 5.21644 6.01906 4.98484 6.32722 4.71852C6.52849 4.55464 6.71709 4.3739 6.89122 4.17806L6.89157 4.17837L6.89725 4.17058C7.00138 4.02798 7.05723 3.85317 7.05689 3.67402ZM7.05689 3.67402C7.05689 3.67416 7.05689 3.67429 7.05689 3.67443L6.95689 3.67384L7.05689 3.67361C7.05689 3.67374 7.05689 3.67388 7.05689 3.67402ZM5.58137 7.90098V6.96221H6.44822V7.90098H5.58137Z" fill="white" stroke="white" stroke-width="0.2"/>
</svg>
