<svg width="20" height="10" viewBox="0 0 20 10" fill="none" xmlns="http://www.w3.org/2000/svg">
<path d="M9.25 10H5C3.61667 10 2.4375 9.5125 1.4625 8.5375C0.4875 7.5625 0 6.38333 0 5C0 3.61667 0.4875 2.4375 1.4625 1.4625C2.4375 0.4875 3.61667 0 5 0H9.25V1.5H5C4.02778 1.5 3.20139 1.83971 2.52082 2.51913C1.84027 3.19853 1.5 4.02353 1.5 4.99413C1.5 5.96471 1.84027 6.79167 2.52082 7.475C3.20139 8.15833 4.02778 8.5 5 8.5H9.25V10ZM6.125 5.75V4.25H13.875V5.75H6.125ZM10.75 10V8.5H15C15.9722 8.5 16.7986 8.16029 17.4792 7.48087C18.1597 6.80147 18.5 5.97647 18.5 5.00587C18.5 4.03529 18.1597 3.20833 17.4792 2.525C16.7986 1.84167 15.9722 1.5 15 1.5H10.75V0H15C16.3833 0 17.5625 0.4875 18.5375 1.4625C19.5125 2.4375 20 3.61667 20 5C20 6.38333 19.5125 7.5625 18.5375 8.5375C17.5625 9.5125 16.3833 10 15 10H10.75Z" fill="#4486AB"/>
</svg>
