<svg viewBox="0 0 14 8" fill="none" xmlns="http://www.w3.org/2000/svg">
    <path d="M3.35941 8L9.48359 8C9.77041 8 10.0029 7.76658 10.0029 7.47865V7.47819C10.0029 7.19025 9.77041 6.95684 9.48359 6.95684L3.35941 6.95684C3.07258 6.95684 2.84006 7.19025 2.84006 7.47819V7.47865C2.84006 7.76658 3.07258 8 3.35941 8Z" fill="#FBFBF9" />
    <path d="M1.31261 4.86914L9.48359 4.86914C9.77041 4.86914 10.0029 4.63572 10.0029 4.34779V4.34733C10.0029 4.05939 9.77041 3.82598 9.48359 3.82598L1.31261 3.82598C1.02578 3.82598 0.793266 4.05939 0.793266 4.34733V4.34779C0.793266 4.63572 1.02578 4.86914 1.31261 4.86914Z" fill="#FBFBF9" />
    <path d="M2.33601 1.74219L9.48359 1.74219C9.77041 1.74219 10.0029 1.50877 10.0029 1.22084V1.22037C10.0029 0.932441 9.77041 0.699025 9.48359 0.699025L2.33601 0.699025C2.04918 0.699025 1.81666 0.932441 1.81666 1.22037V1.22084C1.81666 1.50877 2.04918 1.74219 2.33601 1.74219Z" fill="#FBFBF9" />
    <path d="M11.5458 8H12.5539C12.8407 8 13.0732 7.76658 13.0732 7.47865V7.47819C13.0732 7.19025 12.8407 6.95684 12.5539 6.95684H11.5458C11.259 6.95684 11.0264 7.19025 11.0264 7.47819V7.47865C11.0264 7.76658 11.259 8 11.5458 8Z" fill="#FBFBF9" />
    <path d="M11.5458 4.86914H12.5539C12.8407 4.86914 13.0732 4.63572 13.0732 4.34779V4.34733C13.0732 4.05939 12.8407 3.82598 12.5539 3.82598H11.5458C11.259 3.82598 11.0264 4.05939 11.0264 4.34733V4.34779C11.0264 4.63572 11.259 4.86914 11.5458 4.86914Z" fill="#FBFBF9" />
    <path d="M11.5458 1.74219L12.5539 1.74219C12.8407 1.74219 13.0732 1.50877 13.0732 1.22084V1.22037C13.0732 0.932441 12.8407 0.699025 12.5539 0.699025L11.5458 0.699025C11.259 0.699025 11.0264 0.932441 11.0264 1.22037V1.22084C11.0264 1.50877 11.259 1.74219 11.5458 1.74219Z" fill="#FBFBF9" />
</svg>
