<svg width="35" height="25" viewBox="0 0 35 25" fill="none" xmlns="http://www.w3.org/2000/svg">
<path fill-rule="evenodd" clip-rule="evenodd" d="M30 0H0V22.1429H18.3311C16.9231 20.515 16.0714 18.3927 16.0714 16.0714C16.0714 15.7634 16.0864 15.4589 16.1157 15.1586L14.6428 13L12.7361 15.7944L8.92854 8.57143L6.7845 12.6387L4.64282 5.71429L1.42854 16.1066V1.42857H28.5714V7.35709C29.069 7.54071 29.5466 7.76574 30 8.028V0Z" fill="#979797"/>
<path fill-rule="evenodd" clip-rule="evenodd" d="M29.8444 23.7928C28.5259 24.5608 26.9928 25.0007 25.357 25.0007C20.4259 25.0007 16.4284 21.0032 16.4284 16.0721C16.4284 14.5586 16.805 13.133 17.4696 11.884L16.0498 10.4641L20.3871 10.5587L20.4817 14.896L19.2618 13.6761C18.9697 14.4183 18.8093 15.2267 18.8093 16.0726C18.8093 19.6887 21.7408 22.6202 25.3569 22.6202C26.3287 22.6202 27.251 22.4085 28.0803 22.0287L29.8444 23.7928ZM30.2727 17.0697L31.5706 18.1425C31.7872 17.4919 31.9045 16.796 31.9045 16.0726C31.9045 12.4564 28.9731 9.52497 25.3569 9.52497C24.2279 9.52497 23.1655 9.81076 22.2383 10.3139L20.502 8.57762C21.8995 7.67045 23.5667 7.14355 25.357 7.14355C30.2881 7.14355 34.2856 11.141 34.2856 16.0721C34.2856 17.3786 34.005 18.6195 33.5008 19.7378L34.9454 20.9318L30.6978 21.3132L30.2727 17.0697Z" fill="#A4BFCD"/>
</svg>
