<svg width="109" height="109" viewBox="0 0 109 109" fill="none" xmlns="http://www.w3.org/2000/svg">
<g clip-path="url(#clip0_6_28)">
<path d="M54.5 109C41.9266 108.992 29.7424 104.639 20.0113 96.6763C10.2803 88.7141 3.6008 77.6328 1.10434 65.3097C-1.39212 52.9866 0.447967 40.1794 6.31288 29.0576C12.1778 17.9359 21.7069 9.1834 33.286 4.28288C39.8806 1.49702 46.9594 0.0373387 54.1181 -0.0128219C61.2768 -0.0629824 68.3753 1.29736 75.0082 3.99054C88.4042 9.42966 99.0907 19.9675 104.717 33.2859C107.503 39.8805 108.963 46.9592 109.013 54.1179C109.063 61.2766 107.703 68.3751 105.009 75.0081C102.316 81.6411 98.3429 87.6787 93.3164 92.7761C88.2899 97.8735 82.3086 101.931 75.714 104.717C69.0029 107.557 61.7875 109.014 54.5 109ZM54.5 6.70788C43.4434 6.70749 32.7287 10.5408 24.1815 17.5547C15.6343 24.5687 9.78356 34.3292 7.62604 45.1733C5.46853 56.0174 7.13778 67.2741 12.3494 77.0254C17.561 86.7767 25.9924 94.4193 36.2072 98.6511C46.422 102.883 57.788 103.442 68.3688 100.233C78.9495 97.0238 88.0902 90.2454 94.2335 81.0526C100.377 71.8597 103.143 60.8211 102.06 49.8176C100.977 38.8142 96.1117 28.5266 88.294 20.7079C79.3282 11.7495 67.1743 6.71447 54.5 6.70788ZM53.275 89.7179C48.2025 89.7195 43.1894 88.6254 38.5788 86.5102C33.9683 84.3951 29.869 81.309 26.5616 77.463C23.2541 73.617 20.8165 69.1019 19.4155 64.2266C18.0145 59.3513 17.6833 54.231 18.4444 49.2158C19.2054 44.2007 21.0409 39.4091 23.8252 35.169C26.6095 30.9288 30.2769 27.3402 34.5765 24.6486C38.8761 21.9571 43.7064 20.226 48.7369 19.574C53.7673 18.922 58.8793 19.3644 63.723 20.8709V32.0949C59.9535 30.3316 55.8 29.5479 51.6472 29.8164C47.4943 30.0849 43.4763 31.3968 39.9651 33.6306C36.454 35.8645 33.5632 38.9482 31.5605 42.5961C29.5577 46.2441 28.5077 50.3383 28.5077 54.4999C28.5077 58.6614 29.5577 62.7557 31.5605 66.4036C33.5632 70.0516 36.454 73.1352 39.9651 75.3691C43.4763 77.603 47.4943 78.9149 51.6472 79.1834C55.8 79.4518 59.9535 78.6681 63.723 76.9049V88.1289C60.3406 89.1816 56.8185 89.7174 53.276 89.7179H53.275ZM57.615 68.8179C57.3204 68.8173 57.0288 68.7579 56.7575 68.643C56.4861 68.5281 56.2405 68.3601 56.035 68.1489C51.485 63.6699 47.011 59.2119 42.448 54.6579C42.0431 54.2219 41.8181 53.6489 41.8181 53.0539C41.8181 52.4589 42.0431 51.8859 42.448 51.4499C43.114 50.7859 43.791 50.1259 44.448 49.4869C45.082 48.8689 45.738 48.2299 46.384 47.5869C46.595 47.3749 46.8457 47.2067 47.1218 47.092C47.3979 46.9772 47.694 46.9181 47.993 46.9181C48.292 46.9181 48.5881 46.9772 48.8642 47.092C49.1404 47.2067 49.3911 47.3749 49.602 47.5869L57.647 55.6109C61.967 51.2719 66.055 47.1959 70.009 43.2539C73.963 39.3119 78.05 35.2359 82.371 30.8999C82.5819 30.688 82.8325 30.5198 83.1086 30.405C83.3846 30.2903 83.6806 30.2312 83.9795 30.2312C84.2785 30.2312 84.5745 30.2903 84.8505 30.405C85.1265 30.5198 85.3772 30.688 85.588 30.8999C86.867 32.1759 88.188 33.4949 89.462 34.8219C89.6743 35.0318 89.8429 35.2817 89.9579 35.5572C90.073 35.8327 90.1322 36.1283 90.1322 36.4269C90.1322 36.7254 90.073 37.021 89.9579 37.2965C89.8429 37.572 89.6743 37.822 89.462 38.0319L89.456 38.0379C79.92 47.5459 70.058 57.3799 59.2 68.1509C58.9939 68.3623 58.7476 68.5303 58.4755 68.645C58.2035 68.7597 57.9113 68.8188 57.616 68.8189L57.615 68.8179Z" fill="#4486AB"/>
</g>
<defs>
<clipPath id="clip0_6_28">
<rect width="109" height="109" fill="white"/>
</clipPath>
</defs>
</svg>
