<svg width="109" height="109" viewBox="0 0 109 109" fill="none" xmlns="http://www.w3.org/2000/svg">
<g clip-path="url(#clip0_6_26)">
<path d="M19.3495 54.4998C19.3535 49.0289 20.6427 43.6355 23.1134 38.7543C25.5841 33.8731 29.167 29.6407 33.5735 26.3982C37.9799 23.1556 43.0865 20.9937 48.4816 20.0868C53.8768 19.1798 59.4096 19.5531 64.634 21.1765V32.2985C60.8988 30.5515 56.7831 29.7751 52.6681 30.0413C48.5531 30.3074 44.5718 31.6075 41.0927 33.8211C37.6136 36.0347 34.7492 39.0903 32.7648 42.705C30.7803 46.3198 29.74 50.3767 29.74 54.5003C29.74 58.6239 30.7803 62.6809 32.7648 66.2956C34.7492 69.9103 37.6136 72.9659 41.0927 75.1795C44.5718 77.3931 48.5531 78.6932 52.6681 78.9593C56.7831 79.2255 60.8988 78.4491 64.634 76.7021V87.8231C59.4096 89.4466 53.8768 89.8199 48.4816 88.9129C43.0865 88.0059 37.9799 85.844 33.5735 82.6015C29.167 79.359 25.5841 75.1265 23.1134 70.2453C20.6427 65.3641 19.3535 59.9707 19.3495 54.4998H19.3495Z" fill="#4486AB"/>
<path d="M54.5 108.504C42.0409 108.497 29.9674 104.183 20.3248 96.2929C10.6823 88.403 4.06348 77.4225 1.58972 65.2114C-0.88405 53.0004 0.939305 40.3096 6.7509 29.289C12.5625 18.2683 22.005 9.59539 33.4788 4.73942C40.0135 1.97889 47.0279 0.532476 54.1215 0.482771C61.2151 0.433067 68.2491 1.78104 74.8218 4.44974C88.0959 9.83941 98.6853 20.2815 104.26 33.4788C107.021 40.0134 108.467 47.0278 108.517 54.1214C108.567 61.215 107.219 68.249 104.55 74.8217C101.881 81.3944 97.9443 87.3771 92.9635 92.4282C87.9827 97.4793 82.0558 101.5 75.5211 104.26C68.871 107.075 61.7212 108.519 54.5 108.504ZM54.5 7.14238C43.5439 7.14199 32.9266 10.9405 24.4571 17.8906C15.9876 24.8408 10.19 34.5126 8.05213 45.2581C5.91423 56.0036 7.5683 67.158 12.7325 76.8206C17.8967 86.4833 26.2516 94.0564 36.3735 98.2497C46.4954 102.443 57.7581 102.997 68.2426 99.8171C78.7272 96.6373 87.7848 89.9205 93.8722 80.8112C99.9597 71.7019 102.7 60.7637 101.627 49.8602C100.554 38.9568 95.7334 28.7628 87.9868 21.0151C79.1025 12.1381 67.0591 7.1488 54.5 7.14238Z" fill="#4486AB"/>
<path d="M46.5729 68.2826L44.8105 71.3454L43.5319 66.5204L43.4648 66.4819L43.5032 66.4146L42.8921 64.1074L45.1889 63.4863L45.2272 63.419L45.2942 63.4575L50.0975 62.1568L48.3352 65.2197C54.2965 68.6027 61.8611 66.4954 65.2325 60.5119C67.3932 56.676 67.3722 51.9798 65.1779 48.1641L68.2217 46.3875C72.616 54.0352 70.0022 63.8103 62.383 68.221C57.4945 71.0522 51.4806 71.0743 46.5729 68.2826ZM65.4959 42.5854L66.1069 44.8917L63.8111 45.5137L63.7728 45.581L63.7057 45.5425L58.9025 46.8432L60.6657 43.7803C54.7045 40.3973 47.1399 42.5046 43.7685 48.4881C41.6077 52.324 41.6288 57.0202 43.8231 60.8359L40.7792 62.6124C36.3839 54.9658 38.9968 45.1897 46.615 40.778C51.5026 37.9478 57.5175 37.9247 62.4261 40.7174L64.1885 37.6545L65.4671 42.4796L65.5342 42.5181L65.4959 42.5854Z" fill="#4486AB"/>
</g>
<defs>
<clipPath id="clip0_6_26">
<rect width="109" height="109" fill="white"/>
</clipPath>
</defs>
</svg>
