<svg width="24" height="24" viewBox="0 0 24 24" fill="none" xmlns="http://www.w3.org/2000/svg">
<path d="M12 16.6666C11.6792 16.6666 11.4046 16.5524 11.1761 16.3239C10.9476 16.0955 10.8334 15.8208 10.8334 15.5C10.8334 15.1791 10.9476 14.9045 11.1761 14.676C11.4046 14.4475 11.6792 14.3333 12 14.3333C12.3209 14.3333 12.5955 14.4475 12.824 14.676C13.0525 14.9045 13.1667 15.1791 13.1667 15.5C13.1667 15.8208 13.0525 16.0955 12.824 16.3239C12.5955 16.5524 12.3209 16.6666 12 16.6666ZM12 13.1666C11.6792 13.1666 11.4046 13.0524 11.1761 12.8239C10.9476 12.5955 10.8334 12.3208 10.8334 12C10.8334 11.6791 10.9476 11.4045 11.1761 11.176C11.4046 10.9475 11.6792 10.8333 12 10.8333C12.3209 10.8333 12.5955 10.9475 12.824 11.176C13.0525 11.4045 13.1667 11.6791 13.1667 12C13.1667 12.3208 13.0525 12.5955 12.824 12.8239C12.5955 13.0524 12.3209 13.1666 12 13.1666ZM12 9.66665C11.6792 9.66665 11.4046 9.55241 11.1761 9.32394C10.9476 9.09547 10.8334 8.82081 10.8334 8.49998C10.8334 8.17915 10.9476 7.90449 11.1761 7.67602C11.4046 7.44755 11.6792 7.33331 12 7.33331C12.3209 7.33331 12.5955 7.44755 12.824 7.67602C13.0525 7.90449 13.1667 8.17915 13.1667 8.49998C13.1667 8.82081 13.0525 9.09547 12.824 9.32394C12.5955 9.55241 12.3209 9.66665 12 9.66665Z" fill="#4486AB"/>
<path d="M12 22C10.6167 22 9.31667 21.7375 8.1 21.2125C6.88333 20.6875 5.825 19.975 4.925 19.075C4.025 18.175 3.3125 17.1167 2.7875 15.9C2.2625 14.6833 2 13.3833 2 12C2 10.6167 2.2625 9.31667 2.7875 8.1C3.3125 6.88333 4.025 5.825 4.925 4.925C5.825 4.025 6.88333 3.3125 8.1 2.7875C9.31667 2.2625 10.6167 2 12 2C13.3833 2 14.6833 2.2625 15.9 2.7875C17.1167 3.3125 18.175 4.025 19.075 4.925C19.975 5.825 20.6875 6.88333 21.2125 8.1C21.7375 9.31667 22 10.6167 22 12C22 13.3833 21.7375 14.6833 21.2125 15.9C20.6875 17.1167 19.975 18.175 19.075 19.075C18.175 19.975 17.1167 20.6875 15.9 21.2125C14.6833 21.7375 13.3833 22 12 22ZM12 20C14.2333 20 16.125 19.225 17.675 17.675C19.225 16.125 20 14.2333 20 12C20 9.76667 19.225 7.875 17.675 6.325C16.125 4.775 14.2333 4 12 4C9.76667 4 7.875 4.775 6.325 6.325C4.775 7.875 4 9.76667 4 12C4 14.2333 4.775 16.125 6.325 17.675C7.875 19.225 9.76667 20 12 20Z" fill="#4486AB"/>
</svg>
