<svg width="35" height="25" viewBox="0 0 35 25" fill="none" xmlns="http://www.w3.org/2000/svg">
<path fill-rule="evenodd" clip-rule="evenodd" d="M30 0H0V22.1426H18.3311C16.9231 20.5146 16.0714 18.3926 16.0714 16.0713C16.0714 15.7637 16.0864 15.459 16.1157 15.1582L14.6428 13L12.7361 15.7949L8.92847 8.57129L6.78442 12.6387L4.64282 5.71387L1.42847 16.1064V1.42871H28.5714V7.35742C29.0691 7.54102 29.5466 7.76562 30 8.02832V0Z" fill="#979797"/>
<path fill-rule="evenodd" clip-rule="evenodd" d="M34.2856 16.0721C34.2856 21.0032 30.2882 25.0007 25.357 25.0007C20.4259 25.0007 16.4285 21.0032 16.4285 16.0721C16.4285 11.141 20.4259 7.14355 25.357 7.14355C30.2882 7.14355 34.2856 11.141 34.2856 16.0721ZM28.8901 21.5861C27.8709 22.2406 26.6583 22.6202 25.357 22.6202C21.7408 22.6202 18.8094 19.6887 18.8094 16.0726C18.8094 14.7713 19.189 13.5587 19.8435 12.5394L28.8901 21.5861ZM30.6283 19.9571L21.4724 10.8012C22.5591 9.99911 23.9027 9.52497 25.357 9.52497C28.9731 9.52497 31.9046 12.4564 31.9046 16.0726C31.9046 17.5269 31.4305 18.8705 30.6283 19.9571Z" fill="#D9D9D9"/>
</svg>
