<svg viewBox="0 0 11 10" fill="none" xmlns="http://www.w3.org/2000/svg">
    <g clip-path="url(#clip0_276_7584)">
        <path d="M1.31844 0.0381926L10.2548 3.57736C10.3464 3.61354 10.4258 3.67535 10.4835 3.75545C10.5412 3.83556 10.5747 3.93059 10.5802 4.02928C10.5858 4.12797 10.5629 4.22618 10.5145 4.31225C10.4661 4.39832 10.3941 4.46863 10.3071 4.51486L7.81087 5.88403C7.76719 5.90826 7.71776 5.92009 7.66789 5.91826C7.61802 5.91642 7.56959 5.90099 7.52779 5.87361L5.31467 4.38861C5.26966 4.3573 5.21512 4.34286 5.16057 4.3478C5.10603 4.35275 5.05495 4.37677 5.01625 4.41567C4.97755 4.45456 4.95369 4.50587 4.94883 4.56063C4.94397 4.61539 4.95843 4.67013 4.98968 4.71528L6.46814 6.93736C6.49553 6.97934 6.51098 7.02804 6.51281 7.0782C6.51464 7.12836 6.50278 7.17806 6.47851 7.22194L5.11503 9.72861C5.06824 9.815 4.99799 9.88627 4.91243 9.93414C4.82687 9.982 4.72953 10.0045 4.63173 9.99899C4.53394 9.99349 4.43971 9.96023 4.36001 9.90307C4.28031 9.84591 4.21843 9.7672 4.18155 9.67611L0.657655 0.701943C0.619584 0.609164 0.609717 0.50715 0.629299 0.408752C0.64888 0.310354 0.697033 0.219975 0.767691 0.149C0.838347 0.0780258 0.928349 0.0296308 1.02636 0.00991221C1.12436 -0.00980637 1.22599 3.36487e-05 1.31844 0.0381926Z" fill="#FBFBF9" />
    </g>
    <defs>
        <clipPath id="clip0_276_7584">
            <rect width="9.96154" height="10" fill="white" transform="matrix(-1 0 0 1 10.5811 0)" />
        </clipPath>
    </defs>
</svg>
