<svg viewBox="0 0 21 21" fill="none" xmlns="http://www.w3.org/2000/svg">
    <g clip-path="url(#clip0)">
        <path d="M10.5006 3.89187C11.6315 3.88906 12.7441 4.17817 13.7306 4.73124L15.1065 3.3553C13.4824 2.30708 11.5494 1.84377 9.6265 2.04181C7.70362 2.23984 5.90566 3.08739 4.52922 4.44464C3.15278 5.80189 2.28008 7.58778 2.05508 9.5077C1.83007 11.4276 2.2662 13.3669 3.29153 15.0056L2.35653 15.8875H5.48028L5.58122 14.3256L5.68215 12.7691L4.70465 13.6881C4.152 12.6811 3.87113 11.5476 3.88969 10.3991C3.90825 9.25053 4.2256 8.12664 4.81051 7.13804C5.39541 6.14944 6.2277 5.33021 7.22543 4.76101C8.22315 4.19181 9.35192 3.89227 10.5006 3.89187V3.89187Z" fill="#4486AB"/>
        <path d="M17.6559 5.9152L18.5431 5.04395L16.9813 5.07582L15.4194 5.1077L15.3503 6.66957L15.2813 8.23145L16.3438 7.20082L16.2747 7.26988C16.9782 8.52745 17.2517 9.98034 17.0537 11.4076C16.8557 12.8349 16.1971 14.1585 15.1778 15.1771C14.1586 16.1957 12.8347 16.8536 11.4073 17.0507C9.97988 17.2479 8.52715 16.9735 7.27 16.2693L5.89407 17.6452C7.52507 18.6964 9.46663 19.1579 11.3962 18.953C13.3257 18.7481 15.1271 17.8893 16.501 16.5191C17.875 15.1489 18.7387 13.3498 18.9488 11.4208C19.1589 9.49185 18.7027 7.54904 17.6559 5.9152V5.9152Z" fill="#4486AB"/>
    </g>
    <defs>
        <clipPath id="clip0">
            <rect width="17" height="17" transform="translate(2 2)"/>
        </clipPath>
    </defs>
</svg>
