<svg width="14" height="16" viewBox="0 0 14 16" fill="none" xmlns="http://www.w3.org/2000/svg">
<path d="M3.83654 14.5834H10.1635V12.125C10.1635 11.1977 9.86271 10.3942 9.26121 9.71475C8.65973 9.03526 7.90599 8.69552 7 8.69552C6.09402 8.69552 5.34028 9.03526 4.73879 9.71475C4.13729 10.3942 3.83654 11.1977 3.83654 12.125V14.5834ZM7 7.30452C7.90599 7.30452 8.65973 6.9671 9.26121 6.29227C9.86271 5.61745 10.1635 4.81964 10.1635 3.89883V1.41669H3.83654V3.90325C3.83654 4.82567 4.13729 5.62315 4.73879 6.29571C5.34028 6.96825 6.09402 7.30452 7 7.30452ZM12.5056 15.9167H1.49444C1.31894 15.9167 1.16436 15.8498 1.03069 15.7161C0.89701 15.5823 0.83017 15.4269 0.83017 15.2497C0.83017 15.0726 0.89701 14.9172 1.03069 14.7837C1.16436 14.6501 1.31973 14.5834 1.49682 14.5834H2.50325V12.1248C2.50325 11.2328 2.722 10.4177 3.1595 9.6795C3.597 8.94125 4.19717 8.38142 4.96 8.00002C4.19717 7.61862 3.597 7.05943 3.1595 6.32246C2.722 5.5855 2.50325 4.77663 2.50325 3.89585V1.41669H1.49682C1.31973 1.41669 1.16436 1.34982 1.03069 1.21608C0.89701 1.08236 0.83017 0.926916 0.83017 0.74975C0.83017 0.572597 0.89701 0.41725 1.03069 0.283708C1.16436 0.150152 1.31894 0.083374 1.49444 0.083374H12.5056C12.6811 0.083374 12.8356 0.150243 12.9693 0.283979C13.103 0.417715 13.1698 0.573159 13.1698 0.750312C13.1698 0.927478 13.103 1.08283 12.9693 1.21637C12.8356 1.34992 12.6803 1.41669 12.5032 1.41669H11.4968V3.89585C11.4968 4.77663 11.278 5.5855 10.8405 6.32246C10.403 7.05943 9.80284 7.61862 9.04 8.00002C9.80284 8.38142 10.403 8.94282 10.8405 9.68421C11.278 10.4256 11.4968 11.2392 11.4968 12.125V14.5834H12.5032C12.6803 14.5834 12.8356 14.6502 12.9693 14.784C13.103 14.9177 13.1698 15.0731 13.1698 15.2503C13.1698 15.4274 13.103 15.5828 12.9693 15.7163C12.8356 15.8499 12.6811 15.9167 12.5056 15.9167Z" fill="white"/>
<path d="M5 7.50002C4.5 7.16669 3.5 6.20002 3.5 5.00002H10.5C10.3508 6.25274 9.99044 6.69885 9 7.50002C8.68899 7.7516 7.80675 8.04825 7 8.00002C6.20143 7.95228 5.33334 7.66669 5 7.50002Z" fill="white"/>
</svg>
