<svg viewBox="0 0 11 11" fill="none" xmlns="http://www.w3.org/2000/svg">
    <g clip-path="url(#clip0_276_8234)">
        <path d="M9.42064 4.79146H6.20812V1.57894C6.20812 1.39121 6.13354 1.21116 6.0008 1.07842C5.86805 0.94567 5.68801 0.871094 5.50028 0.871094C5.31254 0.871094 5.1325 0.94567 4.99975 1.07842C4.86701 1.21116 4.79243 1.39121 4.79243 1.57894V4.79146H1.57991C1.39218 4.79146 1.21214 4.86603 1.07939 4.99878C0.946646 5.13152 0.87207 5.31157 0.87207 5.4993C0.87207 5.68703 0.946646 5.86707 1.07939 5.99982C1.21214 6.13257 1.39218 6.20714 1.57991 6.20714H4.79243V9.41966C4.79243 9.6079 4.86721 9.78843 5.00031 9.92153C5.13342 10.0546 5.31394 10.1294 5.50218 10.1294C5.69042 10.1294 5.87095 10.0546 6.00405 9.92153C6.13715 9.78843 6.21193 9.6079 6.21193 9.41966V6.20714H9.42064C9.60888 6.20714 9.7894 6.13237 9.92251 5.99926C10.0556 5.86616 10.1304 5.68563 10.1304 5.49739C10.1304 5.30916 10.0556 5.12863 9.92251 4.99552C9.7894 4.86242 9.60888 4.78764 9.42064 4.78764V4.79146Z" fill="#181817" />
    </g>
    <defs>
        <clipPath id="clip0_276_8234">
            <rect width="9.25641" height="9.25641" fill="white" transform="translate(0.87207 0.871094)" />
        </clipPath>
    </defs>
</svg>
