<svg viewBox="0 0 14 12" fill="none" xmlns="http://www.w3.org/2000/svg">
    <ellipse cx="6.72245" cy="5.50109" rx="6.11112" ry="2.44445" fill="#FBFBF9" />
    <path fill-rule="evenodd" clip-rule="evenodd" d="M6.11133 1.84766C2.68503 1.98795 0 3.29683 0 4.89077V4.89185V7.94546L1 7.71825V7.72006L0 7.94741C0.00232113 9.63405 3.01108 11.001 6.72223 11.001C10.4334 11.001 13.4421 9.63405 13.4445 7.94741H13.833V4.89185H13.4445V4.89077C13.4445 3.81815 12.2286 2.87462 10.3891 2.32942V3.3778C10.6301 3.45854 10.855 3.54653 11.0618 3.64053C12.2111 4.16295 12.4445 4.68028 12.4445 4.89077C12.4445 4.94987 12.4261 5.03315 12.3742 5.13395L4.92243 6.82704C3.9278 6.69137 3.05865 6.44826 2.3827 6.14101C1.23336 5.61858 1 5.10126 1 4.89077C1 4.68028 1.23336 4.16295 2.3827 3.64053C3.31643 3.21611 4.61879 2.91409 6.11133 2.84854V1.84766ZM4.92583 6.82751C4.9247 6.82735 4.92356 6.8272 4.92243 6.82704L2.68727 7.33489C2.0163 7.10566 1.44277 6.82067 1 6.49507V7.71825L2.68727 7.33489C2.68819 7.3352 2.6891 7.33551 2.69002 7.33583L1 7.72006V7.94546C1 8.15595 1.23336 8.67327 2.3827 9.1957C3.44177 9.67709 4.97508 10.001 6.72223 10.001C8.46938 10.001 10.0027 9.67709 11.0618 9.1957C12.2111 8.67327 12.4445 8.15595 12.4445 7.94546H12.833V6.16583C11.77 7.2167 9.43357 7.94633 6.72224 7.94633C5.20942 7.94633 3.81333 7.71918 2.69002 7.33583L4.92583 6.82751ZM4.92583 6.82751C5.4886 6.90411 6.09148 6.94633 6.72224 6.94633C8.46938 6.94633 10.0027 6.62241 11.0618 6.14101C11.8882 5.76535 12.2411 5.39232 12.3741 5.13412L13.4445 4.89077L12.3742 5.13395C12.3741 5.13401 12.3741 5.13407 12.3741 5.13412L4.92583 6.82751Z" fill="#FBFBF9" />
    <path fill-rule="evenodd" clip-rule="evenodd" d="M9.47299 0.246021C9.20303 0.0895656 8.88948 0 8.55502 0C7.54293 0 6.72238 0.820107 6.72168 1.83203V1.83334V4.88759H7.33279V3.19985L7.33301 3.20004L7.33301 3.66775H9.16634V3.05664H7.33301V2.44314H9.16634V1.83203H7.33301C7.33383 1.15771 7.88072 0.611328 8.55523 0.611328C8.69879 0.611328 8.83656 0.636077 8.96452 0.681541C9.10552 0.507131 9.27787 0.359104 9.47299 0.246021ZM7.33301 4.27734H9.16634V4.88846H7.33301V4.27734ZM11.0003 0C11.0332 0 11.0659 0.000866911 11.0984 0.00257914L10.8402 0.621751C10.2414 0.700208 9.77908 1.21205 9.77832 1.83203V1.83355V3.20004L9.7781 3.19985V4.88759H9.16699V1.83334V1.83203C9.1677 0.820107 9.98824 0 11.0003 0Z" fill="#FBFBF9" />
</svg>
