<svg viewBox="0 0 37 37" fill="none" xmlns="http://www.w3.org/2000/svg">
    <g opacity="0.5">
        <path d="M23.5 0L26.1803 2.28363L29.3442 0.738297L31.3723 3.61673L34.8212 2.90679L36.0698 6.19917L39.5869 6.36924L39.9774 9.86869L43.3417 10.9081L42.8497 14.3947L45.8498 16.2381L44.5062 19.4929L46.9536 22.0244L44.8428 24.8428L46.5837 27.9035L43.8383 30.1083L44.7634 33.5058L41.556 34.9587L41.6071 38.4795L38.139 39.089L37.313 42.5119L33.8023 42.2398L32.1509 45.3497L28.8182 44.2132L26.4453 46.8147L23.5 44.885L20.5547 46.8147L18.1818 44.2132L14.8491 45.3497L13.1977 42.2398L9.68705 42.5119L8.86096 39.089L5.39294 38.4795L5.44405 34.9587L2.23656 33.5058L3.16166 30.1083L0.41625 27.9035L2.1572 24.8428L0.0463715 22.0244L2.49379 19.4929L1.15017 16.2381L4.15027 14.3947L3.65829 10.9081L7.02258 9.86869L7.41314 6.36924L10.9302 6.19917L12.1788 2.90679L15.6277 3.61673L17.6558 0.738297L20.8197 2.28363L23.5 0Z" fill="#FF8A8A" />
        <circle cx="23.4997" cy="23.5" r="18.0446" fill="white" />
        <path d="M12.8584 23.5C12.8596 21.8436 13.2499 20.2108 13.9979 18.733C14.7459 17.2552 15.8307 15.9738 17.1647 14.9921C18.4988 14.0104 20.0448 13.3559 21.6782 13.0813C23.3116 12.8067 24.9867 12.9198 26.5684 13.4113V16.7785C25.4375 16.2496 24.1915 16.0145 22.9457 16.0951C21.6999 16.1757 20.4945 16.5693 19.4412 17.2394C18.3879 17.9096 17.5207 18.8347 16.9199 19.9291C16.3191 21.0234 16.0041 22.2517 16.0041 23.5001C16.0041 24.7485 16.3191 25.9768 16.9199 27.0712C17.5207 28.1655 18.3879 29.0906 19.4412 29.7608C20.4945 30.431 21.6999 30.8246 22.9457 30.9051C24.1915 30.9857 25.4375 30.7507 26.5684 30.2218V33.5887C24.9867 34.0802 23.3116 34.1932 21.6782 33.9186C20.0448 33.644 18.4988 32.9895 17.1647 32.0078C15.8307 31.0261 14.7459 29.7447 13.9979 28.2669C13.2499 26.7891 12.8596 25.1563 12.8584 23.5H12.8584Z" fill="#FF8A8A" />
        <path d="M23.5001 39.85C19.7281 39.8477 16.0728 38.5416 13.1535 36.1529C10.2342 33.7642 8.23033 30.4398 7.48139 26.7429C6.73245 23.046 7.28448 19.2038 9.04395 15.8673C10.8034 12.5308 13.6622 9.90502 17.1359 8.43486C19.1143 7.59911 21.2379 7.1612 23.3855 7.14615C25.5331 7.13111 27.6627 7.53921 29.6526 8.34716C33.6713 9.9789 36.8773 13.1403 38.5652 17.1358C39.401 19.1141 39.8389 21.2378 39.8539 23.3854C39.8689 25.533 39.4608 27.6625 38.6529 29.6524C37.8449 31.6423 36.653 33.4536 35.145 34.9828C33.6371 36.5121 31.8427 37.7293 29.8643 38.5651C27.8509 39.4172 25.6863 39.8542 23.5001 39.85ZM23.5001 9.16236C20.1831 9.16225 16.9687 10.3122 14.4045 12.4164C11.8404 14.5206 10.0852 17.4488 9.4379 20.702C8.79064 23.9552 9.29142 27.3322 10.8549 30.2576C12.4184 33.183 14.9478 35.4758 18.0122 36.7453C21.0767 38.0148 24.4865 38.1825 27.6607 37.2198C30.8349 36.2571 33.5771 34.2236 35.4201 31.4658C37.2631 28.7079 38.0928 25.3963 37.7679 22.0953C37.443 18.7943 35.9836 15.708 33.6383 13.3624C30.9486 10.6748 27.3024 9.16431 23.5001 9.16236Z" fill="#FF8A8A" />
        <rect x="22.2935" y="29.4517" width="2" height="14.4396" rx="1" transform="rotate(-135 22.2935 29.4517)" fill="#FF8A8A" />
        <rect x="32.5039" y="28.0376" width="2" height="14.4396" rx="1" transform="rotate(135 32.5039 28.0376)" fill="#FF8A8A" />
    </g>
</svg>
