<svg width="17" height="17" viewBox="0 0 17 17" fill="none" xmlns="http://www.w3.org/2000/svg">
<path d="M8.25 16.1172C7.15278 16.1172 6.11806 15.9089 5.14583 15.4922C4.17361 15.0755 3.32292 14.5026 2.59375 13.7734C1.86458 13.0443 1.29167 12.1936 0.875 11.2214C0.458333 10.2491 0.25 9.21441 0.25 8.11719C0.25 7.00608 0.458333 5.96788 0.875 5.0026C1.29167 4.03733 1.86458 3.1901 2.59375 2.46094C3.32292 1.73177 4.17361 1.15885 5.14583 0.742188C6.11806 0.325521 7.15278 0.117188 8.25 0.117188C9.36111 0.117188 10.3993 0.325521 11.3646 0.742188C12.3299 1.15885 13.1771 1.73177 13.9062 2.46094C14.6354 3.1901 15.2083 4.03733 15.625 5.0026C16.0417 5.96788 16.25 7.00608 16.25 8.11719C16.25 9.21441 16.0417 10.2491 15.625 11.2214C15.2083 12.1936 14.6354 13.0443 13.9062 13.7734C13.1771 14.5026 12.3299 15.0755 11.3646 15.4922C10.3993 15.9089 9.36111 16.1172 8.25 16.1172ZM8.25 14.6172C10.0556 14.6172 11.5903 13.9852 12.8542 12.7214C14.1181 11.4575 14.75 9.92274 14.75 8.11719C14.75 7.3533 14.625 6.63108 14.375 5.95052C13.9961 4.88672 13.5391 4.32422 13.0453 3.79135L3.94116 12.8955C4.76172 13.5898 5.40278 13.9922 6.08333 14.2422C6.76389 14.4922 7.48611 14.6172 8.25 14.6172ZM3.41028 12.4019L12.5144 3.29776C12.1133 2.80469 11.3984 2.37891 10.4167 1.99219C9.73611 1.74219 9.01389 1.61719 8.25 1.61719C6.44444 1.61719 4.90972 2.24913 3.64583 3.51302C2.38194 4.77691 1.75 6.31163 1.75 8.11719C1.75 8.88108 1.875 9.6033 2.125 10.2839C2.39844 11.1133 2.85938 11.8008 3.41028 12.4019Z" fill="black"/>
</svg>
