<svg width="14" height="15" viewBox="0 0 14 15" fill="none" xmlns="http://www.w3.org/2000/svg">
<path d="M1.5 15C1.0875 15 0.734375 14.8507 0.440625 14.5521C0.146875 14.2535 0 13.9028 0 13.5V2.5C0 2.09722 0.146875 1.74653 0.440625 1.44792C0.734375 1.14931 1.0875 1 1.5 1H3V0.75C3 0.5375 3.07145 0.359374 3.21435 0.215624C3.35727 0.0718744 3.53435 0 3.7456 0C3.95687 0 4.13542 0.0718744 4.28125 0.215624C4.42708 0.359374 4.5 0.5375 4.5 0.75V1H9.5V0.75C9.5 0.5375 9.57145 0.359374 9.71435 0.215624C9.85727 0.0718744 10.0344 0 10.2456 0C10.4569 0 10.6354 0.0718744 10.7812 0.215624C10.9271 0.359374 11 0.5375 11 0.75V1H12.5C12.9125 1 13.2656 1.14931 13.5594 1.44792C13.8531 1.74653 14 2.09722 14 2.5V13.5C14 13.9028 13.8531 14.2535 13.5594 14.5521C13.2656 14.8507 12.9125 15 12.5 15H1.5ZM1.5 13.5H12.5L12.52 5.19001H1.52L1.5 13.5ZM1.51977 4.7373H12.5198L12.5 2.5H1.5L1.51977 4.7373Z"
/>
<path d="M7.11738 9.6993L5.45135 11.3653C5.39964 11.417 5.33885 11.442 5.26898 11.4403C5.19912 11.4386 5.13726 11.4108 5.08342 11.357C5.02957 11.3031 5.00264 11.2404 5.00264 11.1689C5.00264 11.0973 5.02957 11.0346 5.08342 10.9807L6.74111 9.32303L5.07508 7.65699C5.02337 7.60529 4.99837 7.54311 5.00008 7.47046C5.00179 7.39782 5.02957 7.33457 5.08342 7.28073C5.13726 7.22688 5.19997 7.19995 5.27155 7.19995C5.34313 7.19995 5.40584 7.22688 5.45968 7.28073L7.11738 8.94675L8.78342 7.28073C8.83512 7.22902 8.8973 7.20263 8.96995 7.20156C9.04259 7.20049 9.10584 7.22688 9.15968 7.28073C9.21353 7.33457 9.24046 7.39728 9.24046 7.46886C9.24046 7.54044 9.21353 7.60315 9.15968 7.65699L7.49366 9.32303L9.15968 10.9891C9.21139 11.0408 9.23778 11.1016 9.23885 11.1714C9.23992 11.2413 9.21353 11.3031 9.15968 11.357C9.10584 11.4108 9.04313 11.4378 8.97155 11.4378C8.89997 11.4378 8.83726 11.4108 8.78342 11.357L7.11738 9.6993Z" />
</svg>
