<svg viewBox="0 0 21 21" fill="none" xmlns="http://www.w3.org/2000/svg">
    <g clip-path="url(#clip0_5_1584)">
        <path d="M10.5 19C15.1944 19 19 15.1944 19 10.5C19 5.80558 15.1944 2 10.5 2C5.80558 2 2 5.80558 2 10.5C2 15.1944 5.80558 19 10.5 19Z" fill="#EA2026" />
        <path d="M10.5 20C15.7467 20 20 15.7467 20 10.5C20 5.25329 15.7467 1 10.5 1C5.25329 1 1 5.25329 1 10.5C1 15.7467 5.25329 20 10.5 20Z" stroke="white" stroke-width="2" stroke-miterlimit="10" />
        <path d="M9.5791 12.7461H11.4043L11.5889 6.12891H9.40137L9.5791 12.7461ZM10.4951 16.1982C11.2676 16.1982 11.7393 15.7607 11.7393 15.0566C11.7393 14.3457 11.2676 13.9082 10.4951 13.9082C9.72949 13.9082 9.25098 14.3457 9.25098 15.0566C9.25098 15.7607 9.72949 16.1982 10.4951 16.1982Z" fill="white" />
    </g>
    <defs>
        <clipPath id="clip0_5_1584">
            <rect width="21" height="21" fill="white" />
        </clipPath>
    </defs>
</svg>
