<svg viewBox="0 0 21 21" fill="none" xmlns="http://www.w3.org/2000/svg">
    <g clip-path="url(#clip0_5_1586)">
        <path d="M10.5 19C15.1944 19 19 15.1944 19 10.5C19 5.80558 15.1944 2 10.5 2C5.80558 2 2 5.80558 2 10.5C2 15.1944 5.80558 19 10.5 19Z" fill="#00BF94" />
        <path d="M10.5 20C15.7467 20 20 15.7467 20 10.5C20 5.25329 15.7467 1 10.5 1C5.25329 1 1 5.25329 1 10.5C1 15.7467 5.25329 20 10.5 20Z" stroke="white" stroke-width="2" stroke-miterlimit="10" />
        <path d="M15.423 6.92877L15.953 7.46777C16.0898 7.60564 16.1666 7.79202 16.1666 7.98627C16.1666 8.18053 16.0898 8.36691 15.953 8.50477L10.074 14.4958C9.12399 15.4638 9.04199 15.4638 8.07399 14.4958C7.07299 13.4578 6.05499 12.4218 5.03299 11.3838C4.90211 11.2454 4.82918 11.0622 4.82918 10.8718C4.82918 10.6813 4.90211 10.4981 5.03299 10.3598L5.56599 9.82177C5.69923 9.69035 5.87885 9.61667 6.06599 9.61667C6.25314 9.61667 6.43276 9.69035 6.56599 9.82177L9.08299 12.3788C10.861 10.5534 12.6393 8.73677 14.418 6.92877C14.5514 6.79583 14.7321 6.72119 14.9205 6.72119C15.1089 6.72119 15.2895 6.79583 15.423 6.92877V6.92877Z" fill="white" />
    </g>
    <defs>
        <clipPath id="clip0_5_1586">
            <rect width="21" height="21" fill="white" />
        </clipPath>
    </defs>
</svg>
