<svg viewBox="0 0 13 13" fill="none" xmlns="http://www.w3.org/2000/svg">
    <g clip-path="url(#clip0_276_8178)">
        <path fill-rule="evenodd" clip-rule="evenodd" d="M9.61942 6.91498C9.36803 7.52165 8.9996 8.07287 8.53518 8.53716C7.59724 9.47483 6.32523 10.0015 4.99898 10.0013C3.67272 10.0011 2.40086 9.4741 1.46318 8.53616C0.52551 7.59822 -0.00116404 6.32621 -0.000976512 4.99995C-0.000788986 3.6737 0.526245 2.40183 1.46418 1.46416C1.9286 0.999871 2.47992 0.631603 3.08667 0.380382C3.69341 0.129161 4.34369 -9.28037e-05 5.00039 4.99927e-08C5.65709 9.29037e-05 6.30733 0.129531 6.91401 0.380923C7.52068 0.632316 8.07189 1.00074 8.53618 1.46516C9.00047 1.92958 9.36874 2.4809 9.61996 3.08764C9.87118 3.69439 10.0004 4.34467 10.0003 5.00137C10.0002 5.65806 9.87081 6.30831 9.61942 6.91498ZM0.999279 5.00033C0.999279 6.06141 1.42079 7.07903 2.17109 7.82933C2.92139 8.57963 3.93901 9.00114 5.00009 9.00114C6.06117 9.00114 7.07879 8.57963 7.82909 7.82933C8.57939 7.07903 9.0009 6.06141 9.0009 5.00033C9.0009 3.93925 8.57939 2.92163 7.82909 2.17133C7.07879 1.42103 6.06117 0.999521 5.00009 0.999521C3.93901 0.999521 2.92139 1.42103 2.17109 2.17133C1.42079 2.92163 0.999279 3.93925 0.999279 5.00033Z" fill="#181817" />
        <path d="M12.8114 12.8114C12.9324 12.6903 13.0003 12.5261 13.0003 12.3549C13.0003 12.1837 12.9324 12.0195 12.8114 11.8984L10.1004 9.18939C9.97685 9.08316 9.81773 9.02754 9.65492 9.03366C9.49211 9.03978 9.33762 9.1072 9.22241 9.22241C9.1072 9.33762 9.03978 9.49211 9.03366 9.65492C9.02754 9.81773 9.08316 9.97685 9.18939 10.1004L11.9004 12.8114C12.0213 12.932 12.1851 12.9997 12.3559 12.9997C12.5267 12.9997 12.6905 12.932 12.8114 12.8114Z" fill="#181817" />
    </g>
    <defs>
        <clipPath id="clip0_276_8178">
            <rect width="13" height="13" fill="white" />
        </clipPath>
    </defs>
</svg>
