<svg width="22" height="18" viewBox="0 0 22 18" fill="none" xmlns="http://www.w3.org/2000/svg">
<path d="M0 15.1789C0 14.565 0.555931 14.1011 1.15987 14.2109L10.6422 15.935C10.8788 15.978 11.1212 15.978 11.3578 15.935L20.8401 14.2109C21.4441 14.1011 22 14.565 22 15.1789V15.1789C22 15.6544 21.66 16.0618 21.1921 16.1469L11.3578 17.935C11.1212 17.978 10.8788 17.978 10.6422 17.935L0.807871 16.1469C0.34005 16.0618 0 15.6544 0 15.1789V15.1789Z" fill="#4486AB"/>
<path d="M0 8.17889C0 7.56505 0.555931 7.10108 1.15987 7.21089L10.6422 8.93495C10.8788 8.97796 11.1212 8.97796 11.3578 8.93495L20.8401 7.21089C21.4441 7.10108 22 7.56505 22 8.17889V8.17889C22 8.65438 21.66 9.06183 21.1921 9.14689L11.3578 10.935C11.1212 10.978 10.8788 10.978 10.6422 10.935L0.807871 9.14689C0.34005 9.06183 0 8.65438 0 8.17889V8.17889Z" fill="#4486AB"/>
<path d="M0 1.17889C0 0.565045 0.555931 0.101078 1.15987 0.210885L10.6422 1.93495C10.8788 1.97796 11.1212 1.97796 11.3578 1.93495L20.8401 0.210886C21.4441 0.101079 22 0.565045 22 1.17889V1.17889C22 1.65438 21.66 2.06183 21.1921 2.14689L11.3578 3.93495C11.1212 3.97796 10.8788 3.97796 10.6422 3.93495L0.807871 2.14689C0.34005 2.06183 0 1.65438 0 1.17889V1.17889Z" fill="#4486AB"/>
</svg>
