<svg width="30" height="24" viewBox="0 0 30 24" fill="none" xmlns="http://www.w3.org/2000/svg">
<path d="M29.125 12.0005C29.125 17.8163 24.6491 22.5088 19.1546 22.5088C13.66 22.5088 9.1842 17.8163 9.1842 12.0005C9.1842 6.18467 13.66 1.49219 19.1546 1.49219C24.6491 1.49219 29.125 6.18467 29.125 12.0005Z" fill="#DADADA" stroke="#4486AB" stroke-width="0.5"/>
<path d="M25.8975 12.0005C25.8975 17.8163 21.4217 22.5088 15.9272 22.5088C10.4326 22.5088 5.95679 17.8163 5.95679 12.0005C5.95679 6.18467 10.4326 1.49219 15.9272 1.49219C21.4217 1.49219 25.8975 6.18467 25.8975 12.0005Z" fill="#F2F2F2" stroke="#4486AB" stroke-width="0.5"/>
<circle cx="11.7583" cy="12.0005" r="11.0083" fill="white" stroke="#4486AB" stroke-width="0.5"/>
<path d="M11.843 6.72759C11.1388 6.71768 10.44 6.84233 9.79099 7.09363C9.18848 7.31942 8.65521 7.67699 8.23759 8.13521C7.79065 8.6236 7.45837 9.19146 7.26155 9.80322C7.02513 10.5154 6.91071 11.2569 6.92241 12.0013C6.92241 13.0762 7.10174 14.0106 7.46039 14.8045C7.79082 15.5525 8.36017 16.1912 9.09353 16.6365C9.8243 17.064 10.7327 17.2778 11.8188 17.2778C12.4162 17.2812 13.0127 17.2328 13.6003 17.1332C14.1512 17.0354 14.6963 16.9117 15.2334 16.7625V18.1915C14.6983 18.376 14.1444 18.511 13.5801 18.5946C12.9145 18.6879 12.2417 18.7309 11.5685 18.7234C10.121 18.7234 8.91285 18.4485 7.94387 17.8986C6.96827 17.3426 6.20309 16.5239 5.75257 15.5542C5.27414 14.5404 5.03492 13.3493 5.03492 11.9809C5.02345 11.0617 5.17166 10.1467 5.47399 9.27038C5.75501 8.48952 6.20089 7.76716 6.78615 7.14459C7.37854 6.54104 8.1146 6.07108 8.93708 5.77126C9.78695 5.44137 10.7627 5.27642 11.8642 5.27642C12.5738 5.27425 13.2817 5.34166 13.9758 5.47751C14.6049 5.5962 15.2153 5.78705 15.7926 6.04556L15.0749 7.43557C14.5967 7.24075 14.1039 7.07755 13.6003 6.94721C13.0294 6.79546 12.4373 6.72146 11.843 6.72759ZM10.3704 12.0764C10.3704 11.6248 10.4898 11.3072 10.7287 11.1237C10.9685 10.9393 11.2728 10.8406 11.5856 10.8457C11.9046 10.8386 12.2157 10.9373 12.4617 11.1237C12.7141 11.3091 12.8402 11.6266 12.8402 12.0764C12.8402 12.5168 12.7141 12.8344 12.4617 13.029C12.2201 13.2269 11.9053 13.3326 11.5816 13.3246C11.2657 13.33 10.9594 13.225 10.7246 13.0308C10.4885 12.8344 10.3704 12.5162 10.3704 12.0764Z" fill="#4486AB"/>
</svg>
