<svg width="20" height="20" viewBox="0 0 20 20" fill="none" xmlns="http://www.w3.org/2000/svg">
<path d="M16.2609 4.78261L15.0004 16.7541C14.9644 17.0959 14.8033 17.4123 14.5479 17.6424C14.2926 17.8724 13.9611 17.9998 13.6174 18H6.38261C6.0388 18 5.70716 17.8727 5.45166 17.6426C5.19616 17.4125 5.03489 17.096 4.99896 16.7541L3.73914 4.78261" stroke-width="1.4" stroke-linecap="round" stroke-linejoin="round"/>
<path d="M2 4.78261H18" stroke-width="1.4" stroke-linecap="round" stroke-linejoin="round"/>
<path d="M6.86963 4.78261V2.69565C6.86963 2.51115 6.94292 2.33421 7.07338 2.20375C7.20384 2.07329 7.38078 2 7.56528 2H12.4348C12.6193 2 12.7963 2.07329 12.9267 2.20375C13.0572 2.33421 13.1305 2.51115 13.1305 2.69565V4.78261" stroke-width="1.4" stroke-linecap="round" stroke-linejoin="round"/>
<path d="M12.5 15.2L12.881 7.2" stroke-width="0.5" stroke-linecap="round" stroke-linejoin="round"/>
<path d="M10 7.2V15.2" stroke-width="0.5" stroke-linecap="round" stroke-linejoin="round"/>
<path d="M7.12 7.2L7.50095 15.2" stroke-width="0.5" stroke-linecap="round" stroke-linejoin="round"/>
</svg>
