<svg width="18" height="18" viewBox="0 0 18 18" fill="none" xmlns="http://www.w3.org/2000/svg">
<path fill-rule="evenodd" clip-rule="evenodd" d="M8.18817 9.98402L6.47076 8.26662C6.42304 8.2189 6.3625 8.19239 6.27541 8.19239C6.18833 8.19239 6.12778 8.2189 6.08007 8.26662C6.03198 8.31471 6.00286 8.37859 6.00018 8.47232C5.99758 8.56332 6.0235 8.62312 6.06888 8.6685L7.99282 10.5924C8.02258 10.6222 8.05056 10.6392 8.07644 10.6484C8.10932 10.6602 8.14615 10.6667 8.18817 10.6667C8.23018 10.6667 8.26701 10.6602 8.2999 10.6484C8.32577 10.6392 8.35375 10.6222 8.38351 10.5924L12.4998 6.47611C12.5466 6.42936 12.5741 6.36749 12.5741 6.27517C12.5741 6.18284 12.5466 6.12098 12.4998 6.07423C12.4531 6.02747 12.3912 6 12.2989 6C12.2066 6 12.1447 6.02747 12.098 6.07423L8.18817 9.98402Z" fill="white"/>
<path d="M5.83858 16.7141L4.55438 14.6158L2.16841 14.0808C1.97893 14.041 1.83068 13.9486 1.72367 13.8036C1.61666 13.6585 1.57543 13.4913 1.59999 13.3018L1.81052 10.8474L0.187703 9.03689C0.0625674 8.88719 0 8.72228 0 8.54216C0 8.36205 0.0625674 8.19714 0.187703 8.04743L1.81052 6.23691L1.59999 3.78252C1.57543 3.59304 1.61666 3.42579 1.72367 3.28076C1.83068 3.13573 1.97893 3.04333 2.16841 3.00357L4.55438 2.46849L5.83858 0.370231C5.93332 0.220525 6.06403 0.112921 6.2307 0.0474191C6.39736 -0.0180677 6.57075 -0.0157252 6.75086 0.0544448L8.99999 1.02813L11.2491 0.0544448C11.4292 -0.0157252 11.6026 -0.0180677 11.7693 0.0474191C11.9359 0.112921 12.0667 0.220525 12.1614 0.370231L13.4456 2.46849L15.8316 3.00357C16.021 3.04333 16.1693 3.13573 16.2763 3.28076C16.3833 3.42579 16.4245 3.59304 16.4 3.78252L16.1895 6.23691L17.8123 8.04743C17.9374 8.19714 18 8.36205 18 8.54216C18 8.72228 17.9374 8.88719 17.8123 9.03689L16.1895 10.8474L16.4 13.3018C16.4245 13.4913 16.3833 13.6585 16.2763 13.8036C16.1693 13.9486 16.021 14.041 15.8316 14.0808L13.4456 14.6158L12.1614 16.7141C12.0667 16.8638 11.9359 16.9714 11.7693 17.0369C11.6026 17.1024 11.4292 17.1001 11.2491 17.0299L8.99999 16.0562L6.75086 17.0299C6.57075 17.1001 6.39736 17.1024 6.2307 17.0369C6.06403 16.9714 5.93332 16.8638 5.83858 16.7141ZM6.62805 15.772L8.99999 14.786L11.3544 15.772L12.6947 13.5597L15.2035 13.0071L14.9755 10.458L16.6632 8.54216L14.9755 6.6439L15.2035 4.09477L12.6947 3.52459L11.3719 1.3123L8.99999 2.29828L6.64559 1.3123L5.30523 3.52459L2.79645 4.07197L3.02452 6.6439L1.33679 8.54216L3.04733 10.458L2.79645 13.0124L5.30523 13.5825L6.62805 15.772Z" />
</svg>
