<svg viewBox="0 0 60 60" fill="none" xmlns="http://www.w3.org/2000/svg">
    <g>
        <path d="M30 0L33.4216 2.91527L37.4607 0.942505L40.0498 4.6171L44.4526 3.7108L46.0465 7.91384L50.5364 8.13094L51.035 12.5983L55.3298 13.9252L54.7018 18.3762L58.5317 20.7295L56.8164 24.8845L59.9408 28.1163L57.2461 31.7142L59.4686 35.6214L55.9638 38.4362L57.1448 42.7734L53.0502 44.6281L53.1154 49.1227L48.6881 49.9008L47.6336 54.2705L43.1519 53.9232L41.0437 57.8933L36.7892 56.4423L33.76 59.7634L30 57.3L26.24 59.7634L23.2108 56.4423L18.9563 57.8933L16.8481 53.9232L12.3664 54.2705L11.3119 49.9008L6.8846 49.1227L6.94985 44.6281L2.85519 42.7734L4.03616 38.4362L0.531382 35.6214L2.75387 31.7142L0.0591984 28.1163L3.18356 24.8845L1.4683 20.7295L5.29822 18.3762L4.67016 13.9252L8.96499 12.5983L9.46359 8.13094L13.9535 7.91384L15.5474 3.7108L19.9502 4.6171L22.5393 0.942505L26.5784 2.91527L30 0Z" fill="#325D76" />
        <circle cx="29.9986" cy="30.0006" r="23.0357" fill="white" />
        <g clip-path="url(#clip0_276_7399)">
            <path d="M29.7327 49.8205C25.098 49.8177 20.6068 48.2128 17.0198 45.2779C13.4329 42.3429 10.9707 38.2582 10.0505 33.7158C9.13027 29.1734 9.80854 24.4525 11.9704 20.3529C14.1323 16.2533 17.6448 13.027 21.913 11.2207C24.3438 10.1938 26.9531 9.6557 29.5919 9.63721C32.2307 9.61872 34.8473 10.1202 37.2923 11.1129C42.2301 13.1178 46.1693 17.0022 48.2432 21.9115C49.2701 24.3423 49.8082 26.9516 49.8267 29.5904C49.8452 32.2292 49.3437 34.8457 48.351 37.2907C47.3583 39.7357 45.8937 41.9612 44.0409 43.8402C42.188 45.7192 39.9833 47.2148 37.5524 48.2417C35.0786 49.2887 32.419 49.8257 29.7327 49.8205ZM29.7327 12.1145C25.6571 12.1144 21.7076 13.5274 18.557 16.1128C15.4064 18.6982 13.2497 22.296 12.4545 26.2933C11.6592 30.2905 12.2745 34.4399 14.1955 38.0343C16.1166 41.6288 19.2245 44.4459 22.9898 46.0058C26.7551 47.5656 30.9447 47.7717 34.8449 46.5888C38.745 45.406 42.1144 42.9074 44.3789 39.5188C46.6434 36.1302 47.6629 32.0612 47.2637 28.0053C46.8644 23.9493 45.0712 20.1572 42.1895 17.2751C38.8846 13.9729 34.4046 12.117 29.7327 12.1145ZM29.2812 42.7129C27.4114 42.7135 25.5635 42.3102 23.864 41.5305C22.1645 40.7509 20.6535 39.6133 19.4343 38.1956C18.2151 36.778 17.3166 35.1136 16.8002 33.3166C16.2838 31.5195 16.1617 29.6321 16.4422 27.7834C16.7227 25.9348 17.3993 24.1686 18.4256 22.6056C19.452 21.0426 20.8038 19.7198 22.3887 18.7277C23.9736 17.7355 25.754 17.0975 27.6083 16.8571C29.4626 16.6168 31.347 16.7799 33.1324 17.3352V21.4725C31.7429 20.8225 30.2119 20.5336 28.6811 20.6326C27.1503 20.7315 25.6692 21.2151 24.375 22.0386C23.0807 22.862 22.0152 23.9987 21.2769 25.3433C20.5387 26.688 20.1517 28.1972 20.1517 29.7312C20.1517 31.2652 20.5387 32.7744 21.2769 34.119C22.0152 35.4637 23.0807 36.6004 24.375 37.4238C25.6692 38.2472 27.1503 38.7308 28.6811 38.8298C30.2119 38.9287 31.7429 38.6399 33.1324 37.9899V42.1272C31.8856 42.5153 30.5873 42.7127 29.2815 42.7129H29.2812ZM30.8809 35.009C30.7723 35.0087 30.6648 34.9868 30.5648 34.9445C30.4648 34.9021 30.3743 34.8402 30.2985 34.7624C28.6213 33.1113 26.9722 31.4681 25.2902 29.7894C25.141 29.6287 25.058 29.4175 25.058 29.1982C25.058 28.9788 25.141 28.7676 25.2902 28.6069C25.5357 28.3622 25.7853 28.1189 26.0274 27.8833C26.2611 27.6555 26.5029 27.42 26.7411 27.183C26.8188 27.1048 26.9112 27.0429 27.013 27.0005C27.1148 26.9582 27.2239 26.9365 27.3342 26.9365C27.4444 26.9365 27.5535 26.9582 27.6553 27.0005C27.7571 27.0429 27.8495 27.1048 27.9273 27.183L30.8927 30.1407C32.4851 28.5413 33.992 27.0388 35.4495 25.5858C36.907 24.1327 38.4135 22.6303 40.0063 21.032C40.084 20.9539 40.1764 20.8919 40.2781 20.8496C40.3799 20.8073 40.489 20.7855 40.5992 20.7855C40.7094 20.7855 40.8185 20.8073 40.9202 20.8496C41.022 20.8919 41.1144 20.9539 41.1921 21.032C41.6635 21.5023 42.1505 21.9885 42.6201 22.4777C42.6983 22.555 42.7605 22.6472 42.8029 22.7487C42.8453 22.8503 42.8671 22.9592 42.8671 23.0693C42.8671 23.1793 42.8453 23.2883 42.8029 23.3898C42.7605 23.4914 42.6983 23.5835 42.6201 23.6609L42.6179 23.6631C39.1028 27.1679 35.4676 30.7928 31.4652 34.7631C31.3892 34.841 31.2984 34.9029 31.1981 34.9452C31.0979 34.9875 30.9901 35.0093 30.8813 35.0093L30.8809 35.009Z" fill="#325D76" />
        </g>
    </g>
    <defs>
        <clipPath id="clip0_276_7399">
            <rect width="40.1786" height="40.1786" fill="white" transform="translate(9.64355 9.64258)" />
        </clipPath>
    </defs>
</svg>
