<svg viewBox="0 0 37 38" fill="none" xmlns="http://www.w3.org/2000/svg">
    <g opacity="0.5">
        <path d="M24 0L26.7373 2.33222L29.9686 0.754004L32.0398 3.69368L35.5621 2.96864L36.8372 6.33107L40.4291 6.50475L40.828 10.0787L44.2639 11.1402L43.7614 14.701L46.8254 16.5836L45.4532 19.9076L47.9526 22.493L45.7969 25.3713L47.5749 28.4972L44.7711 30.7489L45.7159 34.2187L42.4401 35.7025L42.4923 39.2982L38.9505 39.9207L38.1068 43.4164L34.5215 43.1385L32.835 46.3146L29.4314 45.1539L27.008 47.8108L24 45.84L20.992 47.8108L18.5686 45.1539L15.165 46.3146L13.4785 43.1385L9.89315 43.4164L9.04949 39.9207L5.50768 39.2982L5.55988 35.7025L2.28415 34.2187L3.22893 30.7489L0.425106 28.4972L2.2031 25.3713L0.0473595 22.493L2.54685 19.9076L1.17464 16.5836L4.23858 14.701L3.73613 11.1402L7.17199 10.0787L7.57087 6.50475L11.1628 6.33107L12.4379 2.96864L15.9602 3.69368L18.0314 0.754004L21.2627 2.33222L24 0Z" fill="#4486AB" />
        <circle cx="23.9999" cy="24" r="18.4286" fill="white" />
        <g clip-path="url(#clip0_218_5728)">
            <path d="M23.7856 39.8571C20.0778 39.8549 16.4848 38.571 13.6153 36.2231C10.7457 33.8751 8.77598 30.6073 8.03981 26.9734C7.30363 23.3395 7.84625 19.5628 9.57574 16.2831C11.3052 13.0034 14.1153 10.4224 17.5298 8.97729C19.4745 8.15577 21.5619 7.72533 23.6729 7.71054C25.784 7.69575 27.8772 8.0969 29.8332 8.89108C33.7835 10.495 36.9349 13.6025 38.594 17.5299C39.4155 19.4746 39.846 21.5621 39.8608 23.6731C39.8755 25.7841 39.4744 27.8774 38.6802 29.8334C37.886 31.7893 36.7143 33.5698 35.2321 35.0729C33.7498 36.5761 31.986 37.7726 30.0413 38.5941C28.0623 39.4317 25.9346 39.8613 23.7856 39.8571ZM23.7856 9.6924C20.5251 9.69228 17.3655 10.8227 14.845 12.891C12.3245 14.9593 10.5992 17.8376 9.96298 21.0354C9.32675 24.2332 9.819 27.5527 11.3558 30.4282C12.8927 33.3038 15.379 35.5575 18.3912 36.8054C21.4035 38.0533 24.7552 38.2181 27.8753 37.2718C30.9954 36.3255 33.6909 34.3267 35.5025 31.6158C37.3141 28.9049 38.1297 25.6498 37.8103 22.405C37.491 19.1602 36.0564 16.1265 33.751 13.8208C31.1071 11.1791 27.5231 9.69434 23.7856 9.6924ZM23.4243 34.1711C21.9285 34.1716 20.4502 33.8489 19.0906 33.2252C17.731 32.6015 16.5222 31.6914 15.5468 30.5573C14.5715 29.4231 13.8527 28.0917 13.4396 26.654C13.0264 25.2164 12.9287 23.7064 13.1532 22.2275C13.3776 20.7486 13.9189 19.3356 14.7399 18.0852C15.561 16.8349 16.6425 15.7766 17.9104 14.9829C19.1783 14.1892 20.6027 13.6788 22.0861 13.4865C23.5695 13.2942 25.077 13.4247 26.5053 13.8689V17.1787C25.3937 16.6588 24.1689 16.4277 22.9443 16.5068C21.7197 16.586 20.5348 16.9729 19.4994 17.6316C18.464 18.2904 17.6116 19.1997 17.021 20.2754C16.4304 21.3512 16.1208 22.5585 16.1208 23.7857C16.1208 25.0129 16.4304 26.2203 17.021 27.296C17.6116 28.3717 18.464 29.2811 19.4994 29.9398C20.5348 30.5986 21.7197 30.9854 22.9443 31.0646C24.1689 31.1438 25.3937 30.9127 26.5053 30.3927V33.7025C25.5079 34.013 24.4693 34.1709 23.4246 34.1711H23.4243ZM24.7042 28.0079C24.6173 28.0078 24.5313 27.9902 24.4513 27.9564C24.3713 27.9225 24.2988 27.8729 24.2382 27.8106C22.8965 26.4898 21.5772 25.1752 20.2316 23.8323C20.1122 23.7037 20.0458 23.5348 20.0458 23.3593C20.0458 23.1838 20.1122 23.0149 20.2316 22.8863C20.428 22.6905 20.6276 22.4959 20.8214 22.3074C21.0083 22.1252 21.2018 21.9368 21.3923 21.7471C21.4545 21.6846 21.5284 21.635 21.6098 21.6012C21.6913 21.5674 21.7786 21.5499 21.8667 21.5499C21.9549 21.5499 22.0422 21.5674 22.1237 21.6012C22.2051 21.635 22.279 21.6846 22.3412 21.7471L24.7136 24.1133C25.9875 22.8338 27.193 21.6318 28.359 20.4694C29.525 19.3069 30.7302 18.105 32.0044 16.8263C32.0666 16.7639 32.1405 16.7143 32.2219 16.6804C32.3033 16.6466 32.3906 16.6292 32.4788 16.6292C32.5669 16.6292 32.6542 16.6466 32.7356 16.6804C32.817 16.7143 32.8909 16.7639 32.9531 16.8263C33.3302 17.2026 33.7198 17.5916 34.0955 17.9829C34.1581 18.0448 34.2078 18.1185 34.2417 18.1997C34.2756 18.281 34.2931 18.3681 34.2931 18.4562C34.2931 18.5442 34.2756 18.6314 34.2417 18.7126C34.2078 18.7939 34.1581 18.8676 34.0955 18.9295L34.0937 18.9313C31.2817 21.7351 28.3735 24.635 25.1716 27.8112C25.1108 27.8736 25.0381 27.9231 24.9579 27.9569C24.8777 27.9908 24.7915 28.0082 24.7045 28.0082L24.7042 28.0079Z" fill="#4486AB" />
        </g>
    </g>
    <defs>
        <clipPath id="clip0_218_5728">
            <rect width="32.1429" height="32.1429" fill="white" transform="translate(7.71436 7.71429)" />
        </clipPath>
    </defs>
</svg>
