<svg width="12" height="10" viewBox="0 0 12 10" fill="none" xmlns="http://www.w3.org/2000/svg">
<path d="M0.18761 8.04618C0.0645503 8.24441 -0.000155374 8.46924 0 8.69807C0.000155934 8.9269 0.0651674 9.15166 0.188497 9.34974C0.311827 9.54783 0.489127 9.71225 0.702569 9.82649C0.91601 9.94073 1.15807 10.0007 1.4044 10.0005H10.5936L4.78343 0.65158M0.18761 8.04618L0.272543 8.09896C0.15914 8.28166 0.0998576 8.48823 0.1 8.698C0.100143 8.90779 0.159716 9.11431 0.273388 9.29689C0.387104 9.47953 0.551154 9.63203 0.749757 9.73833C0.948391 9.84464 1.17417 9.90073 1.40431 9.90051H1.4044H10.5936H10.5937C10.8238 9.90073 11.0496 9.84464 11.2483 9.73833C11.4469 9.63203 11.6109 9.47953 11.7246 9.29689C11.8383 9.11431 11.8979 8.90779 11.898 8.698C11.8982 8.48822 11.8389 8.28162 11.7254 8.09892M0.18761 8.04618L0.27257 8.09892L4.86836 0.704371L4.78343 0.65158M0.18761 8.04618L4.78343 0.65158M11.7254 8.09892L11.7255 8.09897L11.8101 8.04635L11.7254 8.09892ZM11.7254 8.09892L7.12844 0.704377L7.12844 0.704371C7.0149 0.521709 6.85103 0.369138 6.65259 0.262716C6.45412 0.156276 6.22847 0.1 5.9984 0.1C5.76833 0.1 5.54268 0.156276 5.34421 0.262716C5.14577 0.369137 4.98191 0.521706 4.86837 0.704367L4.78343 0.65158" fill="#FFE456" fill-opacity="0.8" stroke="#FFE456" stroke-width="0.2"/>
<path d="M5.63392 7.2063L5.25671 3.63334V1.98193H6.82759V3.63334L6.45647 7.2063H5.63392ZM5.31877 9.01483V7.672H6.77162V9.02048L5.31877 9.01483Z" fill="white"/>
</svg>
