<svg width="74" height="70" viewBox="0 0 74 70" fill="none" xmlns="http://www.w3.org/2000/svg">
<path d="M5.04563 70C4.17426 70.0004 3.31765 69.7751 2.5593 69.3459C1.80094 68.9167 1.16672 68.2984 0.718469 67.5511C0.270214 66.8039 0.0232222 65.9533 0.00155908 65.0822C-0.020104 64.2111 0.184306 63.3492 0.594864 62.5806L32.5459 2.67159C32.9759 1.86463 33.6172 1.18976 34.4012 0.719178C35.1852 0.248593 36.0823 0 36.9967 0C37.9111 0 38.8082 0.248593 39.5922 0.719178C40.3762 1.18976 41.0175 1.86463 41.4475 2.67159L73.3985 62.5806C73.8091 63.3492 74.0135 64.2111 73.9918 65.0822C73.9702 65.9533 73.7232 66.8039 73.2749 67.5511C72.8267 68.2984 72.1925 68.9167 71.4341 69.3459C70.6757 69.7751 69.8191 70.0004 68.9477 70H5.04563Z" fill="#AB2B2B"/>
<path d="M38.1922 46.2041C38.1243 46.4696 37.9699 46.705 37.7534 46.8731C37.537 47.0411 37.2707 47.1324 36.9966 47.1324C36.7226 47.1324 36.4563 47.0411 36.2398 46.8731C36.0234 46.705 35.869 46.4696 35.8011 46.2041C30.9739 27.1819 31.1771 28.0396 31.1599 27.8471C31.0837 27.0346 31.1779 26.2151 31.4365 25.4412C31.6951 24.6672 32.1125 23.9557 32.6619 23.3523C33.2113 22.7489 33.8807 22.2668 34.6271 21.937C35.3735 21.6071 36.1806 21.4368 36.9966 21.4368C37.8127 21.4368 38.6198 21.6071 39.3662 21.937C40.1126 22.2668 40.7819 22.7489 41.3314 23.3523C41.8808 23.9557 42.2981 24.6672 42.5568 25.4412C42.8154 26.2151 42.9096 27.0346 42.8333 27.8471C42.8162 28.0396 43.0194 27.1755 38.1922 46.2041Z" fill="white"/>
<path d="M41.488 58.8696C41.488 59.7579 41.2245 60.6263 40.731 61.3649C40.2375 62.1035 39.536 62.6792 38.7153 63.0191C37.8946 63.3591 36.9916 63.448 36.1203 63.2747C35.2491 63.1014 34.4488 62.6736 33.8206 62.0455C33.1925 61.4174 32.7647 60.6171 32.5914 59.7458C32.4181 58.8746 32.5071 57.9715 32.847 57.1508C33.187 56.3301 33.7626 55.6286 34.5012 55.1351C35.2399 54.6416 36.1082 54.3782 36.9965 54.3782C38.1877 54.3782 39.3301 54.8514 40.1725 55.6937C41.0148 56.536 41.488 57.6784 41.488 58.8696Z" fill="white"/>
</svg>
