<svg viewBox="0 0 12 10" fill="none" xmlns="http://www.w3.org/2000/svg">
    <path d="M0.27257 8.09892L4.86836 0.704371L11.7255 8.09897C11.8389 8.28166 11.8982 8.48824 11.898 8.698C11.8979 8.90779 11.8383 9.11431 11.7246 9.29689C11.6109 9.47953 11.4469 9.63203 11.2483 9.73833C11.0496 9.84464 10.8238 9.90073 10.5937 9.90051H10.5936H1.4044H1.40431C1.17417 9.90073 0.948391 9.84464 0.749757 9.73833C0.551154 9.63203 0.387104 9.47953 0.273388 9.29689C0.159716 9.11431 0.100143 8.90779 0.1 8.698C0.0998576 8.48823 0.15914 8.28166 0.272543 8.09896C0.272552 8.09895 0.272561 8.09893 0.27257 8.09892ZM7.12844 0.704377L11.7254 8.09892L4.86837 0.704367C4.98191 0.521706 5.14577 0.369137 5.34421 0.262716C5.54268 0.156276 5.76833 0.1 5.9984 0.1C6.22847 0.1 6.45412 0.156276 6.65259 0.262716C6.85103 0.369138 7.0149 0.521709 7.12844 0.704371L7.12844 0.704377Z" fill="#FFE456" fill-opacity="0.8" stroke="#FFE456" stroke-width="0.2" />
    <path d="M5.63392 7.2063L5.25671 3.63334V1.98193H6.82759V3.63334L6.45647 7.2063H5.63392ZM5.31877 9.01483V7.672H6.77162V9.02048L5.31877 9.01483Z" fill="white" />
</svg>
