<svg width="19" height="20" viewBox="0 0 19 20" fill="none" xmlns="http://www.w3.org/2000/svg">
<path d="M4.75009 18.1818L3.6941 20L2.92795 17.1357L2.88777 17.1129L2.91073 17.0729L2.54458 15.7032L3.9208 15.3346L3.94375 15.2946L3.98393 15.3174L6.86205 14.5453L5.80607 16.3635C9.37804 18.3718 13.9107 17.1208 15.9309 13.5688C17.2256 11.2918 17.213 8.50392 15.8982 6.23884L17.722 5.18419C20.3551 9.72407 18.7889 15.5269 14.2235 18.1452C11.2943 19.8259 7.69077 19.8391 4.75009 18.1818ZM16.0887 2.92709L16.4548 4.29619L15.0792 4.66543L15.0562 4.70538L15.0161 4.68255L12.1379 5.4547L13.1945 3.63647C9.62252 1.62819 5.08984 2.87916 3.0697 6.43116C1.77497 8.70823 1.7876 11.4961 3.10241 13.7612L1.27855 14.8158C-1.3551 10.2765 0.210512 4.47311 4.77534 1.85419C7.70397 0.174063 11.3081 0.160366 14.2493 1.81823L15.3053 0L16.0715 2.86432L16.1116 2.88715L16.0887 2.92709Z" fill="#308274"/>
</svg>
