<svg viewBox="0 0 15 10" fill="none" xmlns="http://www.w3.org/2000/svg">
    <g opacity="0.7">
        <path fill-rule="evenodd" clip-rule="evenodd" d="M15 5.04237C9.09119 9.31859 5.80725 9.29166 0 5.04237V4.65477C5.90765 0.433663 9.19223 0.40686 15 4.65477V5.04237ZM7.69231 2.23006C9.17923 2.23006 10.3846 3.40715 10.3846 4.85916C10.3846 6.31118 9.17923 7.48827 7.69231 7.48827C6.20539 7.48827 5 6.31118 5 4.85916C5 3.40715 6.20539 2.23006 7.69231 2.23006Z" fill="#181817" />
        <ellipse rx="1.53846" ry="1.50235" transform="matrix(1 0 0 -1 7.69227 4.85922)" fill="#181817" />
    </g>
    <rect x="11.7114" y="0.00012207" width="0.422535" height="12.6761" transform="rotate(45 11.7114 0.00012207)" fill="#181817" />
    <rect x="12.0103" y="0.29895" width="0.422535" height="12.6761" transform="rotate(45 12.0103 0.29895)" fill="#181817" />
</svg>
