<svg width="199" height="199" viewBox="0 0 199 199" fill="none" xmlns="http://www.w3.org/2000/svg">
    <g clip-path="url(#clip0_282_14561)">
        <path d="M60.8151 0H55.2827V5.5193H60.8151V0Z" fill="black"/>
        <path d="M88.4559 0H82.9236V5.5193H88.4559V0Z" fill="black"/>
        <path d="M127.141 0H121.609V5.5193H127.141V0Z" fill="black"/>
        <path d="M77.3911 11.0386V5.51929H71.8588V0H66.3264V5.51929V11.0386V16.5373H71.8588V11.0386H77.3911Z" fill="black"/>
        <path d="M132.673 5.52148H127.141V11.0408H132.673V5.52148Z" fill="black"/>
        <path d="M143.717 16.5395V22.0588H149.25V16.5395V11.0408V5.52148H143.717V11.0408V16.5395Z" fill="black"/>
        <path d="M55.2824 16.5397V11.041H49.75V16.5397V22.059H55.2824V16.5397Z" fill="black"/>
        <path d="M143.738 0H138.206V5.5193H143.738V0Z" fill="black"/>
        <path d="M132.674 22.059H138.206V16.5397V11.041H132.674V16.5397V22.059Z" fill="black"/>
        <path d="M66.3469 22.0566H60.8146V27.5759H66.3469V22.0566Z" fill="black"/>
        <path d="M88.4562 22.0566H82.9238V27.5759H88.4562V22.0566Z" fill="black"/>
        <path d="M60.8151 27.5762H55.2827V33.0955H60.8151V27.5762Z" fill="black"/>
        <path d="M110.565 27.5762H105.033V33.0955H110.565V27.5762Z" fill="black"/>
        <path d="M55.2824 33.0957H49.75V38.615H55.2824V33.0957Z" fill="black"/>
        <path d="M116.097 33.0957H110.565V38.615H116.097V33.0957Z" fill="black"/>
        <path d="M71.8588 38.5942V33.0955V27.5762H66.3264V33.0955V38.5942V44.1135H71.8588V38.5942Z" fill="black"/>
        <path d="M82.9232 38.5942V33.0955V27.5762H77.3909V33.0955V38.5942V44.1135H82.9232V38.5942Z" fill="black"/>
        <path d="M110.565 38.5938H105.033V44.113V49.6323H110.565V44.113V38.5938Z" fill="black"/>
        <path d="M44.2178 49.6309H38.6854V55.1502H44.2178V49.6309Z" fill="black"/>
        <path d="M110.565 55.1502V60.6694H116.076V55.1502V49.6309H110.565V55.1502Z" fill="black"/>
        <path d="M154.782 49.6326H149.25V44.1133H143.717V49.6326H138.206V55.1519H143.717V60.6712H149.25H154.782V55.1519V49.6326Z" fill="black"/>
        <path d="M5.53237 55.1523H0V60.6716H5.53237V55.1523Z" fill="black"/>
        <path d="M27.6413 55.1502V49.6309H22.1089V55.1502V60.6694H27.6413V55.1502Z" fill="black"/>
        <path d="M138.206 55.1523H132.674V60.6716H138.206V55.1523Z" fill="black"/>
        <path d="M165.847 55.1523H160.315V60.6716H165.847V55.1523Z" fill="black"/>
        <path d="M22.109 66.1682V60.6694H16.5767V55.1502V49.6309H11.065H5.53259V55.1502H11.065V60.6694V66.1682H16.5767H22.109Z" fill="black"/>
        <path d="M127.141 60.6719H121.609V66.1912H127.141V60.6719Z" fill="black"/>
        <path d="M182.424 66.1682V60.6694V55.1502V49.6309H176.891V55.1502H171.359V60.6694V66.1682V71.6874H176.891V66.1682H182.424Z" fill="black"/>
        <path d="M11.065 66.1719H5.53259V71.6912H11.065V66.1719Z" fill="black"/>
        <path d="M149.25 27.5762H143.717V33.0955H149.25V27.5762Z" fill="black"/>
        <path d="M143.738 33.0957H138.206V38.615H143.738V33.0957Z" fill="black"/>
        <path d="M27.6413 66.1719H22.1089V71.6912H27.6413V66.1719Z" fill="black"/>
        <path d="M66.3263 66.1706V60.6719H60.8146V66.1706V71.6899V77.2092H66.3263V71.6899H71.8587V66.1706H66.3263Z" fill="black"/>
        <path d="M160.315 71.6899V66.1706V60.6719H154.782V66.1706H149.25V71.6899H154.782H160.315Z" fill="black"/>
        <path d="M16.5969 71.6914H11.0646V77.2107H16.5969V71.6914Z" fill="black"/>
        <path d="M33.1732 77.2092V82.7285H38.685H44.2173H49.7497H55.2821V77.2092V71.6899H49.7497V77.2092H44.2173H38.685V71.6899H44.2173V66.1706V60.6719H38.685H33.1732V66.1706V71.6899H27.6409V77.2092H33.1732Z" fill="black"/>
        <path d="M143.718 77.2107H149.25V71.6914H143.718H138.206V77.2107V82.73H132.674V88.2493V93.748H138.206V88.2493H143.718V82.73V77.2107Z" fill="black"/>
        <path d="M165.847 77.207H160.315H154.783V82.7263H160.315H165.847V88.2456H171.359H176.892V82.7263V77.207H171.359H165.847Z" fill="black"/>
        <path d="M5.53237 82.7263V77.207H0V82.7263V88.2456H5.53237V82.7263Z" fill="black"/>
        <path d="M66.3469 82.7266H60.8146V88.2459H66.3469V82.7266Z" fill="black"/>
        <path d="M99.5 82.7298V88.2491H105.032H110.565H116.076V82.7298V77.2105H121.609H127.141H132.674V71.6912V66.1719H127.141V71.6912H121.609H116.076V66.1719H110.565V71.6912V77.2105H105.032V82.7298H99.5Z" fill="black"/>
        <path d="M149.25 88.2459H143.717V93.7446V99.2639H149.25V93.7446H154.782V88.2459V82.7266H149.25V88.2459Z" fill="black"/>
        <path d="M60.8147 93.7428V88.2441H55.2824H49.75V93.7428H55.2824H60.8147Z" fill="black"/>
        <path d="M71.8585 93.7478V99.2671H77.3908V115.804H82.9232V121.324H99.4997V110.285H93.9673V115.804H88.4349V110.285H82.9026V99.2465H93.9673V104.766H99.4997V110.285H110.564V115.804H116.097V110.285H121.629V104.766H116.097V99.2465H110.564V104.766H105.032V99.2465H99.4997V93.7272H88.4349V77.1899H93.9673V82.7092H99.4997V77.1899H105.032V66.1513H99.4997V71.6706H93.9673V66.1513H99.4997V60.6321H105.032V55.1128H99.4997V49.5935H93.9673V55.1128H88.4349V49.5935H93.9673V44.0742H99.4997V22.0588H116.076V27.5781H121.608V33.0974H127.141V38.6167H121.608V44.136H116.076V49.6553H121.608V55.1745H127.141V49.6553H132.673V27.5781H127.141V11.0408H121.608V5.52148H105.032V11.0408H110.564V16.5601H93.9879V5.52148H88.4556V11.0408H77.3908V16.5601H71.8585V22.0794H82.9232V16.5601H88.4556V22.0794H93.9879V33.118H88.4556V44.1566H82.9232V49.6758H77.3908V44.1566H71.8585V49.6758H66.3261V44.1566H60.7937V49.6758H49.729V55.1951H77.3702V71.7324H71.8378V88.2697H66.3055V93.789H71.8378L71.8585 93.7478ZM82.9232 66.1719V60.6527H88.4556V71.6912H82.9232V66.1719ZM77.3908 77.2105H82.9232V82.7298H77.3908V77.2105ZM82.9232 88.2491V93.7684H77.3908V88.2491H82.9232Z" fill="black"/>
        <path d="M121.609 93.7428H127.141V88.2441H121.609H116.076V93.7428H121.609Z" fill="black"/>
        <path d="M5.53237 93.748H0V99.2673H5.53237V93.748Z" fill="black"/>
        <path d="M60.8151 99.2673H55.2827V104.787H60.8151V110.306H66.3268H71.8592V104.787H66.3268V99.2673V93.748H60.8151V99.2673Z" fill="black"/>
        <path d="M38.685 104.781H44.2173H49.7497V99.2621V93.7428H44.2173V88.2441H38.685H33.1732H27.6409V93.7428H33.1732V99.2621H38.685V104.781Z" fill="black"/>
        <path d="M127.141 99.2676H121.609V104.787H127.141V99.2676Z" fill="black"/>
        <path d="M149.25 99.2673V104.787H143.718V110.306H154.783V115.825H160.315V137.882H154.783V143.401H149.25V137.882H154.783V132.363H138.206V137.882H143.739V143.401H138.206V148.92H132.674V159.959H138.206V154.44H143.739V159.959H138.206V165.478H143.739V170.998H138.206V176.517H143.739V182.036H149.271V176.517H154.803V170.998H160.336V176.517H154.803V182.036H160.336V187.555H165.868V193.075H160.336V187.555H154.803V193.075H149.271V198.594H182.444V193.075H187.977V187.555H176.912V193.075H171.38V187.555H176.912V182.036H165.847V170.998H171.38V159.959H182.444V154.44H187.977V148.92H176.912V154.44H171.38V148.92H176.912V143.401H165.847V121.345H171.38V132.383H176.912V121.345H182.444V115.825H165.868V110.306H160.336V104.787H165.868V110.306H171.4V104.787H176.933V99.2673H171.4V93.748H154.824V99.2673H149.292H149.25ZM165.827 165.437H149.25V148.9H165.827V165.437Z" fill="black"/>
        <path d="M138.206 104.787H143.718V99.2676H138.206H132.674V104.787V110.306H138.206V104.787Z" fill="black"/>
        <path d="M182.423 104.783H176.891V110.302H182.423V104.783Z" fill="black"/>
        <path d="M38.7062 110.301H33.1738V115.82H38.7062V110.301Z" fill="black"/>
        <path d="M132.673 110.301H127.141V115.82H132.673V110.301Z" fill="black"/>
        <path d="M110.565 115.803H105.033V121.322H110.565V115.803Z" fill="black"/>
        <path d="M138.206 121.322H143.718V115.803H138.206H132.674V121.322V126.841H138.206V121.322Z" fill="black"/>
        <path d="M149.25 121.322H143.717V126.842H149.25V121.322Z" fill="black"/>
        <path d="M82.9235 126.844H77.3911V132.363H82.9235V126.844Z" fill="black"/>
        <path d="M93.9881 126.844H88.4557V132.363H93.9881V126.844Z" fill="black"/>
        <path d="M105.032 126.844H99.5V132.363H105.032V126.844Z" fill="black"/>
        <path d="M88.4562 132.357H82.9238V137.877H88.4562V132.357Z" fill="black"/>
        <path d="M99.4997 132.357H93.9673V137.877H99.4997V132.357Z" fill="black"/>
        <path d="M27.6412 137.878V132.359V126.84V121.32V115.801H22.1088H16.5765V110.302V104.783H22.1088V110.302H27.6412H33.1735V104.783V99.2636H27.6412H22.1088V93.7443V88.2456V82.7263V77.207H16.5765V82.7263V88.2456V93.7443V99.2636H11.0647H5.53237V104.783H11.0647V110.302H5.53237V104.783H0V110.302V115.801H5.53237V121.32H0V126.84V132.359V137.878V143.377V148.896H5.53237H11.0647H16.5765V143.377H11.0647V137.878H5.53237V132.359V126.84H11.0647H16.5765V121.32H22.1088V126.84V132.359V137.878H16.5765V143.377H22.1088H27.6412V148.896H33.1735V143.377H38.6853V137.878H33.1735H27.6412Z" fill="black"/>
        <path d="M82.9238 143.377V137.878H77.3915V132.359H71.8591V137.878H66.3267V132.359H71.8591V126.84V121.32V115.801H66.3267H60.815V121.32H66.3267V126.84H60.815H55.2826H49.7503H44.2179V121.32H49.7503H55.2826V115.801H60.815V110.302H55.2826V104.783H49.7503V110.302V115.801H44.2179H38.6855V121.32V126.84H33.1738V132.359H38.6855V137.878H44.2179V132.359H49.7503V137.878H55.2826V132.359H60.815V137.878V143.377H55.2826H49.7503V137.878H44.2179V143.377V148.896H49.7503H55.2826V154.416H49.7503V159.935H55.2826V165.454H60.815V159.935V154.416V148.896H66.3267V143.377H71.8591V148.896H77.3915V143.377H82.9238Z" fill="black"/>
        <path d="M116.076 143.381H121.609V137.882H127.141H132.673V132.363V126.844H127.141V132.363H121.609H116.076V126.844H110.565V132.363V137.882H116.076V143.381Z" fill="black"/>
        <path d="M138.206 137.879H132.674V143.398H138.206V137.879Z" fill="black"/>
        <path d="M110.565 143.378V137.879H105.033V143.378V148.897H110.565V143.378Z" fill="black"/>
        <path d="M132.673 143.375H127.141V148.894H132.673V143.375Z" fill="black"/>
        <path d="M121.609 154.418H127.141V148.898H121.609H116.076H110.565V154.418H116.076H121.609Z" fill="black"/>
        <path d="M71.8585 154.416H66.3262V159.935H71.8585H77.3909V154.416H71.8585Z" fill="black"/>
        <path d="M160.315 154.416H154.783V159.935H160.315V154.416Z" fill="black"/>
        <path d="M82.9235 159.938H77.3911V165.457H82.9235V159.938Z" fill="black"/>
        <path d="M182.423 165.455H176.891V170.974H182.423V165.455Z" fill="black"/>
        <path d="M55.2824 170.951H49.75V176.47H55.2824V170.951Z" fill="black"/>
        <path d="M77.3913 170.954V165.455H71.8589V170.954V176.473V181.992H77.3913V176.473V170.954Z" fill="black"/>
        <path d="M132.673 170.951H127.141V176.47H132.673V170.951Z" fill="black"/>
        <path d="M66.3469 176.473H60.8146V181.992H66.3469V176.473Z" fill="black"/>
        <path d="M88.4559 176.473H82.9236V181.992H88.4559V176.473Z" fill="black"/>
        <path d="M60.8147 181.994H55.2824H49.75V187.513V193.012H55.2824V187.513H60.8147V181.994Z" fill="black"/>
        <path d="M82.9235 181.994H77.3911V187.513H82.9235V181.994Z" fill="black"/>
        <path d="M116.076 181.991H121.608V176.471H110.544V187.51H105.011V181.991H99.4789V176.471H110.544V170.952H127.12V165.433H110.544V154.394H105.011V148.875H93.9466V143.355H82.8819V148.875H77.3495V154.394H88.4142V176.451H93.9466V181.97H88.4142V193.009H93.9466V187.489H99.4789V193.009H116.055V181.97L116.076 181.991ZM93.9672 165.453H99.4996V159.934H93.9672V154.415H99.4996V159.934H105.032V170.973H93.9672V165.453Z" fill="black"/>
        <path d="M71.8585 187.512H66.3262V193.031H71.8585V187.512Z" fill="black"/>
        <path d="M66.3469 193.012H60.8146V198.531H66.3469V193.012Z" fill="black"/>
        <path d="M77.3913 193.012H71.8589V198.531H77.3913H82.9236H88.456V193.012H82.9236H77.3913Z" fill="black"/>
        <path d="M99.4997 193.012H93.9673V198.531H99.4997V193.012Z" fill="black"/>
        <path d="M187.956 126.844H182.424V132.363V137.882H187.956V132.363V126.844Z" fill="black"/>
        <path d="M187.956 110.302H182.424V115.801H187.956H193.468V121.32H199V115.801V110.302V104.783H193.468V110.302H187.956Z" fill="black"/>
        <path d="M193.468 104.787V99.2673H187.956V93.748H182.424V99.2673V104.787H187.956H193.468Z" fill="black"/>
        <path d="M187.956 71.6914H182.423H176.891V77.2107H182.423V82.73V88.2493H187.956V82.73H193.468V77.2107H199V71.6914H193.468H187.956Z" fill="black"/>
        <path d="M193.467 137.877H187.956V143.375H193.467V148.895V154.414H199V148.895V143.375V137.877V132.357H193.467V137.877Z" fill="black"/>
        <path d="M138.206 176.473H132.674V181.992H138.206V176.473Z" fill="black"/>
        <path d="M154.782 181.994H149.25V187.513H154.782V181.994Z" fill="black"/>
        <path d="M143.717 187.513V181.994H138.206V187.513H132.673V181.994H127.141V187.513H121.609V193.012H116.076V198.531H121.609H127.141V193.012H132.673V198.531H138.206V193.012H143.717H149.25V187.513H143.717Z" fill="black"/>
        <path d="M187.956 170.951H182.424V176.47H187.956V170.951Z" fill="black"/>
        <path d="M193.467 176.47H187.956V181.99H193.467V187.509V193.008H199V187.509V181.99V176.47V170.951H193.467V176.47Z" fill="black"/>
        <path d="M44.2176 0H0V44.1132H44.2176V0ZM38.6853 38.5939H5.53237V5.5193H38.6853V38.5939Z" fill="black"/>
        <path d="M33.1734 11.041H11.0646V33.0976H33.1734V11.041Z" fill="black"/>
        <path d="M0 199.705H44.2176V155.592H0V199.705ZM5.53237 161.111H38.6853V194.206H5.53237V161.111Z" fill="black"/>
        <path d="M33.1734 166.605H11.0646V188.662H33.1734V166.605Z" fill="black"/>
        <path d="M154.783 0V44.1132H199V0H154.783ZM193.468 38.5939H160.294V5.5193H193.468V38.5939Z" fill="black"/>
        <path d="M187.956 11.041H165.847V33.0976H187.956V11.041Z" fill="black"/>
    </g>
    <defs>
        <clipPath id="clip0_282_14561">
            <rect width="199" height="199" fill="white"/>
        </clipPath>
    </defs>
</svg>
