<svg width="24" height="24" viewBox="0 0 24 24" fill="none" xmlns="http://www.w3.org/2000/svg">
<path fill-rule="evenodd" clip-rule="evenodd" d="M21.7071 13.2929C22.0976 13.6834 22.0976 14.3166 21.7071 14.7071L12.7071 23.7071C12.3166 24.0976 11.6834 24.0976 11.2929 23.7071L2.29289 14.7071C1.90237 14.3166 1.90237 13.6834 2.29289 13.2929C2.68342 12.9024 3.31658 12.9024 3.70711 13.2929L11 20.5858L11 1C11 0.447715 11.4477 -4.61255e-07 12 -4.37114e-07C12.5523 -4.12973e-07 13 0.447715 13 1L13 20.5858L20.2929 13.2929C20.6834 12.9024 21.3166 12.9024 21.7071 13.2929Z" fill="#A77D3E"/>
</svg>
