<svg width="24" height="24" viewBox="0 0 24 24" fill="none" xmlns="http://www.w3.org/2000/svg">
<path d="M16.7071 8.29289C17.0976 8.68342 17.0976 9.31658 16.7071 9.70711L14.4142 12L16.7071 14.2929C17.0976 14.6834 17.0976 15.3166 16.7071 15.7071C16.3166 16.0976 15.6834 16.0976 15.2929 15.7071L13 13.4142L10.7071 15.7071C10.3166 16.0976 9.68342 16.0976 9.29289 15.7071C8.90237 15.3166 8.90237 14.6834 9.29289 14.2929L11.5858 12L9.29289 9.70711C8.90237 9.31658 8.90237 8.68342 9.29289 8.29289C9.68342 7.90237 10.3166 7.90237 10.7071 8.29289L13 10.5858L15.2929 8.29289C15.6834 7.90237 16.3166 7.90237 16.7071 8.29289Z" fill="#A77D3E"/>
<path fill-rule="evenodd" clip-rule="evenodd" d="M7.70711 3.87868C8.26972 3.31607 9.03278 3 9.82843 3H19C20.6569 3 22 4.34315 22 6V18C22 19.6569 20.6569 21 19 21H9.82843C9.03278 21 8.26972 20.6839 7.70711 20.1213L1.70711 14.1213C0.535535 12.9497 0.535539 11.0503 1.70711 9.87868L7.70711 3.87868ZM9.82843 5C9.56321 5 9.30886 5.10536 9.12132 5.29289L3.12132 11.2929C2.7308 11.6834 2.7308 12.3166 3.12132 12.7071L9.12132 18.7071C9.30886 18.8946 9.56321 19 9.82843 19H19C19.5523 19 20 18.5523 20 18V6C20 5.44772 19.5523 5 19 5H9.82843Z" fill="#A77D3E"/>
</svg>
