<svg width="24" height="24" viewBox="0 0 24 24" fill="none" xmlns="http://www.w3.org/2000/svg">
<path d="M17.293 16.2932C17.6836 15.9027 18.3166 15.9027 18.7071 16.2932C19.0975 16.6837 19.0976 17.3168 18.7071 17.7073L12.7071 23.7073L12.6309 23.7756C12.2382 24.0959 11.6591 24.0732 11.293 23.7073L5.29304 17.7073L5.22468 17.6311C4.90436 17.2384 4.92701 16.6593 5.29304 16.2932C5.65916 15.9271 6.23816 15.9045 6.63093 16.2248L6.7071 16.2932L12.0001 21.5862L17.293 16.2932Z" fill="#A77D3E"/>
<path d="M11.3692 0.224848C11.762 -0.0955024 12.341 -0.0729086 12.7071 0.293207L18.7071 6.29321L18.7755 6.36938C19.0957 6.76215 19.0732 7.34121 18.7071 7.70727C18.341 8.07326 17.762 8.09581 17.3692 7.77563L17.293 7.70727L12.0001 2.4143L6.7071 7.70727C6.31663 8.09767 5.68355 8.09761 5.29304 7.70727C4.90254 7.31677 4.90259 6.68374 5.29304 6.29321L11.293 0.293207L11.3692 0.224848Z" fill="#A77D3E"/>
</svg>
