<svg width="24" height="24" viewBox="0 0 24 24" fill="none" xmlns="http://www.w3.org/2000/svg">
<path d="M9 14C9.55228 14 10 14.4477 10 15V23C10 23.5523 9.55228 24 9 24C8.44772 24 8 23.5523 8 23V17.4141L1.70703 23.707C1.31651 24.0976 0.683493 24.0976 0.292969 23.707C-0.097556 23.3165 -0.097556 22.6835 0.292969 22.293L6.58594 16H1C0.447715 16 0 15.5523 0 15C0 14.4477 0.447715 14 1 14H9Z" fill="#A77D3E"/>
<path d="M22.293 0.292969C22.6835 -0.0975555 23.3165 -0.0975559 23.707 0.292969C24.0976 0.683493 24.0976 1.31651 23.707 1.70703L17.4141 8H23C23.5523 8 24 8.44772 24 9C24 9.55228 23.5523 10 23 10H15C14.4477 10 14 9.55229 14 9V1C14 0.447715 14.4477 4.82822e-08 15 0C15.5523 4.24185e-07 16 0.447715 16 1V6.58594L22.293 0.292969Z" fill="#A77D3E"/>
</svg>
