<svg width="24" height="24" viewBox="0 0 24 24" fill="none" xmlns="http://www.w3.org/2000/svg">
<path d="M15 0C14.4477 0 14 0.447715 14 1C14 1.55228 14.4477 2 15 2H20.5858L14.2929 8.29289C13.9024 8.68342 13.9024 9.31658 14.2929 9.70711C14.6834 10.0976 15.3166 10.0976 15.7071 9.70711L22 3.41421V9C22 9.55229 22.4477 10 23 10C23.5523 10 24 9.55229 24 9V1C24 0.447715 23.5523 0 23 0H15Z" fill="#A77D3E"/>
<path d="M8.29289 14.2929C8.68342 13.9024 9.31658 13.9024 9.70711 14.2929C10.0976 14.6834 10.0976 15.3166 9.70711 15.7071L3.41421 22H9C9.55229 22 10 22.4477 10 23C10 23.5523 9.55229 24 9 24H1C0.447715 24 0 23.5523 0 23V15C0 14.4477 0.447715 14 1 14C1.55228 14 2 14.4477 2 15V20.5858L8.29289 14.2929Z" fill="#A77D3E"/>
</svg>
