<svg width="24" height="24" viewBox="0 0 24 24" fill="none" xmlns="http://www.w3.org/2000/svg">
<path d="M18 2C18.5523 2 19 2.44772 19 3V20.5859L22.293 17.293C22.6835 16.9024 23.3165 16.9024 23.707 17.293C24.0975 17.6835 24.0975 18.3165 23.707 18.707L18.707 23.707C18.3165 24.0976 17.6835 24.0976 17.293 23.707L12.293 18.707C11.9024 18.3165 11.9024 17.6835 12.293 17.293C12.6835 16.9024 13.3165 16.9024 13.707 17.293L17 20.5859V3C17 2.44772 17.4477 2 18 2Z" fill="#A77D3E"/>
<path d="M5.29295 0.292969C5.68348 -0.0975547 6.31649 -0.0975547 6.70702 0.292969L11.707 5.29297C12.0975 5.68349 12.0975 6.31651 11.707 6.70703C11.3165 7.09756 10.6835 7.09756 10.293 6.70703L6.99999 3.41406V21C6.99999 21.5523 6.55227 22 5.99999 22C5.4477 22 4.99999 21.5523 4.99999 21V3.41406L1.70702 6.70703C1.31649 7.09756 0.683478 7.09756 0.292954 6.70703C-0.0975698 6.31651 -0.0975702 5.68349 0.292954 5.29297L5.29295 0.292969Z" fill="#A77D3E"/>
</svg>
