<svg width="24" height="24" viewBox="0 0 24 24" fill="none" xmlns="http://www.w3.org/2000/svg">
<path d="M15.4976 6.00048C16.8783 6.00048 17.9976 7.11977 17.9976 8.50048C17.9976 9.88119 16.8783 11.0005 15.4976 11.0005C14.1168 11.0005 12.9976 9.88119 12.9976 8.50048C12.9976 7.11977 14.1168 6.00048 15.4976 6.00048Z" fill="#A77D3E"/>
<path fill-rule="evenodd" clip-rule="evenodd" d="M15.4976 1.00048C19.6398 1.00048 22.9976 4.3582 22.9976 8.50048C22.9976 12.6428 19.6398 16.0005 15.4976 16.0005C14.8558 16.0005 14.237 15.915 13.6479 15.7632L11.7046 17.7075C11.5171 17.895 11.2628 18.0005 10.9976 18.0005H8.99756V20.0005C8.99756 20.2657 8.89213 20.52 8.70459 20.7075L6.70459 22.7075C6.51705 22.895 6.26277 23.0005 5.99756 23.0005H1.99756C1.44527 23.0005 0.997559 22.5528 0.997559 22.0005V17.0005C0.997559 16.7684 1.07829 16.5446 1.22412 16.3667L1.29053 16.2934L8.06885 9.51318C8.02348 9.18274 7.99756 8.84497 7.99756 8.50048C7.99756 4.3582 11.3553 1.00048 15.4976 1.00048ZM15.4976 3.00048C12.4598 3.00048 9.99756 5.46277 9.99756 8.50048C9.99756 8.89201 10.0403 9.27552 10.1196 9.64892C10.1899 9.98003 10.0885 10.3246 9.84912 10.564L2.99756 17.4145V21.0005H5.5835L6.99756 19.5864V17.0005C6.99756 16.4482 7.44527 16.0005 7.99756 16.0005H10.5835L12.6567 13.9272C12.928 13.6562 13.3307 13.5638 13.6929 13.6899C14.2635 13.8886 14.8683 14.0005 15.4976 14.0005C18.5353 14.0005 20.9976 11.5382 20.9976 8.50048C20.9976 5.46277 18.5353 3.00048 15.4976 3.00048Z" fill="#A77D3E"/>
</svg>
