<svg width="24" height="24" viewBox="0 0 24 24" fill="none" xmlns="http://www.w3.org/2000/svg">
<path d="M1 17C1.55228 17 2 17.4477 2 18V21C2 21.5523 2.44772 22 3 22H6C6.55228 22 7 22.4477 7 23C7 23.5523 6.55228 24 6 24H3C1.34315 24 8.85298e-08 22.6569 0 21V18C-2.41411e-08 17.4477 0.447715 17 1 17Z" fill="#A77D3E"/>
<path d="M23 17C23.5523 17 24 17.4477 24 18V21C24 22.6569 22.6569 24 21 24H18C17.4477 24 17 23.5523 17 23C17 22.4477 17.4477 22 18 22H21C21.5523 22 22 21.5523 22 21V18C22 17.4477 22.4477 17 23 17Z" fill="#A77D3E"/>
<path fill-rule="evenodd" clip-rule="evenodd" d="M10 13C10.5523 13 11 13.4477 11 14V19C11 19.5177 10.6067 19.9438 10.1025 19.9951L10 20H5L4.89746 19.9951C4.42703 19.9472 4.05278 19.573 4.00488 19.1025L4 19V14C4 13.4477 4.44772 13 5 13H10ZM6 18H9V15H6V18Z" fill="#A77D3E"/>
<path fill-rule="evenodd" clip-rule="evenodd" d="M19 13C19.5523 13 20 13.4477 20 14V19C20 19.5177 19.6067 19.9438 19.1025 19.9951L19 20H14L13.8975 19.9951C13.427 19.9472 13.0528 19.573 13.0049 19.1025L13 19V14C13 13.4477 13.4477 13 14 13H19ZM15 18H18V15H15V18Z" fill="#A77D3E"/>
<path fill-rule="evenodd" clip-rule="evenodd" d="M10 4C10.5523 4 11 4.44772 11 5V10C11 10.5177 10.6067 10.9438 10.1025 10.9951L10 11H5L4.89746 10.9951C4.42703 10.9472 4.05278 10.573 4.00488 10.1025L4 10V5C4 4.44772 4.44772 4 5 4H10ZM6 9H9V6H6V9Z" fill="#A77D3E"/>
<path fill-rule="evenodd" clip-rule="evenodd" d="M19 4C19.5523 4 20 4.44772 20 5V10C20 10.5177 19.6067 10.9438 19.1025 10.9951L19 11H14L13.8975 10.9951C13.427 10.9472 13.0528 10.573 13.0049 10.1025L13 10V5C13 4.44772 13.4477 4 14 4H19ZM15 9H18V6H15V9Z" fill="#A77D3E"/>
<path d="M6 0C6.55228 0 7 0.447715 7 1C7 1.55228 6.55228 2 6 2H3C2.44772 2 2 2.44772 2 3V6C2 6.55228 1.55228 7 1 7C0.447715 7 0 6.55228 0 6V3C1.61067e-08 1.34315 1.34315 1.61064e-08 3 0H6Z" fill="#A77D3E"/>
<path d="M21 0C22.6569 1.61064e-08 24 1.34315 24 3V6C24 6.55228 23.5523 7 23 7C22.4477 7 22 6.55228 22 6V3C22 2.44772 21.5523 2 21 2H18C17.4477 2 17 1.55228 17 1C17 0.447715 17.4477 0 18 0H21Z" fill="#A77D3E"/>
</svg>
