<svg width="24" height="24" viewBox="0 0 24 24" fill="none" xmlns="http://www.w3.org/2000/svg">
<path fill-rule="evenodd" clip-rule="evenodd" d="M6.5 1C4.86956 1 3.32494 1.35098 2.15156 1.98168C1.01268 2.59382 0 3.61072 0 5V22C0 22.5523 0.447715 23 1 23C1.55228 23 2 22.5523 2 22C2 21.6893 2.23732 21.2062 3.09844 20.7433C3.92506 20.299 5.13044 20 6.5 20C7.86956 20 9.07494 20.299 9.90156 20.7433C10.7627 21.2062 11 21.6893 11 22C11 22.5523 11.4477 23 12 23C12.5523 23 13 22.5523 13 22C13 21.6893 13.2373 21.2062 14.0984 20.7433C14.9251 20.299 16.1304 20 17.5 20C18.8696 20 20.0749 20.299 20.9016 20.7433C21.7627 21.2062 22 21.6893 22 22C22 22.5523 22.4477 23 23 23C23.5523 23 24 22.5523 24 22V5C24 3.61072 22.9873 2.59382 21.8484 1.98168C20.6751 1.35098 19.1304 1 17.5 1C15.8696 1 14.3249 1.35098 13.1516 1.98168C12.7367 2.20468 12.3385 2.48139 12 2.81026C11.6615 2.48139 11.2633 2.20468 10.8484 1.98168C9.67506 1.35098 8.13044 1 6.5 1ZM2.15156 18.9817C2.10076 19.009 2.05022 19.0371 2 19.066V5C2 4.68928 2.23732 4.20618 3.09844 3.74332C3.92506 3.29902 5.13044 3 6.5 3C7.86956 3 9.07494 3.29902 9.90156 3.74332C10.7627 4.20618 11 4.68928 11 5V19.066C10.9498 19.0371 10.8992 19.009 10.8484 18.9817C9.67506 18.351 8.13044 18 6.5 18C4.86956 18 3.32494 18.351 2.15156 18.9817ZM13 19.066C13.0502 19.0371 13.1008 19.009 13.1516 18.9817C14.3249 18.351 15.8696 18 17.5 18C19.1304 18 20.6751 18.351 21.8484 18.9817C21.8992 19.009 21.9498 19.0371 22 19.066V5C22 4.68928 21.7627 4.20618 20.9016 3.74332C20.0749 3.29902 18.8696 3 17.5 3C16.1304 3 14.9251 3.29902 14.0984 3.74332C13.2373 4.20618 13 4.68928 13 5V19.066Z" fill="#A77D3E"/>
</svg>
