<svg width="24" height="24" viewBox="0 0 24 24" fill="none" xmlns="http://www.w3.org/2000/svg">
<g clip-path="url(#clip0_9084_10551)">
<path fill-rule="evenodd" clip-rule="evenodd" d="M12 1C12.3344 1 12.6466 1.16711 12.832 1.44531L14 3.19727L15.168 1.44531L15.2432 1.34668C15.4318 1.12817 15.7073 1 16 1H21C21.5523 1 22 1.44772 22 2V14C22 16.2093 20.2093 18 18 18H15V21C15 22.8226 13.3734 24.2628 11.5039 23.96C9.96665 23.7095 9 22.3036 9 20.8926V18H6C3.79072 18 2 16.2093 2 14V2C2 1.44772 2.44772 1 3 1H12ZM4 14C4 15.1047 4.89528 16 6 16H10C10.5523 16 11 16.4477 11 17V20.8926C11 21.4733 11.3959 21.9164 11.8242 21.9863L11.9424 21.998C12.526 22.0277 13 21.5693 13 21V17C13 16.4477 13.4477 16 14 16H18C19.1047 16 20 15.1047 20 14H4ZM4 12H20V3H16.5352L14.832 5.55469C14.6466 5.83289 14.3344 6 14 6C13.6656 6 13.3534 5.83289 13.168 5.55469L11.4648 3H4V12Z" fill="#A77D3E"/>
</g>
<defs>
<clipPath id="clip0_9084_10551">
<rect width="24" height="24" fill="white"/>
</clipPath>
</defs>
</svg>
