<svg width="24" height="24" viewBox="0 0 24 24" fill="none" xmlns="http://www.w3.org/2000/svg">
<path d="M16.293 8.29297C16.6835 7.90244 17.3165 7.90244 17.707 8.29297C18.0976 8.68349 18.0976 9.31651 17.707 9.70703L10.707 16.707C10.3165 17.0976 9.68349 17.0976 9.29297 16.707L6.29297 13.707C5.90244 13.3165 5.90244 12.6835 6.29297 12.293C6.68349 11.9024 7.31651 11.9024 7.70703 12.293L10 14.5859L16.293 8.29297Z" fill="#A77D3E"/>
<path fill-rule="evenodd" clip-rule="evenodd" d="M12 0C18.6274 0 24 5.37258 24 12C24 18.6274 18.6274 24 12 24C5.37258 24 0 18.6274 0 12C0 5.37258 5.37258 0 12 0ZM12 2C6.47715 2 2 6.47715 2 12C2 17.5228 6.47715 22 12 22C17.5228 22 22 17.5228 22 12C22 6.47715 17.5228 2 12 2Z" fill="#A77D3E"/>
</svg>
