<svg width="24" height="24" viewBox="0 0 24 24" fill="none" xmlns="http://www.w3.org/2000/svg">
<path d="M12 17C12.5523 17 13 17.4477 13 18C13 18.5523 12.5523 19 12 19C11.4477 19 11 18.5523 11 18C11 17.4477 11.4477 17 12 17Z" fill="#A77D3E"/>
<path d="M11.9375 4.625C12.7474 4.625 13.5313 4.81651 14.1943 5.12402C14.8455 5.42602 15.451 5.87376 15.832 6.44531C16.4826 7.4211 16.6713 8.51798 16.4336 9.5752C16.1996 10.6152 15.5692 11.5546 14.6875 12.3018C13.1694 13.5881 13 14.0072 13 14.5C13 15.0523 12.5523 15.5 12 15.5C11.4477 15.5 11 15.0523 11 14.5C11 12.9929 11.9127 12.032 13.3945 10.7764C14.0126 10.2526 14.3618 9.67222 14.4824 9.13574C14.5991 8.61629 14.5174 8.07881 14.168 7.55469C14.049 7.37628 13.7795 7.13648 13.3525 6.93848C12.9375 6.74603 12.44 6.625 11.9375 6.625C10.9835 6.625 9.99564 7.04816 9.41895 8.39355C9.20142 8.9011 8.61402 9.13632 8.10645 8.91895C7.59889 8.70142 7.36367 8.11402 7.58105 7.60645C8.50438 5.45203 10.2665 4.625 11.9375 4.625Z" fill="#A77D3E"/>
<path fill-rule="evenodd" clip-rule="evenodd" d="M12 0C18.6274 0 24 5.37258 24 12C24 18.6274 18.6274 24 12 24C5.37258 24 0 18.6274 0 12C0 5.37258 5.37258 0 12 0ZM12 2C6.47715 2 2 6.47715 2 12C2 17.5228 6.47715 22 12 22C17.5228 22 22 17.5228 22 12C22 6.47715 17.5228 2 12 2Z" fill="#A77D3E"/>
</svg>
