<svg width="24" height="24" viewBox="0 0 24 24" fill="none" xmlns="http://www.w3.org/2000/svg">
<path d="M11 9C12.1046 9 13 9.89543 13 11V16C13.5523 16 14 16.4477 14 17C14 17.5523 13.5523 18 13 18C11.8954 18 11 17.1046 11 16V11C10.4477 11 10 10.5523 10 10C10 9.44771 10.4477 9 11 9Z" fill="#A77D3E"/>
<path d="M12 6C12.5523 6 13 6.44772 13 7C13 7.55228 12.5523 8 12 8C11.4477 8 11 7.55228 11 7C11 6.44772 11.4477 6 12 6Z" fill="#A77D3E"/>
<path fill-rule="evenodd" clip-rule="evenodd" d="M12 0C18.6274 0 24 5.37258 24 12C24 18.6274 18.6274 24 12 24C5.37258 24 0 18.6274 0 12C0 5.37258 5.37258 0 12 0ZM12 2C6.47715 2 2 6.47715 2 12C2 17.5228 6.47715 22 12 22C17.5228 22 22 17.5228 22 12C22 6.47715 17.5228 2 12 2Z" fill="#A77D3E"/>
</svg>
