<svg width="24" height="24" viewBox="0 0 24 24" fill="none" xmlns="http://www.w3.org/2000/svg">
<path d="M15.293 7.29297C15.6835 6.90244 16.3165 6.90245 16.707 7.29297C17.0976 7.68349 17.0976 8.31651 16.707 8.70703L13.4141 12L16.707 15.293C17.0976 15.6835 17.0976 16.3165 16.707 16.707C16.3165 17.0976 15.6835 17.0976 15.293 16.707L12 13.4141L8.70703 16.707C8.31651 17.0976 7.68349 17.0976 7.29297 16.707C6.90245 16.3165 6.90244 15.6835 7.29297 15.293L10.5859 12L7.29297 8.70703C6.90244 8.31651 6.90244 7.68349 7.29297 7.29297C7.68349 6.90245 8.31651 6.90244 8.70703 7.29297L12 10.5859L15.293 7.29297Z" fill="#A77D3E"/>
<path fill-rule="evenodd" clip-rule="evenodd" d="M12 0C18.6274 0 24 5.37258 24 12C24 18.6274 18.6274 24 12 24C5.37258 24 0 18.6274 0 12C0 5.37258 5.37258 0 12 0ZM12 2C6.47715 2 2 6.47715 2 12C2 17.5228 6.47715 22 12 22C17.5228 22 22 17.5228 22 12C22 6.47715 17.5228 2 12 2Z" fill="#A77D3E"/>
</svg>
