<svg width="24" height="24" viewBox="0 0 24 24" fill="none" xmlns="http://www.w3.org/2000/svg">
<path fill-rule="evenodd" clip-rule="evenodd" d="M12 0C18.6274 0 24 5.37258 24 12C24 18.6274 18.6274 24 12 24C5.37258 24 0 18.6274 0 12C0 5.37258 5.37258 0 12 0ZM5.6709 19.7422C7.39486 21.1532 9.59845 22 12 22C17.5228 22 22 17.5228 22 12C22 9.59845 21.1532 7.39486 19.7422 5.6709L5.6709 19.7422ZM12 2C6.47715 2 2 6.47715 2 12C2 14.4011 2.84638 16.6043 4.25684 18.3281L18.3281 4.25684C16.6043 2.84638 14.4011 2 12 2Z" fill="#A77D3E"/>
</svg>
