<svg width="24" height="24" viewBox="0 0 24 24" fill="none" xmlns="http://www.w3.org/2000/svg">
<path fill-rule="evenodd" clip-rule="evenodd" d="M1 11C1.55228 11 2 11.4477 2 12C2 17.5228 6.47715 22 12 22C13.8914 22 15.657 21.4736 17.1641 20.5625C17.0574 20.2274 17 19.8704 17 19.5C17 17.567 18.567 16 20.5 16C22.433 16 24 17.567 24 19.5C24 21.433 22.433 23 20.5 23C19.6631 23 18.8952 22.7058 18.293 22.2158C16.4626 23.3456 14.3069 24 12 24C5.37258 24 0 18.6274 0 12C0 11.4477 0.447715 11 1 11ZM20.5 18C19.6716 18 19 18.6716 19 19.5C19 20.3284 19.6716 21 20.5 21C21.3284 21 22 20.3284 22 19.5C22 18.6716 21.3284 18 20.5 18Z" fill="#A77D3E"/>
<path fill-rule="evenodd" clip-rule="evenodd" d="M10.5859 6.34277C11.3669 5.56207 12.6331 5.56207 13.4141 6.34277L17.6572 10.5859C18.4379 11.3669 18.4379 12.6331 17.6572 13.4141L13.4141 17.6572C12.6817 18.3893 11.5228 18.4348 10.7373 17.7939L10.5859 17.6572L6.34277 13.4141L6.20605 13.2627C5.60778 12.5294 5.60778 11.4706 6.20605 10.7373L6.34277 10.5859L10.5859 6.34277ZM7.75781 12L12 16.2422L16.2422 12L12 7.75781L7.75781 12Z" fill="#A77D3E"/>
<path fill-rule="evenodd" clip-rule="evenodd" d="M12 0C18.6274 0 24 5.37258 24 12C24 12.5523 23.5523 13 23 13C22.4477 13 22 12.5523 22 12C22 6.47715 17.5228 2 12 2C10.1086 2 8.34211 2.52457 6.83496 3.43555C6.94201 3.77122 7 4.12883 7 4.5C7 6.433 5.433 8 3.5 8C1.567 8 0 6.433 0 4.5C0 2.567 1.567 1 3.5 1C4.33618 1 5.10407 1.29299 5.70605 1.78223C7.53638 0.652585 9.69311 0 12 0ZM3.5 3C2.67157 3 2 3.67157 2 4.5C2 5.32843 2.67157 6 3.5 6C4.32843 6 5 5.32843 5 4.5C5 3.67157 4.32843 3 3.5 3Z" fill="#A77D3E"/>
</svg>
