<svg width="24" height="24" viewBox="0 0 24 24" fill="none" xmlns="http://www.w3.org/2000/svg">
<path fill-rule="evenodd" clip-rule="evenodd" d="M21.1543 0.00390625C22.7394 0.0842146 24 1.39489 24 3V15L23.9961 15.1543C23.9184 16.6883 22.6883 17.9184 21.1543 17.9961L21 18H18V21L17.9961 21.1543C17.9184 22.6883 16.6883 23.9184 15.1543 23.9961L15 24H3L2.8457 23.9961C1.31166 23.9184 0.0816253 22.6883 0.00390625 21.1543L0 21V9C1.87243e-07 7.39489 1.26056 6.08421 2.8457 6.00391L3 6H6V3C6 1.39489 7.26056 0.0842145 8.8457 0.00390625L9 0H21L21.1543 0.00390625ZM3 8C2.44772 8 2 8.44772 2 9V21C2 21.5523 2.44772 22 3 22H15C15.5523 22 16 21.5523 16 21V18H9L8.8457 17.9961C7.31166 17.9184 6.08163 16.6883 6.00391 15.1543L6 15V8H3ZM8 15C8 15.5523 8.44772 16 9 16H16V9C16 8.44772 15.5523 8 15 8H8V15ZM9 2C8.44772 2 8 2.44772 8 3V6H15L15.1543 6.00391C16.7394 6.08421 18 7.39489 18 9V16H21C21.5523 16 22 15.5523 22 15V3C22 2.44772 21.5523 2 21 2H9Z" fill="#A77D3E"/>
</svg>
