<svg width="24" height="24" viewBox="0 0 24 24" fill="none" xmlns="http://www.w3.org/2000/svg">
<path d="M11 15C11.5523 15 12 15.4477 12 16C12 16.5523 11.5523 17 11 17H5C4.44772 17 4 16.5523 4 16C4 15.4477 4.44772 15 5 15H11Z" fill="#A77D3E"/>
<path fill-rule="evenodd" clip-rule="evenodd" d="M20.7998 3C22.4753 3 24 4.2556 24 6V18C24 19.7444 22.4753 21 20.7998 21H3.2002C1.52472 21 0 19.7444 0 18V6C0 4.25559 1.52471 3 3.2002 3H20.7998ZM2 18C2 18.4648 2.44562 19 3.2002 19H20.7998C21.5544 19 22 18.4648 22 18V10H2V18ZM3.2002 5C2.44563 5 2 5.53527 2 6V8H22V6C22 5.53526 21.5544 5 20.7998 5H3.2002Z" fill="#A77D3E"/>
</svg>
