<svg width="24" height="24" viewBox="0 0 24 24" fill="none" xmlns="http://www.w3.org/2000/svg">
<path d="M7.29305 4.29305C7.68357 3.90252 8.31658 3.90252 8.70711 4.29305C9.09756 4.68358 9.09761 5.31661 8.70711 5.70711L2.41414 12.0001L8.70711 18.293C9.09756 18.6836 9.09761 19.3166 8.70711 19.7071C8.31661 20.0976 7.68358 20.0976 7.29305 19.7071L0.293046 12.7071C-0.0974785 12.3166 -0.0974785 11.6836 0.293046 11.293L7.29305 4.29305Z" fill="#A77D3E"/>
<path d="M15.293 4.29305C15.6836 3.90252 16.3166 3.90252 16.7071 4.29305L23.7071 11.293C24.0976 11.6836 24.0976 12.3166 23.7071 12.7071L16.7071 19.7071C16.3166 20.0976 15.6836 20.0976 15.293 19.7071C14.9025 19.3166 14.9025 18.6836 15.293 18.293L21.586 12.0001L15.293 5.70711C14.9025 5.31658 14.9025 4.68357 15.293 4.29305Z" fill="#A77D3E"/>
</svg>
