<svg width="24" height="24" viewBox="0 0 24 24" fill="none" xmlns="http://www.w3.org/2000/svg">
<path d="M19 0C20.6569 0 22 1.34315 22 3V21C22 22.6569 20.6569 24 19 24H11C10.4477 24 10 23.5523 10 23C10 22.4477 10.4477 22 11 22H19C19.5523 22 20 21.5523 20 21V3C20 2.44771 19.5523 2 19 2H5C4.44771 2 4 2.44771 4 3V15C4 15.5523 3.55228 16 3 16C2.44772 16 2 15.5523 2 15V3C2 1.34315 3.34315 0 5 0H19Z" fill="#A77D3E"/>
<path d="M15.0205 10.001C15.0381 10.0013 15.0557 10.0017 15.0732 10.0029L15.1025 10.0049C15.112 10.0059 15.1214 10.0076 15.1309 10.0088C15.1354 10.0094 15.14 10.0101 15.1445 10.0107C15.2591 10.0273 15.3673 10.0632 15.4658 10.1152C15.471 10.1179 15.4763 10.1202 15.4814 10.123L15.5342 10.1543C15.5395 10.1577 15.5445 10.1616 15.5498 10.165C15.5582 10.1706 15.566 10.1768 15.5742 10.1826C15.5927 10.1957 15.6114 10.2084 15.6289 10.2227C15.6343 10.227 15.6392 10.2318 15.6445 10.2363C15.6623 10.2514 15.6796 10.267 15.6963 10.2832C15.6997 10.2866 15.7036 10.2895 15.707 10.293C15.7101 10.2961 15.7128 10.2996 15.7158 10.3027C15.7533 10.3412 15.7874 10.3827 15.8184 10.4268C15.8243 10.4352 15.8303 10.4436 15.8359 10.4521C15.8452 10.4662 15.8538 10.4806 15.8623 10.4951C15.8679 10.5046 15.8737 10.5138 15.8789 10.5234C15.8901 10.5441 15.9004 10.5654 15.9102 10.5869C15.9137 10.5946 15.9166 10.6026 15.9199 10.6104C15.9279 10.6292 15.9346 10.6485 15.9414 10.668C15.9452 10.6787 15.9488 10.6894 15.9521 10.7002C15.958 10.7189 15.9639 10.7376 15.9688 10.7568C15.9707 10.7647 15.9728 10.7724 15.9746 10.7803C15.9795 10.8019 15.9839 10.8236 15.9873 10.8457C15.9892 10.858 15.9907 10.8704 15.9922 10.8828C15.9936 10.8951 15.9941 10.9075 15.9951 10.9199C15.9967 10.9401 15.9986 10.9602 15.999 10.9805C15.9991 10.987 16 10.9935 16 11V17C16 17.5523 15.5523 18 15 18C14.4477 18 14 17.5523 14 17V13.4141L4.20703 23.207C3.81651 23.5976 3.18349 23.5975 2.79297 23.207C2.40245 22.8165 2.40245 22.1835 2.79297 21.793L12.5859 12H9C8.44772 12 8 11.5523 8 11C8 10.4477 8.44772 10 9 10H15L15.0205 10.001Z" fill="#A77D3E"/>
</svg>
