<svg width="24" height="24" viewBox="0 0 24 24" fill="none" xmlns="http://www.w3.org/2000/svg">
<path fill-rule="evenodd" clip-rule="evenodd" d="M12 7C14.7614 7 17 9.23858 17 12C17 14.7614 14.7614 17 12 17C9.23858 17 7 14.7614 7 12C7 9.23858 9.23858 7 12 7ZM12 9C10.3431 9 9 10.3431 9 12C9 13.6569 10.3431 15 12 15C13.6569 15 15 13.6569 15 12C15 10.3431 13.6569 9 12 9Z" fill="#A77D3E"/>
<path fill-rule="evenodd" clip-rule="evenodd" d="M12 3C14.8934 3.0001 17.3698 4.2812 19.2842 5.78711C20.961 7.10622 22.2621 8.64074 23.1084 9.77832L23.4434 10.2402L23.4463 10.2441L23.5732 10.4414C23.8514 10.9122 23.999 11.4503 23.999 12C23.999 12.6281 23.8063 13.2411 23.4463 13.7559L23.4434 13.7598C22.6265 14.9162 21.2007 16.7052 19.2842 18.2129C17.3698 19.7188 14.8934 20.9999 12 21C9.10642 20.9999 6.62929 19.7189 4.71484 18.2129C2.79832 16.7051 1.37245 14.9161 0.555664 13.7598L0.552734 13.7559L0.553711 13.7549C0.19397 13.2402 0 12.6279 0 12C0 11.3718 0.193688 10.7589 0.553711 10.2441L0.555664 10.2402L0.890625 9.77832C1.73686 8.64075 3.038 7.1063 4.71484 5.78711C6.62929 4.28107 9.10642 3.0001 12 3ZM12 5C9.71293 5.0001 7.66155 6.01384 5.95117 7.35938C4.24501 8.70169 2.94791 10.3191 2.19141 11.3896L2.19238 11.3906C2.06749 11.5693 2 11.782 2 12C2 12.218 2.06749 12.4307 2.19238 12.6094C2.94883 13.6799 4.24467 15.298 5.95117 16.6406C7.66155 17.9862 9.71293 18.9999 12 19C14.287 18.9999 16.3375 17.9861 18.0479 16.6406C19.7559 15.2969 21.0533 13.677 21.8096 12.6064C21.9331 12.4284 21.999 12.2168 21.999 12C21.999 11.7832 21.9331 11.5716 21.8096 11.3936L21.501 10.9688C20.7227 9.92308 19.5427 8.53534 18.0479 7.35938C16.3375 6.01392 14.287 5.0001 12 5Z" fill="#A77D3E"/>
</svg>
