<svg width="24" height="24" viewBox="0 0 24 24" fill="none" xmlns="http://www.w3.org/2000/svg">
<path fill-rule="evenodd" clip-rule="evenodd" d="M21.3691 1.22484C21.7619 0.904494 22.3409 0.927088 22.707 1.2932C23.073 1.65933 23.0957 2.23836 22.7754 2.63109L22.707 2.70727L19.4736 5.93969C21.059 7.22354 22.2944 8.68427 23.1084 9.77855L23.4434 10.2405L23.4463 10.2444L23.5732 10.4416C23.8514 10.9125 23.999 11.4505 23.999 12.0002C23.999 12.6283 23.8062 13.2414 23.4463 13.7561L23.4434 13.76C22.6265 14.9164 21.2006 16.7055 19.2842 18.2131C17.3698 19.719 14.8933 21.0001 12 21.0002C9.79572 21.0002 7.83393 20.2555 6.17773 19.2356L2.70703 22.7073C2.31654 23.0976 1.68346 23.0976 1.29297 22.7073C0.902484 22.3168 0.902562 21.6837 1.29297 21.2932L4.52539 18.0598C2.70468 16.5852 1.34517 14.8778 0.555664 13.76L0.552734 13.7561L0.553711 13.7551C0.193945 13.2405 4.82541e-05 12.6282 0 12.0002C0 11.3721 0.193759 10.7591 0.553711 10.2444L0.555664 10.2405L0.890625 9.77855C1.73684 8.64101 3.03806 7.10652 4.71484 5.78734C6.62929 4.2813 9.10642 3.00033 12 3.00023C14.2039 3.00031 16.1654 3.74422 17.8213 4.76391L21.293 1.2932L21.3691 1.22484ZM16.1709 9.24242C16.6946 10.0329 17 10.981 17 12.0002C16.9999 14.7616 14.7613 17.0002 12 17.0002C10.9808 17.0002 10.0337 16.6938 9.24316 16.1702L7.6377 17.7756C8.95661 18.5168 10.422 19.0002 12 19.0002C14.2869 19.0001 16.3375 17.9863 18.0479 16.6409C19.7558 15.2972 21.0533 13.6773 21.8096 12.6067C21.9331 12.4287 21.999 12.2169 21.999 12.0002C21.999 11.7834 21.9331 11.5719 21.8096 11.3938L21.501 10.969C20.7232 9.92403 19.5442 8.53803 18.0508 7.36254L16.1709 9.24242ZM12 5.00023C9.71293 5.00033 7.66155 6.01407 5.95117 7.35961C4.24507 8.70191 2.9479 10.3194 2.19141 11.3899L2.19238 11.3909C2.06756 11.5695 2 11.7823 2 12.0002C2.00005 12.2182 2.06747 12.4309 2.19238 12.6096C2.94828 13.6794 4.2426 15.2959 5.94727 16.6379L7.82812 14.7571C7.30479 13.9668 7.00005 13.0191 7 12.0002C7 9.23881 9.23858 7.00023 12 7.00023C13.0189 7.00023 13.9665 7.305 14.7568 7.82836L16.3613 6.22387C15.0428 5.48292 13.5777 5.0003 12 5.00023ZM10.709 14.7043C11.1004 14.8916 11.5371 15.0002 12 15.0002C13.6568 15.0002 14.9999 13.657 15 12.0002C15 11.5372 14.8924 11.0998 14.7051 10.7082L10.709 14.7043ZM12 9.00023C10.3431 9.00023 9 10.3434 9 12.0002C9.00004 12.4627 9.108 12.8991 9.29492 13.2903L13.29 9.29516C12.8988 9.10824 12.4625 9.00023 12 9.00023Z" fill="#A77D3E"/>
</svg>
