<svg width="24" height="24" viewBox="0 0 24 24" fill="none" xmlns="http://www.w3.org/2000/svg">
<path d="M22 0C22.5523 0 23 0.447715 23 1V4C23 4.26522 22.8946 4.5195 22.707 4.70703L15 12.4141V20C15 20.3788 14.786 20.7251 14.4473 20.8945L10.4473 22.8945C10.1374 23.0495 9.76939 23.0327 9.47461 22.8506C9.17979 22.6684 9 22.3466 9 22V12.4141L1.29297 4.70703C1.10543 4.5195 1 4.26522 1 4V1C1 0.447715 1.44772 0 2 0H22ZM3 3.58594L10.707 11.293C10.8946 11.4805 11 11.7348 11 12V20.3818L13 19.3818V12C13 11.7348 13.1054 11.4805 13.293 11.293L21 3.58594V2H3V3.58594Z" fill="#A77D3E"/>
</svg>
