<svg width="24" height="24" viewBox="0 0 24 24" fill="none" xmlns="http://www.w3.org/2000/svg">
<path d="M1 17C1.55228 17 2 17.4477 2 18V21C2 21.5523 2.44771 22 3 22H6C6.55228 22 7 22.4477 7 23C7 23.5523 6.55228 24 6 24H3C1.34315 24 0 22.6569 0 21V18C0 17.4477 0.447715 17 1 17Z" fill="#A77D3E"/>
<path d="M23 17C23.5523 17 24 17.4477 24 18V21C24 22.6569 22.6569 24 21 24H18C17.4477 24 17 23.5523 17 23C17 22.4477 17.4477 22 18 22H21C21.5523 22 22 21.5523 22 21V18C22 17.4477 22.4477 17 23 17Z" fill="#A77D3E"/>
<path fill-rule="evenodd" clip-rule="evenodd" d="M12 12C14.0209 12 15.7004 12.7675 16.9121 14.0488C18.1103 15.316 18.8072 17.0361 18.9951 18.8994C19.0235 19.1806 18.9317 19.4613 18.7422 19.6709C18.5526 19.8806 18.2827 20 18 20H6C5.71733 20 5.4474 19.8806 5.25781 19.6709C5.0683 19.4613 4.97654 19.1806 5.00488 18.8994C5.19277 17.0361 5.88971 15.316 7.08789 14.0488C8.29957 12.7675 9.97913 12 12 12ZM12 14C10.5209 14 9.3694 14.5468 8.54102 15.4229C7.91285 16.0872 7.44633 16.9691 7.18652 18H16.8135C16.5537 16.9691 16.0872 16.0872 15.459 15.4229C14.6306 14.5468 13.4791 14 12 14Z" fill="#A77D3E"/>
<path fill-rule="evenodd" clip-rule="evenodd" d="M12 3C14.2091 3 16 4.79086 16 7C16 9.20914 14.2091 11 12 11C9.79086 11 8 9.20914 8 7C8 4.79086 9.79086 3 12 3ZM12 5C10.8954 5 10 5.89543 10 7C10 8.10457 10.8954 9 12 9C13.1046 9 14 8.10457 14 7C14 5.89543 13.1046 5 12 5Z" fill="#A77D3E"/>
<path d="M6 0C6.55228 0 7 0.447715 7 1C7 1.55228 6.55228 2 6 2H3C2.44771 2 2 2.44771 2 3V6C2 6.55228 1.55228 7 1 7C0.447715 7 0 6.55228 0 6V3C0 1.34315 1.34315 0 3 0H6Z" fill="#A77D3E"/>
<path d="M21 0C22.6569 0 24 1.34315 24 3V6C24 6.55228 23.5523 7 23 7C22.4477 7 22 6.55228 22 6V3C22 2.44771 21.5523 2 21 2H18C17.4477 2 17 1.55228 17 1C17 0.447715 17.4477 0 18 0H21Z" fill="#A77D3E"/>
</svg>
