<svg width="24" height="24" viewBox="0 0 24 24" fill="none" xmlns="http://www.w3.org/2000/svg">
<path fill-rule="evenodd" clip-rule="evenodd" d="M18 14C20.7614 14 23 16.2386 23 19C23 21.7614 20.7614 24 18 24C15.2386 24 13 21.7614 13 19C13 18.7421 13.019 18.4886 13.0566 18.2412C12.7297 18.0844 12.3707 18 12.0039 18C11.634 18 11.2716 18.0857 10.9424 18.2451C10.9797 18.4914 11 18.7433 11 19C11 21.7614 8.76142 24 6 24C3.23858 24 1 21.7614 1 19C1 16.2386 3.23858 14 6 14C7.7932 14 9.36563 14.9442 10.248 16.3623C10.799 16.1247 11.3962 16 12.0039 16C12.6092 16 13.2037 16.1246 13.7529 16.3604C14.6356 14.9432 16.2076 14 18 14ZM6 16C4.34315 16 3 17.3431 3 19C3 20.6569 4.34315 22 6 22C7.65685 22 9 20.6569 9 19C9 17.3431 7.65685 16 6 16ZM18 16C16.3431 16 15 17.3431 15 19C15 20.6569 16.3431 22 18 22C19.6569 22 21 20.6569 21 19C21 17.3431 19.6569 16 18 16Z" fill="#A77D3E"/>
<path fill-rule="evenodd" clip-rule="evenodd" d="M18 0C18.4888 0 18.906 0.35375 18.9863 0.835938L19.9463 6.5957L22.7998 10.4004C23.027 10.7034 23.0639 11.1085 22.8945 11.4473C22.7251 11.786 22.3788 12 22 12H2C1.62123 12 1.27486 11.786 1.10547 11.4473C0.936106 11.1085 0.973037 10.7034 1.2002 10.4004L4.05371 6.5957L5.01367 0.835938L5.03223 0.74707C5.14594 0.310735 5.54158 3.23222e-07 6 0H18ZM3.99902 10H20.001L18.501 8H5.49902L3.99902 10ZM6.18066 6H17.8193L17.1533 2H6.84668L6.18066 6Z" fill="#A77D3E"/>
</svg>
