<svg width="24" height="24" viewBox="0 0 24 24" fill="none" xmlns="http://www.w3.org/2000/svg">
<path fill-rule="evenodd" clip-rule="evenodd" d="M5 4C4.44771 4 4 4.44771 4 5V13C4 13.5523 3.55228 14 3 14C2.44772 14 2 13.5523 2 13V5C2 3.34315 3.34315 2 5 2H19C20.6569 2 22 3.34315 22 5V13C22 13.5523 21.5523 14 21 14C20.4477 14 20 13.5523 20 13V5C20 4.44771 19.5523 4 19 4H5ZM0 17C0 16.4477 0.447715 16 1 16H8C8.55228 16 9 16.4477 9 17H15C15 16.4477 15.4477 16 16 16H23C23.5523 16 24 16.4477 24 17V19C24 20.6569 22.6569 22 21 22H3C1.34315 22 0 20.6569 0 19V17ZM2 18V19C2 19.5523 2.44771 20 3 20H21C21.5523 20 22 19.5523 22 19V18H16.7324C16.3866 18.5978 15.7403 19 15 19H9C8.25972 19 7.61337 18.5978 7.26756 18H2Z" fill="#A77D3E"/>
</svg>
