<svg width="24" height="24" viewBox="0 0 24 24" fill="none" xmlns="http://www.w3.org/2000/svg">
<path d="M9 7.99994C9.55229 7.99994 10 7.55222 10 6.99994C10 6.44765 9.55229 5.99994 9 5.99994C8.44771 5.99994 8 6.44765 8 6.99994C8 7.55222 8.44771 7.99994 9 7.99994Z" fill="#A77D3E"/>
<path d="M21 17.9999C21 18.5522 20.5523 18.9999 20 18.9999C19.4477 18.9999 19 18.5522 19 17.9999C19 17.4477 19.4477 16.9999 20 16.9999C20.5523 16.9999 21 17.4477 21 17.9999Z" fill="#A77D3E"/>
<path fill-rule="evenodd" clip-rule="evenodd" d="M10.3432 13.9999L2.85792 6.5147L8.51477 0.857849L22.6569 15L22.6466 15.0006C23.4766 15.7335 24 16.8056 24 17.9999C24 20.2091 22.2091 21.9999 20 21.9999H0V13.9999H10.3432ZM5.68634 6.5147L8.51477 3.68628L18.8284 13.9999H13.1716L5.68634 6.5147ZM2 15.9999H20C21.1046 15.9999 22 16.8954 22 17.9999C22 19.1045 21.1046 19.9999 20 19.9999H2V15.9999Z" fill="#A77D3E"/>
</svg>
