<svg width="24" height="24" viewBox="0 0 24 24" fill="none" xmlns="http://www.w3.org/2000/svg">
<path d="M17 18C17.5523 18 18 18.4477 18 19C18 19.5523 17.5523 20 17 20H5C4.44772 20 4 19.5523 4 19C4 18.4477 4.44772 18 5 18H17Z" fill="#A77D3E"/>
<path d="M8 14C8.55229 14 9 14.4477 9 15C9 15.5523 8.55229 16 8 16H5C4.44772 16 4 15.5523 4 15C4 14.4477 4.44772 14 5 14H8Z" fill="#A77D3E"/>
<path d="M12 10C12.5523 10 13 10.4477 13 11C13 11.5523 12.5523 12 12 12H5C4.44772 12 4 11.5523 4 11C4 10.4477 4.44772 10 5 10H12Z" fill="#A77D3E"/>
<path fill-rule="evenodd" clip-rule="evenodd" d="M15.4678 0.0146484C16.1547 0.0827771 16.8006 0.386549 17.293 0.878906L23.1211 6.70703C23.6836 7.26957 23.9999 8.03259 24 8.82812V21C24 22.6569 22.6569 24 21 24H3C1.34315 24 3.22128e-08 22.6569 0 21V3C0 1.34315 1.34315 5.63723e-08 3 0H15.1719L15.4678 0.0146484ZM3 2C2.44771 2 2 2.44772 2 3V21C2 21.5523 2.44772 22 3 22H21C21.5523 22 22 21.5523 22 21V10H17C15.3431 10 14 8.65685 14 7V2H3ZM16 7C16 7.55228 16.4477 8 17 8H21.5859L16 2.41406V7Z" fill="#A77D3E"/>
</svg>
