<svg width="24" height="24" viewBox="0 0 24 24" fill="none" xmlns="http://www.w3.org/2000/svg">
<path d="M11 3H13C13.5856 3 14.0603 3.47472 14.0603 4.06031C14.0603 4.64591 13.5856 5.12062 13 5.12062H11C10.4144 5.12062 9.9397 4.64591 9.9397 4.06032C9.9397 3.47472 10.4144 3 11 3Z" fill="#A77D3E"/>
<path d="M10 19C9.44772 19 9 19.4477 9 20C9 20.5523 9.44772 21 10 21H14C14.5523 21 15 20.5523 15 20C15 19.4477 14.5523 19 14 19H10Z" fill="#A77D3E"/>
<path fill-rule="evenodd" clip-rule="evenodd" d="M17 24H7C5.34314 24 4 22.6569 4 21V3C4 1.34315 5.34314 0 7 0H17C18.6569 0 20 1.34315 20 3V21C20 22.6569 18.6569 24 17 24ZM7 22H17C17.5523 22 18 21.5523 18 21V3C18 2.44772 17.5523 2 17 2H7C6.44771 2 6 2.44772 6 3V21C6 21.5523 6.44771 22 7 22Z" fill="#A77D3E"/>
</svg>
