<svg width="24" height="24" viewBox="0 0 24 24" fill="none" xmlns="http://www.w3.org/2000/svg">
<path fill-rule="evenodd" clip-rule="evenodd" d="M9 13C10.1046 13 11 13.8954 11 15V22C11 23.1046 10.1046 24 9 24H2C0.89543 24 0 23.1046 0 22V15C0 13.8954 0.89543 13 2 13H9ZM2 22H9V15H2V22Z" fill="#A77D3E"/>
<path d="M14 20C14.5523 20 15 20.4477 15 21V22H16C16.5523 22 17 22.4477 17 23C17 23.5523 16.5523 24 16 24H15C13.8957 24 13 23.1043 13 22V21C13 20.4477 13.4477 20 14 20Z" fill="#A77D3E"/>
<path d="M23 20C23.5523 20 24 20.4477 24 21V22C24 23.1043 23.1043 24 22 24H21C20.4477 24 20 23.5523 20 23C20 22.4477 20.4477 22 21 22H22V21C22 20.4477 22.4477 20 23 20Z" fill="#A77D3E"/>
<path d="M16 13C16.5523 13 17 13.4477 17 14C17 14.5523 16.5523 15 16 15H15V16C15 16.5523 14.5523 17 14 17C13.4477 17 13 16.5523 13 16V15C13 13.8957 13.8957 13 15 13H16Z" fill="#A77D3E"/>
<path d="M22 13C23.1043 13 24 13.8957 24 15V16C24 16.5523 23.5523 17 23 17C22.4477 17 22 16.5523 22 16V15H21C20.4477 15 20 14.5523 20 14C20 13.4477 20.4477 13 21 13H22Z" fill="#A77D3E"/>
<path fill-rule="evenodd" clip-rule="evenodd" d="M9 0C10.1046 0 11 0.89543 11 2V9C11 10.1046 10.1046 11 9 11H2C0.89543 11 0 10.1046 0 9V2C0 0.89543 0.89543 0 2 0H9ZM2 9H9V2H2V9Z" fill="#A77D3E"/>
<path fill-rule="evenodd" clip-rule="evenodd" d="M22 0C23.1046 0 24 0.89543 24 2V9C24 10.1046 23.1046 11 22 11H15C13.8954 11 13 10.1046 13 9V2C13 0.89543 13.8954 0 15 0H22ZM15 9H22V2H15V9Z" fill="#A77D3E"/>
</svg>
