<svg width="24" height="24" viewBox="0 0 24 24" fill="none" xmlns="http://www.w3.org/2000/svg">
<path fill-rule="evenodd" clip-rule="evenodd" d="M16.7073 0.879294C17.8788 -0.2922 19.778 -0.29214 20.9495 0.879294L23.1214 3.05117C24.2928 4.2227 24.2929 6.12185 23.1214 7.29336L8.7073 21.7074C8.5872 21.8274 8.43793 21.9147 8.27469 21.9613L1.27469 23.9613C0.925696 24.0608 0.549907 23.964 0.29324 23.7074C0.0365607 23.4507 -0.0613009 23.0741 0.0383574 22.725L2.03836 15.725C2.08502 15.5619 2.17332 15.4134 2.29324 15.2934L16.7073 0.879294ZM2.45633 21.5434L6.09109 20.5053L3.49441 17.9086L2.45633 21.5434ZM4.41433 16.0004L8.00027 19.5863L18.5862 9.00039L15.0003 5.41445L4.41433 16.0004ZM19.5354 2.29336C19.1449 1.90297 18.5118 1.90291 18.1214 2.29336L16.4143 4.00039L20.0003 7.58633L21.7073 5.87929C22.0978 5.48884 22.0977 4.85571 21.7073 4.46523L19.5354 2.29336Z" fill="#A77D3E"/>
</svg>
