<svg width="24" height="24" viewBox="0 0 24 24" fill="none" xmlns="http://www.w3.org/2000/svg">
<path d="M11.0001 1C11.0001 0.447717 11.4477 0.00010984 12 0.000109187C12.5523 0.000108133 12.9999 0.447716 12.9999 1L12.9999 11.0001L23.0001 11.0001C23.5524 11.0001 24 11.4477 24 12C24 12.5523 23.5524 12.9999 23.0001 12.9999L12.9999 12.9999L12.9999 23.0001C12.9999 23.5524 12.5523 24 12 24C11.4477 24 11.0001 23.5524 11.0001 23.0001L11.0001 12.9999L0.999892 12.9999C0.447606 12.9999 -1.87374e-06 12.5523 -8.20069e-07 12C-4.40748e-07 11.4477 0.447607 11.0001 0.999892 11.0001L11.0001 11.0001L11.0001 1Z" fill="#A77D3E"/>
</svg>
