<svg width="24" height="24" viewBox="0 0 24 24" fill="none" xmlns="http://www.w3.org/2000/svg">
<path d="M7.7002 0.796967C10.4394 -0.254332 13.4688 -0.266006 16.2158 0.764741C18.963 1.7956 21.237 3.79771 22.6084 6.39169C23.9797 8.98569 24.3533 11.9922 23.6582 14.8429C22.9631 17.6935 21.2474 20.1908 18.8359 21.8624C16.4246 23.5338 13.4844 24.2644 10.5713 23.9151C7.65799 23.5657 4.97325 22.1603 3.02539 19.9659C1.19951 17.9088 0.139279 15.2914 0.0126954 12.5548L1.08679e-07 12.006C-0.000254739 11.4537 0.447731 11.0052 1 11.005C1.55206 11.005 1.99975 11.4529 2 12.005L2.01074 12.462C2.11617 14.7427 2.99973 16.9244 4.52148 18.6388C6.14468 20.4673 8.38192 21.6377 10.8096 21.9288C13.2372 22.2199 15.6878 21.6117 17.6973 20.2188C19.7067 18.8259 21.1355 16.7446 21.7148 14.3692C22.2941 11.9937 21.9836 9.48792 20.8408 7.32626C19.6981 5.16472 17.8028 3.49689 15.5137 2.63779C13.2244 1.77873 10.6988 1.78793 8.41602 2.66415C6.9694 3.21951 5.68391 4.0989 4.64941 5.2208L6.2373 4.77939L6.33691 4.75693C6.83639 4.67067 7.32953 4.97512 7.46875 5.47372C7.60774 5.97255 7.3432 6.48832 6.87109 6.67294L6.77441 6.70517L2.50488 7.8956C2.49267 7.89899 2.48005 7.9005 2.46777 7.90341C2.45384 7.90672 2.43985 7.90949 2.42578 7.9122C2.40264 7.91665 2.37969 7.92113 2.35645 7.92392C2.33926 7.926 2.32199 7.92664 2.30469 7.92783C2.28837 7.92893 2.27217 7.93046 2.25586 7.93076C2.22207 7.93142 2.18823 7.93064 2.1543 7.92783C2.13199 7.92596 2.10999 7.92239 2.08789 7.91904C2.07419 7.91697 2.06054 7.91486 2.04688 7.9122C2.02886 7.90869 2.01096 7.90497 1.99316 7.90048C1.97156 7.89502 1.95011 7.8889 1.92871 7.88193C1.91293 7.8768 1.89736 7.87124 1.88184 7.86533C1.86433 7.85864 1.84737 7.85061 1.83008 7.84287C1.81358 7.8355 1.79639 7.82966 1.78027 7.82138L1.77637 7.81943C1.70918 7.78455 1.64834 7.7422 1.59277 7.6954C1.58982 7.69291 1.58594 7.6911 1.58301 7.68857C1.5769 7.68329 1.57139 7.67738 1.56543 7.67197C1.54501 7.65346 1.52547 7.63429 1.50684 7.61435C1.49959 7.60659 1.49233 7.59888 1.48535 7.59091C1.4643 7.56689 1.44527 7.54145 1.42676 7.51572C1.42295 7.51043 1.41874 7.50545 1.41504 7.50009C1.39387 7.46941 1.37397 7.43803 1.35645 7.40537C1.35252 7.39805 1.34944 7.39031 1.3457 7.3829C1.33247 7.3567 1.32044 7.33004 1.30957 7.30283C1.30495 7.29124 1.30106 7.27942 1.29688 7.26767C1.28804 7.24289 1.28031 7.21787 1.27344 7.19247C1.27062 7.18202 1.26713 7.17177 1.26465 7.16122C1.24837 7.09227 1.23866 7.02167 1.2373 6.95029V6.93076C1.23731 6.92457 1.23816 6.9184 1.23828 6.9122C1.23885 6.88294 1.23999 6.85362 1.24316 6.82431C1.24379 6.81852 1.24439 6.81252 1.24512 6.80673L1.79102 2.45908L1.80957 2.35849C1.92337 1.86482 2.39471 1.5275 2.9082 1.59189C3.42178 1.65647 3.79509 2.10001 3.7832 2.60654L3.77539 2.70908L3.69531 3.33994C4.83887 2.24326 6.19687 1.37402 7.7002 0.796967Z" fill="#A77D3E"/>
<path d="M12 13.005C12.5523 13.005 13 13.4527 13 14.005C13 14.5573 12.5523 15.005 12 15.005C11.4477 15.005 11 14.5573 11 14.005C11 13.4527 11.4478 13.005 12 13.005Z" fill="#A77D3E"/>
<path fill-rule="evenodd" clip-rule="evenodd" d="M12 5.00497C13.6568 5.00497 15 6.34816 15 8.00498V10.005L15.2041 10.0157C16.2127 10.118 17 10.9694 17 12.005V16.005L16.9893 16.2091C16.8938 17.1506 16.1457 17.8988 15.2041 17.9942L15 18.005H9L8.7959 17.9942C7.78724 17.892 7 17.0406 7 16.005V12.005C7.00005 10.9694 7.78726 10.118 8.7959 10.0157L9 10.005V8.00498C9.00005 6.34817 10.3432 5.00499 12 5.00497ZM9 16.005H15V12.005H9V16.005ZM12 7.00497C11.4478 7.00499 11 7.45274 11 8.00498V10.005H13V8.00498C13 7.45273 12.5523 7.00497 12 7.00497Z" fill="#A77D3E"/>
</svg>
