<svg width="24" height="24" viewBox="0 0 24 24" fill="none" xmlns="http://www.w3.org/2000/svg">
<path d="M3 16C3.55228 16 4 16.4477 4 17V19C4.00005 19.5522 4.44775 20 5 20H7L7.10254 20.0049C7.60668 20.0562 7.99995 20.4823 8 21C7.99995 21.5177 7.60668 21.9438 7.10254 21.9951L7 22H5C3.34318 22 2.00005 20.6568 2 19V17C2 16.4477 2.44772 16 3 16Z" fill="#A77D3E"/>
<path d="M21 16C21.5522 16 22 16.4477 22 17V19C22 20.6568 20.6568 22 19 22H17C16.4477 22 16 21.5522 16 21C16 20.4478 16.4477 20 17 20H19C19.5522 20 20 19.5522 20 19V17C20 16.4477 20.4478 16 21 16Z" fill="#A77D3E"/>
<path d="M23 11C23.5523 11 24 11.4477 24 12C24 12.5523 23.5523 13 23 13H1C0.447715 13 0 12.5523 0 12C0 11.4477 0.447715 11 1 11H23Z" fill="#A77D3E"/>
<path d="M7.10254 2.00488C7.60671 2.05617 8 2.48229 8 3C8 3.51771 7.60671 3.94383 7.10254 3.99512L7 4H5C4.44771 4 4 4.44772 4 5V7C4 7.55228 3.55228 8 3 8C2.44772 8 2 7.55228 2 7V5C2 3.34315 3.34315 2 5 2H7L7.10254 2.00488Z" fill="#A77D3E"/>
<path d="M19 2C20.6568 2.00005 22 3.34318 22 5V7C22 7.55225 21.5522 7.99995 21 8C20.4478 7.99995 20 7.55225 20 7V5C20 4.44775 19.5522 4.00005 19 4H17C16.4477 4 16 3.55228 16 3C16 2.44772 16.4477 2 17 2H19Z" fill="#A77D3E"/>
</svg>
