<svg width="24" height="24" viewBox="0 0 24 24" fill="none" xmlns="http://www.w3.org/2000/svg">
<path d="M7.78441 0.764666C10.5313 -0.265933 13.561 -0.254357 16.3 0.796893C17.8032 1.37394 19.1615 2.24328 20.3049 3.33986L20.2248 2.709L20.217 2.60646C20.2051 2.09994 20.5785 1.6564 21.092 1.59181C21.6053 1.52768 22.0769 1.86488 22.1907 2.35842L22.2092 2.459L22.7551 6.80666C22.7558 6.81242 22.7564 6.81848 22.7571 6.82424C22.7602 6.85352 22.7614 6.88289 22.7619 6.91213C22.7621 6.91831 22.7629 6.92451 22.7629 6.93068V6.95021C22.7616 7.02156 22.7519 7.09223 22.7356 7.16115C22.7331 7.17167 22.7296 7.18198 22.7268 7.1924C22.7199 7.21775 22.7122 7.24286 22.7034 7.2676C22.6992 7.2793 22.6953 7.29121 22.6907 7.30275C22.6798 7.32991 22.6677 7.35668 22.6545 7.38283C22.6508 7.39018 22.6477 7.39802 22.6438 7.40529C22.6263 7.43789 22.6063 7.4694 22.5852 7.50002C22.5815 7.50531 22.5772 7.51042 22.5735 7.51564C22.555 7.5413 22.5359 7.56687 22.5149 7.59084C22.508 7.59873 22.5006 7.60659 22.4934 7.61428C22.4748 7.63414 22.4551 7.65346 22.4348 7.67189C22.4289 7.67723 22.4232 7.68327 22.4172 7.68849C22.4144 7.69095 22.4104 7.69295 22.4075 7.69533C22.352 7.74204 22.2909 7.78451 22.2239 7.81935L22.22 7.82131C22.204 7.82952 22.1865 7.8355 22.1702 7.84279C22.153 7.85048 22.1358 7.8586 22.1184 7.86525C22.103 7.87111 22.0872 7.87676 22.0715 7.88185C22.0503 7.88878 22.0285 7.89498 22.0071 7.90041C21.9894 7.90486 21.9712 7.90864 21.9534 7.91213C21.9398 7.91476 21.9259 7.91691 21.9123 7.91896C21.8904 7.9223 21.8681 7.92587 21.8459 7.92775C21.8122 7.93055 21.778 7.93133 21.7444 7.93068C21.7282 7.93039 21.7117 7.92885 21.6955 7.92775C21.6784 7.92658 21.6608 7.92588 21.6438 7.92385C21.6207 7.92108 21.5974 7.91655 21.5744 7.91213C21.5605 7.90944 21.5462 7.9066 21.5325 7.90334C21.5203 7.90046 21.5074 7.89884 21.4953 7.89553L17.2258 6.7051L17.1291 6.67287C16.657 6.48824 16.3925 5.97247 16.5315 5.47365C16.6707 4.9751 17.1639 4.6706 17.6633 4.75685L17.7629 4.77931L19.3508 5.22072C18.3164 4.09893 17.0307 3.21944 15.5842 2.66408C13.3016 1.7879 10.7758 1.7788 8.48656 2.63771C6.19751 3.4968 4.30215 5.16473 3.15941 7.32619C2.01664 9.48785 1.70614 11.9936 2.28539 14.3692C2.86471 16.7445 4.2936 18.8259 6.30296 20.2188C8.31239 21.6115 10.7631 22.2198 13.1907 21.9287C15.6181 21.6375 17.8556 20.4671 19.4787 18.6387C21.0004 16.9244 21.8841 14.7426 21.9895 12.4619L22.0002 12.0049C22.0005 11.4528 22.4482 11.0049 23.0002 11.0049C23.5523 11.0054 24.0005 11.4538 24.0002 12.0059L23.9875 12.5547C23.861 15.2912 22.8006 17.9088 20.9748 19.9658C19.0271 22.1601 16.3421 23.5656 13.4289 23.9151C10.516 24.2643 7.5756 23.5336 5.16429 21.8623C2.75288 20.1908 1.03718 17.6934 0.342027 14.8428C-0.353076 11.9921 0.0204934 8.98562 1.39183 6.39162C2.76321 3.79772 5.03734 1.79551 7.78441 0.764666Z" fill="#A77D3E"/>
<path d="M12.0002 5.0049C12.5524 5.00502 13.0002 5.45272 13.0002 6.0049V11.5049L16.5998 14.2051L16.6789 14.2705C17.0514 14.614 17.1104 15.1904 16.8 15.6045C16.4895 16.0185 15.9196 16.1235 15.4856 15.8623L15.4006 15.8047L11.4006 12.8047C11.1488 12.6159 11.0002 12.3197 11.0002 12.0049V6.0049C11.0003 5.45264 11.448 5.0049 12.0002 5.0049Z" fill="#A77D3E"/>
</svg>
