<svg width="24" height="24" viewBox="0 0 24 24" fill="none" xmlns="http://www.w3.org/2000/svg">
<path d="M18.293 18.293C18.6835 17.9024 19.3165 17.9024 19.707 18.293L23.707 22.293C24.0976 22.6835 24.0976 23.3165 23.707 23.707C23.3165 24.0976 22.6835 24.0976 22.293 23.707L18.293 19.707C17.9024 19.3165 17.9024 18.6835 18.293 18.293Z" fill="#A77D3E"/>
<path d="M11 4C11.5523 4 12 4.44772 12 5C12 5.55228 11.5523 6 11 6C9.67392 6 8.40253 6.52716 7.46484 7.46484C6.52716 8.40253 6 9.67392 6 11C6 11.5523 5.55228 12 5 12C4.44772 12 4 11.5523 4 11C4 9.14349 4.73705 7.36256 6.0498 6.0498C7.36256 4.73705 9.14349 4 11 4Z" fill="#A77D3E"/>
<path fill-rule="evenodd" clip-rule="evenodd" d="M10 0C15.5228 0 20 4.47715 20 10C20 15.5228 15.5228 20 10 20C4.47715 20 0 15.5228 0 10C2.57711e-07 4.47715 4.47715 2.57703e-07 10 0ZM10 2C5.58172 2 2 5.58172 2 10C2 14.4183 5.58172 18 10 18C14.4183 18 18 14.4183 18 10C18 5.58172 14.4183 2 10 2Z" fill="#A77D3E"/>
</svg>
