<svg width="24" height="24" viewBox="0 0 24 24" fill="none" xmlns="http://www.w3.org/2000/svg">
<path fill-rule="evenodd" clip-rule="evenodd" d="M18 12C19.6569 12 21 13.3431 21 15V17H23L23.1025 17.0049C23.6067 17.0562 24 17.4823 24 18C24 18.5523 23.5523 19 23 19H21V21C21 22.6569 19.6569 24 18 24H16C14.3431 24 13 22.6569 13 21V19H1C0.447715 19 0 18.5523 0 18C0 17.4477 0.447715 17 1 17H13V15C13 13.3431 14.3431 12 16 12H18ZM16 14C15.4477 14 15 14.4477 15 15V21C15 21.5523 15.4477 22 16 22H18C18.5523 22 19 21.5523 19 21V15C19 14.4477 18.5523 14 18 14H16Z" fill="#A77D3E"/>
<path fill-rule="evenodd" clip-rule="evenodd" d="M8 0C9.65685 0 11 1.34315 11 3V5H23C23.5523 5 24 5.44772 24 6C24 6.55228 23.5523 7 23 7H11V9C11 10.6569 9.65685 12 8 12H6C4.34315 12 3 10.6569 3 9V7H1C0.447715 7 0 6.55228 0 6C0 5.44772 0.447715 5 1 5H3V3C3 1.34315 4.34315 0 6 0H8ZM6 2C5.44772 2 5 2.44772 5 3V9C5 9.55228 5.44772 10 6 10H8C8.55228 10 9 9.55228 9 9V3C9 2.44772 8.55228 2 8 2H6Z" fill="#A77D3E"/>
</svg>
