<svg width="24" height="24" viewBox="0 0 24 24" fill="none" xmlns="http://www.w3.org/2000/svg">
<path fill-rule="evenodd" clip-rule="evenodd" d="M12 8.14752C14.209 8.14766 15.9999 9.93857 16 12.1475C16 14.3566 14.209 16.1474 12 16.1475C9.79086 16.1475 8 14.3567 8 12.1475C8.00012 9.93849 9.79094 8.14752 12 8.14752ZM12 10.1475C10.8955 10.1475 10.0001 11.0431 10 12.1475C10 13.2521 10.8954 14.1475 12 14.1475C13.1045 14.1474 14 13.252 14 12.1475C13.9999 11.0431 13.1044 10.1477 12 10.1475Z" fill="#A77D3E"/>
<path fill-rule="evenodd" clip-rule="evenodd" d="M14.3164 1.44537C15.2495 0.871025 16.4297 0.848745 17.3887 1.40241L18.6113 2.10846L18.7979 2.22565C19.6435 2.80031 20.1391 3.76805 20.1104 4.7901L20.0957 5.00983L19.8291 7.62311L22.2314 8.70514L22.4287 8.8028C23.3913 9.32406 24 10.3341 24 11.4405V12.8546L23.9912 13.0743C23.9166 14.0934 23.3272 15.0057 22.4287 15.4923L22.2314 15.5899L19.832 16.67L20.0967 19.2872L20.1104 19.5069C20.1383 20.5284 19.6432 21.4952 18.7979 22.0694L18.6113 22.1866L17.3867 22.8936C16.4286 23.4466 15.25 23.4247 14.3174 22.8516L14.1338 22.7296L11.9961 21.1905L9.86621 22.7276C8.96813 23.3755 7.79205 23.4732 6.80566 22.9962L6.61133 22.8926L5.38867 22.1866C4.36576 21.596 3.78383 20.4603 3.90332 19.2852L4.16895 16.671L1.76855 15.5899C0.759744 15.1357 0.0879494 14.167 0.00781238 13.0753L3.14693e-07 12.8546L0 11.4405C0.000160385 10.2603 0.692331 9.18962 1.76855 8.70514L4.16699 7.62506L3.90332 5.00885C3.78481 3.83455 4.36562 2.69965 5.38769 2.10944L6.6123 1.40241L6.80664 1.29889C7.79218 0.82221 8.96734 0.919027 9.86523 1.56549L12.002 3.10455L14.1328 1.56745L14.3164 1.44537ZM8.69629 3.18854C8.41713 2.98768 8.05775 2.94611 7.74414 3.07038L7.6123 3.13385L6.38769 3.84088C6.04697 4.0376 5.8531 4.41623 5.89258 4.80768L6.22949 8.14166C6.27249 8.56951 6.03666 8.97684 5.64453 9.15338L2.58984 10.5294C2.23118 10.6908 2.00016 11.0472 2 11.4405L2 12.8546L2.01074 13.0001C2.05972 13.3343 2.27586 13.6253 2.58984 13.7667L5.64746 15.1436C5.99077 15.2982 6.21396 15.6299 6.23535 15.9971L6.23242 16.1563L5.89355 19.4874C5.85372 19.8791 6.04772 20.2583 6.38867 20.4551L7.61133 21.1612L7.74219 21.2247C8.05635 21.3494 8.4168 21.3071 8.69629 21.1055L11.4121 19.1465L11.5479 19.0645C11.8766 18.8992 12.2754 18.9265 12.5811 19.1465L15.3027 21.1065L15.4268 21.1827C15.7265 21.3383 16.0885 21.3332 16.3867 21.1612L17.6113 20.4542L17.7324 20.3721C17.9593 20.1926 18.0972 19.9229 18.1104 19.6339L18.1064 19.4874L17.7705 16.1544C17.7273 15.7264 17.9623 15.3183 18.3545 15.1417L21.4102 13.7667L21.5381 13.6973C21.7821 13.5414 21.9472 13.2866 21.9893 13.0001L22 12.8546V11.4405L21.9893 11.295C21.9472 11.0085 21.7821 10.7536 21.5381 10.5977L21.4102 10.5284L18.3516 9.15143C17.9592 8.97468 17.7241 8.56689 17.7676 8.13873L18.1064 4.80768L18.1104 4.6612C18.0973 4.37207 17.9594 4.10158 17.7324 3.92194L17.6113 3.84088L16.3887 3.13483C16.0903 2.96258 15.7276 2.95756 15.4277 3.11334L15.3037 3.18952L12.5879 5.1485C12.2388 5.40027 11.7672 5.40004 11.418 5.1485L8.69629 3.18854Z" fill="#A77D3E"/>
</svg>
