<svg width="24" height="24" viewBox="0 0 24 24" fill="none" xmlns="http://www.w3.org/2000/svg">
<path fill-rule="evenodd" clip-rule="evenodd" d="M12 1.5C12.3801 1.5 12.7273 1.71548 12.8961 2.05607L15.5985 7.51075L21.6433 8.38587C22.0204 8.44047 22.3338 8.7047 22.4513 9.06722C22.5688 9.42975 22.47 9.82755 22.1966 10.093L17.825 14.3375L18.8565 20.3304C18.921 20.7053 18.7672 21.0844 18.4597 21.3084C18.1521 21.5323 17.7441 21.5624 17.4071 21.3859L12 18.554L6.59295 21.3859C6.25591 21.5624 5.8479 21.5323 5.54034 21.3084C5.23278 21.0844 5.07895 20.7053 5.14349 20.3304L6.17503 14.3375L1.8034 10.093C1.52998 9.82755 1.43122 9.42975 1.54872 9.06722C1.66622 8.7047 1.97956 8.44047 2.35672 8.38587L8.40154 7.51075L11.1039 2.05607C11.2727 1.71548 11.6199 1.5 12 1.5ZM12 4.7526L9.96056 8.86913C9.8146 9.16374 9.53316 9.36778 9.20778 9.41488L4.65493 10.074L7.9466 13.2699C8.18339 13.4998 8.29149 13.8318 8.23551 14.157L7.4578 18.6752L11.536 16.5393C11.8266 16.3872 12.1734 16.3872 12.4639 16.5393L16.5422 18.6752L15.7645 14.157C15.7085 13.8318 15.8166 13.4998 16.0534 13.2699L19.3451 10.074L14.7922 9.41488C14.4668 9.36778 14.1854 9.16374 14.0394 8.86913L12 4.7526Z" fill="#A77D3E"/>
</svg>
