<svg width="24" height="24" viewBox="0 0 24 24" fill="none" xmlns="http://www.w3.org/2000/svg">
<path d="M8 7.00008C8.55228 7.00008 9 7.44779 9 8.00008C8.99996 8.55233 8.55226 9.00008 8 9.00008H4C3.73478 9.00008 3.48051 9.10551 3.29297 9.29305C3.10546 9.48058 3 9.73488 3 10.0001V21.0001C3.00002 21.2653 3.10545 21.5196 3.29297 21.7071C3.4805 21.8946 3.7348 22.0001 4 22.0001H17C17.2652 22.0001 17.5195 21.8946 17.707 21.7071C17.8946 21.5196 18 21.2653 18 21.0001V15.0001C18 14.4478 18.4477 14.0001 19 14.0001C19.5523 14.0001 20 14.4478 20 15.0001V21.0001C20 21.7957 19.6837 22.5586 19.1211 23.1212C18.5585 23.6838 17.7956 24.0001 17 24.0001H4C3.20437 24.0001 2.44151 23.6838 1.87891 23.1212C1.31632 22.5586 1.00002 21.7957 1 21.0001V10.0001C1 9.20445 1.31632 8.44159 1.87891 7.87898C2.44151 7.31637 3.20435 7.00008 4 7.00008H8Z" fill="#A77D3E"/>
<path d="M18.293 1.29305C18.6835 0.902522 19.3165 0.902522 19.707 1.29305L23.707 5.29305C23.7548 5.34086 23.7976 5.39361 23.835 5.45027C23.8597 5.48776 23.8812 5.52669 23.9004 5.56648C23.9222 5.61167 23.9412 5.65845 23.9561 5.70711C23.9623 5.7274 23.9668 5.74806 23.9717 5.76863C23.9893 5.84299 24 5.92032 24 6.00008C24 6.08308 23.9878 6.1632 23.9688 6.24031C23.9646 6.25725 23.9611 6.27435 23.9561 6.29109C23.9412 6.34009 23.9223 6.3872 23.9004 6.43269C23.8804 6.47436 23.8572 6.51466 23.8311 6.55379C23.8185 6.57263 23.8048 6.59056 23.791 6.60848C23.7649 6.64228 23.738 6.67612 23.707 6.70711L19.707 10.7071C19.3165 11.0976 18.6835 11.0976 18.293 10.7071C17.9025 10.3166 17.9025 9.68357 18.293 9.29305L20.5859 7.00008H20C17.6131 7.00008 15.3236 7.94799 13.6357 9.63582C11.9479 11.3236 11 13.6131 11 16.0001C11 16.5523 10.5523 17.0001 10 17.0001C9.44774 17.0001 9.00004 16.5523 9 16.0001C9 13.0827 10.1588 10.2847 12.2217 8.22176C14.2846 6.15886 17.0826 5.00008 20 5.00008H20.5859L18.293 2.70711C17.9025 2.3166 17.9025 1.68357 18.293 1.29305Z" fill="#A77D3E"/>
</svg>
