<svg width="24" height="24" viewBox="0 0 24 24" fill="none" xmlns="http://www.w3.org/2000/svg">
<path fill-rule="evenodd" clip-rule="evenodd" d="M10.7275 7.55637C11.5086 6.77533 12.7756 6.77531 13.5566 7.55637L16.5859 10.5857C17.3669 11.3666 17.3667 12.6327 16.5859 13.4138L13.4141 16.5857L13.2627 16.7234C12.5294 17.3215 11.4705 17.3207 10.7373 16.7224L10.5859 16.5857L7.55664 13.5564L7.41992 13.404C6.82175 12.6708 6.82173 11.6128 7.41992 10.8796L7.55664 10.7282L10.7275 7.55637ZM8.9707 12.1423L12 15.1716L15.1719 11.9997L12.1426 8.97043L8.9707 12.1423Z" fill="#A77D3E"/>
<path fill-rule="evenodd" clip-rule="evenodd" d="M10.6475 0.567111C11.495 0.126718 12.505 0.126718 13.3525 0.567111C16.1897 2.04143 18.1959 3.28273 20.2559 3.78196C21.6416 4.1179 22.9999 5.30712 23 6.99973V11.9997C23 15.8828 21.2835 18.6002 19.2285 20.4323C17.1991 22.2416 14.8398 23.1925 13.459 23.6355C12.506 23.9411 11.494 23.9411 10.541 23.6355C9.16017 23.1925 6.80089 22.2416 4.77148 20.4323C2.71653 18.6002 1 15.8828 1 11.9997V6.99973C1.00015 5.30712 2.35843 4.1179 3.74414 3.78196C5.80411 3.28273 7.81034 2.04143 10.6475 0.567111ZM12.4307 2.34153C12.1612 2.20154 11.8388 2.20154 11.5693 2.34153C8.94279 3.70642 6.58703 5.15057 4.21582 5.72531C3.45486 5.90973 3.00016 6.48355 3 6.99973V11.9997C3 15.2122 4.39208 17.4152 6.10254 18.9402C7.83831 20.4875 9.90177 21.3303 11.1514 21.7312C11.707 21.9094 12.293 21.9094 12.8486 21.7312C14.0982 21.3303 16.1617 20.4875 17.8975 18.9402C19.6079 17.4152 21 15.2122 21 11.9997V6.99973C20.9998 6.48355 20.5451 5.90973 19.7842 5.72531C17.413 5.15057 15.0572 3.70642 12.4307 2.34153Z" fill="#A77D3E"/>
</svg>
