<svg width="24" height="24" viewBox="0 0 24 24" fill="none" xmlns="http://www.w3.org/2000/svg">
<path fill-rule="evenodd" clip-rule="evenodd" d="M16.293 8.29297C16.6835 7.90245 17.3165 7.90244 17.707 8.29297C18.0976 8.68349 18.0976 9.31651 17.707 9.70703L14.7041 12.709C14.8913 13.1005 15 13.5371 15 14C15 15.6569 13.6569 17 12 17C10.3431 17 9 15.6569 9 14C9 12.3431 10.3431 11 12 11C12.4625 11 12.8988 11.108 13.29 11.2949L16.293 8.29297ZM12 13C11.4477 13 11 13.4477 11 14C11 14.5523 11.4477 15 12 15C12.5523 15 13 14.5523 13 14C13 13.4477 12.5523 13 12 13Z" fill="#A77D3E"/>
<path fill-rule="evenodd" clip-rule="evenodd" d="M12 2C18.6273 2 24 7.37272 24 14C24 16.9 22.9694 19.5622 21.2559 21.6367C21.066 21.8666 20.7835 21.9999 20.4854 22H3.51465C3.21648 21.9999 2.93404 21.8666 2.74414 21.6367C1.03064 19.5622 0 16.9 0 14C0 7.37272 5.37272 2 12 2ZM13 6C13 6.55228 12.5523 7 12 7C11.4477 7 11 6.55228 11 6V4.0498C8.98878 4.24951 7.15249 5.04436 5.6709 6.25684L7.0498 7.63574C7.44027 8.02626 7.44027 8.65929 7.0498 9.0498C6.65929 9.44027 6.02625 9.44027 5.63574 9.0498L4.25684 7.6709C3.04436 9.15249 2.24951 10.9888 2.0498 13H4C4.55228 13 5 13.4477 5 14C5 14.5523 4.55228 15 4 15H2.05176C2.2371 16.8653 2.93299 18.5789 4.00098 20H19.999C21.067 18.5789 21.7629 16.8653 21.9482 15H20C19.4477 15 19 14.5523 19 14C19 13.4477 19.4477 13 20 13H21.9502C21.4811 8.27572 17.7243 4.51891 13 4.0498V6Z" fill="#A77D3E"/>
</svg>
