<svg width="24" height="24" viewBox="0 0 24 24" fill="none" xmlns="http://www.w3.org/2000/svg">
<path d="M15 17C15.5523 17 16 17.4477 16 18C16 18.5523 15.5523 19 15 19H6C5.44772 19 5 18.5523 5 18C5 17.4477 5.44772 17 6 17H15Z" fill="#A77D3E"/>
<path d="M9 13C9.55229 13 10 13.4477 10 14C10 14.5523 9.55229 15 9 15H6C5.44772 15 5 14.5523 5 14C5 13.4477 5.44772 13 6 13H9Z" fill="#A77D3E"/>
<path d="M18 9C18.5523 9 19 9.44771 19 10C19 10.5523 18.5523 11 18 11H6C5.44772 11 5 10.5523 5 10C5 9.44771 5.44772 9 6 9H18Z" fill="#A77D3E"/>
<path d="M14 5C14.5523 5 15 5.44772 15 6C15 6.55228 14.5523 7 14 7H6C5.44772 7 5 6.55228 5 6C5 5.44772 5.44772 5 6 5H14Z" fill="#A77D3E"/>
<path fill-rule="evenodd" clip-rule="evenodd" d="M19.7773 0C21.6445 0 22.9999 1.6339 23 3.44434V20.5557C22.9999 22.3661 21.6445 24 19.7773 24H4.22266C2.35556 24 1.00005 22.3662 1 20.5557V3.44434C1.00005 1.63389 2.35555 0 4.22266 0H19.7773ZM4.22266 2C3.63522 2 3.00005 2.55483 3 3.44434V20.5557C3.00005 21.4452 3.63521 22 4.22266 22H19.7773C20.3648 22 20.9999 21.4452 21 20.5557V3.44434C20.9999 2.55482 20.3648 2 19.7773 2H4.22266Z" fill="#A77D3E"/>
</svg>
