<svg width="24" height="24" viewBox="0 0 24 24" fill="none" xmlns="http://www.w3.org/2000/svg">
<path d="M5.36919 15.2246C5.76196 14.9043 6.34097 14.9269 6.70708 15.293L7.70708 16.293L7.77544 16.3691C8.09575 16.7619 8.07316 17.3409 7.70708 17.707L6.70708 18.707C6.31656 19.0975 5.68354 19.0975 5.29302 18.707L4.29302 17.707C3.90249 17.3165 3.90249 16.6835 4.29302 16.293L5.29302 15.293L5.36919 15.2246Z" fill="#A77D3E"/>
<path fill-rule="evenodd" clip-rule="evenodd" d="M6.00005 11C7.59128 11 9.11706 11.6326 10.2422 12.7578L10.4483 12.9727C11.4448 14.0732 12 15.5082 12 17C12 18.1863 11.6474 19.3455 10.9883 20.332L10.9893 20.333C10.3301 21.3197 9.39229 22.0889 8.29595 22.543C7.26816 22.9686 6.14357 23.1 5.0479 22.9238L4.82915 22.8848C3.73802 22.6677 2.73013 22.1516 1.91704 21.3965L1.75786 21.2422C0.971215 20.4556 0.419758 19.4672 0.163133 18.3877L0.115282 18.1709C-0.116223 17.007 0.00297314 15.8004 0.457079 14.7041L0.545946 14.5C0.977477 13.5586 1.64516 12.7445 2.48442 12.1377L2.66704 12.0107C3.65365 11.3516 4.81367 11 6.00005 11ZM6.00005 13C5.3078 13 4.62881 13.1792 4.02934 13.5186L3.77739 13.6738C3.20193 14.0584 2.73771 14.5851 2.42778 15.2002L2.30473 15.4697C2.00211 16.2005 1.92289 17.0044 2.0772 17.7803L2.14556 18.0684C2.32953 18.7321 2.68251 19.3388 3.17192 19.8281L3.38872 20.0293C3.91049 20.4791 4.54088 20.7878 5.21977 20.9229L5.51177 20.9697C6.19542 21.0538 6.89171 20.9602 7.5313 20.6953C8.26186 20.3926 8.88687 19.8803 9.32622 19.2227L9.48149 18.9707C9.82088 18.3713 10 17.6923 10 17C10 16.0054 9.62929 15.0491 8.96489 14.3154L8.82817 14.1719C8.07807 13.4218 7.06084 13 6.00005 13Z" fill="#A77D3E"/>
<path fill-rule="evenodd" clip-rule="evenodd" d="M17 2C17.5523 2.00006 18 2.44775 18 3C18 3.55225 17.5523 3.99994 17 4H5.00005C4.44776 4 4.00005 4.44771 4.00005 5C4.00005 5.55229 4.44776 6 5.00005 6H19C20.6569 6.00006 22 7.34319 22 9V19C22 20.6568 20.6569 21.9999 19 22H14C13.4478 22 13.0001 21.5523 13 21C13 20.4477 13.4478 20 14 20H19C19.5523 19.9999 20 19.5523 20 19V18H18C15.7908 18 14.0001 16.2093 14 14C14 11.7907 15.7908 10 18 10H20V9C20 8.44774 19.5523 8.00006 19 8H5.00005C4.64896 8 4.31316 7.93602 4.00005 7.8252V8.5C4.00003 9.05224 3.55227 9.49994 3.00005 9.5C2.44777 9.5 2.00006 9.05227 2.00005 8.5V5C2.00005 3.34315 3.34319 2 5.00005 2H17ZM18 12C16.8953 12 16 12.8953 16 14C16.0001 15.1047 16.8953 16 18 16H20V12H18Z" fill="#A77D3E"/>
</svg>
