<svg width="24" height="24" viewBox="0 0 24 24" fill="none" xmlns="http://www.w3.org/2000/svg">
<path d="M21.293 1.29297C21.6835 0.902445 22.3165 0.902446 22.707 1.29297C23.0976 1.68349 23.0976 2.31651 22.707 2.70703L13.4141 12L22.707 21.293C23.0976 21.6835 23.0976 22.3165 22.707 22.707C22.3165 23.0976 21.6835 23.0976 21.293 22.707L12 13.4141L2.70703 22.707C2.31651 23.0976 1.6835 23.0976 1.29297 22.707C0.902448 22.3165 0.902447 21.6835 1.29297 21.293L10.5859 12L1.29297 2.70703C0.902445 2.31651 0.902445 1.68349 1.29297 1.29297C1.68349 0.902446 2.31651 0.902445 2.70703 1.29297L12 10.5859L21.293 1.29297Z" fill="#A77D3E"/>
</svg>
