<svg width="24" height="24" viewBox="0 0 24 24" fill="none" xmlns="http://www.w3.org/2000/svg">
    <path d="M21 4.50019V9.00019C21 9.1991 20.921 9.38987 20.7803 9.53052C20.6397 9.67117 20.4489 9.75019 20.25 9.75019H15.75C15.5511 9.75019 15.3603 9.67117 15.2197 9.53052C15.079 9.38987 15 9.1991 15 9.00019C15 8.80128 15.079 8.61051 15.2197 8.46986C15.3603 8.32921 15.5511 8.25019 15.75 8.25019H18.4397L17.0681 6.87863C15.6742 5.47838 13.7817 4.6884 11.8059 4.68207H11.7638C9.80454 4.67747 7.92227 5.44432 6.52406 6.81675C6.38083 6.95046 6.19096 7.02281 5.99507 7.01831C5.79918 7.01382 5.61283 6.93284 5.47588 6.79271C5.33893 6.65258 5.26226 6.46441 5.26227 6.26847C5.26228 6.07253 5.33897 5.88437 5.47594 5.74425C7.1705 4.08806 9.44983 3.16695 11.8193 3.18082C14.1887 3.19468 16.4571 4.14241 18.1322 5.81832L19.5 7.18988V4.50019C19.5 4.30128 19.579 4.11051 19.7197 3.96986C19.8603 3.82921 20.0511 3.75019 20.25 3.75019C20.4489 3.75019 20.6397 3.82921 20.7803 3.96986C20.921 4.11051 21 4.30128 21 4.50019ZM17.4759 17.1836C16.0639 18.5629 14.1651 19.3299 12.1912 19.3184C10.2173 19.3068 8.32762 18.5175 6.93188 17.1218L5.56031 15.7502H8.25C8.44891 15.7502 8.63968 15.6712 8.78033 15.5305C8.92098 15.3899 9 15.1991 9 15.0002C9 14.8013 8.92098 14.6105 8.78033 14.4699C8.63968 14.3292 8.44891 14.2502 8.25 14.2502H3.75C3.55109 14.2502 3.36032 14.3292 3.21967 14.4699C3.07902 14.6105 3 14.8013 3 15.0002V19.5002C3 19.6991 3.07902 19.8899 3.21967 20.0305C3.36032 20.1712 3.55109 20.2502 3.75 20.2502C3.94891 20.2502 4.13968 20.1712 4.28033 20.0305C4.42098 19.8899 4.5 19.6991 4.5 19.5002V16.8105L5.87156 18.1821C7.54426 19.8632 9.816 20.8114 12.1875 20.8183H12.2372C14.5885 20.8244 16.8476 19.9038 18.525 18.2561C18.662 18.116 18.7387 17.9279 18.7387 17.7319C18.7387 17.536 18.662 17.3478 18.5251 17.2077C18.3881 17.0675 18.2018 16.9866 18.0059 16.9821C17.81 16.9776 17.6201 17.0499 17.4769 17.1836H17.4759Z" fill="#9DAEC3"/>
</svg>
