<svg width="24" height="24" viewBox="0 0 24 24" fill="none" xmlns="http://www.w3.org/2000/svg">
    <path d="M3.21938 11.469L9.96938 4.71896C10.1101 4.57823 10.301 4.49916 10.5 4.49916C10.699 4.49916 10.8899 4.57823 11.0306 4.71896C11.1714 4.85969 11.2504 5.05056 11.2504 5.24958C11.2504 5.4486 11.1714 5.63948 11.0306 5.78021L5.56031 11.2496L20.25 11.2496C20.4489 11.2496 20.6397 11.3286 20.7803 11.4693C20.921 11.6099 21 11.8007 21 11.9996C21 12.1985 20.921 12.3893 20.7803 12.5299C20.6397 12.6706 20.4489 12.7496 20.25 12.7496L5.56031 12.7496L11.0306 18.219C11.1714 18.3597 11.2504 18.5506 11.2504 18.7496C11.2504 18.9486 11.1714 19.1395 11.0306 19.2802C10.8899 19.4209 10.699 19.5 10.5 19.5C10.301 19.5 10.1101 19.4209 9.96937 19.2802L3.21938 12.5302C3.14964 12.4606 3.09432 12.3778 3.05658 12.2868C3.01884 12.1957 2.99941 12.0981 2.99941 11.9996C2.99941 11.901 3.01884 11.8034 3.05658 11.7124C3.09432 11.6213 3.14964 11.5386 3.21938 11.469Z" fill="white"/>
</svg>
