<svg width="16" height="16" viewBox="0 0 16 16" fill="none" xmlns="http://www.w3.org/2000/svg">
    <path d="M14.4999 12.5003C14.4999 12.6329 14.4472 12.7601 14.3535 12.8538C14.2597 12.9476 14.1325 13.0003 13.9999 13.0003C13.8673 13.0003 13.7401 12.9476 13.6464 12.8538C13.5526 12.7601 13.4999 12.6329 13.4999 12.5003C13.4983 11.0421 12.9183 9.64411 11.8872 8.61302C10.8561 7.58193 9.45809 7.00193 7.99991 7.00028H3.20678L5.35366 9.14653C5.44748 9.24035 5.50018 9.3676 5.50018 9.50028C5.50018 9.63296 5.44748 9.76021 5.35366 9.85403C5.25984 9.94785 5.13259 10.0006 4.99991 10.0006C4.86722 10.0006 4.73998 9.94785 4.64615 9.85403L1.64615 6.85403C1.59967 6.80759 1.56279 6.75245 1.53763 6.69175C1.51246 6.63105 1.49951 6.56599 1.49951 6.50028C1.49951 6.43457 1.51246 6.36951 1.53763 6.30881C1.56279 6.24811 1.59967 6.19296 1.64615 6.14653L4.64615 3.14653C4.73998 3.05271 4.86722 3 4.99991 3C5.13259 3 5.25984 3.05271 5.35366 3.14653C5.44748 3.24035 5.50018 3.3676 5.50018 3.50028C5.50018 3.63296 5.44748 3.76021 5.35366 3.85403L3.20678 6.00028H7.99991C9.72325 6.0021 11.3755 6.6875 12.5941 7.90609C13.8127 9.12469 14.4981 10.7769 14.4999 12.5003Z" fill="white"/>
</svg>
