<svg width="16" height="16" viewBox="0 0 16 16" fill="none" xmlns="http://www.w3.org/2000/svg">
    <path d="M7.35354 10.6466C7.40003 10.6931 7.43691 10.7482 7.46207 10.8089C7.48723 10.8696 7.50018 10.9347 7.50018 11.0004C7.50018 11.0661 7.48723 11.1312 7.46207 11.1919C7.43691 11.2526 7.40003 11.3077 7.35354 11.3541L5.35354 13.3541C5.3071 13.4006 5.25196 13.4375 5.19126 13.4627C5.13056 13.4878 5.0655 13.5008 4.99979 13.5008C4.93408 13.5008 4.86902 13.4878 4.80832 13.4627C4.74762 13.4375 4.69248 13.4006 4.64604 13.3541L2.64604 11.3541C2.59958 11.3077 2.56273 11.2525 2.53759 11.1918C2.51245 11.1311 2.49951 11.0661 2.49951 11.0004C2.49951 10.9347 2.51245 10.8696 2.53759 10.8089C2.56273 10.7482 2.59958 10.6931 2.64604 10.6466C2.73986 10.5528 2.86711 10.5001 2.99979 10.5001C3.06549 10.5001 3.13054 10.5131 3.19124 10.5382C3.25193 10.5633 3.30708 10.6002 3.35354 10.6466L4.49979 11.7935V3.00039C4.49979 2.86779 4.55247 2.74061 4.64624 2.64684C4.74 2.55307 4.86718 2.50039 4.99979 2.50039C5.1324 2.50039 5.25957 2.55307 5.35334 2.64684C5.44711 2.74061 5.49979 2.86779 5.49979 3.00039V11.7935L6.64604 10.6466C6.69248 10.6002 6.74762 10.5633 6.80832 10.5381C6.86902 10.513 6.93408 10.5 6.99979 10.5C7.0655 10.5 7.13056 10.513 7.19126 10.5381C7.25196 10.5633 7.3071 10.6002 7.35354 10.6466ZM13.3535 4.64664L11.3535 2.64664C11.3071 2.60016 11.252 2.56328 11.1913 2.53811C11.1306 2.51295 11.0655 2.5 10.9998 2.5C10.9341 2.5 10.869 2.51295 10.8083 2.53811C10.7476 2.56328 10.6925 2.60016 10.646 2.64664L8.64604 4.64664C8.55222 4.74046 8.49951 4.86771 8.49951 5.00039C8.49951 5.13308 8.55222 5.26032 8.64604 5.35414C8.73986 5.44796 8.86711 5.50067 8.99979 5.50067C9.13247 5.50067 9.25972 5.44796 9.35354 5.35414L10.4998 4.20727V13.0004C10.4998 13.133 10.5525 13.2602 10.6462 13.3539C10.74 13.4477 10.8672 13.5004 10.9998 13.5004C11.1324 13.5004 11.2596 13.4477 11.3533 13.3539C11.4471 13.2602 11.4998 13.133 11.4998 13.0004V4.20727L12.646 5.35414C12.7399 5.44796 12.8671 5.50067 12.9998 5.50067C13.1325 5.50067 13.2597 5.44796 13.3535 5.35414C13.4474 5.26032 13.5001 5.13308 13.5001 5.00039C13.5001 4.86771 13.4474 4.74046 13.3535 4.64664Z" fill="#71797E"/>
</svg>
