<svg width="16" height="16" viewBox="0 0 16 16" fill="none" xmlns="http://www.w3.org/2000/svg">
    <path d="M8.64628 12.854C8.5998 12.8076 8.56292 12.7524 8.53775 12.6917C8.51259 12.631 8.49964 12.566 8.49964 12.5003C8.49964 12.4346 8.51259 12.3695 8.53775 12.3088C8.56292 12.2481 8.5998 12.193 8.64628 12.1465L12.2932 8.50028L2.50004 8.50028C2.36743 8.50028 2.24025 8.4476 2.14648 8.35383C2.05271 8.26006 2.00004 8.13289 2.00004 8.00028C2.00004 7.86767 2.05271 7.74049 2.14648 7.64672C2.24025 7.55296 2.36743 7.50028 2.50004 7.50028L12.2932 7.50028L8.64628 3.85403C8.55246 3.76021 8.49976 3.63296 8.49976 3.50028C8.49976 3.3676 8.55246 3.24035 8.64628 3.14653C8.7401 3.05271 8.86735 3 9.00003 3C9.13272 3 9.25996 3.05271 9.35378 3.14653L13.8538 7.64653C13.9003 7.69296 13.9372 7.74811 13.9623 7.80881C13.9875 7.86951 14.0004 7.93457 14.0004 8.00028C14.0004 8.06599 13.9875 8.13105 13.9623 8.19175C13.9372 8.25245 13.9003 8.30759 13.8538 8.35403L9.35378 12.854C9.30735 12.9005 9.2522 12.9374 9.1915 12.9626C9.13081 12.9877 9.06574 13.0007 9.00003 13.0007C8.93433 13.0007 8.86926 12.9877 8.80856 12.9626C8.74787 12.9374 8.69272 12.9005 8.64628 12.854Z" fill="white"/>
</svg>
