<svg width="24" height="24" viewBox="0 0 24 24" fill="none" xmlns="http://www.w3.org/2000/svg">
    <path d="M20.25 3.75H6.75C6.35218 3.75 5.97064 3.90804 5.68934 4.18934C5.40804 4.47064 5.25 4.85218 5.25 5.25V6.75H3.75C3.35218 6.75 2.97064 6.90804 2.68934 7.18934C2.40804 7.47064 2.25 7.85218 2.25 8.25V18.75C2.25 19.1478 2.40804 19.5294 2.68934 19.8107C2.97064 20.092 3.35218 20.25 3.75 20.25H17.25C17.6478 20.25 18.0294 20.092 18.3107 19.8107C18.592 19.5294 18.75 19.1478 18.75 18.75V17.25H20.25C20.6478 17.25 21.0294 17.092 21.3107 16.8107C21.592 16.5294 21.75 16.1478 21.75 15.75V5.25C21.75 4.85218 21.592 4.47064 21.3107 4.18934C21.0294 3.90804 20.6478 3.75 20.25 3.75ZM17.25 8.25V9.75H3.75V8.25H17.25ZM17.25 18.75H3.75V11.25H17.25V18.75ZM20.25 15.75H18.75V8.25C18.75 7.85218 18.592 7.47064 18.3107 7.18934C18.0294 6.90804 17.6478 6.75 17.25 6.75H6.75V5.25H20.25V15.75Z" fill="white"/>
</svg>
