<svg width="16" height="16" viewBox="0 0 12 15" fill="none" xmlns="http://www.w3.org/2000/svg">
    <path fill-rule="evenodd" clip-rule="evenodd" d="M10.0605 5.52031C9.92397 4.24053 8.81371 3.82232 7.41624 3.71421L7.39812 1.9372L6.31618 1.9484L6.33386 3.67857C6.0498 3.68143 5.75919 3.69001 5.47048 3.69871L5.45291 1.95708L4.37184 1.96805L4.38952 3.74456C4.15539 3.75172 3.92546 3.75842 3.70121 3.76085L3.70101 3.75534L2.20915 3.77002L2.22119 4.92525C2.22119 4.92525 3.0198 4.90189 3.00667 4.91674C3.4448 4.91241 3.59027 5.16523 3.63369 5.38437L3.6544 7.40875C3.68463 7.40861 3.72408 7.40947 3.7688 7.41513L3.65483 7.41636L3.68314 10.2524C3.66532 10.3905 3.5865 10.6112 3.28041 10.6148C3.29437 10.6269 2.49413 10.6226 2.49413 10.6226L2.29244 11.9168L3.70034 11.9024C3.85927 11.901 4.01667 11.9011 4.17233 11.9012L4.17253 11.9012C4.27337 11.9012 4.37349 11.9013 4.47284 11.901L4.49166 13.6985L5.57215 13.6877L5.55431 11.9093C5.85075 11.9125 6.13788 11.912 6.41817 11.9088L6.43572 13.6789L7.51736 13.6678L7.49944 11.8737C9.31685 11.7509 10.5852 11.2797 10.7254 9.57088C10.839 8.19453 10.1862 7.58748 9.15135 7.34982C9.77507 7.02352 10.1614 6.45688 10.0602 5.52038L10.0605 5.52031ZM8.58612 9.37939C8.59895 10.6121 6.66178 10.6047 5.77623 10.6013L5.77611 10.6013C5.69686 10.601 5.62603 10.6007 5.56578 10.6014L5.54181 8.22011C5.6155 8.21938 5.70498 8.21636 5.80635 8.21293C6.7136 8.18227 8.57288 8.11943 8.58641 9.37931L8.58612 9.37939ZM5.70868 7.12992C6.44804 7.13449 8.05965 7.14446 8.04856 6.02445C8.03703 4.87868 6.48724 4.93564 5.73035 4.96346C5.64526 4.96659 5.57019 4.96935 5.50846 4.96999L5.53038 7.12966C5.58134 7.12913 5.6414 7.1295 5.70868 7.12992Z" fill="#C66254"/>
</svg>
