<svg width="12" height="12" viewBox="0 0 12 12" fill="none" xmlns="http://www.w3.org/2000/svg">
    <path d="M8.51528 6.26552L4.76528 10.0155C4.73044 10.0504 4.68907 10.078 4.64355 10.0969C4.59803 10.1157 4.54924 10.1254 4.49996 10.1254C4.45069 10.1254 4.4019 10.1157 4.35638 10.0969C4.31086 10.078 4.26949 10.0504 4.23465 10.0155C4.19981 9.98068 4.17217 9.93932 4.15332 9.8938C4.13446 9.84827 4.12476 9.79948 4.12476 9.75021C4.12476 9.70094 4.13446 9.65214 4.15332 9.60662C4.17217 9.5611 4.19981 9.51974 4.23465 9.4849L7.71981 6.00021L4.23465 2.51552C4.16429 2.44516 4.12476 2.34972 4.12476 2.25021C4.12476 2.1507 4.16429 2.05526 4.23465 1.9849C4.30502 1.91453 4.40045 1.875 4.49996 1.875C4.59948 1.875 4.69491 1.91453 4.76528 1.9849L8.51528 5.7349C8.55014 5.76972 8.5778 5.81108 8.59667 5.85661C8.61555 5.90213 8.62526 5.95093 8.62526 6.00021C8.62526 6.04949 8.61555 6.09829 8.59667 6.14381C8.5778 6.18934 8.55014 6.23069 8.51528 6.26552Z" fill="#89A4C5"/>
</svg>
