<svg width="16" height="16" viewBox="0 0 16 16" fill="none" xmlns="http://www.w3.org/2000/svg">
    <path d="M11.3538 10.6466C11.4003 10.6931 11.4372 10.7482 11.4623 10.8089C11.4875 10.8696 11.5004 10.9347 11.5004 11.0004C11.5004 11.0661 11.4875 11.1312 11.4623 11.1919C11.4372 11.2526 11.4003 11.3077 11.3538 11.3541L8.35378 14.3541C8.30735 14.4006 8.2522 14.4375 8.1915 14.4627C8.13081 14.4878 8.06574 14.5008 8.00003 14.5008C7.93433 14.5008 7.86926 14.4878 7.80856 14.4627C7.74786 14.4375 7.69272 14.4006 7.64628 14.3541L4.64628 11.3541C4.55246 11.2603 4.49976 11.1331 4.49976 11.0004C4.49976 10.8677 4.55246 10.7405 4.64628 10.6466C4.7401 10.5528 4.86735 10.5001 5.00003 10.5001C5.13272 10.5001 5.25996 10.5528 5.35378 10.6466L8.00003 13.2935L10.6463 10.6466C10.6927 10.6002 10.7479 10.5633 10.8086 10.5381C10.8693 10.513 10.9343 10.5 11 10.5C11.0657 10.5 11.1308 10.513 11.1915 10.5381C11.2522 10.5633 11.3073 10.6002 11.3538 10.6466ZM5.35378 5.35414L8.00003 2.70727L10.6463 5.35414C10.7401 5.44796 10.8674 5.50067 11 5.50067C11.1327 5.50067 11.26 5.44796 11.3538 5.35414C11.4476 5.26032 11.5003 5.13308 11.5003 5.00039C11.5003 4.86771 11.4476 4.74046 11.3538 4.64664L8.35378 1.64664C8.30735 1.60016 8.2522 1.56328 8.1915 1.53811C8.13081 1.51295 8.06574 1.5 8.00003 1.5C7.93433 1.5 7.86926 1.51295 7.80856 1.53811C7.74786 1.56328 7.69272 1.60016 7.64628 1.64664L4.64628 4.64664C4.55246 4.74046 4.49976 4.86771 4.49976 5.00039C4.49976 5.13308 4.55246 5.26032 4.64628 5.35414C4.7401 5.44796 4.86735 5.50067 5.00003 5.50067C5.13272 5.50067 5.25996 5.44796 5.35378 5.35414Z" fill="#9DAEC3"/>
</svg>
