<svg width="48" height="48" viewBox="0 0 48 48" fill="none" xmlns="http://www.w3.org/2000/svg">
    <path d="M32.295 18.705C32.5057 18.9159 32.624 19.2019 32.624 19.5C32.624 19.7981 32.5057 20.0841 32.295 20.295L21.795 30.795C21.5841 31.0057 21.2981 31.124 21 31.124C20.7019 31.124 20.4159 31.0057 20.205 30.795L15.705 26.295C15.5063 26.0817 15.3981 25.7997 15.4032 25.5082C15.4084 25.2168 15.5265 24.9387 15.7326 24.7326C15.9387 24.5264 16.2168 24.4084 16.5082 24.4032C16.7997 24.3981 17.0817 24.5063 17.295 24.705L21 28.4081L30.705 18.705C30.9159 18.4943 31.2019 18.376 31.5 18.376C31.7981 18.376 32.0841 18.4943 32.295 18.705ZM43.125 24C43.125 27.7826 42.0033 31.4802 39.9019 34.6253C37.8004 37.7704 34.8135 40.2217 31.3188 41.6692C27.8242 43.1167 23.9788 43.4955 20.2689 42.7575C16.559 42.0196 13.1513 40.1981 10.4766 37.5234C7.80191 34.8487 5.98043 31.441 5.24249 27.7311C4.50455 24.0212 4.88329 20.1758 6.33081 16.6812C7.77834 13.1865 10.2296 10.1996 13.3747 8.09814C16.5198 5.99666 20.2174 4.875 24 4.875C29.0704 4.88095 33.9315 6.89782 37.5168 10.4832C41.1022 14.0685 43.1191 18.9296 43.125 24ZM40.875 24C40.875 20.6624 39.8853 17.3998 38.0311 14.6248C36.1768 11.8497 33.5413 9.68676 30.4578 8.40953C27.3743 7.1323 23.9813 6.79812 20.7079 7.44925C17.4344 8.10037 14.4276 9.70756 12.0676 12.0676C9.70757 14.4276 8.10038 17.4344 7.44926 20.7079C6.79813 23.9813 7.13231 27.3743 8.40954 30.4578C9.68677 33.5413 11.8497 36.1768 14.6248 38.031C17.3998 39.8853 20.6624 40.875 24 40.875C28.474 40.87 32.7634 39.0905 35.927 35.9269C39.0906 32.7633 40.87 28.474 40.875 24Z" fill="#24D4AB"/>
</svg>
