<svg width="12" height="13" viewBox="0 0 12 13" fill="none" xmlns="http://www.w3.org/2000/svg">
    <g clip-path="url(#clip0_3448_243)">
        <path fill-rule="evenodd" clip-rule="evenodd" d="M6 0.5C9.31371 0.5 12 3.18629 12 6.5C12 9.81371 9.31371 12.5 6 12.5C2.68629 12.5 0 9.81371 0 6.5C0 3.18629 2.68629 0.5 6 0.5ZM2.83545 10.3711C3.69743 11.0766 4.79923 11.5 6 11.5C8.76142 11.5 11 9.26142 11 6.5C11 5.29923 10.5766 4.19743 9.87109 3.33545L2.83545 10.3711ZM6 1.5C3.23858 1.5 1 3.73858 1 6.5C1 7.70053 1.42319 8.80216 2.12842 9.66406L9.16406 2.62842C8.30216 1.92319 7.20053 1.5 6 1.5Z" fill="#E8B126"/>
    </g>
    <defs>
        <clipPath id="clip0_3448_243">
            <rect width="12" height="12" fill="white" transform="translate(0 0.5)"/>
        </clipPath>
    </defs>
</svg>
