<svg width="13" height="12" viewBox="0 0 13 12" fill="none" xmlns="http://www.w3.org/2000/svg">
    <g clip-path="url(#clip0_3541_1489)">
        <path d="M6.38623 8C6.66237 8 6.88623 8.22386 6.88623 8.5C6.88623 8.77614 6.66237 9 6.38623 9C6.11009 9 5.88623 8.77614 5.88623 8.5C5.88623 8.22386 6.11009 8 6.38623 8Z" fill="#D62E4C"/>
        <path d="M6.38623 3C6.66237 3 6.88623 3.22386 6.88623 3.5V6.5C6.88623 6.77614 6.66237 7 6.38623 7C6.11009 7 5.88623 6.77614 5.88623 6.5V3.5C5.88623 3.22386 6.11009 3 6.38623 3Z" fill="#D62E4C"/>
        <path fill-rule="evenodd" clip-rule="evenodd" d="M6.38623 0C9.69994 0 12.3862 2.68629 12.3862 6C12.3862 9.31371 9.69994 12 6.38623 12C3.07252 12 0.38623 9.31371 0.38623 6C0.38623 2.68629 3.07252 0 6.38623 0ZM6.38623 1C3.62481 1 1.38623 3.23858 1.38623 6C1.38623 8.76142 3.62481 11 6.38623 11C9.14765 11 11.3862 8.76142 11.3862 6C11.3862 3.23858 9.14765 1 6.38623 1Z" fill="#D62E4C"/>
    </g>
</svg>
