<svg width="32" height="32" viewBox="0 0 32 32" fill="none" xmlns="http://www.w3.org/2000/svg">
    <path d="M25.7076 24.2931C25.8005 24.386 25.8742 24.4963 25.9245 24.6177C25.9747 24.7391 26.0006 24.8692 26.0006 25.0006C26.0006 25.132 25.9747 25.2621 25.9245 25.3835C25.8742 25.5048 25.8005 25.6151 25.7076 25.7081C25.6147 25.801 25.5044 25.8747 25.383 25.9249C25.2616 25.9752 25.1315 26.0011 25.0001 26.0011C24.8687 26.0011 24.7386 25.9752 24.6172 25.9249C24.4958 25.8747 24.3855 25.801 24.2926 25.7081L16.0001 17.4143L7.70757 25.7081C7.51993 25.8957 7.26543 26.0011 7.00007 26.0011C6.7347 26.0011 6.48021 25.8957 6.29257 25.7081C6.10493 25.5204 5.99951 25.2659 5.99951 25.0006C5.99951 24.7352 6.10493 24.4807 6.29257 24.2931L14.5863 16.0006L6.29257 7.70806C6.10493 7.52042 5.99951 7.26592 5.99951 7.00056C5.99951 6.73519 6.10493 6.4807 6.29257 6.29306C6.48021 6.10542 6.7347 6 7.00007 6C7.26543 6 7.51993 6.10542 7.70757 6.29306L16.0001 14.5868L24.2926 6.29306C24.4802 6.10542 24.7347 6 25.0001 6C25.2654 6 25.5199 6.10542 25.7076 6.29306C25.8952 6.4807 26.0006 6.73519 26.0006 7.00056C26.0006 7.26592 25.8952 7.52042 25.7076 7.70806L17.4138 16.0006L25.7076 24.2931Z" fill="white"/>
</svg>
