<svg width="32" height="32" viewBox="0 0 32 32" fill="none" xmlns="http://www.w3.org/2000/svg">
    <path d="M23.7441 7.07747C24.0696 6.75203 24.5971 6.75203 24.9225 7.07747C25.2479 7.4029 25.2479 7.93042 24.9225 8.25585L17.1784 16L24.9225 23.7441C25.2479 24.0696 25.2479 24.5971 24.9225 24.9225C24.5971 25.248 24.0696 25.248 23.7441 24.9225L16 17.1784L8.25584 24.9225C7.9304 25.248 7.40289 25.248 7.07745 24.9225C6.75202 24.5971 6.75202 24.0696 7.07745 23.7441L14.8216 16L7.07745 8.25585C6.75201 7.93042 6.75201 7.4029 7.07745 7.07747C7.40289 6.75203 7.9304 6.75203 8.25584 7.07747L16 14.8216L23.7441 7.07747Z" fill="white"/>
</svg>
