<svg width="12" height="12" viewBox="0 0 12 12" fill="none" xmlns="http://www.w3.org/2000/svg">
    <g clip-path="url(#clip0_3427_1156)">
        <path fill-rule="evenodd" clip-rule="evenodd" d="M0.5 5.5C0.776142 5.5 1 5.72386 1 6C1 8.76142 3.23858 11 6 11C6.94572 11 7.82848 10.7368 8.58203 10.2812C8.52872 10.1137 8.5 9.93521 8.5 9.75C8.5 8.7835 9.2835 8 10.25 8C11.2165 8 12 8.7835 12 9.75C12 10.7165 11.2165 11.5 10.25 11.5C9.83155 11.5 9.44759 11.3529 9.14648 11.1079C8.2313 11.6728 7.15347 12 6 12C2.68629 12 0 9.31371 0 6C0 5.72386 0.223858 5.5 0.5 5.5ZM10.25 9C9.83579 9 9.5 9.33579 9.5 9.75C9.5 10.1642 9.83579 10.5 10.25 10.5C10.6642 10.5 11 10.1642 11 9.75C11 9.33579 10.6642 9 10.25 9Z" fill="#959EA3"/>
        <path fill-rule="evenodd" clip-rule="evenodd" d="M5.29297 3.17139C5.68346 2.78103 6.31654 2.78103 6.70703 3.17139L8.82861 5.29297C9.21896 5.68346 9.21896 6.31654 8.82861 6.70703L6.70703 8.82861C6.34087 9.19464 5.76138 9.2174 5.36865 8.89697L5.29297 8.82861L3.17139 6.70703L3.10303 6.63135C2.80389 6.26471 2.80389 5.73529 3.10303 5.36865L3.17139 5.29297L5.29297 3.17139ZM3.87891 6L6 8.12109L8.12109 6L6 3.87891L3.87891 6Z" fill="#959EA3"/>
        <path fill-rule="evenodd" clip-rule="evenodd" d="M6 0C9.31371 0 12 2.68629 12 6C12 6.27614 11.7761 6.5 11.5 6.5C11.2239 6.5 11 6.27614 11 6C11 3.23858 8.76142 1 6 1C5.0543 1 4.17105 1.26229 3.41748 1.71777C3.47101 1.88561 3.5 2.06442 3.5 2.25C3.5 3.2165 2.7165 4 1.75 4C0.783502 4 0 3.2165 0 2.25C0 1.2835 0.783502 0.5 1.75 0.5C2.16809 0.5 2.55203 0.646494 2.85303 0.891113C3.76819 0.326293 4.84656 0 6 0ZM1.75 1.5C1.33579 1.5 1 1.83579 1 2.25C1 2.66421 1.33579 3 1.75 3C2.16421 3 2.5 2.66421 2.5 2.25C2.5 1.83579 2.16421 1.5 1.75 1.5Z" fill="#959EA3"/>
    </g>
    <defs>
        <clipPath id="clip0_3427_1156">
            <rect width="12" height="12" fill="white"/>
        </clipPath>
    </defs>
</svg>
