<svg width="64" height="32" viewBox="0 0 64 20" fill="none" xmlns="http://www.w3.org/2000/svg">
    <path fill-rule="evenodd" clip-rule="evenodd" d="M63.8651 15.9688C63.8651 16.0385 63.8071 16.0949 63.7346 16.0949C53.9367 16.0949 43.2956 16.0949 33.4933 16.0949C33.4112 16.0949 33.3671 16.0026 33.42 15.9423L34.2959 14.9442C34.4334 14.7876 34.6356 14.6972 34.8487 14.6972H62.1709C62.3043 14.6972 62.4122 14.5934 62.4122 14.4653V5.32715C62.4122 5.27588 62.4551 5.23438 62.5085 5.23438H63.7688C63.8222 5.23438 63.8651 5.27588 63.8651 5.32715V15.9688Z" fill="white"/>
    <path fill-rule="evenodd" clip-rule="evenodd" d="M34.0472 3H60.9556C60.9568 3 60.9562 8.92485 60.9556 11.8116C60.9556 12.4651 60.9556 12.9629 60.9556 13.201C60.9556 13.2524 60.9121 13.2914 60.8588 13.2912C54.8407 13.2706 48.8011 13.2775 42.7688 13.2844H42.7687C39.8599 13.2878 36.9528 13.2911 34.0506 13.2914C33.8346 13.2914 33.63 13.3842 33.4926 13.5445L31.5164 15.8496C31.379 16.0099 31.1744 16.1027 30.9584 16.1027H3.10219C3.04894 16.1027 3.00573 16.0612 3.00573 16.01L3.00562 5.88072C3.00562 5.82951 3.04239 5.78801 3.09563 5.78801C4.70009 5.78801 27.25 5.78812 30.9507 5.78812C31.1647 5.78812 31.362 5.69691 31.4994 5.53903L33.4926 3.24911C33.63 3.09122 33.8331 3 34.0472 3ZM15.3129 14.0074C14.675 14.0074 14.0985 13.8748 13.5835 13.6096C13.0743 13.3444 12.6734 12.9804 12.3808 12.5178C12.094 12.0494 11.9506 11.5246 11.9506 10.9434C11.9506 10.3622 12.094 9.84026 12.3808 9.37756C12.6734 8.90917 13.0743 8.54243 13.5835 8.27722C14.0985 8.01201 14.675 7.8794 15.3129 7.8794C15.9508 7.8794 16.5244 8.01201 17.0336 8.27722C17.5427 8.54243 17.9436 8.90917 18.2362 9.37756C18.5288 9.84026 18.6752 10.3622 18.6752 10.9434C18.6752 11.5246 18.5288 12.0494 18.2362 12.5178C17.9436 12.9804 17.5427 13.3444 17.0336 13.6096C16.5244 13.8748 15.9508 14.0074 15.3129 14.0074ZM15.3129 12.8394C15.6758 12.8394 16.0035 12.7604 16.2961 12.6024C16.5888 12.4388 16.817 12.213 16.9809 11.9252C17.1506 11.6375 17.2355 11.3102 17.2355 10.9434C17.2355 10.5766 17.1506 10.2493 16.9809 9.96159C16.817 9.67379 16.5888 9.45092 16.2961 9.29288C16.0035 9.12925 15.6758 9.04741 15.3129 9.04741C14.95 9.04741 14.6223 9.12925 14.3297 9.29288C14.037 9.45092 13.8059 9.67379 13.6361 9.96159C13.4723 10.2493 13.3903 10.5766 13.3903 10.9434C13.3903 11.3102 13.4723 11.6375 13.6361 11.9252C13.8059 12.213 14.037 12.4388 14.3297 12.6024C14.6223 12.7604 14.95 12.8394 15.3129 12.8394ZM10.8347 7.98094C10.8614 7.98094 10.8829 8.00174 10.8829 8.02735V13.8595C10.8829 13.8851 10.8614 13.9059 10.8347 13.9059H9.7382C9.72375 13.9059 9.71007 13.8996 9.7009 13.8889L6.65155 10.3086V13.8595C6.65155 13.8851 6.62998 13.9059 6.60336 13.9059H5.29517C5.26854 13.9059 5.24697 13.8851 5.24697 13.8595V8.02735C5.24697 8.00174 5.26854 7.98094 5.29517 7.98094H6.40047C6.41491 7.98094 6.42866 7.98718 6.43777 7.99801L9.47836 11.5782V8.02735C9.47836 8.00174 9.49993 7.98094 9.52656 7.98094H10.8347ZM19.013 9.09824H20.9312V13.8595C20.9312 13.8851 20.9528 13.9059 20.9794 13.9059H22.3052C22.3318 13.9059 22.3534 13.8851 22.3534 13.8595V9.09824H24.2716C24.2982 9.09824 24.3198 9.07748 24.3198 9.05182V8.02735C24.3198 8.00174 24.2982 7.98094 24.2716 7.98094H19.013C18.9864 7.98094 18.9648 8.00174 18.9648 8.02735V9.05182C18.9648 9.07748 18.9864 9.09824 19.013 9.09824ZM28.8357 12.665C28.8283 12.6476 28.8107 12.6362 28.7911 12.6362H26.0026C25.9831 12.6362 25.9654 12.6476 25.958 12.665L25.4383 13.8772C25.4309 13.8946 25.4133 13.9059 25.3937 13.9059H24.043C24.0081 13.9059 23.9847 13.8713 23.9989 13.8406L26.695 8.00849C26.7027 7.99176 26.72 7.98094 26.7391 7.98094H28.081C28.1001 7.98094 28.1174 7.9917 28.1251 8.00844L30.8298 13.8406C30.844 13.8713 30.8207 13.9059 30.7858 13.9059H29.4C29.3805 13.9059 29.3628 13.8946 29.3554 13.8772L28.8357 12.665ZM28.3757 11.5951L27.4013 9.32674L26.4268 11.5951H28.3757ZM38.7758 8.07667C38.7356 8.06199 38.7305 8.00654 38.7672 7.98501C38.9768 7.86194 39.1426 7.703 39.2644 7.50831C39.4111 7.28326 39.4844 7.02726 39.4844 6.74035C39.4844 6.26772 39.282 5.89356 38.8772 5.61786C38.4782 5.34216 37.9032 5.20436 37.1522 5.20436H34.1906C34.1639 5.20436 34.1423 5.22512 34.1423 5.25072V11.0656C34.1423 11.0912 34.1639 11.112 34.1906 11.112H37.3282C38.132 11.112 38.7422 10.9741 39.1588 10.6984C39.5812 10.4171 39.7924 10.0177 39.7924 9.50001C39.7924 9.13433 39.6927 8.82767 39.4932 8.58014C39.3149 8.35393 39.0758 8.18606 38.7758 8.07667ZM35.5593 6.28033C35.5593 6.25472 35.5809 6.23397 35.6075 6.23397H36.9762C37.3282 6.23397 37.5952 6.29305 37.777 6.4112C37.9589 6.52373 38.0499 6.69533 38.0499 6.926C38.0499 7.15668 37.9589 7.33107 37.777 7.44923C37.5952 7.56739 37.3282 7.62646 36.9762 7.62646H35.6075C35.5809 7.62646 35.5593 7.60571 35.5593 7.58011V6.28033ZM38.0675 9.90514C37.8797 10.0233 37.5981 10.0824 37.2226 10.0824H35.6075C35.5809 10.0824 35.5593 10.0616 35.5593 10.036V8.66873C35.5593 8.64307 35.5809 8.62232 35.6075 8.62232H37.2226C37.9794 8.62232 38.3579 8.86705 38.3579 9.35658C38.3579 9.60411 38.2611 9.78698 38.0675 9.90514ZM45.6418 10.0612C45.6418 10.0356 45.6202 10.0148 45.5936 10.0148H42.337C42.3103 10.0148 42.2887 9.99406 42.2887 9.96846V8.694C42.2887 8.6684 42.3103 8.64764 42.337 8.64764H45.1007C45.1274 8.64764 45.149 8.62689 45.149 8.60129V7.63065C45.149 7.60504 45.1274 7.58429 45.1007 7.58429H42.337C42.3103 7.58429 42.2887 7.56348 42.2887 7.53788V6.34783C42.2887 6.32222 42.3103 6.30147 42.337 6.30147H45.4792C45.5058 6.30147 45.5274 6.28072 45.5274 6.25511V5.25072C45.5274 5.22512 45.5058 5.20436 45.4792 5.20436H40.92C40.8934 5.20436 40.8718 5.22512 40.8718 5.25072V11.0656C40.8718 11.0912 40.8934 11.112 40.92 11.112H45.5936C45.6202 11.112 45.6418 11.0912 45.6418 11.0656V10.0612ZM52.3781 5.20436C52.4047 5.20436 52.4263 5.22512 52.4263 5.25072V11.0656C52.4263 11.0912 52.4047 11.112 52.3781 11.112H51.2785C51.2642 11.112 51.2505 11.1058 51.2413 11.0951L48.1844 7.52521V11.0656C48.1844 11.0912 48.1627 11.112 48.1361 11.112H46.8244C46.7978 11.112 46.7762 11.0912 46.7762 11.0656V5.25072C46.7762 5.22512 46.7978 5.20436 46.8244 5.20436H47.9327C47.9471 5.20436 47.9608 5.21056 47.97 5.22127L51.0182 8.79113V5.25072C51.0182 5.22512 51.0398 5.20436 51.0664 5.20436H52.3781ZM58.6536 10.0612C58.6536 10.0356 58.6321 10.0148 58.6055 10.0148H55.3488C55.3221 10.0148 55.3006 9.99406 55.3006 9.96846V8.694C55.3006 8.6684 55.3221 8.64764 55.3488 8.64764H58.113C58.1391 8.64764 58.1612 8.62689 58.1612 8.60129V7.63065C58.1612 7.60504 58.1391 7.58429 58.113 7.58429H55.3488C55.3221 7.58429 55.3006 7.56348 55.3006 7.53788V6.34783C55.3006 6.32222 55.3221 6.30147 55.3488 6.30147H58.4912C58.5179 6.30147 58.5393 6.28072 58.5393 6.25511V5.25072C58.5393 5.22512 58.5179 5.20436 58.4912 5.20436H53.9318C53.9057 5.20436 53.8837 5.22512 53.8837 5.25072V11.0656C53.8837 11.0912 53.9057 11.112 53.9318 11.112H58.6055C58.6321 11.112 58.6536 11.0912 58.6536 11.0656V10.0612Z" fill="white"/>
    <path fill-rule="evenodd" clip-rule="evenodd" d="M0.100098 3.171C0.100098 3.10137 0.158138 3.04492 0.230528 3.04492C10.0376 3.04492 21.6688 3.04492 31.4853 3.04492C31.5674 3.04492 31.611 3.13721 31.558 3.19752L30.6821 4.19562C30.5446 4.35222 30.3425 4.44259 30.1294 4.44259H1.79434C1.66117 4.44259 1.55323 4.54641 1.55323 4.6745V13.8127C1.55323 13.8639 1.51002 13.9055 1.45678 13.9055H0.19654C0.143279 13.9055 0.100098 13.8639 0.100098 13.8127V3.171Z" fill="white"/>
</svg>
