<svg width="64" height="64" viewBox="0 0 64 64" fill="none" xmlns="http://www.w3.org/2000/svg">
    <path d="M46.7689 31.9997C46.7689 40.1565 40.1565 46.7689 31.9997 46.7689C23.8429 46.7689 17.2305 40.1565 17.2305 31.9997C17.2305 23.8429 23.8429 17.2305 31.9997 17.2305C40.1565 17.2305 46.7689 23.8429 46.7689 31.9997Z" fill="#48A2AE"/>
    <path fill-rule="evenodd" clip-rule="evenodd" d="M32 0C34.9551 0 37.8167 0.400573 40.5334 1.15038V7.85672C37.8643 6.91333 34.9921 6.4 32 6.4C17.8615 6.4 6.4 17.8615 6.4 32C6.4 46.1385 17.8615 57.6 32 57.6C34.9921 57.6 37.8643 57.0867 40.5334 56.1433V62.8496C37.8167 63.5994 34.9551 64 32 64C14.3269 64 0 49.6731 0 32C0 14.3269 14.3269 0 32 0ZM60.3091 46.9333C62.6657 42.4753 64 37.3935 64 32C64 26.6065 62.6657 21.5247 60.3091 17.0667H52.7955C55.8192 21.2698 57.6 26.427 57.6 32C57.6 37.573 55.8192 42.7302 52.7955 46.9333H60.3091Z" fill="#48A2AE"/>
</svg>
