<svg width="16" height="16" viewBox="0 0 16 16" fill="none" xmlns="http://www.w3.org/2000/svg">
    <path fill-rule="evenodd" clip-rule="evenodd" d="M14.1029 0.00260417C15.1596 0.0561431 16 0.92993 16 2V10L15.9974 10.1029C15.9456 11.1256 15.1256 11.9456 14.1029 11.9974L14 12H12V14L11.9974 14.1029C11.9456 15.1256 11.1256 15.9456 10.1029 15.9974L10 16H2L1.89714 15.9974C0.87444 15.9456 0.0544169 15.1256 0.00260417 14.1029L0 14V6C1.24829e-07 4.92993 0.84037 4.05614 1.89714 4.0026L2 4H4V2C4 0.92993 4.84037 0.056143 5.89714 0.00260417L6 0H14L14.1029 0.00260417ZM2 5.33333C1.63181 5.33333 1.33333 5.63181 1.33333 6V14C1.33333 14.3682 1.63181 14.6667 2 14.6667H10C10.3682 14.6667 10.6667 14.3682 10.6667 14V12H6L5.89714 11.9974C4.87444 11.9456 4.05442 11.1256 4.0026 10.1029L4 10V5.33333H2ZM5.33333 10C5.33333 10.3682 5.63181 10.6667 6 10.6667H10.6667V6C10.6667 5.63181 10.3682 5.33333 10 5.33333H5.33333V10ZM6 1.33333C5.63181 1.33333 5.33333 1.63181 5.33333 2V4H10L10.1029 4.0026C11.1596 4.05614 12 4.92993 12 6V10.6667H14C14.3682 10.6667 14.6667 10.3682 14.6667 10V2C14.6667 1.63181 14.3682 1.33333 14 1.33333H6Z" fill="white"/>
</svg>
