<svg width="24" height="24" viewBox="0 0 24 24" fill="none" xmlns="http://www.w3.org/2000/svg">
    <g clip-path="url(#clip0_323_12027)">
        <path fill-rule="evenodd" clip-rule="evenodd" d="M20.3441 9.78347C19.4741 10.2855 18.9911 11.2285 19.0001 12.2325C19.0001 12.2515 19.0001 12.2705 19.0001 12.2895C19.0001 12.3085 19.0001 12.3285 19.0001 12.3475C18.9911 13.3515 19.4741 14.2945 20.3441 14.7965L20.3521 14.8015C20.9431 15.1425 21.7121 14.8055 21.8371 14.1345C22.0661 12.9025 22.0551 11.6515 21.8261 10.4445C21.6991 9.77547 20.9331 9.44347 20.3441 9.78347Z" stroke="#71797E" stroke-width="1.5" stroke-linecap="round" stroke-linejoin="round"/>
        <path fill-rule="evenodd" clip-rule="evenodd" d="M8.64435 6.14854C8.55335 6.19854 8.46335 6.25053 8.37435 6.30453C7.54335 6.81053 6.49835 6.80153 5.65535 6.31453C5.06935 5.97653 4.96635 5.15053 5.47835 4.70853C6.41335 3.90053 7.49835 3.26153 8.68835 2.84353C9.32835 2.61853 9.99635 3.12053 9.99635 3.79853V3.80654C9.99635 4.77354 9.49135 5.68354 8.64435 6.14854Z" stroke="#71797E" stroke-width="1.5" stroke-linecap="round" stroke-linejoin="round"/>
        <path fill-rule="evenodd" clip-rule="evenodd" d="M15.359 18.4249C15.448 18.3759 15.536 18.3249 15.623 18.2719C16.454 17.7659 17.499 17.7749 18.342 18.2619C18.928 18.5999 19.031 19.4259 18.519 19.8679C17.584 20.6759 16.499 21.3149 15.309 21.7339C14.669 21.9599 14 21.4579 14 20.7789C14 19.8079 14.508 18.8939 15.359 18.4249Z" stroke="#71797E" stroke-width="1.5" stroke-linecap="round" stroke-linejoin="round"/>
        <path fill-rule="evenodd" clip-rule="evenodd" d="M3.65544 14.7953C3.06644 15.1353 2.30044 14.8033 2.17344 14.1353C1.94444 12.9283 1.93344 11.6763 2.16244 10.4443C2.28744 9.77328 3.05544 9.43628 3.64644 9.77728L3.65544 9.78228C4.52544 10.2843 5.00844 11.2273 4.99944 12.2313C4.99944 12.2503 4.99944 12.2703 4.99944 12.2893C4.99944 12.3083 4.99944 12.3273 4.99944 12.3463C5.00844 13.3503 4.52544 14.2933 3.65544 14.7953Z" stroke="#71797E" stroke-width="1.5" stroke-linecap="round" stroke-linejoin="round"/>
        <path fill-rule="evenodd" clip-rule="evenodd" d="M14 3.80819C14 3.12819 14.671 2.63119 15.312 2.85519C16.472 3.26019 17.562 3.87619 18.515 4.69219C19.033 5.13619 18.941 5.96919 18.35 6.31019L18.341 6.31519C17.498 6.80119 16.454 6.81119 15.623 6.30519C15.534 6.25119 15.444 6.19819 15.352 6.14819C14.505 5.68419 14 4.77419 14 3.80819Z" stroke="#71797E" stroke-width="1.5" stroke-linecap="round" stroke-linejoin="round"/>
        <path fill-rule="evenodd" clip-rule="evenodd" d="M9.99847 20.7697C9.99847 21.4497 9.32747 21.9467 8.68647 21.7227C7.52647 21.3177 6.43647 20.7017 5.48347 19.8857C4.96547 19.4417 5.05747 18.6087 5.64847 18.2677C6.49647 17.7777 7.54747 17.7697 8.38547 18.2777C8.47147 18.3297 8.55847 18.3807 8.64747 18.4287C9.49347 18.8937 9.99847 19.8037 9.99847 20.7697Z" stroke="#71797E" stroke-width="1.5" stroke-linecap="round" stroke-linejoin="round"/>
        <path fill-rule="evenodd" clip-rule="evenodd" d="M12 9.28906L15.0002 12.2893L12 15.2896L8.99976 12.2893L12 9.28906Z" stroke="#71797E" stroke-width="1.49999" stroke-linecap="round" stroke-linejoin="round"/>
    </g>
    <defs>
        <clipPath id="clip0_323_12027">
            <rect width="22" height="21" fill="white" transform="translate(1 2)"/>
        </clipPath>
    </defs>
</svg>
