<svg width="24" height="24" viewBox="0 0 24 24" fill="none" xmlns="http://www.w3.org/2000/svg">
    <path fill-rule="evenodd" clip-rule="evenodd" d="M3.49609 10.5554C3.49609 14.9828 6.24444 18.9451 10.3912 20.4961L10.4213 20.5074C11.4393 20.8881 12.5606 20.8878 13.5783 20.5064L13.6027 20.4972C17.7532 18.9418 20.5032 14.9745 20.5032 10.5421V6.81708C20.5032 5.94183 19.9343 5.16817 19.0989 4.90723L12.5962 2.87615C12.2077 2.75483 11.7916 2.75483 11.4031 2.87615L4.90042 4.90717C4.06497 5.16811 3.49609 5.94177 3.49609 6.81702V10.5554Z" stroke="#71797E" stroke-width="1.5" stroke-linecap="round" stroke-linejoin="round"/>
    <path fill-rule="evenodd" clip-rule="evenodd" d="M13.0623 8.2265L15.5637 10.7272C15.8451 11.0086 16.0034 11.3903 16.0034 11.7883C16.0034 12.1863 15.8454 12.568 15.564 12.8494L13.0633 15.3508C12.7819 15.6323 12.4002 15.7905 12.0022 15.7905C11.6042 15.7905 11.2225 15.6325 10.9411 15.3511L8.43969 12.8504C8.15822 12.5691 8 12.1874 8 11.7894C8 11.3914 8.158 11.0097 8.43939 10.7282L10.9401 8.2268C11.2214 7.94533 11.6031 7.78711 12.0011 7.78711C12.3991 7.78711 12.7808 7.94511 13.0623 8.2265Z" stroke="#71797E" stroke-width="1.5" stroke-linecap="round" stroke-linejoin="round"/>
</svg>
