<svg width="24" height="24" viewBox="0 0 24 24" fill="none" xmlns="http://www.w3.org/2000/svg">
    <path d="M21.75 4.5V8.25C21.75 8.44891 21.671 8.63968 21.5303 8.78033C21.3897 8.92098 21.1989 9 21 9C20.8011 9 20.6103 8.92098 20.4697 8.78033C20.329 8.63968 20.25 8.44891 20.25 8.25V5.25H17.25C17.0511 5.25 16.8603 5.17098 16.7197 5.03033C16.579 4.88968 16.5 4.69891 16.5 4.5C16.5 4.30109 16.579 4.11032 16.7197 3.96967C16.8603 3.82902 17.0511 3.75 17.25 3.75H21C21.1989 3.75 21.3897 3.82902 21.5303 3.96967C21.671 4.11032 21.75 4.30109 21.75 4.5ZM6.75 18.75H3.75V15.75C3.75 15.5511 3.67098 15.3603 3.53033 15.2197C3.38968 15.079 3.19891 15 3 15C2.80109 15 2.61032 15.079 2.46967 15.2197C2.32902 15.3603 2.25 15.5511 2.25 15.75V19.5C2.25 19.6989 2.32902 19.8897 2.46967 20.0303C2.61032 20.171 2.80109 20.25 3 20.25H6.75C6.94891 20.25 7.13968 20.171 7.28033 20.0303C7.42098 19.8897 7.5 19.6989 7.5 19.5C7.5 19.3011 7.42098 19.1103 7.28033 18.9697C7.13968 18.829 6.94891 18.75 6.75 18.75ZM21 15C20.8011 15 20.6103 15.079 20.4697 15.2197C20.329 15.3603 20.25 15.5511 20.25 15.75V18.75H17.25C17.0511 18.75 16.8603 18.829 16.7197 18.9697C16.579 19.1103 16.5 19.3011 16.5 19.5C16.5 19.6989 16.579 19.8897 16.7197 20.0303C16.8603 20.171 17.0511 20.25 17.25 20.25H21C21.1989 20.25 21.3897 20.171 21.5303 20.0303C21.671 19.8897 21.75 19.6989 21.75 19.5V15.75C21.75 15.5511 21.671 15.3603 21.5303 15.2197C21.3897 15.079 21.1989 15 21 15ZM3 9C3.19891 9 3.38968 8.92098 3.53033 8.78033C3.67098 8.63968 3.75 8.44891 3.75 8.25V5.25H6.75C6.94891 5.25 7.13968 5.17098 7.28033 5.03033C7.42098 4.88968 7.5 4.69891 7.5 4.5C7.5 4.30109 7.42098 4.11032 7.28033 3.96967C7.13968 3.82902 6.94891 3.75 6.75 3.75H3C2.80109 3.75 2.61032 3.82902 2.46967 3.96967C2.32902 4.11032 2.25 4.30109 2.25 4.5V8.25C2.25 8.44891 2.32902 8.63968 2.46967 8.78033C2.61032 8.92098 2.80109 9 3 9ZM17.625 15.6562L12.375 18.6562C12.2617 18.721 12.1334 18.7551 12.0028 18.7551C11.8723 18.7551 11.744 18.721 11.6306 18.6562L6.375 15.6562C6.25999 15.5899 6.16467 15.4941 6.09879 15.3788C6.0329 15.2635 5.99881 15.1328 6 15V9C5.99881 8.86721 6.0329 8.73648 6.09879 8.62118C6.16467 8.50588 6.25999 8.41014 6.375 8.34375L11.625 5.34375C11.7383 5.27896 11.8666 5.24488 11.9972 5.24488C12.1277 5.24488 12.256 5.27896 12.3694 5.34375L17.6194 8.34375C17.7344 8.41014 17.8297 8.50588 17.8956 8.62118C17.9615 8.73648 17.9956 8.86721 17.9944 9V15C17.9961 15.1322 17.9629 15.2626 17.898 15.3778C17.8332 15.4931 17.739 15.5891 17.625 15.6562ZM8.26125 9L12 11.1366L15.7388 9L12 6.86344L8.26125 9ZM7.5 14.565L11.25 16.7072V12.435L7.5 10.2928V14.565ZM16.5 14.565V10.2928L12.75 12.435V16.7072L16.5 14.565Z" fill="white"/>
</svg>
