<svg width="16" height="16" viewBox="0 0 21 13" fill="none" xmlns="http://www.w3.org/2000/svg">
    <path d="M19.0322 6.64991C17.7863 7.20375 17.0932 8.49313 16.5539 9.74547C16.2739 10.4103 15.8849 10.9844 15.3871 11.4679C14.8892 11.9454 14.298 12.3201 13.6134 12.5921C12.9289 12.864 12.1852 13 11.3824 13H4.82941C4.65516 13 4.49336 12.9698 4.344 12.9093C4.19465 12.8489 4.06396 12.7673 3.95194 12.6646C3.84615 12.5558 3.76214 12.4289 3.6999 12.2838C3.57428 11.991 3.53571 11.6631 3.39915 11.3752L0.941162 6.19358L3.38333 1.60683C3.5299 1.33156 3.57694 1.01184 3.6999 0.725244C3.76214 0.580195 3.84615 0.453278 3.95194 0.344491C4.06396 0.235704 4.19465 0.151093 4.344 0.0906555C4.49336 0.0302185 4.65516 0 4.82941 0H11.3824C12.1852 0 12.9289 0.135983 13.6134 0.40795C14.298 0.679916 14.8892 1.05765 15.3871 1.54114C15.8849 2.0186 16.2739 2.59275 16.5539 3.2636C17.0725 4.46791 17.8788 5.65895 19.1523 5.97126L20.0588 6.19358L19.0322 6.64991ZM14.5563 5.43933C14.5563 4.98001 14.4785 4.55997 14.3229 4.17922C14.1735 3.79847 13.9588 3.47513 13.6788 3.20921C13.3987 2.93724 13.0627 2.72873 12.6706 2.58368C12.2848 2.43259 11.8554 2.35704 11.3824 2.35704H6.41595C6.20479 2.35704 6.0336 2.52823 6.0336 2.7394V10.2606C6.0336 10.4718 6.20479 10.643 6.41595 10.643H11.3824C11.8554 10.643 12.2848 10.5704 12.6706 10.4254C13.0627 10.2743 13.3987 10.0658 13.6788 9.79986C13.9588 9.52789 14.1735 9.20456 14.3229 8.82985C14.4785 8.44909 14.5563 8.02603 14.5563 7.56067V5.43933Z" fill="#C05689"/>
</svg>
