<svg width="32" height="32" viewBox="0 0 32 32" fill="none" xmlns="http://www.w3.org/2000/svg">
    <path d="M9.5 7.5C9.5 7.89556 9.3827 8.28224 9.16294 8.61114C8.94318 8.94004 8.63082 9.19639 8.26537 9.34776C7.89992 9.49914 7.49778 9.53874 7.10982 9.46157C6.72186 9.3844 6.36549 9.19392 6.08579 8.91421C5.80608 8.63451 5.6156 8.27814 5.53843 7.89018C5.46126 7.50222 5.50087 7.10009 5.65224 6.73463C5.80362 6.36918 6.05996 6.05682 6.38886 5.83706C6.71776 5.6173 7.10444 5.5 7.5 5.5C8.03043 5.5 8.53914 5.71071 8.91421 6.08579C9.28929 6.46086 9.5 6.96957 9.5 7.5ZM16 5.5C15.6044 5.5 15.2178 5.6173 14.8889 5.83706C14.56 6.05682 14.3036 6.36918 14.1522 6.73463C14.0009 7.10009 13.9613 7.50222 14.0384 7.89018C14.1156 8.27814 14.3061 8.63451 14.5858 8.91421C14.8655 9.19392 15.2219 9.3844 15.6098 9.46157C15.9978 9.53874 16.3999 9.49914 16.7654 9.34776C17.1308 9.19639 17.4432 8.94004 17.6629 8.61114C17.8827 8.28224 18 7.89556 18 7.5C18 6.96957 17.7893 6.46086 17.4142 6.08579C17.0391 5.71071 16.5304 5.5 16 5.5ZM24.5 9.5C24.8956 9.5 25.2822 9.3827 25.6111 9.16294C25.94 8.94318 26.1964 8.63082 26.3478 8.26537C26.4991 7.89992 26.5387 7.49778 26.4616 7.10982C26.3844 6.72186 26.1939 6.36549 25.9142 6.08579C25.6345 5.80608 25.2781 5.6156 24.8902 5.53843C24.5022 5.46126 24.1001 5.50087 23.7346 5.65224C23.3692 5.80362 23.0568 6.05996 22.8371 6.38886C22.6173 6.71776 22.5 7.10444 22.5 7.5C22.5 8.03043 22.7107 8.53914 23.0858 8.91421C23.4609 9.28929 23.9696 9.5 24.5 9.5ZM7.5 14C7.10444 14 6.71776 14.1173 6.38886 14.3371C6.05996 14.5568 5.80362 14.8692 5.65224 15.2346C5.50087 15.6001 5.46126 16.0022 5.53843 16.3902C5.6156 16.7781 5.80608 17.1345 6.08579 17.4142C6.36549 17.6939 6.72186 17.8844 7.10982 17.9616C7.49778 18.0387 7.89992 17.9991 8.26537 17.8478C8.63082 17.6964 8.94318 17.44 9.16294 17.1111C9.3827 16.7822 9.5 16.3956 9.5 16C9.5 15.4696 9.28929 14.9609 8.91421 14.5858C8.53914 14.2107 8.03043 14 7.5 14ZM16 14C15.6044 14 15.2178 14.1173 14.8889 14.3371C14.56 14.5568 14.3036 14.8692 14.1522 15.2346C14.0009 15.6001 13.9613 16.0022 14.0384 16.3902C14.1156 16.7781 14.3061 17.1345 14.5858 17.4142C14.8655 17.6939 15.2219 17.8844 15.6098 17.9616C15.9978 18.0387 16.3999 17.9991 16.7654 17.8478C17.1308 17.6964 17.4432 17.44 17.6629 17.1111C17.8827 16.7822 18 16.3956 18 16C18 15.4696 17.7893 14.9609 17.4142 14.5858C17.0391 14.2107 16.5304 14 16 14ZM24.5 14C24.1044 14 23.7178 14.1173 23.3889 14.3371C23.06 14.5568 22.8036 14.8692 22.6522 15.2346C22.5009 15.6001 22.4613 16.0022 22.5384 16.3902C22.6156 16.7781 22.8061 17.1345 23.0858 17.4142C23.3655 17.6939 23.7219 17.8844 24.1098 17.9616C24.4978 18.0387 24.8999 17.9991 25.2654 17.8478C25.6308 17.6964 25.9432 17.44 26.1629 17.1111C26.3827 16.7822 26.5 16.3956 26.5 16C26.5 15.4696 26.2893 14.9609 25.9142 14.5858C25.5391 14.2107 25.0304 14 24.5 14ZM7.5 22.5C7.10444 22.5 6.71776 22.6173 6.38886 22.8371C6.05996 23.0568 5.80362 23.3692 5.65224 23.7346C5.50087 24.1001 5.46126 24.5022 5.53843 24.8902C5.6156 25.2781 5.80608 25.6345 6.08579 25.9142C6.36549 26.1939 6.72186 26.3844 7.10982 26.4616C7.49778 26.5387 7.89992 26.4991 8.26537 26.3478C8.63082 26.1964 8.94318 25.94 9.16294 25.6111C9.3827 25.2822 9.5 24.8956 9.5 24.5C9.5 23.9696 9.28929 23.4609 8.91421 23.0858C8.53914 22.7107 8.03043 22.5 7.5 22.5ZM16 22.5C15.6044 22.5 15.2178 22.6173 14.8889 22.8371C14.56 23.0568 14.3036 23.3692 14.1522 23.7346C14.0009 24.1001 13.9613 24.5022 14.0384 24.8902C14.1156 25.2781 14.3061 25.6345 14.5858 25.9142C14.8655 26.1939 15.2219 26.3844 15.6098 26.4616C15.9978 26.5387 16.3999 26.4991 16.7654 26.3478C17.1308 26.1964 17.4432 25.94 17.6629 25.6111C17.8827 25.2822 18 24.8956 18 24.5C18 23.9696 17.7893 23.4609 17.4142 23.0858C17.0391 22.7107 16.5304 22.5 16 22.5ZM24.5 22.5C24.1044 22.5 23.7178 22.6173 23.3889 22.8371C23.06 23.0568 22.8036 23.3692 22.6522 23.7346C22.5009 24.1001 22.4613 24.5022 22.5384 24.8902C22.6156 25.2781 22.8061 25.6345 23.0858 25.9142C23.3655 26.1939 23.7219 26.3844 24.1098 26.4616C24.4978 26.5387 24.8999 26.4991 25.2654 26.3478C25.6308 26.1964 25.9432 25.94 26.1629 25.6111C26.3827 25.2822 26.5 24.8956 26.5 24.5C26.5 23.9696 26.2893 23.4609 25.9142 23.0858C25.5391 22.7107 25.0304 22.5 24.5 22.5Z" fill="white"/>
</svg>
