<svg width="16" height="16" viewBox="0 0 16 16" fill="none" xmlns="http://www.w3.org/2000/svg">
    <path d="M11.354 6.64664C11.4005 6.69308 11.4374 6.74822 11.4626 6.80892C11.4877 6.86962 11.5007 6.93469 11.5007 7.00039C11.5007 7.0661 11.4877 7.13116 11.4626 7.19186C11.4374 7.25256 11.4005 7.30771 11.354 7.35414L8.35403 10.3541C8.30759 10.4006 8.25245 10.4375 8.19175 10.4627C8.13105 10.4878 8.06599 10.5008 8.00028 10.5008C7.93457 10.5008 7.86951 10.4878 7.80881 10.4627C7.74811 10.4375 7.69296 10.4006 7.64653 10.3541L4.64653 7.35414C4.55271 7.26032 4.5 7.13307 4.5 7.00039C4.5 6.86771 4.55271 6.74046 4.64653 6.64664C4.74035 6.55282 4.8676 6.50011 5.00028 6.50011C5.13296 6.50011 5.26021 6.55282 5.35403 6.64664L8.00028 9.29352L10.6465 6.64664C10.693 6.60015 10.7481 6.56327 10.8088 6.53811C10.8695 6.51295 10.9346 6.5 11.0003 6.5C11.066 6.5 11.131 6.51295 11.1917 6.53811C11.2524 6.56327 11.3076 6.60015 11.354 6.64664Z" fill="#9DAEC3"/>
</svg>
