<svg width="16" height="16" viewBox="0 0 9 12" fill="none" xmlns="http://www.w3.org/2000/svg">
    <path d="M8.35359 10.9872L8.07815 9.73645C8.06253 9.66291 8.02318 9.60783 7.96011 9.57127C7.89191 9.53448 7.82377 9.52938 7.75565 9.55561L7.71625 9.57127L7.62174 9.59482C7.57972 9.60519 7.53122 9.61709 7.47617 9.63018C7.42109 9.64329 7.35697 9.6563 7.28342 9.6695C7.21027 9.68261 7.13253 9.69449 7.05144 9.70496C6.97018 9.71524 6.88248 9.72458 6.78799 9.73249C6.69348 9.74023 6.59919 9.7442 6.5047 9.7442C5.8386 9.7442 5.23935 9.56462 4.70707 9.20537C4.17472 8.846 3.78267 8.35956 3.53096 7.74605H6.57535C6.63316 7.74605 6.6856 7.72643 6.73264 7.687C6.78 7.64777 6.80885 7.5993 6.81913 7.54141L7.00793 6.66029C7.02375 6.58185 7.00793 6.51095 6.96087 6.44796C6.90843 6.38497 6.84272 6.35345 6.76416 6.35345H3.15341C3.13768 5.99684 3.13768 5.72151 3.15341 5.52742H6.99245C7.13419 5.52742 7.21801 5.4593 7.24421 5.32294L7.43302 4.42609C7.44864 4.35269 7.43056 4.28457 7.37793 4.22158C7.3309 4.15865 7.26535 4.12704 7.18142 4.12704H3.49958C3.76182 3.53966 4.15513 3.07815 4.67966 2.74248C5.20413 2.40673 5.79677 2.23895 6.45759 2.23895C6.47864 2.22848 6.55593 2.23112 6.68957 2.24683C6.82329 2.26248 6.89948 2.26909 6.91775 2.26645C6.93585 2.26386 7.00432 2.27177 7.1222 2.29001C7.24024 2.30836 7.29929 2.31756 7.29929 2.31756L7.43696 2.34506C7.47639 2.353 7.50653 2.35944 7.52747 2.36476L7.55897 2.37259C7.62708 2.39367 7.68985 2.38705 7.74777 2.353C7.8055 2.3188 7.84226 2.26774 7.85802 2.19957L8.19633 0.948735C8.21198 0.880538 8.20405 0.817603 8.17277 0.759932C8.12552 0.696887 8.073 0.657567 8.0153 0.641888C7.53285 0.521282 7.02391 0.460938 6.48908 0.460938C5.31413 0.460938 4.26402 0.796689 3.3383 1.46792C2.41261 2.1392 1.77403 3.02563 1.42263 4.12696H0.651735C0.578275 4.12696 0.518013 4.15052 0.470784 4.19772C0.423694 4.24486 0.400024 4.30521 0.400024 4.37867V5.27551C0.400024 5.34892 0.423611 5.40926 0.470784 5.45635C0.51804 5.50361 0.578385 5.52711 0.651735 5.52711H1.17885C1.16301 5.77893 1.1605 6.05412 1.17092 6.35323H0.651735C0.583565 6.35323 0.524571 6.37811 0.474752 6.42793C0.424961 6.47772 0.400024 6.53674 0.400024 6.60483V7.49385C0.400024 7.56213 0.424961 7.62096 0.474752 7.67094C0.524598 7.72076 0.583565 7.74545 0.651735 7.74545H1.39912C1.72953 8.9045 2.3537 9.82637 3.27151 10.5107C4.18938 11.1954 5.26191 11.5374 6.48908 11.5374C6.58883 11.5374 6.68973 11.535 6.79204 11.5295C6.89455 11.5243 6.99008 11.5163 7.07927 11.506C7.16838 11.4956 7.25628 11.4839 7.34283 11.4707C7.4293 11.4575 7.50802 11.4446 7.57875 11.4313C7.64957 11.4183 7.71644 11.4052 7.77932 11.3922C7.84231 11.3789 7.89869 11.3646 7.94859 11.3488C7.99838 11.3332 8.04015 11.3213 8.07438 11.3136C8.10852 11.3057 8.13604 11.2964 8.15687 11.2861L8.1963 11.2782C8.25403 11.2572 8.29861 11.2191 8.33003 11.164C8.36152 11.1092 8.36924 11.0501 8.35359 10.9872Z" fill="#2F63C9"/>
</svg>
