<svg width="24" height="24" viewBox="0 0 24 24" fill="none" xmlns="http://www.w3.org/2000/svg">
    <path d="M5.05499 3.24447C4.98913 3.17022 4.90918 3.10979 4.81979 3.06667C4.7304 3.02355 4.63334 2.9986 4.53423 2.99327C4.43513 2.98794 4.33595 3.00233 4.24245 3.03561C4.14895 3.06889 4.06298 3.1204 3.98953 3.18715C3.91608 3.2539 3.85661 3.33456 3.81457 3.42446C3.77252 3.51436 3.74874 3.61172 3.7446 3.71088C3.74045 3.81004 3.75603 3.90904 3.79043 4.00213C3.82483 4.09523 3.87737 4.18057 3.94499 4.25322L5.74874 6.23791C2.34374 8.32759 0.879366 11.5488 0.814679 11.6951C0.772035 11.791 0.75 11.8948 0.75 11.9998C0.75 12.1047 0.772035 12.2085 0.814679 12.3045C0.847491 12.3785 1.64155 14.1392 3.40687 15.9045C5.75905 18.2557 8.72999 19.4988 12 19.4988C13.6806 19.5084 15.3442 19.1624 16.8816 18.4835L18.9441 20.7532C19.0099 20.8275 19.0899 20.8879 19.1793 20.931C19.2686 20.9741 19.3657 20.9991 19.4648 21.0044C19.5639 21.0097 19.6631 20.9954 19.7566 20.9621C19.8501 20.9288 19.9361 20.8773 20.0095 20.8105C20.083 20.7438 20.1424 20.6631 20.1845 20.5732C20.2265 20.4833 20.2503 20.386 20.2544 20.2868C20.2586 20.1876 20.243 20.0886 20.2086 19.9956C20.1742 19.9025 20.1217 19.8171 20.0541 19.7445L5.05499 3.24447ZM9.49218 10.3545L13.3987 14.6529C12.8105 14.9624 12.136 15.0677 11.4814 14.9524C10.8268 14.837 10.229 14.5075 9.78189 14.0156C9.33481 13.5237 9.06377 12.8972 9.01134 12.2345C8.9589 11.5719 9.12803 10.9106 9.49218 10.3545ZM12 17.9988C9.11437 17.9988 6.59343 16.9498 4.50655 14.8817C3.64997 14.0304 2.92145 13.0593 2.34374 11.9988C2.78343 11.1748 4.18687 8.86853 6.7828 7.36947L8.4703 9.22103C7.81699 10.0578 7.48052 11.0985 7.52036 12.1593C7.56021 13.2201 7.97379 14.2327 8.68802 15.0181C9.40225 15.8034 10.3711 16.311 11.4234 16.4511C12.4757 16.5912 13.5436 16.3547 14.4384 15.7835L15.8194 17.3023C14.6006 17.7699 13.3053 18.0061 12 17.9988ZM12.5625 9.05228C12.3671 9.01498 12.1944 8.90158 12.0826 8.73702C11.9708 8.57245 11.9289 8.37021 11.9662 8.17478C12.0035 7.97935 12.1169 7.80674 12.2815 7.69492C12.4461 7.5831 12.6483 7.54123 12.8437 7.57853C13.7996 7.76384 14.67 8.2532 15.325 8.97361C15.98 9.69402 16.3846 10.6069 16.4784 11.576C16.4969 11.7741 16.436 11.9714 16.3091 12.1245C16.1822 12.2776 15.9996 12.3741 15.8016 12.3926C15.7781 12.394 15.7547 12.394 15.7312 12.3926C15.5438 12.3934 15.3628 12.324 15.224 12.198C15.0852 12.072 14.9986 11.8986 14.9812 11.712C14.9181 11.0673 14.6486 10.4603 14.2128 9.9811C13.7771 9.50191 13.1982 9.17616 12.5625 9.05228ZM23.1825 12.3045C23.1431 12.3926 22.1934 14.4954 20.055 16.4107C19.9819 16.4782 19.8961 16.5306 19.8027 16.5646C19.7092 16.5987 19.6099 16.6138 19.5105 16.6091C19.4111 16.6044 19.3136 16.5799 19.2238 16.5372C19.1339 16.4945 19.0535 16.4343 18.9871 16.3601C18.9208 16.286 18.8698 16.1994 18.8373 16.1054C18.8047 16.0114 18.7912 15.9118 18.7975 15.8125C18.8037 15.7132 18.8297 15.6162 18.8739 15.527C18.918 15.4379 18.9795 15.3584 19.0547 15.2932C20.1038 14.3507 20.9851 13.2367 21.6609 11.9988C21.0819 10.9374 20.3518 9.96567 19.4934 9.11415C17.4066 7.0479 14.8856 5.99884 12 5.99884C11.392 5.9981 10.7849 6.04733 10.185 6.14603C10.0874 6.16328 9.98741 6.16104 9.89073 6.13942C9.79404 6.1178 9.70259 6.07723 9.62167 6.02007C9.54074 5.96291 9.47195 5.89028 9.41925 5.80638C9.36656 5.72247 9.33101 5.62896 9.31466 5.53124C9.29832 5.43353 9.30149 5.33354 9.32401 5.23705C9.34652 5.14057 9.38793 5.0495 9.44584 4.96911C9.50375 4.88872 9.57702 4.8206 9.6614 4.76869C9.74579 4.71678 9.83963 4.6821 9.93749 4.66665C10.6192 4.55409 11.309 4.49797 12 4.49884C15.27 4.49884 18.2409 5.74197 20.5931 8.09415C22.3584 9.85947 23.1525 11.621 23.1853 11.6951C23.2279 11.791 23.25 11.8948 23.25 11.9998C23.25 12.1047 23.2279 12.2085 23.1853 12.3045H23.1825Z" fill="#9DAEC3"/>
</svg>
