<svg width="72" height="72" viewBox="0 0 72 72" fill="none" xmlns="http://www.w3.org/2000/svg">
<path d="M64.592 32.1599L37.592 5.15989C37.383 4.9507 37.1349 4.78474 36.8617 4.67151C36.5886 4.55828 36.2958 4.5 36.0001 4.5C35.7044 4.5 35.4117 4.55828 35.1385 4.67151C34.8654 4.78474 34.6172 4.9507 34.4082 5.15989L7.40825 32.1599C7.09322 32.4746 6.87865 32.8756 6.79168 33.3123C6.70472 33.749 6.74928 34.2017 6.91972 34.613C7.09017 35.0244 7.37883 35.3759 7.74916 35.6231C8.1195 35.8703 8.55486 36.0021 9.00012 36.0018H20.2501V42.7518C20.2501 43.3485 20.4872 43.9208 20.9091 44.3428C21.3311 44.7647 21.9034 45.0018 22.5001 45.0018H49.5001C50.0969 45.0018 50.6692 44.7647 51.0911 44.3428C51.5131 43.9208 51.7501 43.3485 51.7501 42.7518V36.0018H63.0001C63.4454 36.0021 63.8808 35.8703 64.2511 35.6231C64.6214 35.3759 64.9101 35.0244 65.0805 34.613C65.251 34.2017 65.2955 33.749 65.2086 33.3123C65.1216 32.8756 64.907 32.4746 64.592 32.1599Z" fill="#9DAEC3"/>
<rect x="20.2" y="48" width="31.6" height="5" rx="2.5" fill="#9DAEC3" fill-opacity="0.5"/>
<rect x="20.2" y="56" width="31.6" height="5" rx="2.5" fill="#9DAEC3" fill-opacity="0.3"/>
<rect x="20.2" y="64" width="31.6" height="5" rx="2.5" fill="#9DAEC3" fill-opacity="0.15"/>
</svg>
