<svg width="48" height="48" viewBox="0 0 48 48" fill="none" xmlns="http://www.w3.org/2000/svg">
    <path d="M39.795 15.705L29.295 5.205C29.0842 4.99396 28.7983 4.87526 28.5 4.875H10.5C9.80381 4.875 9.13613 5.15156 8.64384 5.64384C8.15156 6.13613 7.875 6.80381 7.875 7.5V40.5C7.875 41.1962 8.15156 41.8639 8.64384 42.3562C9.13613 42.8484 9.80381 43.125 10.5 43.125H37.5C38.1962 43.125 38.8639 42.8484 39.3562 42.3562C39.8484 41.8639 40.125 41.1962 40.125 40.5V16.5C40.1247 16.2017 40.006 15.9158 39.795 15.705ZM29.625 8.715L36.285 15.375H29.625V8.715ZM37.5 40.875H10.5C10.4005 40.875 10.3052 40.8355 10.2348 40.7652C10.1645 40.6948 10.125 40.5995 10.125 40.5V7.5C10.125 7.40054 10.1645 7.30516 10.2348 7.23483C10.3052 7.16451 10.4005 7.125 10.5 7.125H27.375V16.5C27.375 16.7984 27.4935 17.0845 27.7045 17.2955C27.9155 17.5065 28.2016 17.625 28.5 17.625H37.875V40.5C37.875 40.5995 37.8355 40.6948 37.7652 40.7652C37.6948 40.8355 37.5995 40.875 37.5 40.875Z" fill="#9DAEC3"/>
</svg>
