<svg width="16" height="16" viewBox="0 0 16 16" fill="none" xmlns="http://www.w3.org/2000/svg">
        <path d="M11 9H9.50002C9.36741 9 9.24024 8.94732 9.14647 8.85355C9.0527 8.75979 9.00002 8.63261 9.00002 8.5C9.00002 8.36739 9.0527 8.24021 9.14647 8.14645C9.24024 8.05268 9.36741 8 9.50002 8H11C11.1326 8 11.2598 8.05268 11.3536 8.14645C11.4473 8.24021 11.5 8.36739 11.5 8.5C11.5 8.63261 11.4473 8.75979 11.3536 8.85355C11.2598 8.94732 11.1326 9 11 9ZM6.50002 8H6.00002V7.5C6.00002 7.36739 5.94734 7.24021 5.85358 7.14645C5.75981 7.05268 5.63263 7 5.50002 7C5.36741 7 5.24024 7.05268 5.14647 7.14645C5.0527 7.24021 5.00002 7.36739 5.00002 7.5V8H4.50002C4.36741 8 4.24024 8.05268 4.14647 8.14645C4.0527 8.24021 4.00002 8.36739 4.00002 8.5C4.00002 8.63261 4.0527 8.75979 4.14647 8.85355C4.24024 8.94732 4.36741 9 4.50002 9H5.00002V9.5C5.00002 9.63261 5.0527 9.75979 5.14647 9.85355C5.24024 9.94732 5.36741 10 5.50002 10C5.63263 10 5.75981 9.94732 5.85358 9.85355C5.94734 9.75979 6.00002 9.63261 6.00002 9.5V9H6.50002C6.63263 9 6.75981 8.94732 6.85358 8.85355C6.94734 8.75979 7.00002 8.63261 7.00002 8.5C7.00002 8.36739 6.94734 8.24021 6.85358 8.14645C6.75981 8.05268 6.63263 8 6.50002 8ZM15.0925 14.5406C14.9041 14.8097 14.659 15.0343 14.3745 15.1985C14.09 15.3628 13.773 15.4628 13.4457 15.4914C13.1185 15.5201 12.7889 15.4767 12.4802 15.3644C12.1715 15.2521 11.8911 15.0735 11.6588 14.8413C11.6513 14.8338 11.6438 14.8263 11.6369 14.8181L9.15502 12H6.84252L4.36315 14.8181L4.34127 14.8413C3.9189 15.2627 3.3467 15.4996 2.75002 15.5C2.42155 15.4999 2.09708 15.4278 1.79942 15.2889C1.50175 15.15 1.23811 14.9476 1.02701 14.696C0.815916 14.4443 0.66248 14.1495 0.577484 13.8322C0.492489 13.5149 0.477995 13.1829 0.535022 12.8594C0.534721 12.8565 0.534721 12.8535 0.535022 12.8506L1.55815 7.595C1.71042 6.72817 2.16331 5.94273 2.83724 5.3767C3.51118 4.81066 4.36304 4.50025 5.24315 4.5H10.75C11.6275 4.5014 12.4767 4.81004 13.1503 5.37233C13.8239 5.93462 14.2794 6.71505 14.4375 7.57812C14.4375 7.58188 14.4375 7.58562 14.4375 7.58938L15.4606 12.85C15.4609 12.8529 15.4609 12.8558 15.4606 12.8588C15.5136 13.1495 15.5083 13.4479 15.4451 13.7366C15.3819 14.0253 15.2621 14.2986 15.0925 14.5406ZM10.75 11C11.4794 11 12.1788 10.7103 12.6946 10.1945C13.2103 9.67882 13.5 8.97935 13.5 8.25C13.5 7.52065 13.2103 6.82118 12.6946 6.30546C12.1788 5.78973 11.4794 5.5 10.75 5.5H5.24315C4.59749 5.50058 3.97272 5.72883 3.47876 6.14461C2.98479 6.56038 2.65327 7.13704 2.54252 7.77313V7.78125L1.51877 13.0369C1.47352 13.2974 1.51207 13.5656 1.62888 13.8029C1.74569 14.0401 1.93474 14.2343 2.16884 14.3573C2.40294 14.4803 2.67003 14.5259 2.93169 14.4875C3.19335 14.4492 3.4361 14.3288 3.62502 14.1438L6.24502 11.1694C6.29193 11.1162 6.34964 11.0735 6.41429 11.0443C6.47895 11.0151 6.54908 11 6.62002 11H10.75ZM14.4813 13.0369L13.935 10.2244C13.5991 10.7669 13.1302 11.2147 12.5729 11.5254C12.0155 11.8361 11.3881 11.9995 10.75 12H10.4875L12.375 14.1444C12.5173 14.2828 12.6904 14.3855 12.8801 14.4441C13.0698 14.5026 13.2707 14.5154 13.4663 14.4812C13.7921 14.4237 14.0818 14.2394 14.2719 13.9687C14.4621 13.6979 14.5371 13.3629 14.4806 13.0369H14.4813Z" fill="#D7E3EF"/>
</svg>
