<svg width="16" height="16" viewBox="0 0 16 16" fill="none" xmlns="http://www.w3.org/2000/svg">
    <path d="M8.00012 5.00129C7.40677 5.00129 6.82676 5.17724 6.33341 5.50688C5.84006 5.83653 5.45554 6.30506 5.22848 6.85324C5.00142 7.40142 4.94201 8.00462 5.05776 8.58656C5.17352 9.1685 5.45924 9.70305 5.8788 10.1226C6.29836 10.5422 6.8329 10.8279 7.41485 10.9436C7.99679 11.0594 8.59999 11 9.14817 10.7729C9.69635 10.5459 10.1649 10.1613 10.4945 9.668C10.8242 9.17465 11.0001 8.59463 11.0001 8.00129C10.9993 7.20589 10.683 6.44331 10.1205 5.88088C9.5581 5.31845 8.79551 5.00212 8.00012 5.00129ZM8.00012 10.0013C7.60456 10.0013 7.21788 9.88399 6.88898 9.66423C6.56008 9.44447 6.30373 9.13211 6.15236 8.76666C6.00098 8.4012 5.96138 7.99907 6.03855 7.61111C6.11572 7.22315 6.3062 6.86678 6.58591 6.58708C6.86561 6.30737 7.22198 6.11689 7.60994 6.03972C7.9979 5.96255 8.40003 6.00216 8.76549 6.15353C9.13094 6.30491 9.4433 6.56125 9.66306 6.89015C9.88282 7.21905 10.0001 7.60573 10.0001 8.00129C10.0001 8.53172 9.78941 9.04043 9.41433 9.4155C9.03926 9.79058 8.53055 10.0013 8.00012 10.0013ZM14.8714 6.70192C14.8574 6.63151 14.8285 6.56492 14.7866 6.50668C14.7446 6.44845 14.6906 6.39992 14.6282 6.36442L12.7639 5.30191L12.7564 3.20066C12.7561 3.1283 12.7402 3.05684 12.7097 2.99124C12.6791 2.92563 12.6347 2.86743 12.5795 2.82067C11.9032 2.2486 11.1244 1.81021 10.2845 1.52879C10.2184 1.5064 10.1483 1.49812 10.0787 1.50447C10.0092 1.51082 9.94174 1.53167 9.88074 1.56567L8.00012 2.61691L6.11762 1.56379C6.05659 1.5296 5.98906 1.5086 5.91941 1.50214C5.84975 1.49568 5.77952 1.50391 5.71324 1.52629C4.87396 1.80976 4.09605 2.24983 3.42074 2.82317C3.3656 2.86986 3.32123 2.92796 3.2907 2.99345C3.26016 3.05895 3.24419 3.13028 3.24387 3.20254L3.23449 5.30567L1.37012 6.36817C1.30774 6.40368 1.25375 6.4522 1.21179 6.51043C1.16984 6.56867 1.14092 6.63526 1.12699 6.70567C0.956367 7.56309 0.956367 8.44574 1.12699 9.30317C1.14092 9.37357 1.16984 9.44016 1.21179 9.4984C1.25375 9.55663 1.30774 9.60516 1.37012 9.64067L3.23449 10.7032L3.24199 12.8044C3.24222 12.8768 3.25815 12.9482 3.28869 13.0138C3.31923 13.0795 3.36364 13.1376 3.41887 13.1844C4.09516 13.7565 4.87397 14.1949 5.71387 14.4763C5.78001 14.4987 5.85011 14.507 5.91965 14.5006C5.98919 14.4943 6.05663 14.4734 6.11762 14.4394L8.00012 13.3857L9.88262 14.4388C9.95712 14.4803 10.0411 14.5018 10.1264 14.5013C10.181 14.5013 10.2352 14.4924 10.287 14.475C11.1262 14.1919 11.9041 13.7523 12.5795 13.1794C12.6346 13.1327 12.679 13.0746 12.7095 13.0091C12.7401 12.9436 12.7561 12.8723 12.7564 12.8L12.7657 10.6969L14.6301 9.63442C14.6925 9.59891 14.7465 9.55038 14.7884 9.49215C14.8304 9.43391 14.8593 9.36732 14.8732 9.29692C15.0429 8.44017 15.0423 7.55841 14.8714 6.70192ZM13.9339 8.88379L12.1482 9.89942C12.07 9.9439 12.0052 10.0087 11.9607 10.0869C11.9245 10.1494 11.8864 10.2157 11.8476 10.2782C11.798 10.357 11.7716 10.4482 11.7714 10.5413L11.762 12.5569C11.282 12.9338 10.7473 13.2352 10.1764 13.4507L8.37512 12.4469C8.30034 12.4055 8.2162 12.384 8.13074 12.3844H8.11887C8.04324 12.3844 7.96699 12.3844 7.89137 12.3844C7.80192 12.3822 7.71349 12.4037 7.63512 12.4469L5.83262 13.4532C5.26044 13.2394 4.72426 12.9395 4.24262 12.5638L4.23574 10.5513C4.23544 10.458 4.20902 10.3666 4.15949 10.2875C4.12074 10.225 4.08262 10.1625 4.04699 10.0963C4.00282 10.0168 3.93805 9.95078 3.85949 9.90504L2.07199 8.88692C1.97949 8.3018 1.97949 7.70578 2.07199 7.12067L3.85449 6.10317C3.93273 6.05868 3.99751 5.9939 4.04199 5.91567C4.07824 5.85317 4.11637 5.78692 4.15512 5.72442C4.20472 5.6456 4.23114 5.55442 4.23137 5.46129L4.24074 3.44567C4.7207 3.06876 5.25541 2.76736 5.82637 2.55192L7.62512 3.55567C7.7034 3.59906 7.7919 3.62064 7.88137 3.61817C7.95699 3.61817 8.03324 3.61817 8.10887 3.61817C8.19831 3.6204 8.28675 3.59883 8.36512 3.55567L10.1676 2.54942C10.7398 2.76321 11.276 3.06313 11.7576 3.43879L11.7645 5.45129C11.7648 5.5446 11.7912 5.63596 11.8407 5.71504C11.8795 5.77754 11.9176 5.84004 11.9532 5.90629C11.9974 5.98574 12.0622 6.0518 12.1407 6.09754L13.9282 7.11567C14.022 7.70123 14.023 8.2979 13.9314 8.88379H13.9339Z" fill="white"/>
</svg>
