<svg width="32" height="32" viewBox="0 0 32 32" fill="none" xmlns="http://www.w3.org/2000/svg">
<mask id="path-1-inside-1_3127_652" fill="white">
<path d="M0 8C0 3.58172 3.58172 0 8 0H24C28.4183 0 32 3.58172 32 8V24C32 28.4183 28.4183 32 24 32H8C3.58172 32 0 28.4183 0 24V8Z"/>
</mask>
<path d="M8 0V1H24V0V-1H8V0ZM32 8H31V24H32H33V8H32ZM24 32V31H8V32V33H24V32ZM0 24H1V8H0H-1V24H0ZM8 32V31C4.13401 31 1 27.866 1 24H0H-1C-1 28.9706 3.02944 33 8 33V32ZM32 24H31C31 27.866 27.866 31 24 31V32V33C28.9706 33 33 28.9706 33 24H32ZM24 0V1C27.866 1 31 4.13401 31 8H32H33C33 3.02944 28.9706 -1 24 -1V0ZM8 0V-1C3.02944 -1 -1 3.02944 -1 8H0H1C1 4.13401 4.13401 1 8 1V0Z" fill="#D7E3EF" mask="url(#path-1-inside-1_3127_652)"/>
<g clip-path="url(#clip0_3127_652)">
<path d="M16 8C11.5887 8 8 11.5887 8 16C8 20.4113 11.5887 24 16 24C20.4113 24 24 20.4113 24 16C24 11.5887 20.4113 8 16 8ZM22.6327 15.3333H20.3153C20.2233 13.1933 19.6947 11.32 18.888 10.0007C20.93 10.988 22.398 12.9787 22.6327 15.3333ZM15.3333 9.53333V15.3333H13.0167C13.156 12.354 14.21 10.1733 15.3333 9.53333ZM15.3333 16.6667V22.4667C14.21 21.8267 13.156 19.646 13.0167 16.6667H15.3333ZM16.6667 22.4667V16.6667H18.9833C18.844 19.646 17.79 21.8267 16.6667 22.4667ZM16.6667 15.3333V9.53333C17.79 10.1733 18.844 12.354 18.9833 15.3333H16.6667ZM13.1113 10.0007C12.3053 11.32 11.776 13.1933 11.684 15.3333H9.36733C9.602 12.9787 11.07 10.988 13.1113 10.0007ZM9.36733 16.6667H11.6847C11.7767 18.8067 12.3053 20.68 13.112 21.9993C11.07 21.012 9.602 19.0213 9.36733 16.6667ZM18.8887 21.9993C19.6947 20.68 20.224 18.8067 20.316 16.6667H22.6333C22.398 19.0213 20.93 21.012 18.8887 21.9993Z" fill="#959EA3"/>
</g>
<path d="M13 27C13 26.4477 13.4477 26 14 26H18C18.5523 26 19 26.4477 19 27C19 27.5523 18.5523 28 18 28H14C13.4477 28 13 27.5523 13 27Z" fill="#959EA3"/>
<defs>
<clipPath id="clip0_3127_652">
<rect width="16" height="16" fill="white" transform="translate(8 8)"/>
</clipPath>
</defs>
</svg>