<svg width="32" height="32" viewBox="0 0 32 32" fill="none" xmlns="http://www.w3.org/2000/svg">
<path d="M0 8C0 3.58172 3.58172 0 8 0H24C28.4183 0 32 3.58172 32 8V24C32 28.4183 28.4183 32 24 32H8C3.58172 32 0 28.4183 0 24V8Z" fill="#D7E3EF"/>
<path d="M14 13.3332C14.3682 13.3332 14.6667 13.0347 14.6667 12.6665C14.6667 12.2983 14.3682 11.9998 14 11.9998C13.6318 11.9998 13.3333 12.2983 13.3333 12.6665C13.3333 13.0347 13.6318 13.3332 14 13.3332Z" fill="#131416"/>
<path d="M22 19.9998C22 20.368 21.7015 20.6665 21.3333 20.6665C20.9651 20.6665 20.6667 20.368 20.6667 19.9998C20.6667 19.6316 20.9651 19.3332 21.3333 19.3332C21.7015 19.3332 22 19.6316 22 19.9998Z" fill="#131416"/>
<path fill-rule="evenodd" clip-rule="evenodd" d="M14.8954 17.3332L9.90528 12.343L13.6765 8.57178L23.1046 17.9999L23.0977 18.0003C23.651 18.4889 24 19.2036 24 19.9998C24 21.4726 22.8061 22.6665 21.3333 22.6665H8V17.3332H14.8954ZM11.7909 12.343L13.6765 10.4574L20.5523 17.3332H16.7811L11.7909 12.343ZM9.33333 18.6665H21.3333C22.0697 18.6665 22.6667 19.2635 22.6667 19.9998C22.6667 20.7362 22.0697 21.3332 21.3333 21.3332H9.33333V18.6665Z" fill="#131416"/>
<path d="M13 27C13 26.4477 13.4477 26 14 26H18C18.5523 26 19 26.4477 19 27C19 27.5523 18.5523 28 18 28H14C13.4477 28 13 27.5523 13 27Z" fill="#24D4AB"/>
</svg>
