<svg width="32" height="32" viewBox="0 0 32 32" fill="none" xmlns="http://www.w3.org/2000/svg">
<mask id="path-1-inside-1_3127_1060" fill="white">
<path d="M0 8C0 3.58172 3.58172 0 8 0H24C28.4183 0 32 3.58172 32 8V24C32 28.4183 28.4183 32 24 32H8C3.58172 32 0 28.4183 0 24V8Z"/>
</mask>
<path d="M8 0V1H24V0V-1H8V0ZM32 8H31V24H32H33V8H32ZM24 32V31H8V32V33H24V32ZM0 24H1V8H0H-1V24H0ZM8 32V31C4.13401 31 1 27.866 1 24H0H-1C-1 28.9706 3.02944 33 8 33V32ZM32 24H31C31 27.866 27.866 31 24 31V32V33C28.9706 33 33 28.9706 33 24H32ZM24 0V1C27.866 1 31 4.13401 31 8H32H33C33 3.02944 28.9706 -1 24 -1V0ZM8 0V-1C3.02944 -1 -1 3.02944 -1 8H0H1C1 4.13401 4.13401 1 8 1V0Z" fill="#D7E3EF" mask="url(#path-1-inside-1_3127_1060)"/>
<path d="M14 13.3333C14.3682 13.3333 14.6667 13.0348 14.6667 12.6666C14.6667 12.2984 14.3682 12 14 12C13.6318 12 13.3333 12.2984 13.3333 12.6666C13.3333 13.0348 13.6318 13.3333 14 13.3333Z" fill="#959EA3"/>
<path d="M22 20C22 20.3681 21.7015 20.6666 21.3333 20.6666C20.9651 20.6666 20.6667 20.3681 20.6667 20C20.6667 19.6318 20.9651 19.3333 21.3333 19.3333C21.7015 19.3333 22 19.6318 22 20Z" fill="#959EA3"/>
<path fill-rule="evenodd" clip-rule="evenodd" d="M14.8954 17.3333L9.90528 12.3431L13.6765 8.5719L23.1046 18L23.0977 18.0004C23.651 18.489 24 19.2037 24 20C24 21.4727 22.8061 22.6666 21.3333 22.6666H8V17.3333H14.8954ZM11.7909 12.3431L13.6765 10.4575L20.5523 17.3333H16.7811L11.7909 12.3431ZM9.33333 18.6666H21.3333C22.0697 18.6666 22.6667 19.2636 22.6667 20C22.6667 20.7363 22.0697 21.3333 21.3333 21.3333H9.33333V18.6666Z" fill="#959EA3"/>
<path d="M13 27C13 26.4477 13.4477 26 14 26H18C18.5523 26 19 26.4477 19 27C19 27.5523 18.5523 28 18 28H14C13.4477 28 13 27.5523 13 27Z" fill="#959EA3"/>
</svg>
