<svg width="12" height="12" viewBox="0 0 12 12" fill="none" xmlns="http://www.w3.org/2000/svg">
<path d="M4.5 4C4.77614 4 5 3.77614 5 3.5C5 3.22386 4.77614 3 4.5 3C4.22386 3 4 3.22386 4 3.5C4 3.77614 4.22386 4 4.5 4Z" fill="white"/>
<path d="M10.5 9C10.5 9.27614 10.2761 9.5 10 9.5C9.72386 9.5 9.5 9.27614 9.5 9C9.5 8.72386 9.72386 8.5 10 8.5C10.2761 8.5 10.5 8.72386 10.5 9Z" fill="white"/>
<path fill-rule="evenodd" clip-rule="evenodd" d="M5.17158 7L1.42896 3.25738L4.25739 0.428955L11.3285 7.50002L11.3233 7.50034C11.7383 7.8668 12 8.40284 12 9C12 10.1046 11.1046 11 10 11H0V7H5.17158ZM2.84317 3.25738L4.25739 1.84317L9.41422 7H6.58579L2.84317 3.25738ZM1 8H10C10.5523 8 11 8.44772 11 9C11 9.55228 10.5523 10 10 10H1V8Z" fill="white"/>
</svg>
