<svg width="36" height="36" viewBox="0 0 36 36" fill="none" xmlns="http://www.w3.org/2000/svg">
<path d="M0 8C0 3.58172 3.58172 0 8 0H28C32.4183 0 36 3.58172 36 8V28C36 32.4183 32.4183 36 28 36H8C3.58172 36 0 32.4183 0 28V8Z" fill="black" fill-opacity="0.1"/>
<path d="M8 21.7809V26.75H15.5229V25.648H9.0961V21.7809H8ZM26.9039 21.7809V25.648H20.4771V26.7497H28V21.7809H26.9039ZM15.5338 14.2191V21.7807H20.4771V20.7869H16.6299V14.2191H15.5338ZM8 9.25V14.2191H9.0961V10.3517H15.5229V9.25H8ZM20.4771 9.25V10.3517H26.9039V14.2191H28V9.25H20.4771Z" fill="#131416"/>
</svg>
