<svg width="24" height="24" viewBox="0 0 24 24" fill="none" xmlns="http://www.w3.org/2000/svg">
    <path d="M7.5 11.25H16.5C16.6989 11.25 16.8897 11.329 17.0303 11.4697C17.171 11.6103 17.25 11.8011 17.25 12C17.25 12.1989 17.171 12.3897 17.0303 12.5303C16.8897 12.671 16.6989 12.75 16.5 12.75H7.5C7.30109 12.75 7.11032 12.671 6.96967 12.5303C6.82902 12.3897 6.75 12.1989 6.75 12C6.75 11.8011 6.82902 11.6103 6.96967 11.4697C7.11032 11.329 7.30109 11.25 7.5 11.25ZM9.75 15.75H6C5.00544 15.75 4.05161 15.3549 3.34835 14.6517C2.64509 13.9484 2.25 12.9946 2.25 12C2.25 11.0054 2.64509 10.0516 3.34835 9.34835C4.05161 8.64509 5.00544 8.25 6 8.25H9.75C9.94891 8.25 10.1397 8.17098 10.2803 8.03033C10.421 7.88968 10.5 7.69891 10.5 7.5C10.5 7.30109 10.421 7.11032 10.2803 6.96967C10.1397 6.82902 9.94891 6.75 9.75 6.75H6C4.60761 6.75 3.27226 7.30312 2.28769 8.28769C1.30312 9.27226 0.75 10.6076 0.75 12C0.75 13.3924 1.30312 14.7277 2.28769 15.7123C3.27226 16.6969 4.60761 17.25 6 17.25H9.75C9.94891 17.25 10.1397 17.171 10.2803 17.0303C10.421 16.8897 10.5 16.6989 10.5 16.5C10.5 16.3011 10.421 16.1103 10.2803 15.9697C10.1397 15.829 9.94891 15.75 9.75 15.75ZM18 6.75H14.25C14.0511 6.75 13.8603 6.82902 13.7197 6.96967C13.579 7.11032 13.5 7.30109 13.5 7.5C13.5 7.69891 13.579 7.88968 13.7197 8.03033C13.8603 8.17098 14.0511 8.25 14.25 8.25H18C18.9946 8.25 19.9484 8.64509 20.6516 9.34835C21.3549 10.0516 21.75 11.0054 21.75 12C21.75 12.9946 21.3549 13.9484 20.6516 14.6517C19.9484 15.3549 18.9946 15.75 18 15.75H14.25C14.0511 15.75 13.8603 15.829 13.7197 15.9697C13.579 16.1103 13.5 16.3011 13.5 16.5C13.5 16.6989 13.579 16.8897 13.7197 17.0303C13.8603 17.171 14.0511 17.25 14.25 17.25H18C19.3924 17.25 20.7277 16.6969 21.7123 15.7123C22.6969 14.7277 23.25 13.3924 23.25 12C23.25 10.6076 22.6969 9.27226 21.7123 8.28769C20.7277 7.30312 19.3924 6.75 18 6.75Z" fill="white"/>
</svg>
