<svg width="16" height="16" viewBox="0 0 16 16" fill="none" xmlns="http://www.w3.org/2000/svg">
    <path d="M14.3539 13.6464L11.2245 10.5176C12.1315 9.42871 12.5838 8.03201 12.4873 6.6181C12.3908 5.20419 11.7528 3.88193 10.7062 2.92637C9.65963 1.97082 8.28492 1.45555 6.86808 1.48775C5.45125 1.51995 4.10137 2.09714 3.09926 3.09926C2.09714 4.10137 1.51995 5.45125 1.48775 6.86808C1.45555 8.28492 1.97082 9.65963 2.92637 10.7062C3.88193 11.7528 5.20419 12.3908 6.6181 12.4873C8.03201 12.5838 9.42871 12.1315 10.5176 11.2245L13.6464 14.3539C13.6928 14.4003 13.748 14.4372 13.8087 14.4623C13.8694 14.4875 13.9344 14.5004 14.0001 14.5004C14.0658 14.5004 14.1309 14.4875 14.1916 14.4623C14.2523 14.4372 14.3074 14.4003 14.3539 14.3539C14.4003 14.3074 14.4372 14.2523 14.4623 14.1916C14.4875 14.1309 14.5004 14.0658 14.5004 14.0001C14.5004 13.9344 14.4875 13.8694 14.4623 13.8087C14.4372 13.748 14.4003 13.6928 14.3539 13.6464ZM2.50014 7.00014C2.50014 6.11013 2.76406 5.2401 3.25853 4.50008C3.753 3.76006 4.4558 3.18328 5.27807 2.84268C6.10033 2.50209 7.00513 2.41298 7.87805 2.58661C8.75096 2.76024 9.55279 3.18883 10.1821 3.81816C10.8115 4.4475 11.24 5.24932 11.4137 6.12224C11.5873 6.99515 11.4982 7.89995 11.1576 8.72222C10.817 9.54449 10.2402 10.2473 9.50021 10.7418C8.76019 11.2362 7.89016 11.5001 7.00014 11.5001C5.80707 11.4988 4.66325 11.0243 3.81962 10.1807C2.976 9.33704 2.50147 8.19321 2.50014 7.00014Z" fill="#71797E"/>
</svg>
