<svg width="16" height="16" viewBox="0 0 16 16" fill="none" xmlns="http://www.w3.org/2000/svg">
    <g opacity="0.5">
        <path d="M5.625 6C5.625 5.90054 5.66451 5.80516 5.73484 5.73484C5.80516 5.66451 5.90054 5.625 6 5.625H10C10.0995 5.625 10.1948 5.66451 10.2652 5.73484C10.3355 5.80516 10.375 5.90054 10.375 6C10.375 6.09946 10.3355 6.19484 10.2652 6.26516C10.1948 6.33549 10.0995 6.375 10 6.375H6C5.90054 6.375 5.80516 6.33549 5.73484 6.26516C5.66451 6.19484 5.625 6.09946 5.625 6ZM6 8.375H10C10.0995 8.375 10.1948 8.33549 10.2652 8.26517C10.3355 8.19484 10.375 8.09946 10.375 8C10.375 7.90054 10.3355 7.80516 10.2652 7.73484C10.1948 7.66451 10.0995 7.625 10 7.625H6C5.90054 7.625 5.80516 7.66451 5.73484 7.73484C5.66451 7.80516 5.625 7.90054 5.625 8C5.625 8.09946 5.66451 8.19484 5.73484 8.26517C5.80516 8.33549 5.90054 8.375 6 8.375ZM8 9.625H6C5.90054 9.625 5.80516 9.66451 5.73484 9.73483C5.66451 9.80516 5.625 9.90054 5.625 10C5.625 10.0995 5.66451 10.1948 5.73484 10.2652C5.80516 10.3355 5.90054 10.375 6 10.375H8C8.09946 10.375 8.19484 10.3355 8.26517 10.2652C8.33549 10.1948 8.375 10.0995 8.375 10C8.375 9.90054 8.33549 9.80516 8.26517 9.73483C8.19484 9.66451 8.09946 9.625 8 9.625ZM13.875 3V9.79313C13.8752 9.90807 13.8527 10.0219 13.8087 10.1281C13.7647 10.2343 13.7002 10.3307 13.6187 10.4119L10.4119 13.6187C10.3307 13.7002 10.2343 13.7647 10.1281 13.8087C10.0219 13.8527 9.90807 13.8752 9.79313 13.875H3C2.76794 13.875 2.54538 13.7828 2.38128 13.6187C2.21719 13.4546 2.125 13.2321 2.125 13V3C2.125 2.76794 2.21719 2.54538 2.38128 2.38128C2.54538 2.21719 2.76794 2.125 3 2.125H13C13.2321 2.125 13.4546 2.21719 13.6187 2.38128C13.7828 2.54538 13.875 2.76794 13.875 3ZM3 13.125H9.625V10C9.625 9.90054 9.66451 9.80516 9.73483 9.73483C9.80516 9.66451 9.90054 9.625 10 9.625H13.125V3C13.125 2.96685 13.1118 2.93505 13.0884 2.91161C13.0649 2.88817 13.0332 2.875 13 2.875H3C2.96685 2.875 2.93505 2.88817 2.91161 2.91161C2.88817 2.93505 2.875 2.96685 2.875 3V13C2.875 13.0332 2.88817 13.0649 2.91161 13.0884C2.93505 13.1118 2.96685 13.125 3 13.125ZM12.595 10.375H10.375V12.595L12.595 10.375Z" fill="#D7E3EF"/>
    </g>
</svg>
