<svg width="24" height="24" viewBox="0 0 24 24" fill="none" xmlns="http://www.w3.org/2000/svg">
    <path d="M4.5 5.25V18.75C4.5 18.9489 4.42098 19.1397 4.28033 19.2803C4.13968 19.421 3.94891 19.5 3.75 19.5C3.55109 19.5 3.36032 19.421 3.21967 19.2803C3.07902 19.1397 3 18.9489 3 18.75V5.25C3 5.05109 3.07902 4.86032 3.21967 4.71967C3.36032 4.57902 3.55109 4.5 3.75 4.5C3.94891 4.5 4.13968 4.57902 4.28033 4.71967C4.42098 4.86032 4.5 5.05109 4.5 5.25ZM13.125 10.3594L11.25 10.9688V9C11.25 8.80109 11.171 8.61032 11.0303 8.46967C10.8897 8.32902 10.6989 8.25 10.5 8.25C10.3011 8.25 10.1103 8.32902 9.96967 8.46967C9.82902 8.61032 9.75 8.80109 9.75 9V10.9688L7.875 10.3594C7.68578 10.2972 7.47963 10.3128 7.30188 10.4026C7.12413 10.4924 6.98935 10.6492 6.92719 10.8384C6.86503 11.0277 6.88058 11.2338 6.97042 11.4116C7.06026 11.5893 7.21703 11.7241 7.40625 11.7863L9.28125 12.3947L8.12438 13.9884C8.06324 14.0679 8.01864 14.1588 7.99323 14.2557C7.96782 14.3527 7.9621 14.4538 7.97642 14.553C7.99073 14.6522 8.02479 14.7475 8.07658 14.8334C8.12837 14.9192 8.19683 14.9938 8.27793 15.0527C8.35903 15.1116 8.45112 15.1536 8.54875 15.1764C8.64638 15.1991 8.74758 15.202 8.84636 15.1849C8.94514 15.1679 9.03949 15.1312 9.12385 15.077C9.20821 15.0229 9.28086 14.9524 9.3375 14.8697L10.4944 13.2759L11.6512 14.8697C11.7079 14.9524 11.7805 15.0229 11.8649 15.077C11.9493 15.1312 12.0436 15.1679 12.1424 15.1849C12.2412 15.202 12.3424 15.1991 12.44 15.1764C12.5376 15.1536 12.6297 15.1116 12.7108 15.0527C12.7919 14.9938 12.8604 14.9192 12.9122 14.8334C12.964 14.7475 12.998 14.6522 13.0123 14.553C13.0266 14.4538 13.0209 14.3527 12.9955 14.2557C12.9701 14.1588 12.9255 14.0679 12.8644 13.9884L11.7075 12.3947L13.5825 11.7863C13.7634 11.719 13.9113 11.5846 13.9956 11.411C14.08 11.2375 14.0941 11.0381 14.0352 10.8543C13.9763 10.6706 13.8488 10.5166 13.6793 10.4244C13.5098 10.3322 13.3113 10.3089 13.125 10.3594ZM23.0625 10.8412C23.001 10.6538 22.8682 10.498 22.6927 10.4078C22.5172 10.3176 22.3132 10.3002 22.125 10.3594L20.25 10.9688V9C20.25 8.80109 20.171 8.61032 20.0303 8.46967C19.8897 8.32902 19.6989 8.25 19.5 8.25C19.3011 8.25 19.1103 8.32902 18.9697 8.46967C18.829 8.61032 18.75 8.80109 18.75 9V10.9688L16.875 10.3603C16.6858 10.2988 16.4799 10.3149 16.3026 10.4052C16.1253 10.4955 15.9911 10.6525 15.9295 10.8417C15.868 11.0309 15.8841 11.2368 15.9744 11.4142C16.0647 11.5915 16.2217 11.7256 16.4109 11.7872L18.2859 12.3956L17.1291 13.9894C17.0679 14.0688 17.0233 14.1597 16.9979 14.2567C16.9725 14.3536 16.9668 14.4547 16.9811 14.5539C16.9954 14.6531 17.0295 14.7485 17.0813 14.8343C17.1331 14.9201 17.2015 14.9947 17.2826 15.0536C17.3637 15.1125 17.4558 15.1546 17.5534 15.1773C17.6511 15.2 17.7523 15.2029 17.851 15.1859C17.9498 15.1688 18.0442 15.1321 18.1285 15.078C18.2129 15.0238 18.2855 14.9533 18.3422 14.8706L19.4991 13.2769L20.6559 14.8706C20.7126 14.9533 20.7852 15.0238 20.8696 15.078C20.9539 15.1321 21.0483 15.1688 21.1471 15.1859C21.2459 15.2029 21.3471 15.2 21.4447 15.1773C21.5423 15.1546 21.6344 15.1125 21.7155 15.0536C21.7966 14.9947 21.8651 14.9201 21.9169 14.8343C21.9686 14.7485 22.0027 14.6531 22.017 14.5539C22.0313 14.4547 22.0256 14.3536 22.0002 14.2567C21.9748 14.1597 21.9302 14.0688 21.8691 13.9894L20.7122 12.3956L22.5872 11.7872C22.7754 11.7245 22.9311 11.5897 23.0202 11.4124C23.1093 11.2351 23.1245 11.0297 23.0625 10.8412Z" fill="white"/>
</svg>
