<svg width="24" height="24" viewBox="0 0 24 24" fill="none" xmlns="http://www.w3.org/2000/svg">
    <path d="M19.2808 5.78038L5.78084 19.2804C5.64011 19.4211 5.44924 19.5002 5.25022 19.5002C5.0512 19.5002 4.86033 19.4211 4.71959 19.2804C4.57886 19.1396 4.4998 18.9488 4.4998 18.7498C4.4998 18.5507 4.57886 18.3599 4.71959 18.2191L18.2196 4.71913C18.3602 4.5784 18.551 4.49928 18.7499 4.4992C18.9488 4.49911 19.1396 4.57805 19.2804 4.71866C19.4211 4.85926 19.5002 5.05002 19.5003 5.24895C19.5004 5.44789 19.4215 5.63871 19.2808 5.77944V5.78038ZM4.73834 9.51163C4.10543 8.87859 3.74991 8.02005 3.75 7.12489C3.75009 6.22972 4.10577 5.37126 4.73881 4.73834C5.37185 4.10543 6.23039 3.74991 7.12555 3.75C8.02071 3.75009 8.87918 4.10577 9.51209 4.73881C10.145 5.37185 10.5005 6.23039 10.5004 7.12555C10.5004 8.02071 10.1447 8.87918 9.51163 9.51209C8.87859 10.145 8.02005 10.5005 7.12489 10.5004C6.22972 10.5004 5.37126 10.1447 4.73834 9.51163ZM5.25022 7.12663C5.25046 7.43492 5.32672 7.7384 5.47224 8.01019C5.61776 8.28198 5.82806 8.51369 6.0845 8.68481C6.34095 8.85593 6.63563 8.96117 6.94246 8.99122C7.24929 9.02127 7.55879 8.9752 7.84356 8.85709C8.12833 8.73898 8.37959 8.55247 8.57508 8.31407C8.77056 8.07568 8.90425 7.79277 8.9643 7.49038C9.02436 7.18799 9.00892 6.87545 8.91936 6.58045C8.8298 6.28545 8.66887 6.01709 8.45084 5.79913C8.18851 5.53687 7.85428 5.35832 7.49044 5.28606C7.12661 5.21381 6.74951 5.2511 6.40688 5.39321C6.06424 5.53533 5.77145 5.77588 5.56556 6.08444C5.35967 6.39299 5.24993 6.75568 5.25022 7.12663ZM20.2502 16.8766C20.25 17.6574 19.9791 18.414 19.4837 19.0175C18.9882 19.621 18.2988 20.034 17.5329 20.1861C16.7671 20.3383 15.9722 20.2202 15.2836 19.852C14.5951 19.4838 14.0555 18.8882 13.7569 18.1668C13.4582 17.4454 13.4189 16.6427 13.6457 15.8955C13.8725 15.1484 14.3514 14.503 15.0007 14.0693C15.65 13.6356 16.4296 13.4405 17.2066 13.5172C17.9836 13.5938 18.7101 13.9375 19.2621 14.4897C19.5765 14.8025 19.8257 15.1745 19.9953 15.5842C20.1649 15.9939 20.2516 16.4332 20.2502 16.8766ZM18.7502 16.8766C18.7503 16.4428 18.6 16.0224 18.3249 15.687C18.0497 15.3517 17.6668 15.122 17.2414 15.0373C16.8159 14.9526 16.3743 15.018 15.9917 15.2225C15.6091 15.4269 15.3092 15.7576 15.1431 16.1584C14.977 16.5591 14.955 17.0051 15.0809 17.4202C15.2067 17.8353 15.4726 18.194 15.8333 18.4351C16.1939 18.6761 16.627 18.7847 17.0587 18.7422C17.4904 18.6998 17.8941 18.5089 18.2008 18.2023C18.3755 18.0286 18.514 17.822 18.6083 17.5945C18.7026 17.3669 18.7508 17.1229 18.7502 16.8766Z" fill="#9DAEC3"/>
</svg>
