<svg width="20" height="20" viewBox="0 0 20 20" fill="none" xmlns="http://www.w3.org/2000/svg">
    <g clip-path="url(#clip0_3448_285)">
        <path d="M10 7.01184L12.9882 10L10 12.9882L7.01184 10L10 7.01184Z" fill="#959EA3"/>
        <path fill-rule="evenodd" clip-rule="evenodd" d="M10 20C15.5228 20 20 15.5228 20 10C20 4.47715 15.5228 0 10 0C4.47715 0 0 4.47715 0 10C0 15.5228 4.47715 20 10 20ZM14.1667 8.82149L11.1785 5.83333C10.5276 5.18246 9.47236 5.18246 8.82149 5.83333L5.83333 8.82149C5.18246 9.47236 5.18246 10.5276 5.83333 11.1785L8.82149 14.1667C9.47236 14.8175 10.5276 14.8175 11.1785 14.1667L14.1667 11.1785C14.8175 10.5276 14.8175 9.47236 14.1667 8.82149Z" fill="#959EA3"/>
    </g>
    <defs>
        <clipPath id="clip0_3448_285">
            <rect width="20" height="20" fill="white"/>
        </clipPath>
    </defs>
</svg>
