<svg width="24" height="24" viewBox="0 0 24 24" fill="none" xmlns="http://www.w3.org/2000/svg">
    <path d="M23.2155 4.48901C23.2048 4.30553 23.127 4.13237 22.9971 4.00241C22.8671 3.87244 22.6939 3.79473 22.5105 3.78401C17.658 3.50276 13.7617 4.97839 12.0873 7.74214C10.9811 9.56932 10.983 11.7884 12.0723 13.9053C11.4523 14.6434 10.9991 15.5069 10.7439 16.4365L9.21859 14.9056C9.95171 13.3746 9.92359 11.779 9.12484 10.4534C7.88734 8.41057 5.03078 7.31557 1.48421 7.5237C1.30073 7.53442 1.12757 7.61213 0.997607 7.74209C0.867644 7.87206 0.789928 8.04522 0.779212 8.2287C0.57015 11.7753 1.66609 14.6318 3.7089 15.8693C4.38302 16.2812 5.15767 16.4992 5.94765 16.4993C6.71443 16.4899 7.46928 16.3082 8.1564 15.9678L10.5002 18.3115V20.9993C10.5002 21.1982 10.5792 21.389 10.7198 21.5297C10.8605 21.6703 11.0512 21.7493 11.2502 21.7493C11.4491 21.7493 11.6398 21.6703 11.7805 21.5297C11.9211 21.389 12.0002 21.1982 12.0002 20.9993V18.2346C11.9968 17.0415 12.4028 15.8833 13.1505 14.9534C14.1151 15.4575 15.1849 15.7273 16.2733 15.7409C17.3255 15.7443 18.3582 15.4568 19.2573 14.9103C22.0211 13.2378 23.5005 9.34151 23.2155 4.48901ZM4.48234 14.5868C3.04421 13.7159 2.23046 11.6543 2.25015 8.99932C4.90515 8.97682 6.96671 9.79339 7.83765 11.2315C8.29234 11.9815 8.3664 12.8562 8.06827 13.7571L5.77984 11.4687C5.63804 11.334 5.44923 11.26 5.25366 11.2625C5.05809 11.265 4.87123 11.3438 4.73293 11.4821C4.59463 11.6204 4.51582 11.8073 4.51332 12.0028C4.51082 12.1984 4.58481 12.3872 4.71953 12.529L7.00796 14.8174C6.10703 15.1156 5.23328 15.0415 4.48234 14.5868ZM18.4802 13.6287C17.2239 14.389 15.7473 14.4471 14.2473 13.8162L19.2808 8.78183C19.4155 8.64003 19.4895 8.45122 19.487 8.25564C19.4845 8.06007 19.4057 7.87322 19.2674 7.73492C19.1291 7.59661 18.9422 7.51781 18.7466 7.51531C18.5511 7.5128 18.3623 7.5868 18.2205 7.72151L13.1861 12.7493C12.5523 11.2493 12.6095 9.77182 13.3736 8.51651C14.6805 6.36026 17.7798 5.15839 21.7483 5.2512C21.8383 9.2187 20.6383 12.3218 18.4802 13.6287Z" fill="white"/>
</svg>
