<svg width="24" height="24" viewBox="0 0 24 24" fill="none" xmlns="http://www.w3.org/2000/svg">
    <path d="M21.7875 10.7339L8.28 2.47078C8.05227 2.33133 7.79144 2.2552 7.52445 2.25026C7.25746 2.24531 6.99399 2.31173 6.76125 2.44266C6.53073 2.57155 6.3387 2.75951 6.2049 2.98722C6.07111 3.21493 6.00039 3.47417 6 3.73828V20.2627C6.00174 20.6588 6.16072 21.0381 6.442 21.3171C6.72328 21.5961 7.10383 21.752 7.5 21.7505C7.77652 21.7503 8.04767 21.6741 8.28375 21.5302L21.7875 13.267C22.0046 13.1347 22.184 12.9488 22.3084 12.7272C22.4329 12.5055 22.4983 12.2556 22.4983 12.0014C22.4983 11.7472 22.4329 11.4973 22.3084 11.2756C22.184 11.054 22.0046 10.8681 21.7875 10.7358V10.7339ZM7.5 20.2448V3.75047L20.9841 12.0005L7.5 20.2448Z" fill="#9DAEC3"/>
</svg>
