<svg xmlns="http://www.w3.org/2000/svg" viewBox="0 9.470000267028809 83.12999725341797 35.78999710083008" data-asc="0.9052734375" width="83.12999725341797" height="35.78999710083008">
    <defs/>
    <g>
        <g>
            <g transform="translate(0, 0)">
                <path fill="#2f869b" d="M0 45.26L0 9.47L13.50 9.47Q17.07 9.47 18.95 9.81Q21.58 10.25 23.36 11.49Q25.15 12.72 26.23 14.94Q27.32 17.16 27.32 19.82Q27.32 24.39 24.41 27.55Q21.51 30.71 13.92 30.71L4.74 30.71L4.74 45.26L0 45.26M4.74 26.49L13.99 26.49Q18.58 26.49 20.51 24.78Q22.44 23.07 22.44 19.97Q22.44 17.72 21.30 16.13Q20.17 14.53 18.31 14.01Q17.11 13.70 13.89 13.70L4.74 13.70L4.74 26.49ZM33.15 45.26L33.15 9.47L37.89 9.47L37.89 41.04L55.52 41.04L55.52 45.26L33.15 45.26ZM66.55 45.26L66.55 13.70L54.76 13.70L54.76 9.47L83.13 9.47L83.13 13.70L71.29 13.70L71.29 45.26L66.55 45.26Z"/>
            </g>
        </g>
    </g>
</svg>
