<svg width="48" height="48" viewBox="0 0 48 48" fill="none" xmlns="http://www.w3.org/2000/svg">
<path d="M38.5611 36.4376C38.7005 36.577 38.811 36.7424 38.8864 36.9245C38.9619 37.1066 39.0007 37.3018 39.0007 37.4989C39.0007 37.696 38.9619 37.8911 38.8864 38.0732C38.811 38.2553 38.7005 38.4208 38.5611 38.5601C38.4217 38.6995 38.2563 38.81 38.0742 38.8855C37.8921 38.9609 37.697 38.9997 37.4999 38.9997C37.3028 38.9997 37.1076 38.9609 36.9255 38.8855C36.7434 38.81 36.578 38.6995 36.4386 38.5601L23.9999 26.1195L11.5611 38.5601C11.2796 38.8416 10.8979 38.9997 10.4999 38.9997C10.1018 38.9997 9.72007 38.8416 9.43861 38.5601C9.15715 38.2787 8.99902 37.8969 8.99902 37.4989C8.99902 37.1008 9.15715 36.7191 9.43861 36.4376L21.8792 23.9989L9.43861 11.5601C9.15715 11.2787 8.99902 10.8969 8.99902 10.4989C8.99902 10.1008 9.15715 9.71909 9.43861 9.43763C9.72007 9.15617 10.1018 8.99805 10.4999 8.99805C10.8979 8.99805 11.2796 9.15617 11.5611 9.43763L23.9999 21.8783L36.4386 9.43763C36.7201 9.15617 37.1018 8.99805 37.4999 8.99805C37.8979 8.99805 38.2796 9.15617 38.5611 9.43763C38.8426 9.71909 39.0007 10.1008 39.0007 10.4989C39.0007 10.8969 38.8426 11.2787 38.5611 11.5601L26.1205 23.9989L38.5611 36.4376Z" fill="#FF163D"/>
</svg>
