<svg width="12" height="12" viewBox="0 0 12 12" fill="none" xmlns="http://www.w3.org/2000/svg">
    <g clip-path="url(#clip0_3427_1348)">
        <path fill-rule="evenodd" clip-rule="evenodd" d="M5.36377 3.77818C5.75429 3.38766 6.38779 3.38766 6.77832 3.77818L8.29297 5.29283C8.68344 5.68332 8.68335 6.31637 8.29297 6.7069L6.70703 8.29283L6.63135 8.36168C6.26471 8.66073 5.73525 8.66033 5.36865 8.36119L5.29297 8.29283L3.77832 6.77818L3.70996 6.70201C3.41088 6.33538 3.41087 5.80642 3.70996 5.43981L3.77832 5.36412L5.36377 3.77818ZM4.48535 6.07115L6 7.5858L7.58594 5.99986L6.07129 4.48522L4.48535 6.07115Z" fill="#B6C9E2"/>
        <path fill-rule="evenodd" clip-rule="evenodd" d="M5.32373 0.283556C5.74752 0.063359 6.25248 0.0633591 6.67627 0.283556C8.09483 1.02071 9.09794 1.64136 10.1279 1.89098C10.8208 2.05895 11.4999 2.65356 11.5 3.49986V5.99986C11.5 7.94138 10.6417 9.3001 9.61426 10.2162C8.59956 11.1208 7.41991 11.5963 6.72949 11.8177C6.25302 11.9706 5.74698 11.9706 5.27051 11.8177C4.58009 11.5963 3.40044 11.1208 2.38574 10.2162C1.35826 9.3001 0.5 7.94138 0.5 5.99986V3.49986C0.500074 2.65356 1.17922 2.05895 1.87207 1.89098C2.90206 1.64136 3.90517 1.02071 5.32373 0.283556ZM6.21533 1.17076C6.08059 1.10077 5.91941 1.10077 5.78467 1.17076C4.47139 1.85321 3.29352 2.57529 2.10791 2.86266C1.72743 2.95486 1.50008 3.24178 1.5 3.49986V5.99986C1.5 7.60609 2.19604 8.70758 3.05127 9.47008C3.91915 10.2438 4.95089 10.6651 5.57568 10.8656C5.85351 10.9547 6.14649 10.9547 6.42432 10.8656C7.04911 10.6651 8.08085 10.2438 8.94873 9.47008C9.80396 8.70758 10.5 7.60609 10.5 5.99986V3.49986C10.4999 3.24178 10.2726 2.95486 9.89209 2.86266C8.70648 2.57529 7.52861 1.85321 6.21533 1.17076Z" fill="#B6C9E2"/>
    </g>
    <defs>
        <clipPath id="clip0_3427_1348">
            <rect width="12" height="12" fill="white"/>
        </clipPath>
    </defs>
</svg>
