<svg width="16" height="16" viewBox="0 0 16 16" fill="none" xmlns="http://www.w3.org/2000/svg">
    <path d="M13.5 8.5C13.6326 8.5 13.7598 8.55268 13.8536 8.64645C13.9473 8.74021 14 8.86739 14 9L14 13C14 13.1326 13.9473 13.2598 13.8536 13.3536C13.7598 13.4473 13.6326 13.5 13.5 13.5L2.5 13.5C2.36739 13.5 2.24021 13.4473 2.14645 13.3536C2.05268 13.2598 2 13.1326 2 13L2 9C2 8.86739 2.05268 8.74022 2.14645 8.64645C2.24021 8.55268 2.36739 8.5 2.5 8.5C2.63261 8.5 2.75978 8.55268 2.85355 8.64645C2.94732 8.74022 3 8.86739 3 9L3 12.5L13 12.5L13 9C13 8.86739 13.0527 8.74021 13.1464 8.64645C13.2402 8.55268 13.3674 8.5 13.5 8.5ZM7.64625 1.64625L5.14625 4.14625C5.05243 4.24007 4.99972 4.36732 4.99972 4.5C4.99972 4.63268 5.05243 4.75993 5.14625 4.85375C5.24007 4.94757 5.36732 5.00028 5.5 5.00028C5.63268 5.00028 5.75993 4.94757 5.85375 4.85375L7.5 3.20688L7.5 9C7.5 9.13261 7.55268 9.25978 7.64645 9.35355C7.74021 9.44732 7.86739 9.5 8 9.5C8.13261 9.5 8.25978 9.44732 8.35355 9.35355C8.44732 9.25978 8.5 9.13261 8.5 9L8.5 3.20688L10.1462 4.85375C10.2401 4.94757 10.3673 5.00028 10.5 5.00028C10.6327 5.00028 10.7599 4.94757 10.8537 4.85375C10.9476 4.75993 11.0003 4.63268 11.0003 4.5C11.0003 4.36732 10.9476 4.24007 10.8537 4.14625L8.35375 1.64625C8.30731 1.59976 8.25217 1.56288 8.19147 1.53772C8.13077 1.51256 8.06571 1.49961 8 1.49961C7.93429 1.49961 7.86923 1.51256 7.80853 1.53772C7.74783 1.56288 7.69269 1.59976 7.64625 1.64625Z" fill="white"/>
</svg>
