<svg width="24" height="24" viewBox="0 0 24 24" fill="none" xmlns="http://www.w3.org/2000/svg">
    <path d="M9.25 6C9.25 6.19891 9.17098 6.38968 9.03033 6.53033C8.88968 6.67098 8.69891 6.75 8.5 6.75H3.75C3.55109 6.75 3.36032 6.67098 3.21967 6.53033C3.07902 6.38968 3 6.19891 3 6C3 5.80109 3.07902 5.61032 3.21967 5.46967C3.36032 5.32902 3.55109 5.25 3.75 5.25H8.5C8.69891 5.25 8.88968 5.32902 9.03033 5.46967C9.17098 5.61032 9.25 5.80109 9.25 6ZM13.5 9H3.75C3.55109 9 3.36032 9.07902 3.21967 9.21967C3.07902 9.36032 3 9.55109 3 9.75C3 9.94891 3.07902 10.1397 3.21967 10.2803C3.36032 10.421 3.55109 10.5 3.75 10.5H13.5C13.6989 10.5 13.8897 10.421 14.0303 10.2803C14.171 10.1397 14.25 9.94891 14.25 9.75C14.25 9.55109 14.171 9.36032 14.0303 9.21967C13.8897 9.07902 13.6989 9 13.5 9ZM10.5 12.75H3.75C3.55109 12.75 3.36032 12.829 3.21967 12.9697C3.07902 13.1103 3 13.3011 3 13.5C3 13.6989 3.07902 13.8897 3.21967 14.0303C3.36032 14.171 3.55109 14.25 3.75 14.25H10.5C10.6989 14.25 10.8897 14.171 11.0303 14.0303C11.171 13.8897 11.25 13.6989 11.25 13.5C11.25 13.3011 11.171 13.1103 11.0303 12.9697C10.8897 12.829 10.6989 12.75 10.5 12.75ZM6.5 16.5H3.75C3.55109 16.5 3.36032 16.579 3.21967 16.7197C3.07902 16.8603 3 17.0511 3 17.25C3 17.4489 3.07902 17.6397 3.21967 17.7803C3.36032 17.921 3.55109 18 3.75 18H6.5C6.69891 18 6.88968 17.921 7.03033 17.7803C7.17098 17.6397 7.25 17.4489 7.25 17.25C7.25 17.0511 7.17098 16.8603 7.03033 16.7197C6.88968 16.579 6.69891 16.5 6.5 16.5ZM11.5 6.75H20.25C20.4489 6.75 20.6397 6.67098 20.7803 6.53033C20.921 6.38968 21 6.19891 21 6C21 5.80109 20.921 5.61032 20.7803 5.46967C20.6397 5.32902 20.4489 5.25 20.25 5.25H11.5C11.3011 5.25 11.1103 5.32902 10.9697 5.46967C10.829 5.61032 10.75 5.80109 10.75 6C10.75 6.19891 10.829 6.38968 10.9697 6.53033C11.1103 6.67098 11.3011 6.75 11.5 6.75ZM20.25 9H16.5C16.3011 9 16.1103 9.07902 15.9697 9.21967C15.829 9.36032 15.75 9.55109 15.75 9.75C15.75 9.94891 15.829 10.1397 15.9697 10.2803C16.1103 10.421 16.3011 10.5 16.5 10.5H20.25C20.4489 10.5 20.6397 10.421 20.7803 10.2803C20.921 10.1397 21 9.94891 21 9.75C21 9.55109 20.921 9.36032 20.7803 9.21967C20.6397 9.07902 20.4489 9 20.25 9ZM20.25 12.75H13.5C13.3011 12.75 13.1103 12.829 12.9697 12.9697C12.829 13.1103 12.75 13.3011 12.75 13.5C12.75 13.6989 12.829 13.8897 12.9697 14.0303C13.1103 14.171 13.3011 14.25 13.5 14.25H20.25C20.4489 14.25 20.6397 14.171 20.7803 14.0303C20.921 13.8897 21 13.6989 21 13.5C21 13.3011 20.921 13.1103 20.7803 12.9697C20.6397 12.829 20.4489 12.75 20.25 12.75ZM20.25 16.5H14.5C14.3011 16.5 14.1103 16.579 13.9697 16.7197C13.829 16.8603 13.75 17.0511 13.75 17.25C13.75 17.4489 13.829 17.6397 13.9697 17.7803C14.1103 17.921 14.3011 18 14.5 18H20.25C20.4489 18 20.6397 17.921 20.7803 17.7803C20.921 17.6397 21 17.4489 21 17.25C21 17.0511 20.921 16.8603 20.7803 16.7197C20.6397 16.579 20.4489 16.5 20.25 16.5Z" fill="white"/>
    <path d="M3.75 16.5H6.5C6.69891 16.5 6.88968 16.579 7.03033 16.7197C7.17098 16.8603 7.25 17.0511 7.25 17.25C7.25 17.4489 7.17098 17.6397 7.03033 17.7803C6.88968 17.921 6.69891 18 6.5 18H3.75C3.55109 18 3.36032 17.921 3.21967 17.7803C3.07902 17.6397 3 17.4489 3 17.25C3 17.0511 3.07902 16.8603 3.21967 16.7197C3.36032 16.579 3.55109 16.5 3.75 16.5Z" fill="white"/>
    <path d="M9 16.5H11.75C11.9489 16.5 12.1397 16.579 12.2803 16.7197C12.421 16.8603 12.5 17.0511 12.5 17.25C12.5 17.4489 12.421 17.6397 12.2803 17.7803C12.1397 17.921 11.9489 18 11.75 18H9C8.80109 18 8.61032 17.921 8.46967 17.7803C8.32902 17.6397 8.25 17.4489 8.25 17.25C8.25 17.0511 8.32902 16.8603 8.46967 16.7197C8.61032 16.579 8.80109 16.5 9 16.5Z" fill="white"/>
</svg>
