<svg width="240" height="240" viewBox="0 0 240 240" fill="none" xmlns="http://www.w3.org/2000/svg">
<rect width="240" height="240" rx="120" fill="url(#paint0_linear_1592_995)"/>
<path d="M120 240C186.274 240 240 186.274 240 120C240 53.7258 186.274 0 120 0C53.7258 0 0 53.7258 0 120C0 186.274 53.7258 240 120 240Z" fill="white"/>
<path fill-rule="evenodd" clip-rule="evenodd" d="M240 120C240 186.274 186.274 240 120 240C53.7258 240 0 186.274 0 120C0 53.7258 53.7258 0 120 0C186.274 0 240 53.7258 240 120ZM161.641 78.7835L195.363 112.667C197.066 114.419 198.014 116.774 198 119.223C197.986 121.672 197.012 124.017 195.289 125.749C193.565 127.482 191.232 128.461 188.795 128.476C186.357 128.491 184.012 127.541 182.268 125.83L164.3 107.742V154.694C164.3 157.162 163.324 159.529 161.587 161.274C159.85 163.02 157.494 164 155.038 164C152.581 164 150.225 163.02 148.488 161.274C146.751 159.529 145.775 157.162 145.775 154.694V107.888L92.5944 161.356C92.4275 161.546 92.2329 161.714 92.0382 161.882L92.0381 161.882L91.9436 161.965C91.6267 162.227 91.2921 162.466 90.9422 162.681L90.7308 162.804C90.3737 163.017 90.0019 163.203 89.6183 163.363C89.3491 163.476 89.0743 163.575 88.795 163.659H88.7505C88.4946 163.737 88.2331 163.799 87.9717 163.855H87.866C87.6323 163.905 87.3931 163.933 87.1539 163.961H86.9703C86.7219 163.983 86.4715 163.994 86.2194 163.994H86.0803C85.7799 163.994 85.4795 163.978 85.1791 163.95H85.1402C83.6412 163.814 82.1977 163.313 80.9346 162.491C80.6898 162.306 80.4451 162.122 80.2114 161.932C79.9679 161.735 79.7358 161.524 79.5161 161.3L44.559 126.176C42.8901 124.418 41.9719 122.073 42.0007 119.643C42.0294 117.214 43.0028 114.892 44.7128 113.173C46.4229 111.455 48.7339 110.477 51.1521 110.448C53.5703 110.419 55.9038 111.342 57.654 113.019L76.8014 132.258V85.3064C76.8014 82.8382 77.7772 80.4711 79.5142 78.7258C81.2512 76.9805 83.6071 76 86.0636 76C88.5201 76 90.8759 76.9805 92.6129 78.7258C94.3499 80.4711 95.3258 82.8382 95.3258 85.3064V132.258L147.773 79.5549C149.185 77.7337 151.228 76.513 153.495 76.135C155.763 75.7571 158.088 76.2496 160.011 77.5147C160.025 77.5232 160.039 77.5315 160.053 77.5397C160.121 77.5804 160.185 77.6192 160.25 77.6657C160.428 77.783 160.595 77.9116 160.762 78.0457C160.999 78.2199 161.228 78.4065 161.446 78.6047L161.58 78.7221L161.641 78.7835Z" fill="url(#paint1_linear_1592_995)"/>
<defs>
<linearGradient id="paint0_linear_1592_995" x1="16.0582" y1="59.9888" x2="223.942" y2="180.006" gradientUnits="userSpaceOnUse">
<stop offset="0.13" stop-color="#348BED"/>
<stop offset="0.31" stop-color="#2B80E8"/>
<stop offset="0.64" stop-color="#1461DB"/>
<stop offset="0.72" stop-color="#0E57D7"/>
</linearGradient>
<linearGradient id="paint1_linear_1592_995" x1="16.0582" y1="59.9888" x2="223.942" y2="180.006" gradientUnits="userSpaceOnUse">
<stop offset="0.13" stop-color="#348BED"/>
<stop offset="0.31" stop-color="#2B80E8"/>
<stop offset="0.64" stop-color="#1461DB"/>
<stop offset="0.72" stop-color="#0E57D7"/>
</linearGradient>
</defs>
</svg>
