<svg width="24" height="24" viewBox="0 0 24 24" fill="none" xmlns="http://www.w3.org/2000/svg">
    <path d="M17.8337 14.4988C18.0547 14.7198 18.3545 14.844 18.6671 14.844C18.9796 14.844 19.2794 14.7198 19.5004 14.4988L21.1672 12.832C21.3882 12.611 21.5124 12.3112 21.5124 11.9986C21.5124 11.6861 21.3882 11.3863 21.1672 11.1653L19.5004 9.49849C19.2794 9.27747 18.9796 9.15329 18.6671 9.15329C18.3545 9.15329 18.0547 9.27747 17.8337 9.49849L17.417 9.91518L14.0835 6.58165L14.5001 6.16496C14.7212 5.94393 14.8453 5.64416 14.8453 5.33158C14.8453 5.019 14.7212 4.71922 14.5001 4.4982L12.8334 2.83143C12.6124 2.6104 12.3126 2.48623 12 2.48623C11.6874 2.48623 11.3876 2.6104 11.1666 2.83143L9.49985 4.4982C9.27882 4.71922 9.15465 5.019 9.15465 5.33158C9.15465 5.64416 9.27882 5.94393 9.49985 6.16496L9.91654 6.58165L6.58301 9.91518L6.16632 9.49849C5.94529 9.27747 5.64552 9.15329 5.33294 9.15329C5.02036 9.15329 4.72058 9.27747 4.49955 9.49849L2.83279 11.1653C2.61176 11.3863 2.48759 11.6861 2.48759 11.9986C2.48759 12.3112 2.61176 12.611 2.83279 12.832L4.49955 14.4988C4.72058 14.7198 5.02036 14.844 5.33294 14.844C5.64552 14.844 5.94529 14.7198 6.16632 14.4988L6.58301 14.0821L9.91654 17.4156L9.49985 17.8323C9.27882 18.0533 9.15465 18.3531 9.15465 18.6657C9.15465 18.9783 9.27882 19.2781 9.49985 19.4991L11.1666 21.1659C11.3876 21.3869 11.6874 21.5111 12 21.5111C12.3126 21.5111 12.6124 21.3869 12.8334 21.1659L14.5001 19.4991C14.7212 19.2781 14.8453 18.9783 14.8453 18.6657C14.8453 18.3531 14.7212 18.0533 14.5001 17.8323L14.0835 17.4156L17.417 14.0821L17.8337 14.4988ZM18.6671 10.3319L20.3338 11.9986L18.6671 13.6654L17.0003 11.9986L18.6671 10.3319ZM12 3.66481L13.6668 5.33158L12.8386 6.15975C12.8345 6.1625 12.8309 6.16604 12.8282 6.17017L12 6.99834L10.3332 5.33158L12 3.66481ZM5.33294 13.6654L3.66617 11.9986L5.33294 10.3319L6.9997 11.9986L6.17153 12.8268C6.1674 12.8296 6.16386 12.8331 6.16111 12.8372L5.33294 13.6654ZM12 20.3325L10.3332 18.6657L12 16.9989L13.6668 18.6657L12 20.3325ZM13.2501 16.5822L12.8334 16.1656C12.6124 15.9445 12.3126 15.8204 12 15.8204C11.6874 15.8204 11.3876 15.9445 11.1666 16.1656L10.7499 16.5822L7.41639 13.2487L7.83309 12.832C8.05411 12.611 8.17828 12.3112 8.17828 11.9986C8.17828 11.6861 8.05411 11.3863 7.83309 11.1653L7.41639 10.7486L10.7499 7.41504L11.1666 7.83173C11.3876 8.05275 11.6874 8.17693 12 8.17693C12.3126 8.17693 12.6124 8.05275 12.8334 7.83173L13.2501 7.41504L16.5836 10.7486L16.1669 11.1653C15.9459 11.3863 15.8217 11.6861 15.8217 11.9986C15.8217 12.3112 15.9459 12.611 16.1669 12.832L16.5836 13.2487L13.2501 16.5822Z" fill="white"/>
</svg>
