<svg width="24" height="24" viewBox="0 0 24 24" fill="none" xmlns="http://www.w3.org/2000/svg">
<path d="M7 18C7.55228 18 8 18.4477 8 19C8 19.5523 7.55228 20 7 20H5C4.44772 20 4 19.5523 4 19C4 18.4477 4.44772 18 5 18H7Z" fill="#A77D3E"/>
<path d="M8.10254 15.0049C8.60667 15.0562 9 15.4823 9 16C9 16.5177 8.60667 16.9438 8.10254 16.9951L8 17H5C4.44772 17 4 16.5523 4 16C4 15.4477 4.44772 15 5 15H8L8.10254 15.0049Z" fill="#A77D3E"/>
<path d="M7 12C7.55228 12 8 12.4477 8 13C8 13.5523 7.55228 14 7 14H5C4.44772 14 4 13.5523 4 13C4 12.4477 4.44772 12 5 12H7Z" fill="#A77D3E"/>
<path fill-rule="evenodd" clip-rule="evenodd" d="M8.17188 8C8.96741 8.00008 9.73043 8.31637 10.293 8.87891L12.1211 10.707L12.3203 10.9268C12.7578 11.4606 12.9999 12.1319 13 12.8281V21C13 22.6569 11.6569 24 10 24H3C1.34315 24 4.83192e-08 22.6569 0 21V11C0 9.34315 1.34315 8 3 8H8.17188ZM3 10C2.44772 10 2 10.4477 2 11V21C2 21.5523 2.44772 22 3 22H10C10.5523 22 11 21.5523 11 21V12.8281C10.9999 12.5961 10.9193 12.3722 10.7734 12.1943L10.707 12.1211L8.87891 10.293C8.69144 10.1055 8.43698 10.0001 8.17188 10H3Z" fill="#A77D3E"/>
<path d="M9 0C12.9261 9.74434e-05 16.2925 2.47647 17.5078 6.03516C17.6673 6.01465 17.8326 6.00001 18 6C21.3522 6.00012 24 8.64779 24 12C24 15.3522 21.3522 17.9999 18 18H16C15.4478 17.9999 15 17.5522 15 17C15 16.4478 15.4478 16.0001 16 16H18C20.2476 15.9999 22 14.2476 22 12C22 9.75236 20.2476 8.00012 18 8C17.8085 8.00002 17.6038 8.03594 17.335 8.09863L17.043 8.16992C16.7813 8.23533 16.5039 8.19249 16.2744 8.05078C16.045 7.90898 15.8828 7.68028 15.8242 7.41699C15.1264 4.27681 12.3335 2.00011 9 2C6.58871 2.00004 4.44581 3.23797 3.18359 5.11816L2.94336 5.50293C2.66564 5.98017 2.05349 6.14182 1.57617 5.86426C1.09887 5.58651 0.937143 4.97441 1.21484 4.49707L1.36523 4.24805C2.95603 1.70603 5.78511 4.52029e-05 9 0Z" fill="#A77D3E"/>
</svg>
