<svg width="24" height="24" viewBox="0 0 24 24" fill="none" xmlns="http://www.w3.org/2000/svg">
<path fill-rule="evenodd" clip-rule="evenodd" d="M18.5 10C20.4333 10 22 11.5667 22 13.5V15C23.1046 15 24 15.8954 24 17V20C24 21.1046 23.1046 22 22 22H15C13.8954 22 13 21.1046 13 20V17C13 15.8954 13.8954 15 15 15V13.5C15 11.5667 16.5667 10 18.5 10ZM15 20H22V17H15V20ZM18.5 12C17.6713 12 17 12.6713 17 13.5V15H20V13.5C20 12.6713 19.3287 12 18.5 12Z" fill="#A77D3E"/>
<path d="M20 4C21.6573 4 23 5.34272 23 7V8C23 8.55228 22.5523 9 22 9C21.4477 9 21 8.55228 21 8V7C21 6.44728 20.5527 6 20 6H3C2.44728 6 2 6.44728 2 7V16C2 16.5527 2.44728 17 3 17H10C10.5523 17 11 17.4477 11 18C11 18.5523 10.5523 19 10 19H3C1.34272 19 0 17.6573 0 16V7C0 5.34272 1.34272 4 3 4H20Z" fill="#A77D3E"/>
<path d="M6.5 10C7.32843 10 8 10.6716 8 11.5C8 12.3284 7.32843 13 6.5 13C5.67157 13 5 12.3284 5 11.5C5 10.6716 5.67157 10 6.5 10Z" fill="#A77D3E"/>
<path d="M11.5 10C12.3284 10 13 10.6716 13 11.5C13 12.3284 12.3284 13 11.5 13C10.6716 13 10 12.3284 10 11.5C10 10.6716 10.6716 10 11.5 10Z" fill="#A77D3E"/>
</svg>
