<svg width="24" height="24" viewBox="0 0 24 24" fill="none" xmlns="http://www.w3.org/2000/svg">
<path fill-rule="evenodd" clip-rule="evenodd" d="M19.1025 0.00488281C19.6067 0.0562144 20 0.482323 20 1V2C20 2.55228 19.5523 3 19 3C18.4477 3 18 2.55228 18 2H3C2.44728 2 2 2.44728 2 3C2 3.15385 2.03475 3.29951 2.09668 3.42969C2.13992 3.52046 2.19637 3.60361 2.26367 3.67676C2.31456 3.73214 2.37243 3.78047 2.43457 3.82324C2.59557 3.9339 2.78971 4 3 4H23L23.1025 4.00488C23.6067 4.05621 24 4.48232 24 5V23C24 23.5523 23.5523 24 23 24H4C1.79072 24 0 22.2093 0 20V3C0 2.99314 0.000839171 2.98632 0.000976562 2.97949C0.0120021 1.33166 1.34956 0 3 0H19L19.1025 0.00488281ZM2 20C2 21.1047 2.89528 22 4 22H22V18H19C16.7909 18 15 16.2091 15 14C15 11.7909 16.7909 10 19 10H22V6H3C2.9161 6 2.83313 5.99503 2.75098 5.98828C2.74481 5.98775 2.73858 5.98788 2.73242 5.9873C2.56538 5.97255 2.40315 5.94138 2.24512 5.90039C2.24153 5.89944 2.23796 5.89842 2.23438 5.89746C2.1548 5.8765 2.07684 5.85238 2 5.8252V20ZM19 12C17.8954 12 17 12.8954 17 14C17 15.1046 17.8954 16 19 16H22V12H19Z" fill="#A77D3E"/>
</svg>
