<svg width="24" height="24" viewBox="0 0 24 24" fill="none" xmlns="http://www.w3.org/2000/svg">
<path d="M1 18C1.55228 18 2 18.4477 2 19V21C2 21.5523 2.44772 22 3 22H5C5.55228 22 6 22.4477 6 23C6 23.5523 5.55228 24 5 24H3C1.34315 24 0 22.6569 0 21V19C0 18.4477 0.447715 18 1 18Z" fill="#A77D3E"/>
<path d="M23 18C23.5523 18 24 18.4477 24 19V21C24 22.6569 22.6569 24 21 24H19C18.4477 24 18 23.5523 18 23C18 22.4477 18.4477 22 19 22H21C21.5523 22 22 21.5523 22 21V19C22 18.4477 22.4477 18 23 18Z" fill="#A77D3E"/>
<path fill-rule="evenodd" clip-rule="evenodd" d="M11.7021 4.0459C11.9285 3.97523 12.1736 3.98684 12.3936 4.08105L19.3936 7.08105L19.4092 7.08887C19.4427 7.1039 19.4751 7.121 19.5068 7.13965L19.5254 7.14941C19.528 7.15103 19.5306 7.15266 19.5332 7.1543C19.5632 7.17317 19.5922 7.19376 19.6201 7.21582L19.6299 7.22363C19.6344 7.22726 19.6382 7.23165 19.6426 7.23535C19.6655 7.25456 19.6878 7.27454 19.709 7.2959C19.7178 7.30474 19.7259 7.3141 19.7344 7.32324C19.7539 7.34442 19.7723 7.36662 19.79 7.38965C19.7964 7.3979 19.8035 7.40562 19.8096 7.41406C19.8521 7.47287 19.8892 7.53697 19.9189 7.60645L19.9209 7.61133C19.9276 7.62726 19.9326 7.64386 19.9385 7.66016C19.946 7.68094 19.9529 7.7017 19.959 7.72266C19.9634 7.73783 19.967 7.75314 19.9707 7.76855C19.9888 7.84399 19.9997 7.91968 20 7.99512V17C20 17.4 19.7612 17.7614 19.3936 17.9189L12.4121 20.9102C12.2863 20.9672 12.1471 21 12 21C11.8526 21 11.7129 20.9674 11.5869 20.9102L4.60645 17.9189C4.2388 17.7614 4.00004 17.4 4 17V7.9707C4.001 7.93658 4.00421 7.90237 4.00879 7.86816L4.01074 7.85254C4.01236 7.84169 4.01561 7.83106 4.01758 7.82031C4.02165 7.79818 4.02562 7.77594 4.03125 7.75391C4.03492 7.73948 4.03867 7.72513 4.04297 7.71094C4.05362 7.67584 4.06628 7.64094 4.08105 7.60645C4.09521 7.57341 4.11076 7.54143 4.12793 7.51074C4.13537 7.4975 4.14333 7.48457 4.15137 7.47168C4.16566 7.44866 4.18135 7.4268 4.19727 7.40527C4.20378 7.39649 4.20999 7.38748 4.2168 7.37891C4.26302 7.32053 4.3153 7.26848 4.37207 7.22266C4.38073 7.21567 4.38953 7.20886 4.39844 7.20215C4.42165 7.18466 4.44518 7.1677 4.46973 7.15234C4.47998 7.14593 4.49046 7.13985 4.50098 7.13379C4.52827 7.11806 4.55636 7.10389 4.58496 7.09082L4.60645 7.08105L11.6064 4.08105L11.7021 4.0459ZM6 16.3408L11 18.4834V11.6582L6 9.51562V16.3408ZM13 11.6582V18.4834L18 16.3408V9.51562L13 11.6582ZM7.53613 7.99902L12 9.91211L16.4629 7.99902L12 6.08691L7.53613 7.99902Z" fill="#A77D3E"/>
<path d="M5 0C5.55228 0 6 0.447715 6 1C6 1.55228 5.55228 2 5 2H3C2.44772 2 2 2.44772 2 3V5C2 5.55228 1.55228 6 1 6C0.447715 6 0 5.55228 0 5V3C0 1.34315 1.34315 0 3 0H5Z" fill="#A77D3E"/>
<path d="M21 0C22.6569 7.24234e-08 24 1.34315 24 3V5C24 5.55228 23.5523 6 23 6C22.4477 6 22 5.55228 22 5V3C22 2.44772 21.5523 2 21 2H19C18.4477 2 18 1.55228 18 1C18 0.447715 18.4477 -2.41411e-08 19 0H21Z" fill="#A77D3E"/>
</svg>
