<svg width="24" height="24" viewBox="0 0 24 24" fill="none" xmlns="http://www.w3.org/2000/svg">
<path d="M20 12C20.5523 12 21 12.4477 21 13V21C21 21.7957 20.6837 22.5585 20.1211 23.1211C19.5585 23.6837 18.7957 24 18 24H6C5.20435 24 4.44151 23.6837 3.87891 23.1211C3.38671 22.6289 3.08291 21.9835 3.01465 21.2969L3 21V13C3 12.4477 3.44772 12 4 12C4.55228 12 5 12.4477 5 13V21L5.00488 21.0986C5.02757 21.3276 5.12883 21.5429 5.29297 21.707C5.48051 21.8946 5.73478 22 6 22H18C18.2652 22 18.5195 21.8946 18.707 21.707C18.8946 21.5195 19 21.2652 19 21V13C19 12.4477 19.4477 12 20 12Z" fill="#A77D3E"/>
<path d="M10 13C10.5523 13 11 13.4477 11 14V18C11 18.5523 10.5523 19 10 19C9.44771 19 9 18.5523 9 18V14C9 13.4477 9.44771 13 10 13Z" fill="#A77D3E"/>
<path d="M14 13C14.5523 13 15 13.4477 15 14V18C15 18.5523 14.5523 19 14 19C13.4477 19 13 18.5523 13 18V14C13 13.4477 13.4477 13 14 13Z" fill="#A77D3E"/>
<path fill-rule="evenodd" clip-rule="evenodd" d="M13 0C15.2091 0 17 1.79086 17 4H20C21.6569 4 23 5.34315 23 7V9C23 9.55229 22.5523 10 22 10H2C1.44772 10 1 9.55229 1 9V7C1 5.34315 2.34315 4 4 4H7C7 1.79086 8.79086 0 11 0H13ZM4 6C3.44772 6 3 6.44772 3 7V8H21V7C21 6.44772 20.5523 6 20 6H4ZM11 2C9.89543 2 9 2.89543 9 4H15C15 2.89543 14.1046 2 13 2H11Z" fill="#A77D3E"/>
</svg>
