<svg width="24" height="24" viewBox="0 0 24 24" fill="none" xmlns="http://www.w3.org/2000/svg">
<path d="M7.7002 0.796956C10.4393 -0.254332 13.4689 -0.265998 16.2158 0.764729C18.9629 1.79558 21.237 3.79774 22.6084 6.39168C23.9798 8.98567 24.3533 11.9922 23.6582 14.8429C22.9631 17.6935 21.2474 20.1908 18.8359 21.8624C16.4246 23.5338 13.4844 24.2644 10.5713 23.9151C7.65796 23.5657 4.97325 22.1603 3.02539 19.9659C1.19952 17.9088 0.139256 15.2914 0.0126953 12.5548L0 12.0059L0.00488281 11.9034C0.0558785 11.3991 0.482247 11.0052 1 11.005C1.55204 11.005 1.9997 11.4529 2 12.005L2.01074 12.462C2.11615 14.7427 2.99973 16.9244 4.52148 18.6388C6.14469 20.4673 8.38189 21.6376 10.8096 21.9288C13.2373 22.2199 15.6878 21.6118 17.6973 20.2188C19.7067 18.8258 21.1366 16.7447 21.7158 14.3692C22.295 11.9937 21.9836 9.4879 20.8408 7.32625C19.6981 5.16474 17.8028 3.49687 15.5137 2.63778C13.2244 1.77873 10.6988 1.78793 8.41602 2.66414C6.96964 3.2194 5.68481 4.09916 4.65039 5.22078L7.66113 4.38289L7.76074 4.36043C8.25998 4.2746 8.75344 4.57885 8.89258 5.07723C9.04078 5.60912 8.72905 6.16028 8.19727 6.30867L2.50586 7.89559C2.49867 7.89759 2.49061 7.89766 2.4834 7.89949C2.45948 7.90558 2.43546 7.9108 2.41113 7.91512C2.39579 7.91783 2.38062 7.92095 2.36523 7.92293C2.34708 7.92529 2.32884 7.92645 2.31055 7.92781C2.2661 7.93106 2.22191 7.93147 2.17773 7.92879C2.17025 7.92835 2.16276 7.92843 2.15527 7.92781C2.13826 7.9264 2.12139 7.92424 2.10449 7.92196C2.08131 7.91885 2.05824 7.91502 2.03516 7.91024C2.02269 7.90765 2.01041 7.90451 1.99805 7.90145C1.97185 7.89497 1.94582 7.88769 1.91992 7.87899C1.91045 7.8758 1.90098 7.87269 1.8916 7.86922C1.86563 7.85961 1.83995 7.84892 1.81445 7.83699C1.80311 7.83169 1.79143 7.82711 1.78027 7.82137L1.77637 7.81942L1.68262 7.76473C1.67473 7.75947 1.66791 7.75265 1.66016 7.74715C1.56827 7.6823 1.49 7.60447 1.42676 7.51668C1.42268 7.51103 1.41802 7.50581 1.41406 7.50008C1.39327 7.4699 1.37469 7.43843 1.35742 7.40633C1.35327 7.39863 1.34965 7.39069 1.3457 7.38289C1.33228 7.35631 1.31958 7.32946 1.30859 7.30184C1.30409 7.29054 1.29999 7.27911 1.2959 7.26766C1.28878 7.24766 1.28221 7.22752 1.27637 7.20711C1.2709 7.18806 1.26605 7.16887 1.26172 7.14949C1.25868 7.1359 1.25637 7.12219 1.25391 7.10848C1.24695 7.06982 1.24259 7.03077 1.24023 6.99129C1.23941 6.97762 1.23756 6.964 1.2373 6.95028V6.93172C1.23731 6.92586 1.23818 6.92001 1.23828 6.91414C1.23881 6.88423 1.23991 6.85426 1.24316 6.8243C1.24378 6.81859 1.2444 6.81243 1.24512 6.80672L1.97363 1.00985L1.99219 0.90926C2.1061 0.415689 2.57737 0.0782201 3.09082 0.142659C3.6042 0.207345 3.9776 0.650943 3.96582 1.15731L3.95801 1.25985L3.69531 3.3409C4.83896 2.24404 6.19668 1.37407 7.7002 0.796956Z" fill="#A77D3E"/>
<path d="M12 6.00496C12.5522 6.00496 12.9998 6.45281 13 7.00496V11.5909L16.707 15.2979L16.7754 15.3741C17.0957 15.7668 17.073 16.3459 16.707 16.712C16.3409 17.0781 15.7619 17.1007 15.3691 16.7804L15.293 16.712L11.293 12.712C11.1055 12.5245 11 12.2701 11 12.005V7.00496C11.0002 6.45281 11.4478 6.00496 12 6.00496Z" fill="#A77D3E"/>
</svg>
