<svg width="24" height="24" viewBox="0 0 24 24" fill="none" xmlns="http://www.w3.org/2000/svg">
<path d="M15 15C15.5523 15 16 15.4477 16 16V23C16 23.5523 15.5523 24 15 24C14.4477 24 14 23.5523 14 23V16C14 15.4477 14.4477 15 15 15Z" fill="#A77D3E"/>
<path d="M3 15C3.55228 15 4 15.4477 4 16V21C4 21.5523 3.55228 22 3 22C2.44772 22 2 21.5523 2 21V16C2 15.4477 2.44772 15 3 15Z" fill="#A77D3E"/>
<path d="M21 15C21.5523 15 22 15.4477 22 16V21C22 21.5523 21.5523 22 21 22C20.4477 22 20 21.5523 20 21V16C20 15.4477 20.4477 15 21 15Z" fill="#A77D3E"/>
<path d="M9 15C9.55229 15 10 15.4477 10 16V19C10 19.5523 9.55229 20 9 20C8.44771 20 8 19.5523 8 19V16C8 15.4477 8.44771 15 9 15Z" fill="#A77D3E"/>
<path fill-rule="evenodd" clip-rule="evenodd" d="M14.1719 0C14.9674 7.99888e-05 15.7304 0.316368 16.293 0.878906L21.1211 5.70703L21.3203 5.92676C21.7578 6.46058 21.9999 7.13187 22 7.82812V11H23C23.5523 11 24 11.4477 24 12C24 12.5523 23.5523 13 23 13H1C0.447715 13 0 12.5523 0 12C0 11.4477 0.447715 11 1 11H2V3C2 1.34315 3.34315 3.22128e-08 5 0H14.1719ZM5 2C4.44772 2 4 2.44772 4 3V11H20V8H16C14.8954 8 14 7.10457 14 6V2H5ZM16 6H18.5859L16 3.41406V6Z" fill="#A77D3E"/>
</svg>
