<svg width="24" height="24" viewBox="0 0 24 24" fill="none" xmlns="http://www.w3.org/2000/svg">
<path d="M15 19C15.5523 19 16 19.4477 16 20C16 22.2091 14.2091 24 12 24C9.79086 24 8 22.2091 8 20C8 19.4477 8.44771 19 9 19C9.55229 19 10 19.4477 10 20C10 21.1046 10.8954 22 12 22C13.1046 22 14 21.1046 14 20C14 19.4477 14.4477 19 15 19Z" fill="#A77D3E"/>
<path fill-rule="evenodd" clip-rule="evenodd" d="M12 0C16.9706 0 21 4.02944 21 9V11.5586C21 11.9889 21.2754 12.3707 21.6836 12.5068L22.124 12.6543C23.2443 13.0277 24 14.076 24 15.2568C23.9999 16.7718 22.7718 17.9999 21.2568 18H2.74316C1.22822 17.9999 0.000136388 16.7718 0 15.2568C0 14.076 0.75573 13.0277 1.87598 12.6543L2.31641 12.5068C2.72457 12.3707 2.99995 11.9889 3 11.5586V9C3 4.02944 7.02944 0 12 0ZM12 2C8.13401 2 5 5.13401 5 9V11.5586C4.99995 12.8498 4.17323 13.996 2.94824 14.4043L2.50879 14.5518C2.20522 14.6529 2 14.9368 2 15.2568C2.00014 15.6672 2.33279 15.9999 2.74316 16H21.2568C21.6672 15.9999 21.9999 15.6672 22 15.2568C22 14.9368 21.7948 14.6529 21.4912 14.5518L21.0518 14.4043C19.8268 13.996 19 12.8498 19 11.5586V9C19 5.13401 15.866 2 12 2Z" fill="#A77D3E"/>
</svg>
