<svg width="24" height="24" viewBox="0 0 24 24" fill="none" xmlns="http://www.w3.org/2000/svg">
<path fill-rule="evenodd" clip-rule="evenodd" d="M10 0C17.732 0 24 6.26801 24 14C24 17.4009 22.7857 20.5207 20.7686 22.9463C20.4156 23.3707 19.786 23.4289 19.3613 23.0762L16.2393 20.4834C14.6222 22.0398 12.4233 23 10 23C5.02944 23 1 18.9706 1 14C1 9.36751 4.50014 5.55417 9 5.05664V1L9.00488 0.897461C9.05621 0.393331 9.48232 0 10 0ZM9 7.07227C5.6078 7.55758 3 10.4736 3 14C3 17.866 6.13401 21 10 21C11.8038 21 13.4456 20.316 14.6875 19.1943L9.36133 14.7695C9.13263 14.5795 9 14.2973 9 14V7.07227ZM11 13.5303L19.8369 20.8721C21.1997 18.9253 22 16.5574 22 14C22 7.70933 17.1595 2.54916 11 2.04102V13.5303Z" fill="#A77D3E"/>
</svg>
