<svg width="24" height="24" viewBox="0 0 24 24" fill="none" xmlns="http://www.w3.org/2000/svg">
<path d="M12 12C14.2091 12 16 13.7909 16 16V16.167C15.9998 16.627 15.627 16.9998 15.167 17H8.83301C8.37303 16.9998 8.00018 16.627 8 16.167V16C8 13.7909 9.79086 12 12 12Z" fill="#A77D3E"/>
<path d="M12 7C13.1046 7 14 7.89543 14 9C14 10.1046 13.1046 11 12 11C10.8954 11 10 10.1046 10 9C10 7.89543 10.8954 7 12 7Z" fill="#A77D3E"/>
<path fill-rule="evenodd" clip-rule="evenodd" d="M17.25 1C18.8904 1 20 2.47233 20 4V20C20 21.5277 18.8904 23 17.25 23H6.75C5.10958 23 4 21.5277 4 20V4C4 2.47232 5.10958 1 6.75 1H17.25ZM6.75 3C6.45666 3 6 3.31768 6 4V20C6 20.6823 6.45666 21 6.75 21H17.25C17.5434 21 18 20.6823 18 20V4C18 3.31767 17.5434 3 17.25 3H6.75Z" fill="#A77D3E"/>
<path d="M1 3C1.55228 3 2 3.44772 2 4V20C2 20.5523 1.55228 21 1 21C0.447715 21 0 20.5523 0 20V4C0 3.44772 0.447715 3 1 3Z" fill="#A77D3E"/>
<path d="M23 3C23.5523 3 24 3.44772 24 4V20C24 20.5523 23.5523 21 23 21C22.4477 21 22 20.5523 22 20V4C22 3.44772 22.4477 3 23 3Z" fill="#A77D3E"/>
</svg>
