<svg width="24" height="24" viewBox="0 0 24 24" fill="none" xmlns="http://www.w3.org/2000/svg">
<path d="M2 20C3.10457 20 4 20.8954 4 22C4 23.1046 3.10457 24 2 24C0.89543 24 0 23.1046 0 22C0 20.8954 0.89543 20 2 20Z" fill="#A77D3E"/>
<path d="M12 20C13.1046 20 14 20.8954 14 22C14 23.1046 13.1046 24 12 24C10.8954 24 10 23.1046 10 22C10 20.8954 10.8954 20 12 20Z" fill="#A77D3E"/>
<path d="M22 20C23.1046 20 24 20.8954 24 22C24 23.1046 23.1046 24 22 24C20.8954 24 20 23.1046 20 22C20 20.8954 20.8954 20 22 20Z" fill="#A77D3E"/>
<path d="M2 10C3.10457 10 4 10.8954 4 12C4 13.1046 3.10457 14 2 14C0.89543 14 0 13.1046 0 12C0 10.8954 0.89543 10 2 10Z" fill="#A77D3E"/>
<path d="M12 10C13.1046 10 14 10.8954 14 12C14 13.1046 13.1046 14 12 14C10.8954 14 10 13.1046 10 12C10 10.8954 10.8954 10 12 10Z" fill="#A77D3E"/>
<path d="M22 10C23.1046 10 24 10.8954 24 12C24 13.1046 23.1046 14 22 14C20.8954 14 20 13.1046 20 12C20 10.8954 20.8954 10 22 10Z" fill="#A77D3E"/>
<path d="M2 0C3.10457 0 4 0.89543 4 2C4 3.10457 3.10457 4 2 4C0.89543 4 0 3.10457 0 2C0 0.89543 0.89543 0 2 0Z" fill="#A77D3E"/>
<path d="M12 0C13.1046 0 14 0.89543 14 2C14 3.10457 13.1046 4 12 4C10.8954 4 10 3.10457 10 2C10 0.89543 10.8954 0 12 0Z" fill="#A77D3E"/>
<path d="M22 0C23.1046 0 24 0.89543 24 2C24 3.10457 23.1046 4 22 4C20.8954 4 20 3.10457 20 2C20 0.89543 20.8954 0 22 0Z" fill="#A77D3E"/>
</svg>
