<svg width="24" height="24" viewBox="0 0 24 24" fill="none" xmlns="http://www.w3.org/2000/svg">
<path d="M22 12.3281C21.9999 12.0961 21.9193 11.8722 21.7734 11.6943L21.707 11.6211L12.707 2.62109C12.341 2.25517 11.7619 2.23256 11.3691 2.55273L11.293 2.62109L2.29297 11.6211C2.1055 11.8086 2.00008 12.063 2 12.3281V21C2 21.5523 2.44772 22 3 22H7V17C7 15.3431 8.34315 14 10 14H14C15.6569 14 17 15.3431 17 17V22H21C21.5523 22 22 21.5523 22 21V12.3281ZM24 21C24 22.6569 22.6569 24 21 24H16C15.4477 24 15 23.5523 15 23V17C15 16.4477 14.5523 16 14 16H10C9.44772 16 9 16.4477 9 17V23C9 23.5523 8.55229 24 8 24H3C1.34315 24 1.12745e-07 22.6569 0 21V12.3281C8.00145e-05 11.5326 0.316369 10.7696 0.878906 10.207L9.87891 1.20703L9.99023 1.10059C11.1678 0.0364738 12.9861 0.0721732 14.1211 1.20703L23.1211 10.207L23.3203 10.4268C23.7578 10.9606 23.9999 11.6319 24 12.3281V21Z" fill="#A77D3E"/>
</svg>
