<svg width="24" height="24" viewBox="0 0 24 24" fill="none" xmlns="http://www.w3.org/2000/svg">
<path d="M14.3164 1.2978C15.2494 0.723473 16.4297 0.701234 17.3887 1.25483L18.6113 1.96089L18.7979 2.07808C19.6435 2.65274 20.1391 3.62047 20.1104 4.64253L20.0957 4.86226L19.8291 7.47554L22.2314 8.55757L22.4287 8.65522C23.3913 9.17648 24 10.1866 24 11.2929V12.707L23.9912 12.9267C23.9166 13.9457 23.3271 14.8582 22.4287 15.3447L22.2314 15.4423L19.832 16.5224L20.0967 19.1396L20.1104 19.3593C20.1383 20.3808 19.6432 21.3477 18.7979 21.9218L18.6113 22.039L17.3867 22.746C16.4286 23.2988 15.2499 23.277 14.3174 22.7041L14.1338 22.582L11.9961 21.0429L9.86621 22.58C8.96817 23.2277 7.79195 23.3256 6.80566 22.8486L6.61133 22.7451L5.38867 22.039C4.36589 21.4484 3.78392 20.3126 3.90332 19.1376L4.16895 16.5234L1.76855 15.4423C0.75987 14.9881 0.088 14.0193 0.0078125 12.9277L0 12.707V11.2929C0.000160396 10.1128 0.692486 9.0421 1.76855 8.55757L4.16699 7.47749L3.90332 4.86128C3.78482 3.68708 4.36578 2.55212 5.3877 1.96186L6.6123 1.25483L6.80664 1.15132C7.79215 0.67465 8.96735 0.771503 9.86523 1.41792L12.002 2.95698L14.1328 1.41987L14.3164 1.2978ZM12 7.99995C9.79086 7.99995 8 9.79081 8 12C8 14.2091 9.79086 16 12 16C14.2091 16 16 14.2091 16 12C16 9.79081 14.2091 7.99995 12 7.99995ZM12 9.99995C13.1046 9.99995 14 10.8954 14 12C14 13.1045 13.1046 14 12 14C10.8954 14 10 13.1045 10 12C10 10.8954 10.8954 9.99995 12 9.99995Z" fill="#A77D3E"/>
</svg>
