<svg width="24" height="24" viewBox="0 0 24 24" fill="none" xmlns="http://www.w3.org/2000/svg">
<path fill-rule="evenodd" clip-rule="evenodd" d="M14.1494 14.1494L8.77441 15.2246L9.84961 9.84961L15.2246 8.77441L14.1494 14.1494ZM12 11C11.4477 11 11 11.4477 11 12C11 12.5523 11.4477 13 12 13C12.5523 13 13 12.5523 13 12C13 11.4477 12.5523 11 12 11Z" fill="#A77D3E"/>
<path fill-rule="evenodd" clip-rule="evenodd" d="M12 0C18.6274 0 24 5.37258 24 12C24 18.6274 18.6274 24 12 24C5.37258 24 0 18.6274 0 12C1.28855e-07 5.37258 5.37258 1.28851e-07 12 0ZM16.4268 6.50293L16.3037 6.51953L8.80371 8.01953C8.4573 8.08889 8.17715 8.33454 8.05957 8.66016L8.01953 8.80371L6.51953 16.3037C6.45396 16.6316 6.55656 16.9706 6.79297 17.207C7.02939 17.4434 7.36844 17.546 7.69629 17.4805L15.1963 15.9805C15.592 15.9012 15.9012 15.592 15.9805 15.1963L17.4805 7.69629L17.4971 7.57324C17.5182 7.28536 17.414 6.99993 17.207 6.79297C17.0001 6.58602 16.7146 6.48175 16.4268 6.50293Z" fill="#A77D3E"/>
</svg>
