<svg width="24" height="24" viewBox="0 0 24 24" fill="none" xmlns="http://www.w3.org/2000/svg">
<path d="M24 21C24 22.6569 22.6569 24 21 24H16C15.4477 24 15 23.5523 15 23V17C15 16.4477 14.5523 16 14 16H10C9.44772 16 9 16.4477 9 17V23C9 23.5523 8.55229 24 8 24H3C1.34315 24 1.12745e-07 22.6569 0 21V12.3281C8.00145e-05 11.5326 0.316369 10.7696 0.878906 10.207L9.87891 1.20703L9.99023 1.10058C11.1678 0.0364714 12.9861 0.0721709 14.1211 1.20703L23.1211 10.207L23.3203 10.4268C23.7578 10.9606 23.9999 11.6319 24 12.3281V21Z" fill="#A77D3E"/>
</svg>
