<svg width="24" height="24" viewBox="0 0 24 24" fill="none" xmlns="http://www.w3.org/2000/svg">
<path d="M11 19C11.5523 19 12 19.4477 12 20C12 20.5523 11.5523 21 11 21H1C0.447715 21 0 20.5523 0 20C0 19.4477 0.447715 19 1 19H11Z" fill="#A77D3E"/>
<path d="M23 11C23.5523 11 24 11.4477 24 12C24 12.5523 23.5523 13 23 13H1C0.447715 13 0 12.5523 0 12C0 11.4477 0.447715 11 1 11H23Z" fill="#A77D3E"/>
<path d="M19 3C19.5523 3 20 3.44772 20 4C20 4.55228 19.5523 5 19 5H1C0.447715 5 0 4.55228 0 4C0 3.44772 0.447715 3 1 3H19Z" fill="#A77D3E"/>
</svg>
