<svg width="24" height="24" viewBox="0 0 24 24" fill="none" xmlns="http://www.w3.org/2000/svg">
<path fill-rule="evenodd" clip-rule="evenodd" d="M8 13C9.65685 13 11 14.3431 11 16V21C11 22.6569 9.65685 24 8 24H3C1.34315 24 8.05319e-09 22.6569 0 21V16C0 14.3431 1.34315 13 3 13H8ZM3 15C2.44772 15 2 15.4477 2 16V21C2 21.5523 2.44772 22 3 22H8C8.55229 22 9 21.5523 9 21V16C9 15.4477 8.55228 15 8 15H3Z" fill="#A77D3E"/>
<path fill-rule="evenodd" clip-rule="evenodd" d="M21 13C22.6569 13 24 14.3431 24 16V21C24 22.6569 22.6569 24 21 24H16C14.3431 24 13 22.6569 13 21V16C13 14.3431 14.3431 13 16 13H21ZM16 15C15.4477 15 15 15.4477 15 16V21C15 21.5523 15.4477 22 16 22H21C21.5523 22 22 21.5523 22 21V16C22 15.4477 21.5523 15 21 15H16Z" fill="#A77D3E"/>
<path fill-rule="evenodd" clip-rule="evenodd" d="M8 0C9.65685 0 11 1.34315 11 3V8C11 9.65685 9.65685 11 8 11H3C1.34315 11 8.05319e-09 9.65685 0 8V3C0 1.34315 1.34315 8.05319e-09 3 0H8ZM3 2C2.44772 2 2 2.44772 2 3V8C2 8.55229 2.44772 9 3 9H8C8.55229 9 9 8.55228 9 8V3C9 2.44772 8.55228 2 8 2H3Z" fill="#A77D3E"/>
<path fill-rule="evenodd" clip-rule="evenodd" d="M21 0C22.6569 0 24 1.34315 24 3V8C24 9.65685 22.6569 11 21 11H16C14.3431 11 13 9.65685 13 8V3C13 1.34315 14.3431 8.05319e-09 16 0H21ZM16 2C15.4477 2 15 2.44772 15 3V8C15 8.55229 15.4477 9 16 9H21C21.5523 9 22 8.55228 22 8V3C22 2.44772 21.5523 2 21 2H16Z" fill="#A77D3E"/>
</svg>
