<svg width="24" height="24" viewBox="0 0 24 24" fill="none" xmlns="http://www.w3.org/2000/svg">
<path d="M12 11C12.5523 11 13 11.4477 13 12C13 12.5523 12.5523 13 12 13C11.4477 13 11 12.5523 11 12C11 11.4477 11.4477 11 12 11Z" fill="#A77D3E"/>
<path fill-rule="evenodd" clip-rule="evenodd" d="M16.4268 6.50293C16.7146 6.48175 17.0001 6.58602 17.207 6.79297C17.414 6.99993 17.5182 7.28536 17.4971 7.57324L17.4805 7.69629L15.9805 15.1963C15.9012 15.592 15.592 15.9012 15.1963 15.9805L7.69629 17.4805C7.36844 17.546 7.02939 17.4434 6.79297 17.207C6.55656 16.9706 6.45396 16.6316 6.51953 16.3037L8.01953 8.80371L8.05957 8.66016C8.17715 8.33454 8.4573 8.08889 8.80371 8.01953L16.3037 6.51953L16.4268 6.50293ZM9.84961 9.84961L8.77441 15.2246L14.1494 14.1494L15.2246 8.77441L9.84961 9.84961Z" fill="#A77D3E"/>
<path fill-rule="evenodd" clip-rule="evenodd" d="M12 0C18.6274 0 24 5.37258 24 12C24 18.6274 18.6274 24 12 24C5.37258 24 0 18.6274 0 12C1.28855e-07 5.37258 5.37258 1.28851e-07 12 0ZM12 2C6.47715 2 2 6.47715 2 12C2 17.5228 6.47715 22 12 22C17.5228 22 22 17.5228 22 12C22 6.47715 17.5228 2 12 2Z" fill="#A77D3E"/>
</svg>
