<svg width="24" height="24" viewBox="0 0 24 24" fill="none" xmlns="http://www.w3.org/2000/svg">
<path fill-rule="evenodd" clip-rule="evenodd" d="M12.0002 7.99977C14.2092 7.9999 16.0001 9.79082 16.0002 11.9998C16.0002 14.2088 14.2093 15.9996 12.0002 15.9998C9.79111 15.9998 8.00024 14.2089 8.00024 11.9998C8.00037 9.79074 9.79118 7.99977 12.0002 7.99977ZM12.0002 9.99977C10.8958 9.99977 10.0004 10.8953 10.0002 11.9998C10.0002 13.1043 10.8957 13.9998 12.0002 13.9998C13.1047 13.9996 14.0002 13.1043 14.0002 11.9998C14.0001 10.8954 13.1046 9.9999 12.0002 9.99977Z" fill="#A77D3E"/>
<path fill-rule="evenodd" clip-rule="evenodd" d="M14.3167 1.29762C15.2497 0.723275 16.4299 0.700994 17.3889 1.25466L18.6116 1.96071L18.7981 2.0779C19.6438 2.65256 20.1393 3.6203 20.1106 4.64235L20.0959 4.86208L19.8293 7.47536L22.2317 8.55739L22.429 8.65505C23.3916 9.1763 24.0002 10.1864 24.0002 11.2927V12.7068L23.9915 12.9265C23.9169 13.9456 23.3274 14.858 22.429 15.3445L22.2317 15.4422L19.8323 16.5222L20.0969 19.1394L20.1106 19.3591C20.1386 20.3807 19.6435 21.3475 18.7981 21.9216L18.6116 22.0388L17.387 22.7459C16.4288 23.2988 15.2503 23.2769 14.3176 22.7039L14.134 22.5818L11.9963 21.0427L9.86646 22.5799C8.96838 23.2277 7.79229 23.3254 6.80591 22.8484L6.61157 22.7449L5.38892 22.0388C4.36601 21.4482 3.78407 20.3126 3.90356 19.1375L4.16919 16.5232L1.7688 15.4422C0.759989 14.9879 0.0881937 14.0192 0.00805664 12.9275L0.000244141 12.7068V11.2927C0.00040455 10.1125 0.692576 9.04187 1.7688 8.55739L4.16724 7.47731L3.90356 4.8611C3.78505 3.6868 4.36586 2.5519 5.38794 1.96169L6.61255 1.25466L6.80688 1.15114C7.79242 0.674459 8.96759 0.771276 9.86548 1.41774L12.0022 2.9568L14.1331 1.41969L14.3167 1.29762ZM8.69653 3.04079C8.41737 2.83993 8.058 2.79836 7.74438 2.92262L7.61255 2.9861L6.38794 3.69313C6.04721 3.88985 5.85334 4.26848 5.89282 4.65993L6.22974 7.99391C6.27274 8.42176 6.0369 8.82909 5.64478 9.00563L2.59009 10.3816C2.23143 10.5431 2.0004 10.8994 2.00024 11.2927V12.7068L2.01099 12.8523C2.05997 13.1865 2.2761 13.4775 2.59009 13.6189L5.64771 14.9959C5.99101 15.1504 6.2142 15.4821 6.2356 15.8494L6.23267 16.0086L5.8938 19.3396C5.85397 19.7313 6.04796 20.1105 6.38892 20.3074L7.61157 21.0134L7.74243 21.0769C8.0566 21.2017 8.41705 21.1594 8.69653 20.9578L11.4124 18.9988L11.5481 18.9168C11.8769 18.7515 12.2757 18.7787 12.5813 18.9988L15.303 20.9588L15.427 21.0349C15.7268 21.1905 16.0887 21.1855 16.387 21.0134L17.6116 20.3064L17.7327 20.2244C17.9595 20.0448 18.0975 19.7752 18.1106 19.4861L18.1067 19.3396L17.7708 16.0066C17.7276 15.5787 17.9625 15.1705 18.3547 14.9939L21.4104 13.6189L21.5383 13.5496C21.7824 13.3937 21.9474 13.1388 21.9895 12.8523L22.0002 12.7068V11.2927L21.9895 11.1472C21.9474 10.8607 21.7824 10.6059 21.5383 10.45L21.4104 10.3806L18.3518 9.00368C17.9594 8.82693 17.7243 8.41914 17.7678 7.99098L18.1067 4.65993L18.1106 4.51344C18.0975 4.22432 17.9596 3.95383 17.7327 3.77419L17.6116 3.69313L16.3889 2.98708C16.0905 2.81483 15.7279 2.80981 15.428 2.96559L15.304 3.04176L12.5881 5.00075C12.2391 5.25252 11.7675 5.25229 11.4182 5.00075L8.69653 3.04079Z" fill="#A77D3E"/>
</svg>
