<svg width="24" height="24" viewBox="0 0 24 24" fill="none" xmlns="http://www.w3.org/2000/svg">
<path fill-rule="evenodd" clip-rule="evenodd" d="M0 5C0 2.23857 2.23857 0 5 0C7.76143 0 10 2.23857 10 5C10 7.76143 7.76143 10 5 10C2.23857 10 0 7.76143 0 5ZM5 2C3.34314 2 2 3.34314 2 5C2 6.65686 3.34314 8 5 8C6.65686 8 8 6.65686 8 5C8 3.34314 6.65686 2 5 2Z" fill="#A77D3E"/>
<path d="M22.7071 2.70711L2.70711 22.7071C2.31658 23.0976 1.68342 23.0976 1.29289 22.7071C0.902369 22.3166 0.902369 21.6834 1.29289 21.2929L21.2929 1.29289C21.6834 0.902369 22.3166 0.902369 22.7071 1.29289C23.0976 1.68342 23.0976 2.31658 22.7071 2.70711Z" fill="#A77D3E"/>
<path fill-rule="evenodd" clip-rule="evenodd" d="M19 14C16.2386 14 14 16.2386 14 19C14 21.7614 16.2386 24 19 24C21.7614 24 24 21.7614 24 19C24 16.2386 21.7614 14 19 14ZM16 19C16 17.3431 17.3431 16 19 16C20.6569 16 22 17.3431 22 19C22 20.6569 20.6569 22 19 22C17.3431 22 16 20.6569 16 19Z" fill="#A77D3E"/>
</svg>
