<svg width="24" height="24" viewBox="0 0 24 24" fill="none" xmlns="http://www.w3.org/2000/svg">
<path d="M20.2924 15.2932C20.6829 14.9027 21.3169 14.9027 21.7075 15.2932C22.0976 15.6837 22.0978 16.3168 21.7075 16.7073L19.9135 18.4993L21.7075 20.2932L21.7758 20.3684C22.0963 20.7611 22.0735 21.3411 21.7075 21.7073C21.3413 22.0734 20.7614 22.0961 20.3686 21.7756L20.2934 21.7073L18.4994 19.9133L16.7065 21.7073C16.3159 22.0974 15.6828 22.0977 15.2924 21.7073C14.9022 21.3169 14.9023 20.6837 15.2924 20.2932L17.0854 18.4993L15.2924 16.7073C14.9022 16.3169 14.9023 15.6837 15.2924 15.2932C15.6829 14.9027 16.3169 14.9027 16.7075 15.2932L18.4994 17.0852L20.2924 15.2932Z" fill="#A77D3E"/>
<path d="M5.29437 9.2932C5.68538 8.9023 6.31747 8.90223 6.70843 9.2932C7.09906 9.68419 7.09922 10.3164 6.70843 10.7073L2.29437 15.1213C1.90437 15.5123 1.90437 16.1454 2.29437 16.5364L5.46527 19.7073C5.85629 20.096 6.4894 20.0972 6.88031 19.7073L11.2944 15.2932C11.6854 14.9023 12.3175 14.9022 12.7084 15.2932C13.0991 15.6842 13.0992 16.3164 12.7084 16.7073L8.29437 21.1213C7.70946 21.7062 6.9392 21.9982 6.17132 21.9983C5.40344 21.9983 4.63617 21.7071 4.05121 21.1233L0.879331 17.9504C-0.290669 16.7804 -0.290669 14.8772 0.879331 13.7082L5.29437 9.2932Z" fill="#A77D3E"/>
<path d="M13.2934 7.2932C13.6844 6.90231 14.3165 6.90223 14.7075 7.2932C15.0981 7.68419 15.0982 8.31637 14.7075 8.70726L8.70746 14.7073C8.51257 14.9021 8.25628 15.0001 8.00042 15.0002C7.74457 15.0002 7.48835 14.902 7.29339 14.7073C6.90239 14.3163 6.90239 13.6842 7.29339 13.2932L13.2934 7.2932Z" fill="#A77D3E"/>
<path d="M13.7075 0.879136C14.8764 -0.289672 16.7777 -0.291697 17.9487 0.877183L21.1205 4.05003C22.2905 5.22003 22.2905 7.12322 21.1205 8.29222L16.7055 12.7073C16.5107 12.9019 16.2561 13.0001 16.0004 13.0002C15.7446 13.0002 15.4884 12.902 15.2934 12.7073C14.9024 12.3163 14.9024 11.6842 15.2934 11.2932L19.7075 6.87914C20.0972 6.48822 20.0971 5.85506 19.7075 5.4641L16.5356 2.2932C16.1456 1.9063 15.5125 1.90423 15.1205 2.2932L10.7075 6.70726C10.3166 7.09815 9.68442 7.09792 9.29339 6.70726C8.90239 6.31626 8.90239 5.6842 9.29339 5.2932L13.7075 0.879136Z" fill="#A77D3E"/>
</svg>
